<svg width="17" height="36" viewBox="0 0 17 36" fill="none" xmlns="http://www.w3.org/2000/svg">
<mask id="path-1-outside-1_669_140" maskUnits="userSpaceOnUse" x="-1" y="-1" width="19" height="38" fill="black">
<rect fill="white" x="-1" y="-1" width="19" height="38"/>
<path d="M16.3924 0.363635V36H8.85796V7.51527H8.64915L0.488281 12.631V5.94922L9.31037 0.363635H16.3924Z"/>
</mask>
<path d="M16.3924 0.363635V36H8.85796V7.51527H8.64915L0.488281 12.631V5.94922L9.31037 0.363635H16.3924Z" fill="#6486FF"/>
<path d="M16.3924 0.363636H17.3924V-0.636365H16.3924V0.363636ZM16.3924 36V37H17.3924V36H16.3924ZM8.85795 36H7.85795V37H8.85795V36ZM8.85795 7.51527H9.85795V6.51527H8.85795V7.51527ZM8.64915 7.51527V6.51527H8.36163L8.11801 6.66798L8.64915 7.51527ZM0.488281 12.631H-0.511719V14.4381L1.01942 13.4783L0.488281 12.631ZM0.488281 5.94922L-0.046652 5.10432L-0.511719 5.39878V5.94922H0.488281ZM9.31037 0.363636V-0.636365H9.02042L8.77544 -0.481259L9.31037 0.363636ZM15.3924 0.363636V36H17.3924V0.363636H15.3924ZM16.3924 35H8.85795V37H16.3924V35ZM9.85795 36V7.51527H7.85795V36H9.85795ZM8.85795 6.51527H8.64915V8.51527H8.85795V6.51527ZM8.11801 6.66798L-0.0428541 11.7837L1.01942 13.4783L9.18028 8.36255L8.11801 6.66798ZM1.48828 12.631V5.94922H-0.511719V12.631H1.48828ZM1.02321 6.79411L9.8453 1.20853L8.77544 -0.481259L-0.046652 5.10432L1.02321 6.79411ZM9.31037 1.36364H16.3924V-0.636365H9.31037V1.36364Z" fill="#001C65" mask="url(#path-1-outside-1_669_140)"/>
</svg>
