<svg width="55" height="38" viewBox="0 0 55 38" fill="none" xmlns="http://www.w3.org/2000/svg">
<mask id="path-1-outside-1_886_12" maskUnits="userSpaceOnUse" x="-1" y="-1" width="57" height="40" fill="black">
<rect fill="white" x="-1" y="-1" width="57" height="40"/>
<path d="M16.3924 1.36364V37H8.85796V8.51527H8.64915L0.488281 13.631V6.94922L9.31037 1.36364H16.3924ZM39.8638 37.783C36.8709 37.7714 34.2956 37.0348 32.1379 35.5732C29.9919 34.1115 28.3388 31.9944 27.1788 29.2219C26.0303 26.4495 25.4619 23.1143 25.4735 19.2166C25.4735 15.3305 26.0477 12.0186 27.1962 9.28089C28.3562 6.5432 30.0093 4.46094 32.1553 3.03409C34.313 1.59564 36.8825 0.876419 39.8638 0.876419C42.8451 0.876419 45.4088 1.59564 47.5548 3.03409C49.7125 4.47254 51.3714 6.5606 52.5314 9.29829C53.6914 12.0244 54.2657 15.3305 54.2541 19.2166C54.2541 23.1259 53.674 26.4669 52.514 29.2393C51.3656 32.0118 49.7183 34.1289 47.5722 35.5906C45.4262 37.0522 42.8567 37.783 39.8638 37.783ZM39.8638 31.5362C41.9054 31.5362 43.5353 30.5096 44.7533 28.4563C45.9714 26.4031 46.5746 23.3232 46.563 19.2166C46.563 16.5137 46.2846 14.2633 45.7278 12.4652C45.1826 10.6671 44.4053 9.31569 43.3961 8.41086C42.3985 7.50604 41.221 7.05362 39.8638 7.05362C37.8337 7.05362 36.2097 8.06866 34.9916 10.0987C33.7736 12.1288 33.1588 15.1681 33.1472 19.2166C33.1472 21.9543 33.4198 24.2396 33.965 26.0724C34.5218 27.8937 35.3048 29.2625 36.3141 30.179C37.3233 31.0838 38.5065 31.5362 39.8638 31.5362Z"/>
</mask>
<path d="M16.3924 1.36364V37H8.85796V8.51527H8.64915L0.488281 13.631V6.94922L9.31037 1.36364H16.3924ZM39.8638 37.783C36.8709 37.7714 34.2956 37.0348 32.1379 35.5732C29.9919 34.1115 28.3388 31.9944 27.1788 29.2219C26.0303 26.4495 25.4619 23.1143 25.4735 19.2166C25.4735 15.3305 26.0477 12.0186 27.1962 9.28089C28.3562 6.5432 30.0093 4.46094 32.1553 3.03409C34.313 1.59564 36.8825 0.876419 39.8638 0.876419C42.8451 0.876419 45.4088 1.59564 47.5548 3.03409C49.7125 4.47254 51.3714 6.5606 52.5314 9.29829C53.6914 12.0244 54.2657 15.3305 54.2541 19.2166C54.2541 23.1259 53.674 26.4669 52.514 29.2393C51.3656 32.0118 49.7183 34.1289 47.5722 35.5906C45.4262 37.0522 42.8567 37.783 39.8638 37.783ZM39.8638 31.5362C41.9054 31.5362 43.5353 30.5096 44.7533 28.4563C45.9714 26.4031 46.5746 23.3232 46.563 19.2166C46.563 16.5137 46.2846 14.2633 45.7278 12.4652C45.1826 10.6671 44.4053 9.31569 43.3961 8.41086C42.3985 7.50604 41.221 7.05362 39.8638 7.05362C37.8337 7.05362 36.2097 8.06866 34.9916 10.0987C33.7736 12.1288 33.1588 15.1681 33.1472 19.2166C33.1472 21.9543 33.4198 24.2396 33.965 26.0724C34.5218 27.8937 35.3048 29.2625 36.3141 30.179C37.3233 31.0838 38.5065 31.5362 39.8638 31.5362Z" fill="#6486FF"/>
<path d="M16.3924 1.36364H17.3924V0.363635H16.3924V1.36364ZM16.3924 37V38H17.3924V37H16.3924ZM8.85796 37H7.85796V38H8.85796V37ZM8.85796 8.51527H9.85796V7.51527H8.85796V8.51527ZM8.64915 8.51527V7.51527H8.36163L8.11801 7.66798L8.64915 8.51527ZM0.488281 13.631H-0.511719V15.4381L1.01942 14.4783L0.488281 13.631ZM0.488281 6.94922L-0.0466519 6.10432L-0.511719 6.39878V6.94922H0.488281ZM9.31037 1.36364V0.363635H9.02042L8.77544 0.518741L9.31037 1.36364ZM15.3924 1.36364V37H17.3924V1.36364H15.3924ZM16.3924 36H8.85796V38H16.3924V36ZM9.85796 37V8.51527H7.85796V37H9.85796ZM8.85796 7.51527H8.64915V9.51527H8.85796V7.51527ZM8.11801 7.66798L-0.042854 12.7837L1.01942 14.4783L9.18028 9.36256L8.11801 7.66798ZM1.48828 13.631V6.94922H-0.511719V13.631H1.48828ZM1.02321 7.79411L9.8453 2.20853L8.77544 0.518741L-0.0466519 6.10432L1.02321 7.79411ZM9.31037 2.36364H16.3924V0.363635H9.31037V2.36364ZM39.8638 37.783L39.8599 38.783H39.8638V37.783ZM32.1379 35.5732L31.575 36.3997L31.5771 36.4011L32.1379 35.5732ZM27.1788 29.2219L26.2549 29.6046L26.2563 29.6079L27.1788 29.2219ZM25.4735 19.2166L26.4735 19.2196V19.2166H25.4735ZM27.1962 9.28089L26.2754 8.89074L26.274 8.89406L27.1962 9.28089ZM32.1553 3.03409L32.709 3.86683L32.71 3.86614L32.1553 3.03409ZM47.5548 3.03409L46.9981 3.86476L47.0001 3.86614L47.5548 3.03409ZM52.5314 9.29829L51.6106 9.68844L51.6112 9.68985L52.5314 9.29829ZM54.2541 19.2166L53.2541 19.2136V19.2166H54.2541ZM52.514 29.2393L51.5915 28.8534L51.5901 28.8567L52.514 29.2393ZM47.5722 35.5906L48.1352 36.4171L48.1352 36.4171L47.5722 35.5906ZM44.7533 28.4563L45.6134 28.9665L45.6134 28.9665L44.7533 28.4563ZM46.563 19.2166L45.563 19.2166L45.563 19.2194L46.563 19.2166ZM45.7278 12.4652L44.7708 12.7554L44.7725 12.761L45.7278 12.4652ZM43.3961 8.41086L42.7243 9.1516L42.7286 9.15543L43.3961 8.41086ZM34.9916 10.0987L34.1341 9.58423L34.1341 9.58423L34.9916 10.0987ZM33.1472 19.2166L32.1472 19.2138V19.2166H33.1472ZM33.965 26.0724L33.0065 26.3576L33.0087 26.3648L33.965 26.0724ZM36.3141 30.179L35.6418 30.9193L35.6465 30.9235L36.3141 30.179ZM39.8677 36.783C37.043 36.7721 34.6686 36.0796 32.6988 34.7452L31.5771 36.4011C33.9226 37.99 36.6987 38.7708 39.8599 38.783L39.8677 36.783ZM32.7009 34.7466C30.7387 33.4103 29.1986 31.4587 28.1013 28.836L26.2563 29.6079C27.479 32.5302 29.245 34.8127 31.575 36.3997L32.7009 34.7466ZM28.1026 28.8393C27.0175 26.2196 26.4622 23.0227 26.4735 19.2196L24.4735 19.2136C24.4616 23.206 25.0431 26.6793 26.2549 29.6046L28.1026 28.8393ZM26.4735 19.2166C26.4735 15.4243 27.0345 12.2514 28.1183 9.66773L26.274 8.89406C25.061 11.7857 24.4735 15.2367 24.4735 19.2166H26.4735ZM28.1169 9.67104C29.2126 7.0852 30.7499 5.16935 32.709 3.86683L31.6017 2.20135C29.2686 3.75253 27.4998 6.00121 26.2754 8.89074L28.1169 9.67104ZM32.71 3.86614C34.6799 2.55292 37.0495 1.87642 39.8638 1.87642V-0.123581C36.7154 -0.123581 33.9461 0.638362 31.6006 2.20204L32.71 3.86614ZM39.8638 1.87642C42.6782 1.87642 45.041 2.55296 46.9981 3.86476L48.1116 2.20343C45.7766 0.638324 43.012 -0.123581 39.8638 -0.123581V1.87642ZM47.0001 3.86614C48.9724 5.18096 50.5154 7.10355 51.6106 9.68844L53.4521 8.90814C52.2274 6.01766 50.4526 3.76411 48.1095 2.20204L47.0001 3.86614ZM51.6112 9.68985C52.7044 12.2588 53.2654 15.4228 53.2541 19.2136L55.254 19.2196C55.2659 15.2382 54.6784 11.7899 53.4516 8.90674L51.6112 9.68985ZM53.2541 19.2166C53.2541 23.0314 52.6875 26.2339 51.5915 28.8534L53.4365 29.6253C54.6606 26.6998 55.2541 23.2205 55.2541 19.2166H53.2541ZM51.5901 28.8567C50.5043 31.4779 48.9705 33.4283 47.0093 34.764L48.1352 36.4171C50.4661 34.8295 52.2268 32.5457 53.4379 29.622L51.5901 28.8567ZM47.0093 34.764C45.0535 36.0961 42.6874 36.783 39.8638 36.783V38.783C43.0259 38.783 45.7988 38.0083 48.1352 36.4171L47.0093 34.764ZM39.8638 32.5362C42.324 32.5362 44.2514 31.2625 45.6134 28.9665L43.8933 27.9461C42.8193 29.7566 41.4869 30.5362 39.8638 30.5362V32.5362ZM45.6134 28.9665C46.9681 26.6828 47.5748 23.3868 47.563 19.2138L45.563 19.2194C45.5744 23.2595 44.9746 26.1233 43.8933 27.9461L45.6134 28.9665ZM47.563 19.2166C47.563 16.4532 47.2793 14.095 46.683 12.1694L44.7725 12.761C45.2898 14.4315 45.563 16.5743 45.563 19.2166H47.563ZM46.6847 12.175C46.1061 10.2666 45.252 8.73167 44.0636 7.66629L42.7286 9.15543C43.5587 9.89971 44.259 11.0676 44.7708 12.7554L46.6847 12.175ZM44.0679 7.67014C42.8847 6.59704 41.4673 6.05362 39.8638 6.05362V8.05362C40.9748 8.05362 41.9122 8.41503 42.7243 9.15158L44.0679 7.67014ZM39.8638 6.05362C37.4185 6.05362 35.4974 7.31216 34.1341 9.58423L35.8491 10.6132C36.922 8.82515 38.2489 8.05362 39.8638 8.05362V6.05362ZM34.1341 9.58423C32.7788 11.8431 32.159 15.0975 32.1472 19.2138L34.1472 19.2195C34.1586 15.2386 34.7683 12.4145 35.8491 10.6132L34.1341 9.58423ZM32.1472 19.2166C32.1472 22.013 32.4247 24.4018 33.0065 26.3576L34.9235 25.7873C34.4148 24.0774 34.1472 21.8957 34.1472 19.2166H32.1472ZM33.0087 26.3648C33.5982 28.2931 34.4566 29.843 35.6418 30.9193L36.9863 29.4387C36.1531 28.6821 35.4454 27.4943 34.9213 25.7801L33.0087 26.3648ZM35.6465 30.9235C36.8395 31.9931 38.2605 32.5362 39.8638 32.5362V30.5362C38.7526 30.5362 37.8071 30.1745 36.9816 29.4344L35.6465 30.9235Z" fill="#001C65" mask="url(#path-1-outside-1_886_12)"/>
</svg>
