<svg width="42" height="36" viewBox="0 0 42 36" fill="none" xmlns="http://www.w3.org/2000/svg">
<mask id="path-1-outside-1_886_13" maskUnits="userSpaceOnUse" x="-1" y="-1" width="44" height="38" fill="black">
<rect fill="white" x="-1" y="-1" width="44" height="38"/>
<path d="M16.3924 0.363635V36H8.85796V7.51527H8.64915L0.488281 12.631V5.94922L9.31037 0.363635H16.3924ZM41.395 0.363635V36H33.8606V7.51527H33.6518L25.4909 12.631V5.94922L34.313 0.363635H41.395Z"/>
</mask>
<path d="M16.3924 0.363635V36H8.85796V7.51527H8.64915L0.488281 12.631V5.94922L9.31037 0.363635H16.3924ZM41.395 0.363635V36H33.8606V7.51527H33.6518L25.4909 12.631V5.94922L34.313 0.363635H41.395Z" fill="#6486FF"/>
<path d="M16.3924 0.363635H17.3924V-0.636365H16.3924V0.363635ZM16.3924 36V37H17.3924V36H16.3924ZM8.85796 36H7.85796V37H8.85796V36ZM8.85796 7.51527H9.85796V6.51527H8.85796V7.51527ZM8.64915 7.51527V6.51527H8.36163L8.11801 6.66798L8.64915 7.51527ZM0.488281 12.631H-0.511719V14.4381L1.01942 13.4783L0.488281 12.631ZM0.488281 5.94922L-0.0466519 5.10432L-0.511719 5.39878V5.94922H0.488281ZM9.31037 0.363635V-0.636365H9.02042L8.77544 -0.481259L9.31037 0.363635ZM15.3924 0.363635V36H17.3924V0.363635H15.3924ZM16.3924 35H8.85796V37H16.3924V35ZM9.85796 36V7.51527H7.85796V36H9.85796ZM8.85796 6.51527H8.64915V8.51527H8.85796V6.51527ZM8.11801 6.66798L-0.042854 11.7837L1.01942 13.4783L9.18028 8.36256L8.11801 6.66798ZM1.48828 12.631V5.94922H-0.511719V12.631H1.48828ZM1.02321 6.79411L9.8453 1.20853L8.77544 -0.481259L-0.0466519 5.10432L1.02321 6.79411ZM9.31037 1.36364H16.3924V-0.636365H9.31037V1.36364ZM41.395 0.363635H42.395V-0.636365H41.395V0.363635ZM41.395 36V37H42.395V36H41.395ZM33.8606 36H32.8606V37H33.8606V36ZM33.8606 7.51527H34.8606V6.51527H33.8606V7.51527ZM33.6518 7.51527V6.51527H33.3643L33.1206 6.66798L33.6518 7.51527ZM25.4909 12.631H24.4909V14.4381L26.022 13.4783L25.4909 12.631ZM25.4909 5.94922L24.956 5.10432L24.4909 5.39878V5.94922H25.4909ZM34.313 0.363635V-0.636365H34.023L33.7781 -0.481259L34.313 0.363635ZM40.395 0.363635V36H42.395V0.363635H40.395ZM41.395 35H33.8606V37H41.395V35ZM34.8606 36V7.51527H32.8606V36H34.8606ZM33.8606 6.51527H33.6518V8.51527H33.8606V6.51527ZM33.1206 6.66798L24.9598 11.7837L26.022 13.4783L34.1829 8.36256L33.1206 6.66798ZM26.4909 12.631V5.94922H24.4909V12.631H26.4909ZM26.0258 6.79411L34.8479 1.20853L33.7781 -0.481259L24.956 5.10432L26.0258 6.79411ZM34.313 1.36364H41.395V-0.636365H34.313V1.36364Z" fill="#001C65" mask="url(#path-1-outside-1_886_13)"/>
</svg>
