<svg width="52" height="37" viewBox="0 0 52 37" fill="none" xmlns="http://www.w3.org/2000/svg">
<mask id="path-1-outside-1_886_14" maskUnits="userSpaceOnUse" x="-1" y="-1" width="54" height="39" fill="black">
<rect fill="white" x="-1" y="-1" width="54" height="39"/>
<path d="M16.3924 1.36364V37H8.85796V8.51527H8.64915L0.488281 13.631V6.94922L9.31037 1.36364H16.3924ZM25.8911 37V31.571L38.5761 19.8256C39.655 18.7816 40.5598 17.842 41.2906 17.0067C42.0331 16.1715 42.5957 15.3537 42.9785 14.5533C43.3613 13.7412 43.5527 12.8654 43.5527 11.9258C43.5527 10.8817 43.3149 9.98272 42.8393 9.22869C42.3637 8.46307 41.714 7.87725 40.8904 7.47123C40.0668 7.05362 39.133 6.84482 38.0889 6.84482C36.9985 6.84482 36.0473 7.06522 35.2352 7.50604C34.4232 7.94685 33.7968 8.57907 33.356 9.4027C32.9152 10.2263 32.6947 11.2066 32.6947 12.3434H25.5431C25.5431 10.0117 26.0709 7.98745 27.1266 6.2706C28.1822 4.55374 29.6612 3.2255 31.5637 2.28586C33.4662 1.34623 35.6586 0.876419 38.1411 0.876419C40.6932 0.876419 42.9147 1.32883 44.8055 2.23366C46.708 3.12689 48.1871 4.36813 49.2427 5.95739C50.2983 7.54664 50.8261 9.3679 50.8261 11.4212C50.8261 12.7668 50.5593 14.0951 50.0257 15.4059C49.5037 16.7167 48.5699 18.1726 47.2242 19.7734C45.8786 21.3627 43.9819 23.271 41.5342 25.4982L36.3315 30.5966V30.8402H51.296V37H25.8911Z"/>
</mask>
<path d="M16.3924 1.36364V37H8.85796V8.51527H8.64915L0.488281 13.631V6.94922L9.31037 1.36364H16.3924ZM25.8911 37V31.571L38.5761 19.8256C39.655 18.7816 40.5598 17.842 41.2906 17.0067C42.0331 16.1715 42.5957 15.3537 42.9785 14.5533C43.3613 13.7412 43.5527 12.8654 43.5527 11.9258C43.5527 10.8817 43.3149 9.98272 42.8393 9.22869C42.3637 8.46307 41.714 7.87725 40.8904 7.47123C40.0668 7.05362 39.133 6.84482 38.0889 6.84482C36.9985 6.84482 36.0473 7.06522 35.2352 7.50604C34.4232 7.94685 33.7968 8.57907 33.356 9.4027C32.9152 10.2263 32.6947 11.2066 32.6947 12.3434H25.5431C25.5431 10.0117 26.0709 7.98745 27.1266 6.2706C28.1822 4.55374 29.6612 3.2255 31.5637 2.28586C33.4662 1.34623 35.6586 0.876419 38.1411 0.876419C40.6932 0.876419 42.9147 1.32883 44.8055 2.23366C46.708 3.12689 48.1871 4.36813 49.2427 5.95739C50.2983 7.54664 50.8261 9.3679 50.8261 11.4212C50.8261 12.7668 50.5593 14.0951 50.0257 15.4059C49.5037 16.7167 48.5699 18.1726 47.2242 19.7734C45.8786 21.3627 43.9819 23.271 41.5342 25.4982L36.3315 30.5966V30.8402H51.296V37H25.8911Z" fill="#6486FF"/>
<path d="M16.3924 1.36364H17.3924V0.363635H16.3924V1.36364ZM16.3924 37V38H17.3924V37H16.3924ZM8.85796 37H7.85796V38H8.85796V37ZM8.85796 8.51527H9.85796V7.51527H8.85796V8.51527ZM8.64915 8.51527V7.51527H8.36163L8.11801 7.66798L8.64915 8.51527ZM0.488281 13.631H-0.511719V15.4381L1.01942 14.4783L0.488281 13.631ZM0.488281 6.94922L-0.0466519 6.10432L-0.511719 6.39878V6.94922H0.488281ZM9.31037 1.36364V0.363635H9.02042L8.77544 0.518741L9.31037 1.36364ZM15.3924 1.36364V37H17.3924V1.36364H15.3924ZM16.3924 36H8.85796V38H16.3924V36ZM9.85796 37V8.51527H7.85796V37H9.85796ZM8.85796 7.51527H8.64915V9.51527H8.85796V7.51527ZM8.11801 7.66798L-0.042854 12.7837L1.01942 14.4783L9.18028 9.36256L8.11801 7.66798ZM1.48828 13.631V6.94922H-0.511719V13.631H1.48828ZM1.02321 7.79411L9.8453 2.20853L8.77544 0.518741L-0.0466519 6.10432L1.02321 7.79411ZM9.31037 2.36364H16.3924V0.363635H9.31037V2.36364ZM25.8911 37H24.8911V38H25.8911V37ZM25.8911 31.571L25.2117 30.8373L24.8911 31.1341V31.571H25.8911ZM38.5761 19.8256L39.2555 20.5594L39.2636 20.5519L39.2716 20.5442L38.5761 19.8256ZM41.2906 17.0067L40.5432 16.3424L40.5381 16.3482L41.2906 17.0067ZM42.9785 14.5533L43.8806 14.9847L43.883 14.9797L42.9785 14.5533ZM42.8393 9.22869L41.9898 9.75639L41.9935 9.7622L42.8393 9.22869ZM40.8904 7.47123L40.4382 8.36319L40.4483 8.36817L40.8904 7.47123ZM33.356 9.4027L34.2376 9.87457L34.2376 9.87457L33.356 9.4027ZM32.6947 12.3434V13.3434H33.6947V12.3434H32.6947ZM25.5431 12.3434H24.5431V13.3434H25.5431V12.3434ZM27.1266 6.2706L27.9784 6.79437L27.9784 6.79437L27.1266 6.2706ZM31.5637 2.28586L31.1209 1.38926L31.1209 1.38926L31.5637 2.28586ZM44.8055 2.23366L44.3739 3.13573L44.3805 3.13886L44.8055 2.23366ZM49.2427 5.95739L48.4097 6.51068L48.4097 6.51068L49.2427 5.95739ZM50.0257 15.4059L49.0995 15.0288L49.0967 15.0359L50.0257 15.4059ZM47.2242 19.7734L47.9874 20.4196L47.9897 20.4169L47.2242 19.7734ZM41.5342 25.4982L40.8612 24.7586L40.8475 24.771L40.8343 24.784L41.5342 25.4982ZM36.3315 30.5966L35.6316 29.8824L35.3315 30.1764V30.5966H36.3315ZM36.3315 30.8402H35.3315V31.8402H36.3315V30.8402ZM51.296 30.8402H52.296V29.8402H51.296V30.8402ZM51.296 37V38H52.296V37H51.296ZM26.8911 37V31.571H24.8911V37H26.8911ZM26.5705 32.3048L39.2555 20.5594L37.8967 19.0919L25.2117 30.8373L26.5705 32.3048ZM39.2716 20.5442C40.3639 19.4872 41.2891 18.5271 42.0432 17.6653L40.5381 16.3482C39.8305 17.1569 38.9461 18.076 37.8807 19.107L39.2716 20.5442ZM42.038 17.6711C42.8274 16.7831 43.4485 15.8882 43.8806 14.9847L42.0764 14.1218C41.7428 14.8192 41.2388 15.5599 40.5432 16.3424L42.038 17.6711ZM43.883 14.9797C44.3316 14.0281 44.5527 13.0058 44.5527 11.9258H42.5527C42.5527 12.725 42.391 13.4544 42.074 14.1268L43.883 14.9797ZM44.5527 11.9258C44.5527 10.7258 44.2776 9.6346 43.6851 8.69519L41.9935 9.7622C42.3522 10.3308 42.5527 11.0377 42.5527 11.9258H44.5527ZM43.6887 8.70101C43.1126 7.77355 42.3205 7.06129 41.3326 6.5743L40.4483 8.36817C41.1076 8.69321 41.6148 9.15259 41.9898 9.75638L43.6887 8.70101ZM41.3426 6.57933C40.3615 6.08185 39.2694 5.84482 38.0889 5.84482V7.84482C38.9965 7.84482 39.7721 8.02539 40.4382 8.36314L41.3426 6.57933ZM38.0889 5.84482C36.8619 5.84482 35.7409 6.09367 34.7581 6.62718L35.7123 8.38489C36.3536 8.03678 37.1351 7.84482 38.0889 7.84482V5.84482ZM34.7581 6.62718C33.7724 7.16231 33.0062 7.93695 32.4743 8.93082L34.2376 9.87457C34.5873 9.22119 35.074 8.73139 35.7123 8.38489L34.7581 6.62718ZM32.4743 8.93082C31.9407 9.92788 31.6947 11.0773 31.6947 12.3434H33.6947C33.6947 11.3358 33.8896 10.5248 34.2376 9.87457L32.4743 8.93082ZM32.6947 11.3434H25.5431V13.3434H32.6947V11.3434ZM26.5431 12.3434C26.5431 10.1671 27.034 8.33029 27.9784 6.79437L26.2747 5.74682C25.1078 7.64461 24.5431 9.85633 24.5431 12.3434H26.5431ZM27.9784 6.79437C28.9302 5.24644 30.2635 4.04339 32.0065 3.18247L31.1209 1.38926C29.059 2.4076 27.4342 3.86104 26.2747 5.74682L27.9784 6.79437ZM32.0065 3.18247C33.7497 2.32151 35.7862 1.87642 38.1411 1.87642V-0.123581C35.5311 -0.123581 33.1826 0.370962 31.1209 1.38926L32.0065 3.18247ZM38.1411 1.87642C40.5757 1.87642 42.6439 2.30785 44.3739 3.1357L45.2372 1.33162C43.1855 0.349819 40.8107 -0.123581 38.1411 -0.123581V1.87642ZM44.3805 3.13886C46.1347 3.96247 47.4654 5.08906 48.4097 6.51068L50.0757 5.40409C48.9087 3.64721 47.2813 2.29132 45.2305 1.32847L44.3805 3.13886ZM48.4097 6.51068C49.348 7.92335 49.8261 9.54904 49.8261 11.4212H51.8261C51.8261 9.18676 51.2486 7.16993 50.0757 5.40409L48.4097 6.51068ZM49.8261 11.4212C49.8261 12.6309 49.587 13.8315 49.0995 15.0289L50.9519 15.7829C51.5317 14.3587 51.8261 12.9027 51.8261 11.4212H49.8261ZM49.0967 15.0359C48.6283 16.2119 47.7655 17.5754 46.4587 19.13L47.9897 20.4169C49.3743 18.7697 50.3791 17.2215 50.9548 15.7759L49.0967 15.0359ZM46.461 19.1272C45.1547 20.6701 43.2931 22.5457 40.8612 24.7586L42.2073 26.2378C44.6707 23.9962 46.6024 22.0553 47.9874 20.4196L46.461 19.1272ZM40.8343 24.784L35.6316 29.8824L37.0314 31.3108L42.2341 26.2125L40.8343 24.784ZM35.3315 30.5966V30.8402H37.3315V30.5966H35.3315ZM36.3315 31.8402H51.296V29.8402H36.3315V31.8402ZM50.296 30.8402V37H52.296V30.8402H50.296ZM51.296 36H25.8911V38H51.296V36Z" fill="#001C65" mask="url(#path-1-outside-1_886_14)"/>
</svg>
