<svg width="17" height="34" viewBox="0 0 17 34" fill="none" xmlns="http://www.w3.org/2000/svg">
<mask id="path-1-inside-1_655_462" fill="white">
<path fill-rule="evenodd" clip-rule="evenodd" d="M0 9.66546V0H17V34H4.88114V9.66546H0ZM6.55247 8.22081V32.5553H15.3287V1.44465H1.67133V8.22081H6.55247Z"/>
</mask>
<path fill-rule="evenodd" clip-rule="evenodd" d="M0 9.66546V0H17V34H4.88114V9.66546H0ZM6.55247 8.22081V32.5553H15.3287V1.44465H1.67133V8.22081H6.55247Z" fill="white"/>
<path d="M0 9.66546H-7V16.6655H0V9.66546ZM0 0V-7H-7V0H0ZM17 0H24V-7H17V0ZM17 34V41H24V34H17ZM4.88114 34H-2.11886V41H4.88114V34ZM4.88114 9.66546H11.8811V2.66546H4.88114V9.66546ZM6.55247 8.22081H13.5525V1.22081H6.55247V8.22081ZM6.55247 32.5553H-0.447529V39.5553H6.55247V32.5553ZM15.3287 32.5553V39.5553H22.3287V32.5553H15.3287ZM15.3287 1.44465H22.3287V-5.55535H15.3287V1.44465ZM1.67133 1.44465V-5.55535H-5.32866V1.44465H1.67133ZM1.67133 8.22081H-5.32866V15.2208H1.67133V8.22081ZM7 9.66546V0H-7V9.66546H7ZM0 7H17V-7H0V7ZM10 0V34H24V0H10ZM17 27H4.88114V41H17V27ZM11.8811 34V9.66546H-2.11886V34H11.8811ZM4.88114 2.66546H0V16.6655H4.88114V2.66546ZM-0.447529 8.22081V32.5553H13.5525V8.22081H-0.447529ZM6.55247 39.5553H15.3287V25.5553H6.55247V39.5553ZM22.3287 32.5553V1.44465H8.32867V32.5553H22.3287ZM15.3287 -5.55535H1.67133V8.44465H15.3287V-5.55535ZM-5.32866 1.44465V8.22081H8.67134V1.44465H-5.32866ZM1.67133 15.2208H6.55247V1.22081H1.67133V15.2208Z" fill="white" mask="url(#path-1-inside-1_655_462)"/>
</svg>
