<svg width="27" height="37" viewBox="0 0 27 37" fill="none" xmlns="http://www.w3.org/2000/svg">
<mask id="path-1-outside-1_669_142" maskUnits="userSpaceOnUse" x="-1" y="-1" width="29" height="39" fill="black">
<rect fill="white" x="-1" y="-1" width="29" height="39"/>
<path d="M0.888494 37V31.571L13.5735 19.8256C14.6523 18.7816 15.5572 17.842 16.288 17.0067C17.0304 16.1715 17.593 15.3537 17.9759 14.5533C18.3587 13.7412 18.5501 12.8654 18.5501 11.9258C18.5501 10.8817 18.3123 9.98272 17.8366 9.22869C17.361 8.46307 16.7114 7.87725 15.8878 7.47123C15.0642 7.05362 14.1303 6.84482 13.0863 6.84482C11.9959 6.84482 11.0446 7.06522 10.2326 7.50604C9.42057 7.94685 8.79415 8.57907 8.35334 9.4027C7.91252 10.2263 7.69212 11.2066 7.69212 12.3434H0.540483C0.540483 10.0117 1.0683 7.98745 2.12393 6.2706C3.17957 4.55374 4.65862 3.2255 6.56108 2.28586C8.46354 1.34623 10.656 0.876419 13.1385 0.876419C15.6906 0.876419 17.9121 1.32883 19.8029 2.23366C21.7054 3.12689 23.1844 4.36813 24.2401 5.95739C25.2957 7.54664 25.8235 9.3679 25.8235 11.4212C25.8235 12.7668 25.5567 14.0951 25.0231 15.4059C24.5011 16.7167 23.5672 18.1726 22.2216 19.7734C20.8759 21.3627 18.9793 23.271 16.5316 25.4982L11.3288 30.5966V30.8402H26.2933V37H0.888494Z"/>
</mask>
<path d="M0.888494 37V31.571L13.5735 19.8256C14.6523 18.7816 15.5572 17.842 16.288 17.0067C17.0304 16.1715 17.593 15.3537 17.9759 14.5533C18.3587 13.7412 18.5501 12.8654 18.5501 11.9258C18.5501 10.8817 18.3123 9.98272 17.8366 9.22869C17.361 8.46307 16.7114 7.87725 15.8878 7.47123C15.0642 7.05362 14.1303 6.84482 13.0863 6.84482C11.9959 6.84482 11.0446 7.06522 10.2326 7.50604C9.42057 7.94685 8.79415 8.57907 8.35334 9.4027C7.91252 10.2263 7.69212 11.2066 7.69212 12.3434H0.540483C0.540483 10.0117 1.0683 7.98745 2.12393 6.2706C3.17957 4.55374 4.65862 3.2255 6.56108 2.28586C8.46354 1.34623 10.656 0.876419 13.1385 0.876419C15.6906 0.876419 17.9121 1.32883 19.8029 2.23366C21.7054 3.12689 23.1844 4.36813 24.2401 5.95739C25.2957 7.54664 25.8235 9.3679 25.8235 11.4212C25.8235 12.7668 25.5567 14.0951 25.0231 15.4059C24.5011 16.7167 23.5672 18.1726 22.2216 19.7734C20.8759 21.3627 18.9793 23.271 16.5316 25.4982L11.3288 30.5966V30.8402H26.2933V37H0.888494Z" fill="#6486FF"/>
<path d="M0.888494 37H-0.111506V38H0.888494V37ZM0.888494 31.571L0.209086 30.8373L-0.111506 31.1341V31.571H0.888494ZM13.5735 19.8256L14.2529 20.5594L14.261 20.5519L14.2689 20.5442L13.5735 19.8256ZM16.288 17.0067L15.5406 16.3424L15.5354 16.3482L16.288 17.0067ZM17.9759 14.5533L18.878 14.9847L18.8804 14.9797L17.9759 14.5533ZM17.8366 9.22869L16.9872 9.75639L16.9909 9.7622L17.8366 9.22869ZM15.8878 7.47123L15.4355 8.36319L15.4456 8.36817L15.8878 7.47123ZM8.35334 9.4027L9.235 9.87457H9.235L8.35334 9.4027ZM7.69212 12.3434V13.3434H8.69212V12.3434H7.69212ZM0.540483 12.3434H-0.459517V13.3434H0.540483V12.3434ZM2.12393 6.2706L2.97579 6.79437L2.12393 6.2706ZM6.56108 2.28586L6.11825 1.38926H6.11825L6.56108 2.28586ZM19.8029 2.23366L19.3713 3.13573L19.3779 3.13886L19.8029 2.23366ZM24.2401 5.95739L23.4071 6.51068H23.4071L24.2401 5.95739ZM25.0231 15.4059L24.0969 15.0288L24.094 15.0359L25.0231 15.4059ZM22.2216 19.7734L22.9848 20.4196L22.9871 20.4169L22.2216 19.7734ZM16.5316 25.4982L15.8586 24.7586L15.8449 24.771L15.8317 24.784L16.5316 25.4982ZM11.3288 30.5966L10.6289 29.8824L10.3288 30.1764V30.5966H11.3288ZM11.3288 30.8402H10.3288V31.8402H11.3288V30.8402ZM26.2933 30.8402H27.2933V29.8402H26.2933V30.8402ZM26.2933 37V38H27.2933V37H26.2933ZM1.88849 37V31.571H-0.111506V37H1.88849ZM1.5679 32.3048L14.2529 20.5594L12.8941 19.0919L0.209086 30.8373L1.5679 32.3048ZM14.2689 20.5442C15.3612 19.4872 16.2865 18.5271 17.0406 17.6652L15.5354 16.3482C14.8279 17.1569 13.9435 18.076 12.8781 19.107L14.2689 20.5442ZM17.0354 17.6711C17.8247 16.7831 18.4459 15.8882 18.878 14.9847L17.0737 14.1218C16.7402 14.8192 16.2361 15.5599 15.5406 16.3424L17.0354 17.6711ZM18.8804 14.9797C19.329 14.0281 19.5501 13.0058 19.5501 11.9258H17.5501C17.5501 12.725 17.3883 13.4544 17.0713 14.1268L18.8804 14.9797ZM19.5501 11.9258C19.5501 10.7258 19.275 9.6346 18.6824 8.69519L16.9909 9.7622C17.3495 10.3308 17.5501 11.0377 17.5501 11.9258H19.5501ZM18.6861 8.70101C18.1099 7.77355 17.3178 7.06129 16.3299 6.5743L15.4456 8.36817C16.105 8.69321 16.6121 9.15259 16.9872 9.75638L18.6861 8.70101ZM16.34 6.57933C15.3589 6.08185 14.2668 5.84481 13.0863 5.84481V7.84481C13.9939 7.84481 14.7694 8.02539 15.4356 8.36314L16.34 6.57933ZM13.0863 5.84481C11.8593 5.84481 10.7383 6.09366 9.75551 6.62718L10.7097 8.38489C11.3509 8.03678 12.1324 7.84481 13.0863 7.84481V5.84481ZM9.75551 6.62718C8.76975 7.16231 8.00361 7.93695 7.47167 8.93082L9.235 9.87457C9.5847 9.22119 10.0714 8.73139 10.7097 8.38489L9.75551 6.62718ZM7.47167 8.93082C6.93804 9.92788 6.69212 11.0773 6.69212 12.3434H8.69212C8.69212 11.3358 8.88701 10.5248 9.235 9.87457L7.47167 8.93082ZM7.69212 11.3434H0.540483V13.3434H7.69212V11.3434ZM1.54048 12.3434C1.54048 10.1671 2.03141 8.33029 2.97579 6.79437L1.27208 5.74682C0.105195 7.64461 -0.459517 9.85633 -0.459517 12.3434H1.54048ZM2.97579 6.79437C3.92756 5.24644 5.26082 4.04339 7.00391 3.18247L6.11825 1.38926C4.05642 2.4076 2.43158 3.86104 1.27208 5.74682L2.97579 6.79437ZM7.00391 3.18247C8.7471 2.32151 10.7836 1.87642 13.1385 1.87642V-0.123581C10.5284 -0.123581 8.17999 0.370962 6.11825 1.38926L7.00391 3.18247ZM13.1385 1.87642C15.5731 1.87642 17.6413 2.30785 19.3713 3.1357L20.2346 1.33162C18.1828 0.349819 15.8081 -0.123581 13.1385 -0.123581V1.87642ZM19.3779 3.13886C21.1321 3.96247 22.4628 5.08906 23.4071 6.51068L25.073 5.40409C23.9061 3.64721 22.2786 2.29132 20.2279 1.32847L19.3779 3.13886ZM23.4071 6.51068C24.3454 7.92335 24.8235 9.54904 24.8235 11.4212H26.8235C26.8235 9.18676 26.246 7.16993 25.073 5.40409L23.4071 6.51068ZM24.8235 11.4212C24.8235 12.6309 24.5843 13.8314 24.0969 15.0289L25.9493 15.7829C26.5291 14.3587 26.8235 12.9027 26.8235 11.4212H24.8235ZM24.094 15.0359C23.6257 16.2119 22.7628 17.5754 21.4561 19.13L22.9871 20.4169C24.3716 18.7697 25.3764 17.2215 25.9521 15.7759L24.094 15.0359ZM21.4584 19.1272C20.1521 20.6701 18.2905 22.5457 15.8586 24.7586L17.2046 26.2378C19.6681 23.9962 21.5998 22.0553 22.9848 20.4196L21.4584 19.1272ZM15.8317 24.784L10.6289 29.8824L12.0287 31.3108L17.2315 26.2125L15.8317 24.784ZM10.3288 30.5966V30.8402H12.3288V30.5966H10.3288ZM11.3288 31.8402H26.2933V29.8402H11.3288V31.8402ZM25.2933 30.8402V37H27.2933V30.8402H25.2933ZM26.2933 36H0.888494V38H26.2933V36Z" fill="#001C65" mask="url(#path-1-outside-1_669_142)"/>
</svg>
