<svg width="17" height="34" viewBox="0 0 17 34" fill="none" xmlns="http://www.w3.org/2000/svg">
<path fill-rule="evenodd" clip-rule="evenodd" d="M0.0833304 26.5018L0.463853 26.0712C0.800093 25.6909 1.04254 25.4152 1.19274 25.2425C1.26953 25.1544 1.31628 25.0999 1.33867 25.0731C1.34053 25.0709 1.34209 25.069 1.3434 25.0674C1.33575 25.077 1.32046 25.0968 1.30355 25.1207C1.2962 25.1313 1.28241 25.1512 1.26591 25.1775C1.25514 25.1947 1.21559 25.2578 1.17417 25.3483C1.1553 25.3895 1.10936 25.4932 1.07192 25.6395C1.04938 25.7273 0.938273 26.1634 1.08672 26.6769C1.12672 26.8153 1.17669 26.9329 1.23255 27.0325C1.18696 27.0842 1.1393 27.138 1.08974 27.1941V32.5661H15.9936V26.6865H7.97757C8.41133 26.2107 8.83028 25.7328 9.23429 25.2527C10.9133 23.2575 12.3351 21.2257 13.4997 19.1573C14.9446 16.5629 15.667 13.757 15.667 10.7397C15.667 7.97615 15.0633 5.73427 13.856 4.01413C12.6684 2.29398 10.897 1.43387 8.54166 1.43387C7.17597 1.43387 5.92903 1.81456 4.80086 2.57595C3.69245 3.33734 2.79192 4.52172 2.09916 6.12909C1.56511 7.40466 1.23053 8.92888 1.09532 10.7017C1.0602 11.1629 1.03851 11.6408 1.03036 12.1356H5.92903C5.92903 10.6692 6.13686 9.54122 6.5525 8.75164C6.98794 7.93383 7.58172 7.52496 8.33384 7.52496C9.08596 7.52496 9.65005 7.84924 10.0261 8.49784C10.4022 9.14643 10.5902 10.0488 10.5902 11.205C10.5902 12.7278 10.2042 14.2928 9.43233 15.9002C8.66042 17.5076 7.71037 19.0445 6.58219 20.5108C5.62728 21.7742 4.36383 23.3411 2.79182 25.2115C2.53921 25.5119 2.27865 25.8204 2.01009 26.1366C2.01915 26.128 2.01971 26.129 2.01171 26.1393C2.0116 26.1395 2.01176 26.1393 2.01171 26.1393C2.00476 26.1484 1.99148 26.1646 1.9722 26.1874L1.36891 25.0314C3.30207 22.755 4.80936 20.8996 5.89739 19.4601L5.90063 19.4558L5.90393 19.4516C6.98134 18.0512 7.87844 16.5967 8.60177 15.0906C9.29099 13.6553 9.5838 12.3677 9.5838 11.205C9.5838 10.2581 9.42993 9.72101 9.25023 9.41106C9.11559 9.17885 8.87478 8.95883 8.33384 8.95883C7.88146 8.95883 7.59128 9.17479 7.35595 9.61515C7.12151 10.0624 6.93544 10.8387 6.93544 12.1356V13.5695H0L0.0242035 12.1019C0.0667745 9.52569 0.451424 7.26579 1.23481 5.39452L1.23813 5.38663L1.2415 5.37881C2.02715 3.55587 3.06843 2.17418 4.36378 1.28439L4.37002 1.28009C5.64511 0.419551 7.04117 0 8.54166 0C11.0575 0 13.1299 0.920408 14.5706 3.00446C15.9909 5.03031 16.6734 7.6543 16.6734 10.7397C16.6734 14.1127 15.8595 17.227 14.2881 20.0485L14.2848 20.0545C13.2885 21.8239 12.1182 23.5561 10.7772 25.2527H17V34H0.0833304V26.5018ZM1.34853 25.0611C1.34868 25.0609 1.34713 25.0629 1.3434 25.0674C1.34652 25.0635 1.34833 25.0612 1.34853 25.0611Z" fill="white"/>
</svg>
