<svg width="28" height="38" viewBox="0 0 28 38" fill="none" xmlns="http://www.w3.org/2000/svg">
<mask id="path-1-outside-1_669_144" maskUnits="userSpaceOnUse" x="-1" y="-1" width="30" height="40" fill="black">
<rect fill="white" x="-1" y="-1" width="30" height="40"/>
<path d="M14.0607 37.4872C11.4622 37.4872 9.14796 37.0406 7.1179 36.1474C5.09943 35.2425 3.50438 34.0013 2.33274 32.4237C1.1727 30.8344 0.575284 29.0015 0.540483 26.9251H8.12713C8.17353 27.7951 8.45774 28.5607 8.97976 29.2219C9.51338 29.8716 10.221 30.3762 11.1026 30.7358C11.9843 31.0954 12.9761 31.2752 14.0781 31.2752C15.2266 31.2752 16.2416 31.0722 17.1232 30.6662C18.0049 30.2602 18.6951 29.6976 19.1939 28.9783C19.6927 28.2591 19.9421 27.4297 19.9421 26.4901C19.9421 25.5388 19.6753 24.6978 19.1417 23.967C18.6197 23.2245 17.8656 22.6445 16.8796 22.2269C15.9052 21.8093 14.7451 21.6005 13.3995 21.6005H10.076V16.0671H13.3995C14.5363 16.0671 15.5398 15.8699 16.4098 15.4755C17.2914 15.0811 17.9759 14.5359 18.4631 13.8398C18.9503 13.1322 19.1939 12.3086 19.1939 11.369C19.1939 10.4757 18.9793 9.69271 18.5501 9.01989C18.1325 8.33546 17.5408 7.80185 16.7752 7.41903C16.0212 7.03622 15.1396 6.84482 14.1303 6.84482C13.1095 6.84482 12.1757 7.03042 11.3288 7.40163C10.482 7.76124 9.80339 8.27746 9.29297 8.95028C8.78255 9.6231 8.50994 10.4119 8.47514 11.3168H1.25391C1.28871 9.26349 1.87453 7.45383 3.01136 5.88778C4.1482 4.32173 5.67945 3.09789 7.60511 2.21626C9.54238 1.32303 11.729 0.876419 14.1651 0.876419C16.6244 0.876419 18.7763 1.32303 20.6207 2.21626C22.4652 3.10949 23.8978 4.31593 24.9187 5.83558C25.9511 7.34363 26.4615 9.03729 26.4499 10.9165C26.4615 12.9118 25.8409 14.5765 24.5881 15.9105C23.3468 17.2446 21.7286 18.0914 19.7333 18.451V18.7294C22.355 19.0658 24.3503 19.9764 25.7191 21.4613C27.0996 22.9345 27.784 24.779 27.7724 26.9947C27.784 29.0247 27.1982 30.8286 26.0149 32.4062C24.8433 33.9839 23.225 35.2251 21.1602 36.13C19.0953 37.0348 16.7288 37.4872 14.0607 37.4872Z"/>
</mask>
<path d="M14.0607 37.4872C11.4622 37.4872 9.14796 37.0406 7.1179 36.1474C5.09943 35.2425 3.50438 34.0013 2.33274 32.4237C1.1727 30.8344 0.575284 29.0015 0.540483 26.9251H8.12713C8.17353 27.7951 8.45774 28.5607 8.97976 29.2219C9.51338 29.8716 10.221 30.3762 11.1026 30.7358C11.9843 31.0954 12.9761 31.2752 14.0781 31.2752C15.2266 31.2752 16.2416 31.0722 17.1232 30.6662C18.0049 30.2602 18.6951 29.6976 19.1939 28.9783C19.6927 28.2591 19.9421 27.4297 19.9421 26.4901C19.9421 25.5388 19.6753 24.6978 19.1417 23.967C18.6197 23.2245 17.8656 22.6445 16.8796 22.2269C15.9052 21.8093 14.7451 21.6005 13.3995 21.6005H10.076V16.0671H13.3995C14.5363 16.0671 15.5398 15.8699 16.4098 15.4755C17.2914 15.0811 17.9759 14.5359 18.4631 13.8398C18.9503 13.1322 19.1939 12.3086 19.1939 11.369C19.1939 10.4757 18.9793 9.69271 18.5501 9.01989C18.1325 8.33546 17.5408 7.80185 16.7752 7.41903C16.0212 7.03622 15.1396 6.84482 14.1303 6.84482C13.1095 6.84482 12.1757 7.03042 11.3288 7.40163C10.482 7.76124 9.80339 8.27746 9.29297 8.95028C8.78255 9.6231 8.50994 10.4119 8.47514 11.3168H1.25391C1.28871 9.26349 1.87453 7.45383 3.01136 5.88778C4.1482 4.32173 5.67945 3.09789 7.60511 2.21626C9.54238 1.32303 11.729 0.876419 14.1651 0.876419C16.6244 0.876419 18.7763 1.32303 20.6207 2.21626C22.4652 3.10949 23.8978 4.31593 24.9187 5.83558C25.9511 7.34363 26.4615 9.03729 26.4499 10.9165C26.4615 12.9118 25.8409 14.5765 24.5881 15.9105C23.3468 17.2446 21.7286 18.0914 19.7333 18.451V18.7294C22.355 19.0658 24.3503 19.9764 25.7191 21.4613C27.0996 22.9345 27.784 24.779 27.7724 26.9947C27.784 29.0247 27.1982 30.8286 26.0149 32.4062C24.8433 33.9839 23.225 35.2251 21.1602 36.13C19.0953 37.0348 16.7288 37.4872 14.0607 37.4872Z" fill="#6486FF"/>
<path d="M7.1179 36.1474L6.70883 37.0599L6.71516 37.0627L7.1179 36.1474ZM2.33274 32.4236L1.525 33.0132L1.52992 33.0199L2.33274 32.4236ZM0.540483 26.9251V25.9251H-0.476417L-0.459376 26.9418L0.540483 26.9251ZM8.12713 26.9251L9.12571 26.8718L9.07522 25.9251H8.12713V26.9251ZM8.97976 29.2219L8.19488 29.8416L8.20088 29.8492L8.20703 29.8567L8.97976 29.2219ZM11.1026 30.7358L10.7249 31.6617H10.7249L11.1026 30.7358ZM17.1232 30.6662L16.7049 29.7579L17.1232 30.6662ZM19.1939 28.9783L20.0156 29.5482L19.1939 28.9783ZM19.1417 23.967L18.3237 24.5422L18.3288 24.5495L18.3341 24.5567L19.1417 23.967ZM16.8796 22.2269L16.4857 23.1461L16.4896 23.1477L16.8796 22.2269ZM10.076 21.6005H9.07599V22.6005H10.076V21.6005ZM10.076 16.0671V15.0671H9.07599V16.0671H10.076ZM16.4098 15.4755L16.0014 14.5627L15.9969 14.5647L16.4098 15.4755ZM18.4631 13.8398L19.2823 14.4133L19.2867 14.4069L18.4631 13.8398ZM18.5501 9.01989L17.6964 9.54075L17.7016 9.54928L17.707 9.5577L18.5501 9.01989ZM16.7752 7.41903L16.3225 8.31072L16.328 8.31346L16.7752 7.41903ZM11.3288 7.40163L11.7197 8.32214L11.7303 8.3175L11.3288 7.40163ZM9.29297 8.95028L10.0897 9.55467H10.0897L9.29297 8.95028ZM8.47514 11.3168V12.3168H9.43742L9.4744 11.3552L8.47514 11.3168ZM1.25391 11.3168L0.25405 11.2998L0.236814 12.3168H1.25391V11.3168ZM3.01136 5.88778L3.82062 6.47524L3.01136 5.88778ZM7.60511 2.21626L8.02139 3.1255L8.02383 3.12438L7.60511 2.21626ZM20.6207 2.21626L21.0566 1.31625L20.6207 2.21626ZM24.9187 5.83558L24.0886 6.39322L24.0935 6.40049L24.9187 5.83558ZM26.4499 10.9165L25.4499 10.9104L25.4499 10.9224L26.4499 10.9165ZM24.5881 15.9105L23.8591 15.2259L23.856 15.2293L24.5881 15.9105ZM19.7333 18.451L19.5559 17.4669L18.7333 17.6151V18.451H19.7333ZM19.7333 18.7294H18.7333V19.6093L19.606 19.7213L19.7333 18.7294ZM25.7191 21.4613L24.9838 22.1391L24.9894 22.145L25.7191 21.4613ZM27.7724 26.9947L26.7723 26.9894L26.7724 27.0004L27.7724 26.9947ZM26.0149 32.4062L25.2149 31.8062L25.2121 31.81L26.0149 32.4062ZM21.1602 36.13L20.7588 35.2141H20.7588L21.1602 36.13ZM14.0607 36.4872C11.5774 36.4872 9.40388 36.0607 7.52064 35.2321L6.71516 37.0627C8.89205 38.0205 11.3471 38.4872 14.0607 38.4872V36.4872ZM7.52695 35.2349C5.64468 34.3911 4.19288 33.2511 3.13557 31.8274L1.52992 33.0199C2.81588 34.7515 4.55418 36.094 6.70884 37.0599L7.52695 35.2349ZM3.14046 31.8341C2.10895 30.4209 1.57189 28.7907 1.54034 26.9083L-0.459376 26.9418C-0.421323 29.2124 0.236453 31.2479 1.52503 33.0132L3.14046 31.8341ZM0.540483 27.9251H8.12713V25.9251H0.540483V27.9251ZM7.12855 26.9783C7.18556 28.0472 7.54023 29.0124 8.19488 29.8416L9.76464 28.6023C9.37525 28.1091 9.16151 27.543 9.12571 26.8718L7.12855 26.9783ZM8.20703 29.8567C8.85941 30.6509 9.71015 31.2478 10.7249 31.6617L11.4803 29.8099C10.7318 29.5046 10.1673 29.0923 9.75249 28.5872L8.20703 29.8567ZM10.7249 31.6617C11.7438 32.0773 12.8667 32.2752 14.0781 32.2752V30.2752C13.0854 30.2752 12.2247 30.1135 11.4803 29.8099L10.7249 31.6617ZM14.0781 32.2752C15.3448 32.2752 16.5069 32.051 17.5415 31.5745L16.7049 29.7579C15.9763 30.0934 15.1083 30.2752 14.0781 30.2752V32.2752ZM17.5415 31.5745C18.5673 31.1021 19.4042 30.4299 20.0156 29.5482L18.3722 28.4084C17.986 28.9652 17.4424 29.4182 16.7049 29.7579L17.5415 31.5745ZM20.0156 29.5482C20.6392 28.6491 20.9421 27.6176 20.9421 26.4901H18.9421C18.9421 27.2418 18.7462 27.8691 18.3722 28.4084L20.0156 29.5482ZM20.9421 26.4901C20.9421 25.3384 20.6146 24.2884 19.9493 23.3773L18.3341 24.5567C18.736 25.1072 18.9421 25.7393 18.9421 26.4901H20.9421ZM19.9597 23.3918C19.3121 22.4707 18.3964 21.7833 17.2696 21.3061L16.4896 23.1477C17.3349 23.5057 17.9273 23.9784 18.3237 24.5422L19.9597 23.3918ZM17.2735 21.3078C16.146 20.8245 14.8455 20.6005 13.3995 20.6005V22.6005C14.6448 22.6005 15.6644 22.7941 16.4857 23.1461L17.2735 21.3078ZM13.3995 20.6005H10.076V22.6005H13.3995V20.6005ZM11.076 21.6005V16.0671H9.07599V21.6005H11.076ZM10.076 17.0671H13.3995V15.0671H10.076V17.0671ZM13.3995 17.0671C14.6521 17.0671 15.8007 16.8496 16.8227 16.3863L15.9969 14.5647C15.2789 14.8902 14.4206 15.0671 13.3995 15.0671V17.0671ZM16.8182 16.3883C17.8419 15.9303 18.6778 15.2769 19.2823 14.4133L17.6438 13.2664C17.2739 13.7948 16.741 14.2318 16.0014 14.5627L16.8182 16.3883ZM19.2867 14.4069C19.8996 13.5169 20.1939 12.4913 20.1939 11.369H18.1939C18.1939 12.1259 18.001 12.7476 17.6394 13.2727L19.2867 14.4069ZM20.1939 11.369C20.1939 10.3086 19.9368 9.33423 19.3931 8.48207L17.707 9.5577C18.0218 10.0512 18.1939 10.6429 18.1939 11.369H20.1939ZM19.4037 8.49902C18.8817 7.64347 18.144 6.98542 17.2224 6.52461L16.328 8.31346C16.9376 8.61827 17.3832 9.02746 17.6964 9.54075L19.4037 8.49902ZM17.2279 6.52737C16.3089 6.06082 15.2667 5.84481 14.1303 5.84481V7.84481C15.0124 7.84481 15.7334 8.01162 16.3225 8.3107L17.2279 6.52737ZM14.1303 5.84481C12.9858 5.84481 11.9134 6.05354 10.9274 6.48576L11.7303 8.3175C12.438 8.0073 13.2332 7.84481 14.1303 7.84481V5.84481ZM10.938 6.48119C9.94539 6.90269 9.12139 7.52189 8.49628 8.3459L10.0897 9.55467C10.4854 9.03303 11.0186 8.61979 11.7197 8.32208L10.938 6.48119ZM8.49628 8.3459C7.85278 9.19415 7.51797 10.1841 7.47588 11.2783L9.4744 11.3552C9.50192 10.6397 9.71233 10.0521 10.0897 9.55467L8.49628 8.3459ZM8.47514 10.3168H1.25391V12.3168H8.47514V10.3168ZM2.25376 11.3337C2.28531 9.47239 2.81193 7.86476 3.82062 6.47524L2.20211 5.30033C0.937121 7.04291 0.292104 9.0546 0.25405 11.2998L2.25376 11.3337ZM3.82062 6.47524C4.84697 5.06139 6.23706 3.94242 8.02139 3.1255L7.18884 1.30703C5.12184 2.25336 3.44943 3.58208 2.20211 5.30033L3.82062 6.47524ZM8.02383 3.12438C9.81238 2.29972 11.8531 1.87642 14.1651 1.87642V-0.123581C11.605 -0.123581 9.27238 0.346346 7.1864 1.30814L8.02383 3.12438ZM14.1651 1.87642C16.5033 1.87642 18.5008 2.30072 20.1849 3.11628L21.0566 1.31625C19.0518 0.345349 16.7456 -0.123581 14.1651 -0.123581V1.87642ZM20.1849 3.11628C21.8894 3.94174 23.1779 5.03757 24.0886 6.3932L25.7488 5.27796C24.6178 3.5943 23.041 2.27724 21.0566 1.31625L20.1849 3.11628ZM24.0935 6.40049C25.0075 7.73544 25.4603 9.2287 25.4499 10.9104L27.4499 10.9227C27.4627 8.84587 26.8948 6.95182 25.7438 5.27067L24.0935 6.40049ZM25.4499 10.9224C25.4602 12.6866 24.9199 14.0964 23.8591 15.2259L25.317 16.5951C26.7619 15.0565 27.4629 13.1371 27.4499 10.9107L25.4499 10.9224ZM23.856 15.2293C22.7786 16.3873 21.3636 17.141 19.5559 17.4669L19.9107 19.4351C22.0935 19.0417 23.9151 18.1018 25.3202 16.5917L23.856 15.2293ZM18.7333 18.451V18.7294H20.7333V18.451H18.7333ZM19.606 19.7213C22.0675 20.0371 23.8181 20.8745 24.9839 22.1391L26.4543 20.7835C24.8824 19.0784 22.6425 18.0945 19.8606 17.7375L19.606 19.7213ZM24.9894 22.145C26.1772 23.4127 26.7828 25.0024 26.7724 26.9894L28.7724 26.9999C28.7852 24.5556 28.0219 22.4564 26.4488 20.7775L24.9894 22.145ZM26.7724 27.0004C26.7828 28.819 26.2631 30.4087 25.2149 31.8063L26.8149 33.0062C28.1332 31.2485 28.7852 29.2304 28.7724 26.989L26.7724 27.0004ZM25.2121 31.81C24.1586 33.2285 22.6881 34.3686 20.7588 35.2141L21.5615 37.0459C23.762 36.0817 25.5279 34.7393 26.8177 33.0025L25.2121 31.81ZM20.7588 35.2141C18.8415 36.0542 16.6156 36.4872 14.0607 36.4872V38.4872C16.842 38.4872 19.3491 38.0154 21.5615 37.0459L20.7588 35.2141Z" fill="#001C65" mask="url(#path-1-outside-1_669_144)"/>
</svg>
