<svg width="25" height="42" viewBox="0 0 25 42" fill="none" xmlns="http://www.w3.org/2000/svg">
<g filter="url(#filter0_d_655_620)">
<path fill-rule="evenodd" clip-rule="evenodd" d="M4.26129 12.0457L4.30004 10.5891C4.38644 7.33938 5.15503 4.66235 6.70139 2.75197C8.22733 0.866724 10.2438 0 12.6349 0C14.2192 0 15.6338 0.385373 16.843 1.21819C18.0496 2.03584 19.0016 3.18614 19.6454 4.68994C20.2968 6.16566 20.617 7.81672 20.617 9.60596C20.617 11.6672 20.2477 13.4862 19.4311 14.9472L19.4276 14.9537L19.4239 14.9601C19.1099 15.5086 18.7684 15.9933 18.3993 16.4089C18.9457 16.9347 19.424 17.5751 19.8279 18.3322C20.6357 19.8464 21 21.7246 21 23.8555C21 25.7942 20.6757 27.5679 20.0033 29.1342C19.3433 30.6901 18.3748 31.8856 17.1448 32.7355C15.9165 33.5979 14.4904 34 12.9001 34C10.3799 34 8.24885 33.1262 6.60975 31.238L6.60445 31.2319C4.93079 29.2767 4.11991 26.389 4.03471 22.8257L4 21.3744H10.9006L10.9228 22.7467C10.9381 23.6982 11.1226 24.3057 11.3879 24.7153C11.6161 25.0438 12.0059 25.3096 12.7233 25.3096C13.2978 25.3096 13.5943 25.0898 13.7688 24.8328L13.7694 24.8319C13.995 24.5003 14.1406 24.0403 14.1406 23.317C14.1406 22.3102 13.9239 21.8671 13.6659 21.6213L13.6505 21.6067L13.6354 21.5911C13.3077 21.2534 12.6208 20.9517 11.3679 20.9517H9.42625V12.3855H11.3679C12.2677 12.3855 12.8878 12.1729 13.2988 11.8582C13.5353 11.6691 13.7281 11.3408 13.7281 10.4758C13.7281 9.74747 13.5894 9.37115 13.4314 9.14905C13.2682 8.9197 13.0063 8.73186 12.5171 8.73186C11.9904 8.73186 11.7503 8.93936 11.6153 9.16185C11.4045 9.54737 11.258 10.0597 11.2138 10.7649L11.1334 12.0457H4.26129ZM10.8376 8.28041C11.2108 7.64526 11.7706 7.32768 12.5171 7.32768C13.2046 7.32768 13.7448 7.60384 14.1377 8.15614C14.5305 8.70845 14.727 9.48169 14.727 10.4758C14.727 11.7185 14.4127 12.5884 13.7841 13.0855C13.1751 13.555 12.3698 13.7897 11.3679 13.7897H10.4251V19.5475H11.3679C12.684 19.5475 13.6367 19.8513 14.226 20.4588C14.835 21.0388 15.1395 21.9915 15.1395 23.317C15.1395 24.3388 14.9234 25.1673 14.4912 25.8024C14.0787 26.41 13.4894 26.7137 12.7233 26.7137C11.8197 26.7137 11.1322 26.3685 10.6608 25.6782C10.1893 24.9602 9.9438 23.9936 9.92416 22.7785H5.03297C5.04461 23.2648 5.07063 23.7328 5.11108 24.1827C5.3439 26.7739 6.05451 28.7636 7.24285 30.1519C8.65717 31.7812 10.5429 32.5958 12.9001 32.5958C14.3734 32.5958 15.6404 32.223 16.7011 31.4774C17.7815 30.7318 18.5967 29.71 19.1467 28.4121C19.7164 27.0865 20.0012 25.5677 20.0012 23.8555C20.0012 21.9501 19.6771 20.3898 19.0288 19.1747C18.6111 18.3916 18.0953 17.7519 17.4817 17.2555C17.1562 16.9922 16.8031 16.7692 16.4224 16.5866C16.4073 16.5793 16.3922 16.5722 16.377 16.5651V16.3994C16.3918 16.3923 16.4067 16.3851 16.4214 16.3777C16.7823 16.1989 17.1242 15.9568 17.4471 15.6516C17.881 15.2416 18.2805 14.7176 18.6458 14.0797C19.294 12.9198 19.6181 11.4286 19.6181 9.60596C19.6181 8.05949 19.3431 6.66492 18.7931 5.42223C18.2628 4.17953 17.4672 3.1992 16.4065 2.48118C15.3654 1.76315 14.1082 1.40417 12.6349 1.40417C10.4152 1.40417 8.65717 2.20504 7.36071 3.80672C6.27764 5.14476 5.61958 6.95495 5.38645 9.23736C5.34051 9.68716 5.31109 10.1551 5.29816 10.6415H10.2188C10.2777 9.70261 10.484 8.91557 10.8376 8.28041Z" fill="white"/>
</g>
<defs>
<filter id="filter0_d_655_620" x="0" y="0" width="25" height="42" filterUnits="userSpaceOnUse" color-interpolation-filters="sRGB">
<feFlood flood-opacity="0" result="BackgroundImageFix"/>
<feColorMatrix in="SourceAlpha" type="matrix" values="0 0 0 0 0 0 0 0 0 0 0 0 0 0 0 0 0 0 127 0" result="hardAlpha"/>
<feOffset dy="4"/>
<feGaussianBlur stdDeviation="2"/>
<feComposite in2="hardAlpha" operator="out"/>
<feColorMatrix type="matrix" values="0 0 0 0 0 0 0 0 0 0 0 0 0 0 0 0 0 0 0.25 0"/>
<feBlend mode="normal" in2="BackgroundImageFix" result="effect1_dropShadow_655_620"/>
<feBlend mode="normal" in="SourceGraphic" in2="effect1_dropShadow_655_620" result="shape"/>
</filter>
</defs>
</svg>
