<svg width="30" height="36" viewBox="0 0 30 36" fill="none" xmlns="http://www.w3.org/2000/svg">
<mask id="path-1-outside-1_669_147" maskUnits="userSpaceOnUse" x="-1" y="-1" width="32" height="38" fill="black">
<rect fill="white" x="-1" y="-1" width="32" height="38"/>
<path d="M0.349077 29.7358V23.8022L15.2266 0.363635H20.3423V8.5767H17.3146L7.93572 23.4194V23.6978H29.0774V29.7358H0.349077ZM17.4538 36V27.9261L17.593 25.2987V0.363635H24.6577V36H17.4538Z"/>
</mask>
<path d="M0.349077 29.7358V23.8022L15.2266 0.363635H20.3423V8.5767H17.3146L7.93572 23.4194V23.6978H29.0774V29.7358H0.349077ZM17.4538 36V27.9261L17.593 25.2987V0.363635H24.6577V36H17.4538Z" fill="#6486FF"/>
<path d="M0.349077 29.7358H-0.650923V30.7358H0.349077V29.7358ZM0.349077 23.8022L-0.495203 23.2663L-0.650923 23.5116V23.8022H0.349077ZM15.2266 0.363636V-0.636365H14.6769L14.3823 -0.172266L15.2266 0.363636ZM20.3423 0.363636H21.3423V-0.636365H20.3423V0.363636ZM20.3423 8.5767V9.5767H21.3423V8.5767H20.3423ZM17.3146 8.5767V7.5767H16.7636L16.4693 8.04252L17.3146 8.5767ZM7.93572 23.4194L7.09035 22.8852L6.93572 23.1299V23.4194H7.93572ZM7.93572 23.6978H6.93572V24.6978H7.93572V23.6978ZM29.0774 23.6978H30.0774V22.6978H29.0774V23.6978ZM29.0774 29.7358V30.7358H30.0774V29.7358H29.0774ZM17.4538 36H16.4538V37H17.4538V36ZM17.4538 27.9261L16.4552 27.8732L16.4538 27.8997V27.9261H17.4538ZM17.593 25.2986L18.5916 25.3516L18.593 25.3251V25.2986H17.593ZM17.593 0.363636V-0.636365H16.593V0.363636H17.593ZM24.6577 0.363636H25.6577V-0.636365H24.6577V0.363636ZM24.6577 36V37H25.6577V36H24.6577ZM1.34908 29.7358V23.8022H-0.650923V29.7358H1.34908ZM1.19336 24.3381L16.0708 0.899536L14.3823 -0.172266L-0.495203 23.2663L1.19336 24.3381ZM15.2266 1.36364H20.3423V-0.636365H15.2266V1.36364ZM19.3423 0.363636V8.5767H21.3423V0.363636H19.3423ZM20.3423 7.5767H17.3146V9.5767H20.3423V7.5767ZM16.4693 8.04252L7.09035 22.8852L8.7811 23.9536L18.16 9.11088L16.4693 8.04252ZM6.93572 23.4194V23.6978H8.93572V23.4194H6.93572ZM7.93572 24.6978H29.0774V22.6978H7.93572V24.6978ZM28.0774 23.6978V29.7358H30.0774V23.6978H28.0774ZM29.0774 28.7358H0.349077V30.7358H29.0774V28.7358ZM18.4538 36V27.9261H16.4538V36H18.4538ZM18.4524 27.979L18.5916 25.3516L16.5944 25.2457L16.4552 27.8732L18.4524 27.979ZM18.593 25.2986V0.363636H16.593V25.2986H18.593ZM17.593 1.36364H24.6577V-0.636365H17.593V1.36364ZM23.6577 0.363636V36H25.6577V0.363636H23.6577ZM24.6577 35H17.4538V37H24.6577V35Z" fill="#001C65" mask="url(#path-1-outside-1_669_147)"/>
</svg>
