<svg width="27" height="37" viewBox="0 0 27 37" fill="none" xmlns="http://www.w3.org/2000/svg">
<mask id="path-1-outside-1_669_150" maskUnits="userSpaceOnUse" x="-2" y="-1" width="30" height="39" fill="black">
<rect fill="white" x="-2" y="-1" width="30" height="39"/>
<path d="M12.9041 36.4872C10.4448 36.4872 8.25237 36.0348 6.32671 35.13C4.41264 34.2251 2.89299 32.9781 1.76776 31.3888C0.642519 29.7996 0.0566999 27.9783 0.0102983 25.9251H7.31854C7.39974 27.3055 7.97976 28.425 9.05859 29.2834C10.1374 30.1418 11.4193 30.571 12.9041 30.571C14.0874 30.571 15.1314 30.31 16.0362 29.788C16.9527 29.2544 17.6661 28.5178 18.1765 27.5781C18.6985 26.6269 18.9595 25.5365 18.9595 24.3068C18.9595 23.054 18.6927 21.9519 18.1591 21.0007C17.6371 20.0495 16.9121 19.3071 15.984 18.7734C15.056 18.2398 13.9946 17.9672 12.7997 17.9556C11.7557 17.9556 10.7406 18.1702 9.75462 18.5994C8.78018 19.0286 8.02036 19.6145 7.47514 20.3569L0.775924 19.1562L2.46378 0.363635H24.2493V6.52344H8.67578L7.75355 15.4499H7.96236C8.58878 14.5683 9.53421 13.8375 10.7987 13.2575C12.0631 12.6774 13.4783 12.3874 15.0444 12.3874C17.1905 12.3874 19.1045 12.892 20.7866 13.9013C22.4686 14.9105 23.7969 16.2968 24.7713 18.06C25.7457 19.8117 26.2272 21.8301 26.2156 24.1154C26.2272 26.5167 25.6703 28.6512 24.5451 30.5188C23.4315 32.3749 21.8712 33.8365 19.8643 34.9038C17.8691 35.9594 15.549 36.4872 12.9041 36.4872Z"/>
</mask>
<path d="M12.9041 36.4872C10.4448 36.4872 8.25237 36.0348 6.32671 35.13C4.41264 34.2251 2.89299 32.9781 1.76776 31.3888C0.642519 29.7996 0.0566999 27.9783 0.0102983 25.9251H7.31854C7.39974 27.3055 7.97976 28.425 9.05859 29.2834C10.1374 30.1418 11.4193 30.571 12.9041 30.571C14.0874 30.571 15.1314 30.31 16.0362 29.788C16.9527 29.2544 17.6661 28.5178 18.1765 27.5781C18.6985 26.6269 18.9595 25.5365 18.9595 24.3068C18.9595 23.054 18.6927 21.9519 18.1591 21.0007C17.6371 20.0495 16.9121 19.3071 15.984 18.7734C15.056 18.2398 13.9946 17.9672 12.7997 17.9556C11.7557 17.9556 10.7406 18.1702 9.75462 18.5994C8.78018 19.0286 8.02036 19.6145 7.47514 20.3569L0.775924 19.1562L2.46378 0.363635H24.2493V6.52344H8.67578L7.75355 15.4499H7.96236C8.58878 14.5683 9.53421 13.8375 10.7987 13.2575C12.0631 12.6774 13.4783 12.3874 15.0444 12.3874C17.1905 12.3874 19.1045 12.892 20.7866 13.9013C22.4686 14.9105 23.7969 16.2968 24.7713 18.06C25.7457 19.8117 26.2272 21.8301 26.2156 24.1154C26.2272 26.5167 25.6703 28.6512 24.5451 30.5188C23.4315 32.3749 21.8712 33.8365 19.8643 34.9038C17.8691 35.9594 15.549 36.4872 12.9041 36.4872Z" fill="#6486FF"/>
<path d="M6.3267 35.13L5.89932 36.034L5.90143 36.035L6.3267 35.13ZM1.76776 31.3889L2.5839 30.811L1.76776 31.3889ZM0.0102983 25.9251V24.9251H-1.01256L-0.989446 25.9477L0.0102983 25.9251ZM7.31854 25.9251L8.31681 25.8663L8.26144 24.9251H7.31854V25.9251ZM9.05859 29.2834L9.68123 28.5009L9.05859 29.2834ZM16.0362 29.788L16.5359 30.6542L16.5394 30.6522L16.0362 29.788ZM18.1765 27.5781L17.2998 27.097L17.2978 27.1008L18.1765 27.5781ZM18.1591 21.0007L17.2824 21.4818L17.2869 21.49L18.1591 21.0007ZM15.984 18.7734L15.4855 19.6403L15.984 18.7734ZM12.7997 17.9556L12.8094 16.9556H12.7997V17.9556ZM9.75462 18.5994L9.35549 17.6825L9.35151 17.6843L9.75462 18.5994ZM7.47514 20.3569L7.29873 21.3412L7.91223 21.4512L8.28115 20.9488L7.47514 20.3569ZM0.775923 19.1562L-0.220067 19.0668L-0.301997 19.979L0.599514 20.1406L0.775923 19.1562ZM2.46378 0.363636V-0.636365H1.54957L1.46779 0.274181L2.46378 0.363636ZM24.2493 0.363636H25.2493V-0.636365H24.2493V0.363636ZM24.2493 6.52344V7.52344H25.2493V6.52344H24.2493ZM8.67578 6.52344V5.52344H7.77377L7.68108 6.42067L8.67578 6.52344ZM7.75355 15.4499L6.75885 15.3472L6.64491 16.4499H7.75355V15.4499ZM7.96236 15.4499V16.4499H8.47855L8.77754 16.0291L7.96236 15.4499ZM10.7987 13.2575L11.2156 14.1664L10.7987 13.2575ZM20.7866 13.9013L21.3011 13.0438L20.7866 13.9013ZM24.7713 18.06L23.8961 18.5437L23.8974 18.5462L24.7713 18.06ZM26.2156 24.1154L25.2155 24.1103L25.2156 24.1202L26.2156 24.1154ZM24.5451 30.5188L23.6885 30.0028L23.6876 30.0043L24.5451 30.5188ZM19.8643 34.9038L20.332 35.7877L20.3339 35.7867L19.8643 34.9038ZM12.9041 35.4872C10.569 35.4872 8.52535 35.0582 6.75198 34.2249L5.90143 36.035C7.97938 37.0114 10.3207 37.4872 12.9041 37.4872V35.4872ZM6.75408 34.2259C4.98156 33.388 3.6012 32.2478 2.5839 30.811L0.951614 31.9667C2.18478 33.7084 3.84373 35.0623 5.89933 36.034L6.75408 34.2259ZM2.5839 30.811C1.5803 29.3935 1.0522 27.768 1.01004 25.9025L-0.989446 25.9477C-0.938802 28.1887 -0.295258 30.2057 0.951614 31.9667L2.5839 30.811ZM0.0102983 26.9251H7.31854V24.9251H0.0102983V26.9251ZM6.32026 25.9838C6.41809 27.6469 7.13399 29.0299 8.43595 30.0659L9.68123 28.5009C8.82553 27.82 8.38138 26.9641 8.31681 25.8663L6.32026 25.9838ZM8.43595 30.0659C9.70581 31.0763 11.2117 31.571 12.9041 31.571V29.571C11.6268 29.571 10.569 29.2073 9.68123 28.5009L8.43595 30.0659ZM12.9041 31.571C14.2391 31.571 15.4599 31.275 16.5359 30.6542L15.5365 28.9218C14.8029 29.345 13.9356 29.571 12.9041 29.571V31.571ZM16.5394 30.6522C17.6155 30.0256 18.4582 29.1546 19.0552 28.0555L17.2978 27.1008C16.874 27.8809 16.2898 28.4831 15.533 28.9238L16.5394 30.6522ZM19.0532 28.0592C19.6664 26.9418 19.9595 25.6819 19.9595 24.3068H17.9595C17.9595 25.391 17.7307 26.312 17.2998 27.097L19.0532 28.0592ZM19.9595 24.3068C19.9595 22.9084 19.6605 21.6331 19.0312 20.5115L17.2869 21.49C17.725 22.2708 17.9595 23.1995 17.9595 24.3068H19.9595ZM19.0358 20.5196C18.4267 19.4098 17.5719 18.5329 16.4825 17.9065L15.4855 19.6403C16.2522 20.0812 16.8474 20.6891 17.2824 21.4818L19.0358 20.5196ZM16.4825 17.9065C15.389 17.2777 14.1556 16.9687 12.8094 16.9557L12.79 18.9556C13.8336 18.9657 14.723 19.2019 15.4855 19.6403L16.4825 17.9065ZM12.7997 16.9556C11.6142 16.9556 10.4636 17.2002 9.3555 17.6825L10.1537 19.5163C11.0177 19.1402 11.8972 18.9556 12.7997 18.9556V16.9556ZM9.35151 17.6843C8.24209 18.173 7.33325 18.8606 6.66914 19.765L8.28115 20.9488C8.70747 20.3683 9.31827 19.8843 10.1577 19.5146L9.35151 17.6843ZM7.65155 19.3726L0.952333 18.1719L0.599514 20.1406L7.29873 21.3412L7.65155 19.3726ZM1.77191 19.2457L3.45977 0.453091L1.46779 0.274181L-0.220067 19.0668L1.77191 19.2457ZM2.46378 1.36364H24.2493V-0.636365H2.46378V1.36364ZM23.2493 0.363636V6.52344H25.2493V0.363636H23.2493ZM24.2493 5.52344H8.67578V7.52344H24.2493V5.52344ZM7.68108 6.42067L6.75885 15.3472L8.74826 15.5527L9.67049 6.6262L7.68108 6.42067ZM7.75355 16.4499H7.96236V14.4499H7.75355V16.4499ZM8.77754 16.0291C9.27731 15.3257 10.0659 14.6938 11.2156 14.1664L10.3817 12.3485C9.00256 12.9812 7.90024 13.8109 7.14718 14.8707L8.77754 16.0291ZM11.2156 14.1664C12.3337 13.6535 13.6041 13.3874 15.0444 13.3874V11.3874C13.3526 11.3874 11.7925 11.7014 10.3817 12.3485L11.2156 14.1664ZM15.0444 13.3874C17.0268 13.3874 18.7599 13.8514 20.2721 14.7588L21.3011 13.0438C19.4492 11.9326 17.3541 11.3874 15.0444 11.3874V13.3874ZM20.2721 14.7588C21.7988 15.6748 23.0044 16.9303 23.8961 18.5437L25.6465 17.5763C24.5893 15.6632 23.1384 14.1462 21.3011 13.0438L20.2721 14.7588ZM23.8974 18.5462C24.7772 20.1276 25.2264 21.9725 25.2156 24.1103L27.2155 24.1205C27.2279 21.6878 26.7143 19.4957 25.6452 17.5739L23.8974 18.5462ZM25.2156 24.1202C25.2264 26.3572 24.7097 28.3079 23.6885 30.0028L25.4017 31.0349C26.631 28.9944 27.2279 26.6762 27.2155 24.1106L25.2156 24.1202ZM23.6876 30.0043C22.6722 31.6967 21.2497 33.0344 19.3948 34.0208L20.3339 35.7867C22.4927 34.6386 24.1907 33.0531 25.4026 31.0333L23.6876 30.0043ZM19.3967 34.0199C17.5684 34.9871 15.414 35.4872 12.9041 35.4872V37.4872C15.684 37.4872 18.1698 36.9317 20.332 35.7877L19.3967 34.0199Z" fill="#001C65" mask="url(#path-1-outside-1_669_150)"/>
</svg>
