<svg width="17" height="34" viewBox="0 0 17 34" fill="none" xmlns="http://www.w3.org/2000/svg">
<path d="M15.4172 7.43647V8.13802H15.9057V7.43647H15.4172ZM5.47461 7.43647V6.73489H4.98608V7.43647H5.47461ZM5.47461 13.8571H4.98608V15.7241L5.84225 14.319L5.47461 13.8571ZM7.28803 12.1958L7.45 12.8577L7.45342 12.8559L7.4569 12.854L7.28803 12.1958ZM13.5725 13.004L13.3015 13.5877L13.3045 13.5906L13.3075 13.5933L13.5725 13.004ZM14.4792 30.2902L14.8298 30.7786L14.8323 30.775L14.4792 30.2902ZM4.41157 32.0413L4.19603 32.6709L4.20214 32.675L4.41157 32.0413ZM0.503334 23.1512V22.4497H0L0.0149979 23.1721L0.503334 23.1512ZM5.72474 23.1512L6.20811 23.0491L6.14666 22.4497H5.72474V23.1512ZM6.56891 25.6656L6.22347 26.1616L6.22732 26.1672L6.23123 26.1725L6.56891 25.6656ZM10.6022 25.3513L10.2195 24.9153L10.2162 24.9212L10.213 24.9272L10.6022 25.3513ZM6.75651 18.2572L7.0188 18.8491L7.02531 18.8431L7.03171 18.8368L6.75651 18.2572ZM5.81853 19.9185V20.62H6.16582L6.27998 20.1489L5.81853 19.9185ZM0.628398 19.9185H0.139866V20.62H0.628398V19.9185ZM0.628398 0.70155V0H0.139866V0.70155H0.628398ZM15.4172 0.70155H15.9057V0H15.4172V0.70155ZM15.4172 6.73489H5.47461V8.13802H15.4172V6.73489ZM4.98608 7.43647V13.8571H5.96314V7.43647H4.98608ZM5.84225 14.319C6.21316 13.7103 6.74012 13.2158 7.45 12.8577L7.12611 11.5338C6.29355 11.9539 5.6115 12.5671 5.10695 13.3951L5.84225 14.319ZM7.4569 12.854C8.1904 12.466 8.98735 12.2688 9.85183 12.2688V10.8656C8.88205 10.8656 7.9698 11.0874 7.11916 11.5375L7.4569 12.854ZM9.85183 12.2688C11.2577 12.2688 12.3981 12.7228 13.3015 13.5877L13.8434 12.4202C12.7459 11.3695 11.4058 10.8656 9.85183 10.8656V12.2688ZM13.3075 13.5933C14.226 14.4452 14.9027 15.5939 15.3442 17.0548L16.2405 16.4962C15.7232 14.7842 14.92 13.4186 13.8375 12.4147L13.3075 13.5933ZM15.3442 17.0548C15.7943 18.544 16.0229 20.1987 16.0229 22.0287H17C17 20.0273 16.7493 18.1799 16.2405 16.4962L15.3442 17.0548ZM16.0229 22.0287C16.0229 25.3648 15.3748 27.9294 14.126 29.8054L14.8323 30.775C16.2933 28.58 17 25.6371 17 22.0287H16.0229ZM14.1286 29.8017C12.8886 31.6372 11.1218 32.5969 8.75753 32.5969V34C11.3123 34 13.3602 32.9541 14.8298 30.7786L14.1286 29.8017ZM8.75753 32.5969C7.14652 32.5969 5.77234 32.1921 4.62101 31.4075L4.20214 32.675C5.51043 33.5666 7.03356 34 8.75753 34V32.5969ZM4.62706 31.4117C3.47096 30.5955 2.59458 29.4826 1.9802 28.0764L1.15254 28.8222C1.87219 30.4692 2.89254 31.7509 4.19603 32.6709L4.62706 31.4117ZM1.9802 28.0764C1.36446 26.6672 1.03104 25.0255 0.991669 23.1303L0.0149979 23.1721C0.0590144 25.2879 0.434305 27.1782 1.15254 28.8222L1.9802 28.0764ZM0.503334 23.8528H5.72474V22.4497H0.503334V23.8528ZM5.24139 23.2532C5.35921 24.4037 5.68288 25.3853 6.22347 26.1616L6.91436 25.1695C6.53787 24.6288 6.2987 23.9341 6.20811 23.0491L5.24139 23.2532ZM6.23123 26.1725C6.8211 26.9828 7.59863 27.3549 8.5074 27.3549V25.9518C7.79035 25.9518 7.27555 25.6653 6.9066 25.1586L6.23123 26.1725ZM8.5074 27.3549C9.55807 27.3549 10.4187 26.8595 10.9914 25.7752L10.213 24.9272C9.86866 25.5792 9.33269 25.9518 8.5074 25.9518V27.3549ZM10.985 25.7872C11.5509 24.7624 11.8099 23.4417 11.8099 21.894H10.8328C10.8328 23.22 10.6123 24.2039 10.2195 24.9153L10.985 25.7872ZM11.8099 21.894C11.8099 20.397 11.5365 19.1375 10.9234 18.2203L10.2185 19.192C10.6059 19.7715 10.8328 20.6372 10.8328 21.894H11.8099ZM10.9234 18.2203C10.3098 17.3025 9.47132 16.8822 8.47613 16.8822V18.2853C9.27352 18.2853 9.83159 18.6133 10.2185 19.192L10.9234 18.2203ZM8.47613 16.8822C7.71381 16.8822 7.03855 17.1319 6.4813 17.6776L7.03171 18.8368C7.3916 18.4845 7.86281 18.2853 8.47613 18.2853V16.8822ZM6.49422 17.6652C5.94989 18.1627 5.56265 18.8393 5.35714 19.688L6.27998 20.1489C6.40792 19.6206 6.64599 19.1897 7.0188 18.8491L6.49422 17.6652ZM5.81853 19.2169H0.628398V20.62H5.81853V19.2169ZM1.11693 19.9185V0.70155H0.139866V19.9185H1.11693ZM0.628398 1.4031H15.4172V0H0.628398V1.4031ZM14.9286 0.70155V7.43647H15.9057V0.70155H14.9286Z" fill="white"/>
</svg>
