<svg width="28" height="38" viewBox="0 0 28 38" fill="none" xmlns="http://www.w3.org/2000/svg">
<mask id="path-1-outside-1_669_152" maskUnits="userSpaceOnUse" x="-1" y="-1" width="30" height="40" fill="black">
<rect fill="white" x="-1" y="-1" width="30" height="40"/>
<path d="M14.5653 37.4872C12.7325 37.4756 10.9634 37.1682 9.25817 36.565C7.56451 35.9618 6.04486 34.9815 4.69922 33.6243C3.35357 32.267 2.28634 30.469 1.49751 28.2301C0.720289 25.9912 0.331676 23.242 0.331676 19.9822C0.343277 16.9893 0.685488 14.3155 1.35831 11.9606C2.04273 9.5941 3.01716 7.58724 4.28161 5.93998C5.55765 4.29273 7.0831 3.03989 8.85796 2.18146C10.6328 1.31143 12.6223 0.876419 14.8264 0.876419C17.2044 0.876419 19.3041 1.34043 21.1254 2.26847C22.9466 3.18489 24.4083 4.43194 25.5103 6.00959C26.6239 7.58724 27.2968 9.3563 27.5288 11.3168H20.0987C19.8087 10.0755 19.1997 9.10109 18.2717 8.39347C17.3436 7.68584 16.1952 7.33203 14.8264 7.33203C12.5063 7.33203 10.743 8.34126 9.53658 10.3597C8.34174 12.3782 7.73272 15.1217 7.70952 18.5902H7.95312C8.48674 17.5346 9.20597 16.6355 10.1108 15.8931C11.0272 15.1391 12.0655 14.5649 13.2255 14.1705C14.3971 13.7644 15.6326 13.5614 16.9318 13.5614C19.0431 13.5614 20.9223 14.0602 22.5696 15.0579C24.2169 16.0439 25.5161 17.4012 26.4673 19.1296C27.4186 20.8581 27.8942 22.8359 27.8942 25.0632C27.8942 27.4761 27.3316 29.6222 26.2063 31.5014C25.0927 33.3807 23.5324 34.8539 21.5256 35.9212C19.5303 36.9768 17.2102 37.4988 14.5653 37.4872ZM14.5305 31.571C15.6906 31.571 16.7288 31.2926 17.6452 30.7358C18.5617 30.179 19.2809 29.425 19.8029 28.4737C20.3249 27.5225 20.5859 26.4553 20.5859 25.272C20.5859 24.0888 20.3249 23.0273 19.8029 22.0877C19.2925 21.1481 18.5849 20.3999 17.68 19.843C16.7752 19.2862 15.7428 19.0078 14.5827 19.0078C13.7127 19.0078 12.9065 19.1702 12.1641 19.495C11.4332 19.8198 10.7894 20.2723 10.2326 20.8523C9.68738 21.4323 9.25817 22.1051 8.94496 22.8707C8.63175 23.6248 8.47514 24.431 8.47514 25.2894C8.47514 26.4379 8.73615 27.4877 9.25817 28.4389C9.79179 29.3902 10.511 30.15 11.4158 30.7184C12.3323 31.2868 13.3705 31.571 14.5305 31.571Z"/>
</mask>
<path d="M14.5653 37.4872C12.7325 37.4756 10.9634 37.1682 9.25817 36.565C7.56451 35.9618 6.04486 34.9815 4.69922 33.6243C3.35357 32.267 2.28634 30.469 1.49751 28.2301C0.720289 25.9912 0.331676 23.242 0.331676 19.9822C0.343277 16.9893 0.685488 14.3155 1.35831 11.9606C2.04273 9.5941 3.01716 7.58724 4.28161 5.93998C5.55765 4.29273 7.0831 3.03989 8.85796 2.18146C10.6328 1.31143 12.6223 0.876419 14.8264 0.876419C17.2044 0.876419 19.3041 1.34043 21.1254 2.26847C22.9466 3.18489 24.4083 4.43194 25.5103 6.00959C26.6239 7.58724 27.2968 9.3563 27.5288 11.3168H20.0987C19.8087 10.0755 19.1997 9.10109 18.2717 8.39347C17.3436 7.68584 16.1952 7.33203 14.8264 7.33203C12.5063 7.33203 10.743 8.34126 9.53658 10.3597C8.34174 12.3782 7.73272 15.1217 7.70952 18.5902H7.95312C8.48674 17.5346 9.20597 16.6355 10.1108 15.8931C11.0272 15.1391 12.0655 14.5649 13.2255 14.1705C14.3971 13.7644 15.6326 13.5614 16.9318 13.5614C19.0431 13.5614 20.9223 14.0602 22.5696 15.0579C24.2169 16.0439 25.5161 17.4012 26.4673 19.1296C27.4186 20.8581 27.8942 22.8359 27.8942 25.0632C27.8942 27.4761 27.3316 29.6222 26.2063 31.5014C25.0927 33.3807 23.5324 34.8539 21.5256 35.9212C19.5303 36.9768 17.2102 37.4988 14.5653 37.4872ZM14.5305 31.571C15.6906 31.571 16.7288 31.2926 17.6452 30.7358C18.5617 30.179 19.2809 29.425 19.8029 28.4737C20.3249 27.5225 20.5859 26.4553 20.5859 25.272C20.5859 24.0888 20.3249 23.0273 19.8029 22.0877C19.2925 21.1481 18.5849 20.3999 17.68 19.843C16.7752 19.2862 15.7428 19.0078 14.5827 19.0078C13.7127 19.0078 12.9065 19.1702 12.1641 19.495C11.4332 19.8198 10.7894 20.2723 10.2326 20.8523C9.68738 21.4323 9.25817 22.1051 8.94496 22.8707C8.63175 23.6248 8.47514 24.431 8.47514 25.2894C8.47514 26.4379 8.73615 27.4877 9.25817 28.4389C9.79179 29.3902 10.511 30.15 11.4158 30.7184C12.3323 31.2868 13.3705 31.571 14.5305 31.571Z" fill="#6486FF"/>
<path d="M14.5653 37.4872L14.559 38.4872L14.561 38.4872L14.5653 37.4872ZM9.25817 36.565L8.92265 37.507L8.92468 37.5077L9.25817 36.565ZM4.69922 33.6243L3.98908 34.3284L4.69922 33.6243ZM1.49751 28.2301L0.552809 28.5581L0.554344 28.5624L1.49751 28.2301ZM0.331676 19.9822L-0.668324 19.9784V19.9822H0.331676ZM1.35831 11.9606L0.397675 11.6827L0.396786 11.6859L1.35831 11.9606ZM4.28161 5.93998L3.49105 5.32758L3.48836 5.33108L4.28161 5.93998ZM8.85795 2.18146L9.29337 3.08171L9.29811 3.07938L8.85795 2.18146ZM21.1254 2.26847L20.6713 3.15947L20.6759 3.16175L21.1254 2.26847ZM25.5103 6.00959L24.6905 6.58225L24.6933 6.58627L25.5103 6.00959ZM27.5288 11.3168V12.3168H28.6541L28.5218 11.1992L27.5288 11.3168ZM20.0987 11.3168L19.1249 11.5443L19.3054 12.3168H20.0987V11.3168ZM9.53658 10.3597L8.67821 9.84668L8.67604 9.85033L9.53658 10.3597ZM7.70952 18.5902L6.70954 18.5835L6.70281 19.5902H7.70952V18.5902ZM7.95312 18.5902V19.5902H8.56813L8.84558 19.0413L7.95312 18.5902ZM10.1108 15.8931L10.7451 16.6662L10.7462 16.6653L10.1108 15.8931ZM13.2255 14.1705L13.5474 15.1172L13.5529 15.1153L13.2255 14.1705ZM22.5696 15.0579L22.0516 15.9133L22.056 15.9159L22.5696 15.0579ZM26.2063 31.5014L25.3484 30.9877L25.346 30.9916L26.2063 31.5014ZM21.5256 35.9212L21.9932 36.8051L21.9951 36.8041L21.5256 35.9212ZM17.6452 30.7358L18.1645 31.5904L17.6452 30.7358ZM19.8029 28.4737L20.6796 28.9548H20.6796L19.8029 28.4737ZM19.8029 22.0877L18.9242 22.5651L18.9288 22.5734L19.8029 22.0877ZM17.68 19.843L18.2041 18.9914V18.9914L17.68 19.843ZM12.1641 19.495L11.7632 18.5789L11.7579 18.5812L12.1641 19.495ZM10.2326 20.8523L9.51117 20.1597L9.50397 20.1674L10.2326 20.8523ZM8.94496 22.8707L9.86847 23.2543L9.8705 23.2494L8.94496 22.8707ZM9.25817 28.4389L8.38146 28.92L8.38602 28.9282L9.25817 28.4389ZM11.4158 30.7184L10.8839 31.5652L10.8887 31.5682L11.4158 30.7184ZM14.5717 36.4872C12.8488 36.4763 11.1904 36.1878 9.59166 35.6222L8.92468 37.5077C10.7365 38.1486 12.6162 38.4749 14.559 38.4872L14.5717 36.4872ZM9.59369 35.623C8.04998 35.0731 6.65633 34.1779 5.40935 32.9202L3.98908 34.3284C5.4334 35.7851 7.07905 36.8504 8.92265 37.507L9.59369 35.623ZM5.40935 32.9202C4.19004 31.6904 3.19192 30.03 2.44068 27.8978L0.554344 28.5624C1.38076 30.908 2.51711 32.8437 3.98908 34.3284L5.40935 32.9202ZM2.44221 27.9022C1.71248 25.8001 1.33168 23.1692 1.33168 19.9822H-0.668324C-0.668324 23.3147 -0.271899 26.1824 0.552819 28.5581L2.44221 27.9022ZM1.33167 19.9861C1.34299 17.0653 1.67703 14.4851 2.31983 12.2353L0.396786 11.6859C-0.306052 14.1458 -0.656436 16.9133 -0.668316 19.9784L1.33167 19.9861ZM2.31894 12.2384C2.97503 9.96991 3.89909 8.08061 5.07485 6.54889L3.48836 5.33108C2.13524 7.09386 1.11044 9.2183 0.39768 11.6828L2.31894 12.2384ZM5.07216 6.55238C6.25915 5.02008 7.66541 3.86907 9.29336 3.08169L8.42255 1.28123C6.50078 2.21071 4.85615 3.56538 3.49106 5.32759L5.07216 6.55238ZM9.29811 3.07938C10.9209 2.28391 12.7571 1.87642 14.8264 1.87642V-0.123581C12.4874 -0.123581 10.3447 0.338957 8.4178 1.28354L9.29811 3.07938ZM14.8264 1.87642C17.0724 1.87642 19.012 2.31394 20.6713 3.15946L21.5794 1.37747C19.5962 0.366926 17.3364 -0.123581 14.8264 -0.123581V1.87642ZM20.6759 3.16175C22.3581 4.00823 23.6891 5.14861 24.6905 6.58224L26.3301 5.43694C25.1275 3.71526 23.5351 2.36156 21.5748 1.37518L20.6759 3.16175ZM24.6933 6.58627C25.7088 8.02479 26.3228 9.63531 26.5357 11.4343L28.5218 11.1992C28.2707 9.07729 27.5391 7.14969 26.3273 5.43291L24.6933 6.58627ZM27.5288 10.3168H20.0987V12.3168H27.5288V10.3168ZM21.0725 11.0892C20.7349 9.64418 20.0082 8.46001 18.878 7.59826L17.6653 9.18867C18.3912 9.74217 18.8826 10.5069 19.1249 11.5443L21.0725 11.0892ZM18.878 7.59826C17.7469 6.73578 16.375 6.33203 14.8264 6.33203V8.33203C16.0154 8.33203 16.9404 8.63591 17.6653 9.18867L18.878 7.59826ZM14.8264 6.33203C12.1486 6.33203 10.0622 7.53123 8.67822 9.84669L10.3949 10.8728C11.4239 9.15129 12.864 8.33203 14.8264 8.33203V6.33203ZM8.67604 9.85033C7.35793 12.077 6.7334 15.017 6.70954 18.5835L8.7095 18.5969C8.73204 15.2264 9.32554 12.6793 10.3971 10.8691L8.67604 9.85033ZM7.70952 19.5902H7.95312V17.5902H7.70952V19.5902ZM8.84558 19.0413C9.31716 18.1084 9.94894 17.3195 10.7451 16.6662L9.47648 15.12C8.46299 15.9516 7.65633 16.9607 7.06067 18.1391L8.84558 19.0413ZM10.7462 16.6653C11.5665 15.9904 12.4978 15.4741 13.5474 15.1172L12.9036 13.2237C11.6332 13.6556 10.488 14.2878 9.47543 15.1209L10.7462 16.6653ZM13.5529 15.1153C14.6143 14.7475 15.7387 14.5614 16.9318 14.5614V12.5614C15.5265 12.5614 14.18 12.7814 12.8981 13.2256L13.5529 15.1153ZM16.9318 14.5614C18.8786 14.5614 20.5754 15.0192 22.0516 15.9132L23.0876 14.2025C21.2693 13.1013 19.2076 12.5614 16.9318 12.5614V14.5614ZM22.056 15.9159C23.5469 16.8084 24.7229 18.034 25.5912 19.6118L27.3434 18.6475C26.3093 16.7683 24.8868 15.2795 23.0832 14.1999L22.056 15.9159ZM25.5912 19.6118C26.4512 21.1743 26.8942 22.9825 26.8942 25.0632H28.8942C28.8942 22.6894 28.386 20.5418 27.3434 18.6475L25.5912 19.6118ZM26.8942 25.0632C26.8942 27.3141 26.3714 29.2792 25.3484 30.9877L27.0643 32.0151C28.2917 29.9652 28.8942 27.6381 28.8942 25.0632H26.8942ZM25.346 30.9916C24.3298 32.7064 22.9078 34.0535 21.056 35.0382L21.9951 36.8041C24.1571 35.6543 25.8555 34.0549 27.0666 32.0112L25.346 30.9916ZM21.0579 35.0373C19.2312 36.0037 17.0784 36.4982 14.5697 36.4872L14.561 38.4872C17.342 38.4994 19.8294 37.9499 21.9932 36.8051L21.0579 35.0373ZM14.5305 32.571C15.8582 32.571 17.0788 32.2501 18.1645 31.5904L17.126 29.8812C16.3788 30.3352 15.523 30.571 14.5305 30.571V32.571ZM18.1645 31.5904C19.2326 30.9414 20.0743 30.0578 20.6796 28.9548L18.9262 27.9926C18.4875 28.7921 17.8907 29.4165 17.126 29.8812L18.1645 31.5904ZM20.6796 28.9548C21.2897 27.843 21.5859 26.6078 21.5859 25.272H19.5859C19.5859 26.3027 19.3602 27.2019 18.9262 27.9926L20.6796 28.9548ZM21.5859 25.272C21.5859 23.9364 21.2897 22.7049 20.6771 21.6021L18.9288 22.5734C19.3601 23.3498 19.5859 24.2412 19.5859 25.272H21.5859ZM20.6816 21.6104C20.0883 20.5182 19.2589 19.6404 18.2041 18.9914L17.1559 20.6947C17.9109 21.1593 18.4967 21.778 18.9242 22.565L20.6816 21.6104ZM18.2041 18.9914C17.1274 18.3287 15.9102 18.0078 14.5827 18.0078V20.0078C15.5753 20.0078 16.4231 20.2437 17.1559 20.6947L18.2041 18.9914ZM14.5827 18.0078C13.5851 18.0078 12.6412 18.1948 11.7632 18.5789L12.5649 20.4112C13.1718 20.1457 13.8404 20.0078 14.5827 20.0078V18.0078ZM11.7579 18.5812C10.908 18.959 10.1573 19.4867 9.51121 20.1597L10.954 21.5448C11.4215 21.0578 11.9585 20.6807 12.5702 20.4088L11.7579 18.5812ZM9.50397 20.1674C8.87165 20.84 8.37712 21.6177 8.01941 22.4921L9.8705 23.2494C10.1392 22.5925 10.5031 22.0245 10.9612 21.5372L9.50397 20.1674ZM8.02146 22.4871C7.65517 23.3689 7.47514 24.3062 7.47514 25.2894H9.47514C9.47514 24.5558 9.60832 23.8806 9.86845 23.2543L8.02146 22.4871ZM7.47514 25.2894C7.47514 26.5959 7.77382 27.8127 8.3815 28.92L10.1348 27.9578C9.69848 27.1627 9.47514 26.2798 9.47514 25.2894H7.47514ZM8.38602 28.9282C8.99963 30.022 9.83455 30.906 10.8839 31.5652L11.9478 29.8716C11.1875 29.394 10.5839 28.7583 10.1303 27.9497L8.38602 28.9282ZM10.8887 31.5682C11.9755 32.2422 13.1989 32.571 14.5305 32.571V30.571C13.5421 30.571 12.6891 30.3314 11.9429 29.8686L10.8887 31.5682Z" fill="#001C65" mask="url(#path-1-outside-1_669_152)"/>
</svg>
