<svg width="17" height="34" viewBox="0 0 17 34" fill="none" xmlns="http://www.w3.org/2000/svg">
<path fill-rule="evenodd" clip-rule="evenodd" d="M5.61654 33.0476L5.61357 33.0458C4.51523 32.3975 3.54314 31.3943 2.69726 30.0612L2.69335 30.0551L2.6895 30.0489C1.85616 28.6957 1.2069 27.0013 0.725673 24.9995L0.724357 24.9942C0.234453 22.9217 0 20.482 0 17.6991C0 14.7553 0.245895 12.1593 0.756316 9.9317L0.757982 9.92435L0.759736 9.91707C1.28475 7.72968 1.97636 5.88067 2.85008 4.40234L2.85359 4.39635L2.85714 4.39054C3.74651 2.92748 4.77444 1.82382 5.94193 1.10706C7.11049 0.371636 8.32435 0 9.57713 0C11.106 0 12.4723 0.393024 13.6509 1.22204C14.7665 1.97533 15.7118 2.8983 16.4702 4.00332L16.9752 4.73918L13.2924 10.674L12.6965 9.78417C12.3874 9.32268 11.9697 8.89896 11.4233 8.528L11.4127 8.52086L11.4024 8.51323C10.8892 8.13808 10.3861 7.96314 9.88488 7.96314C9.39637 7.96314 8.94536 8.09467 8.52396 8.35299C8.14821 8.58336 7.7842 8.99073 7.44031 9.63636C7.12583 10.2373 6.84151 11.0846 6.6079 12.2225C6.51958 12.6526 6.44413 13.1264 6.38222 13.6454C6.62748 13.4149 6.87946 13.2124 7.1384 13.0391C7.56749 12.721 8.00554 12.4828 8.45192 12.3319C8.89192 12.1519 9.3252 12.0541 9.7481 12.0541C10.7588 12.0541 11.7027 12.2626 12.5719 12.6945C13.467 13.1279 14.249 13.7848 14.9053 14.671C15.5953 15.5716 16.1138 16.7006 16.4702 18.0286C16.8307 19.3721 17 20.9095 17 22.6172C17 24.351 16.7907 25.9368 16.3529 27.3531C15.9274 28.7297 15.347 29.9272 14.6098 30.9326C13.8901 31.9454 13.0329 32.717 12.0488 33.2508L12.0436 33.2536L12.0384 33.2564C11.0795 33.7545 10.0634 34 8.99582 34C7.84129 34 6.71418 33.6806 5.61952 33.0493L5.61654 33.0476ZM14.3644 15.4812C13.7945 14.7097 13.1106 14.1311 12.3127 13.7454C11.5376 13.3597 10.6828 13.1668 9.7481 13.1668C9.40616 13.1668 9.04142 13.2472 8.65388 13.4079C8.26634 13.5365 7.8788 13.7454 7.49126 14.0347C7.10372 14.2919 6.72758 14.6294 6.36283 15.0472C6.32396 15.0883 6.28558 15.1302 6.24773 15.1728C5.93053 15.5296 5.64976 15.9378 5.40539 16.3973C5.42156 15.7697 5.45069 15.1766 5.49272 14.618C5.5691 13.6027 5.68815 12.7011 5.84992 11.9132C6.10068 10.6917 6.41983 9.71129 6.80736 8.97197C7.2177 8.20051 7.68503 7.65406 8.20934 7.33262C8.73366 7.01117 9.29218 6.85045 9.88488 6.85045C10.5232 6.85045 11.1501 7.07546 11.7656 7.52548C12.1037 7.75502 12.4074 8.00875 12.6767 8.28678C12.8977 8.51495 13.0955 8.7594 13.2702 9.02019L15.9031 4.77713C15.2192 3.78066 14.353 2.92884 13.3043 2.22166C12.2557 1.48234 11.0133 1.11269 9.57713 1.11269C8.43731 1.11269 7.33168 1.4502 6.26025 2.12523C5.21162 2.76812 4.27696 3.76459 3.45629 5.11465C2.65842 6.46472 2.00872 8.18444 1.5072 10.2738C1.02847 12.3632 0.789108 14.8383 0.789108 17.6991C0.789108 20.3993 1.01707 22.7137 1.473 24.6423C1.92893 26.5388 2.53303 28.0978 3.28532 29.3193C4.0604 30.5408 4.93806 31.4408 5.9183 32.0194C6.92135 32.598 7.94719 32.8873 8.99582 32.8873C9.97607 32.8873 10.8993 32.6623 11.7656 32.2123C12.6546 31.7301 13.4183 31.039 14.0566 30.139C14.7177 29.2389 15.242 28.1621 15.6296 26.9085C16.0171 25.6549 16.2109 24.2244 16.2109 22.6172C16.2109 21.01 16.0513 19.6117 15.7322 18.4224C15.413 17.2331 14.9571 16.2527 14.3644 15.4812ZM10.2384 25.6564L10.2389 25.6557C10.5837 25.1493 10.8397 24.2209 10.8397 22.6172C10.8397 21.1029 10.5823 20.3769 10.303 20.0486L10.2893 20.0325L10.2761 20.0156C9.91966 19.5567 9.44717 19.294 8.79065 19.294C8.38451 19.294 7.93793 19.4641 7.44104 19.8683L7.43665 19.8719L7.43227 19.8753C7.06879 20.1624 6.69523 20.6656 6.32927 21.4608C6.43556 22.4434 6.58008 23.2319 6.75354 23.8433C6.95817 24.5646 7.18117 25.114 7.41196 25.5181C7.63754 25.8823 7.85902 26.1207 8.07179 26.2679C8.33887 26.4037 8.61135 26.4708 8.89324 26.4708C9.42866 26.4708 9.8617 26.2107 10.2384 25.6564ZM7.76481 27.2942C7.42287 27.0692 7.10372 26.7156 6.80736 26.2334C6.51101 25.7191 6.24885 25.0602 6.02089 24.2566C5.79292 23.453 5.62195 22.4404 5.50797 21.2189C5.9639 20.126 6.47682 19.3546 7.04673 18.9046C7.63943 18.4224 8.22074 18.1813 8.79065 18.1813C9.61133 18.1813 10.2838 18.5188 10.8081 19.1939C11.3553 19.8367 11.6288 20.9779 11.6288 22.6172C11.6288 24.353 11.3553 25.6227 10.8081 26.4263C10.2838 27.1978 9.64552 27.5835 8.89324 27.5835C8.5057 27.5835 8.12956 27.4871 7.76481 27.2942Z" fill="white"/>
</svg>
