<svg width="26" height="36" viewBox="0 0 26 36" fill="none" xmlns="http://www.w3.org/2000/svg">
<mask id="path-1-outside-1_886_9" maskUnits="userSpaceOnUse" x="-1" y="-1" width="28" height="38" fill="black">
<rect fill="white" x="-1" y="-1" width="28" height="38"/>
<path d="M3.29794 36L18.071 6.76704V6.52344H0.861861V0.363635H25.8665V6.61044L11.076 36H3.29794Z"/>
</mask>
<path d="M3.29794 36L18.071 6.76704V6.52344H0.861861V0.363635H25.8665V6.61044L11.076 36H3.29794Z" fill="#6486FF"/>
<path d="M3.29794 36L2.40543 35.549L1.67214 37H3.29794V36ZM18.071 6.76704L18.9635 7.21808L19.071 7.00537V6.76704H18.071ZM18.071 6.52344H19.071V5.52344H18.071V6.52344ZM0.861861 6.52344H-0.138139V7.52344H0.861861V6.52344ZM0.861861 0.363635V-0.636365H-0.138139V0.363635H0.861861ZM25.8665 0.363635H26.8665V-0.636365H25.8665V0.363635ZM25.8665 6.61044L26.7597 7.05998L26.8665 6.84788V6.61044H25.8665ZM11.076 36V37H11.6922L11.9693 36.4495L11.076 36ZM4.19045 36.451L18.9635 7.21808L17.1785 6.31601L2.40543 35.549L4.19045 36.451ZM19.071 6.76704V6.52344H17.071V6.76704H19.071ZM18.071 5.52344H0.861861V7.52344H18.071V5.52344ZM1.86186 6.52344V0.363635H-0.138139V6.52344H1.86186ZM0.861861 1.36364H25.8665V-0.636365H0.861861V1.36364ZM24.8665 0.363635V6.61044H26.8665V0.363635H24.8665ZM24.9732 6.1609L10.1827 35.5505L11.9693 36.4495L26.7597 7.05998L24.9732 6.1609ZM11.076 35H3.29794V37H11.076V35Z" fill="#001C65" mask="url(#path-1-outside-1_886_9)"/>
</svg>
