<svg width="29" height="38" viewBox="0 0 29 38" fill="none" xmlns="http://www.w3.org/2000/svg">
<mask id="path-1-outside-1_886_10" maskUnits="userSpaceOnUse" x="-1" y="-1" width="31" height="40" fill="black">
<rect fill="white" x="-1" y="-1" width="31" height="40"/>
<path d="M14.1825 37.4872C11.5028 37.4872 9.11896 37.0522 7.0309 36.1822C4.95443 35.3005 3.32457 34.0999 2.14134 32.5803C0.958097 31.0606 0.366477 29.3379 0.366477 27.4123C0.366477 25.9274 0.702888 24.5644 1.37571 23.3232C2.06013 22.0703 2.98816 21.0321 4.1598 20.2085C5.33144 19.3732 6.64228 18.8396 8.09233 18.6076V18.364C6.18987 17.9812 4.64702 17.0589 3.46378 15.5973C2.28054 14.1241 1.68892 12.413 1.68892 10.4641C1.68892 8.61967 2.22834 6.97822 3.30717 5.53977C4.38601 4.08972 5.86506 2.95289 7.74432 2.12926C9.63518 1.29403 11.7812 0.876419 14.1825 0.876419C16.5838 0.876419 18.7241 1.29403 20.6033 2.12926C22.4942 2.96449 23.979 4.10712 25.0579 5.55717C26.1367 6.99562 26.6819 8.63127 26.6935 10.4641C26.6819 12.4246 26.0787 14.1357 24.8839 15.5973C23.689 17.0589 22.1578 17.9812 20.2901 18.364V18.6076C21.717 18.8396 23.0104 19.3732 24.1705 20.2085C25.3421 21.0321 26.2701 22.0703 26.9545 23.3232C27.6506 24.5644 28.0044 25.9274 28.016 27.4123C28.0044 29.3379 27.407 31.0606 26.2237 32.5803C25.0405 34.0999 23.4048 35.3005 21.3168 36.1822C19.2403 37.0522 16.8622 37.4872 14.1825 37.4872ZM14.1825 31.9538C15.3774 31.9538 16.4214 31.7392 17.3146 31.31C18.2079 30.8692 18.9039 30.266 19.4027 29.5004C19.9131 28.7231 20.1683 27.8299 20.1683 26.8207C20.1683 25.7882 19.9073 24.8776 19.3853 24.0888C18.8633 23.2884 18.1557 22.6619 17.2624 22.2095C16.3692 21.7455 15.3426 21.5135 14.1825 21.5135C13.0341 21.5135 12.0075 21.7455 11.1026 22.2095C10.1978 22.6619 9.48438 23.2884 8.96236 24.0888C8.45194 24.8776 8.19673 25.7882 8.19673 26.8207C8.19673 27.8299 8.44614 28.7231 8.94496 29.5004C9.44377 30.266 10.1456 30.8692 11.0504 31.31C11.9553 31.7392 12.9993 31.9538 14.1825 31.9538ZM14.1825 16.0323C15.1802 16.0323 16.0676 15.8293 16.8448 15.4233C17.622 15.0173 18.2311 14.4547 18.6719 13.7354C19.1127 13.0162 19.3331 12.1868 19.3331 11.2472C19.3331 10.3191 19.1127 9.5071 18.6719 8.81108C18.2311 8.10345 17.6278 7.55244 16.8622 7.15803C16.0966 6.75201 15.2034 6.54901 14.1825 6.54901C13.1733 6.54901 12.2801 6.75201 11.5028 7.15803C10.7256 7.55244 10.1166 8.10345 9.67578 8.81108C9.24657 9.5071 9.03196 10.3191 9.03196 11.2472C9.03196 12.1868 9.25237 13.0162 9.69318 13.7354C10.134 14.4547 10.743 15.0173 11.5202 15.4233C12.2975 15.8293 13.1849 16.0323 14.1825 16.0323Z"/>
</mask>
<path d="M14.1825 37.4872C11.5028 37.4872 9.11896 37.0522 7.0309 36.1822C4.95443 35.3005 3.32457 34.0999 2.14134 32.5803C0.958097 31.0606 0.366477 29.3379 0.366477 27.4123C0.366477 25.9274 0.702888 24.5644 1.37571 23.3232C2.06013 22.0703 2.98816 21.0321 4.1598 20.2085C5.33144 19.3732 6.64228 18.8396 8.09233 18.6076V18.364C6.18987 17.9812 4.64702 17.0589 3.46378 15.5973C2.28054 14.1241 1.68892 12.413 1.68892 10.4641C1.68892 8.61967 2.22834 6.97822 3.30717 5.53977C4.38601 4.08972 5.86506 2.95289 7.74432 2.12926C9.63518 1.29403 11.7812 0.876419 14.1825 0.876419C16.5838 0.876419 18.7241 1.29403 20.6033 2.12926C22.4942 2.96449 23.979 4.10712 25.0579 5.55717C26.1367 6.99562 26.6819 8.63127 26.6935 10.4641C26.6819 12.4246 26.0787 14.1357 24.8839 15.5973C23.689 17.0589 22.1578 17.9812 20.2901 18.364V18.6076C21.717 18.8396 23.0104 19.3732 24.1705 20.2085C25.3421 21.0321 26.2701 22.0703 26.9545 23.3232C27.6506 24.5644 28.0044 25.9274 28.016 27.4123C28.0044 29.3379 27.407 31.0606 26.2237 32.5803C25.0405 34.0999 23.4048 35.3005 21.3168 36.1822C19.2403 37.0522 16.8622 37.4872 14.1825 37.4872ZM14.1825 31.9538C15.3774 31.9538 16.4214 31.7392 17.3146 31.31C18.2079 30.8692 18.9039 30.266 19.4027 29.5004C19.9131 28.7231 20.1683 27.8299 20.1683 26.8207C20.1683 25.7882 19.9073 24.8776 19.3853 24.0888C18.8633 23.2884 18.1557 22.6619 17.2624 22.2095C16.3692 21.7455 15.3426 21.5135 14.1825 21.5135C13.0341 21.5135 12.0075 21.7455 11.1026 22.2095C10.1978 22.6619 9.48438 23.2884 8.96236 24.0888C8.45194 24.8776 8.19673 25.7882 8.19673 26.8207C8.19673 27.8299 8.44614 28.7231 8.94496 29.5004C9.44377 30.266 10.1456 30.8692 11.0504 31.31C11.9553 31.7392 12.9993 31.9538 14.1825 31.9538ZM14.1825 16.0323C15.1802 16.0323 16.0676 15.8293 16.8448 15.4233C17.622 15.0173 18.2311 14.4547 18.6719 13.7354C19.1127 13.0162 19.3331 12.1868 19.3331 11.2472C19.3331 10.3191 19.1127 9.5071 18.6719 8.81108C18.2311 8.10345 17.6278 7.55244 16.8622 7.15803C16.0966 6.75201 15.2034 6.54901 14.1825 6.54901C13.1733 6.54901 12.2801 6.75201 11.5028 7.15803C10.7256 7.55244 10.1166 8.10345 9.67578 8.81108C9.24657 9.5071 9.03196 10.3191 9.03196 11.2472C9.03196 12.1868 9.25237 13.0162 9.69318 13.7354C10.134 14.4547 10.743 15.0173 11.5202 15.4233C12.2975 15.8293 13.1849 16.0323 14.1825 16.0323Z" fill="#6486FF"/>
<path d="M7.0309 36.1822L6.64007 37.1027L6.64628 37.1053L7.0309 36.1822ZM2.14134 32.5803L1.35231 33.1946L2.14134 32.5803ZM1.37571 23.3232L0.498121 22.8437L0.496562 22.8466L1.37571 23.3232ZM4.1598 20.2085L4.73491 21.0266L4.74028 21.0227L4.1598 20.2085ZM8.09233 18.6076L8.25032 19.595L9.09233 19.4603V18.6076H8.09233ZM8.09233 18.364H9.09233V17.5452L8.2896 17.3836L8.09233 18.364ZM3.46378 15.5973L2.6841 16.2235L2.68653 16.2265L3.46378 15.5973ZM3.30717 5.53977L4.10718 6.13977L4.10948 6.13669L3.30717 5.53977ZM7.74432 2.12926L8.14573 3.04516L8.14837 3.044L7.74432 2.12926ZM20.6033 2.12926L20.1972 3.04307L20.1993 3.044L20.6033 2.12926ZM25.0579 5.55717L24.2556 6.15409L24.2579 6.15717L25.0579 5.55717ZM26.6935 10.4641L27.6936 10.47L27.6935 10.4578L26.6935 10.4641ZM24.8839 15.5973L24.1096 14.9644L24.1096 14.9644L24.8839 15.5973ZM20.2901 18.364L20.0893 17.3844L19.2901 17.5482V18.364H20.2901ZM20.2901 18.6076H19.2901V19.4581L20.1296 19.5946L20.2901 18.6076ZM24.1705 20.2085L23.5861 21.02L23.5954 21.0265L24.1705 20.2085ZM26.9545 23.3232L26.0769 23.8026L26.0823 23.8123L26.9545 23.3232ZM28.016 27.4123L29.0161 27.4183L29.016 27.4045L28.016 27.4123ZM26.2237 32.5803L25.4347 31.9659L25.4347 31.9659L26.2237 32.5803ZM21.3168 36.1822L21.7032 37.1045L21.7057 37.1034L21.3168 36.1822ZM17.3146 31.31L17.7478 32.2114L17.7572 32.2068L17.3146 31.31ZM19.4027 29.5004L18.5668 28.9514L18.5648 28.9545L19.4027 29.5004ZM19.3853 24.0888L18.5477 24.6351L18.5514 24.6406L19.3853 24.0888ZM17.2624 22.2095L16.8014 23.097L16.8106 23.1016L17.2624 22.2095ZM11.1026 22.2095L11.5499 23.104L11.5589 23.0993L11.1026 22.2095ZM8.96236 24.0888L8.12474 23.5425L8.12279 23.5455L8.96236 24.0888ZM8.94496 29.5004L8.10335 30.0405L8.10709 30.0462L8.94496 29.5004ZM11.0504 31.31L10.6124 32.2091L10.6218 32.2135L11.0504 31.31ZM16.8448 15.4233L16.3818 14.5369L16.3818 14.5369L16.8448 15.4233ZM18.6719 13.7354L17.8193 13.2129L17.8193 13.2129L18.6719 13.7354ZM18.6719 8.81108L17.8231 9.33984L17.8271 9.34613L18.6719 8.81108ZM16.8622 7.15803L16.3937 8.04155L16.4043 8.047L16.8622 7.15803ZM11.5028 7.15803L11.9554 8.04984L11.9659 8.04437L11.5028 7.15803ZM9.67578 8.81108L8.82699 8.28233L8.82461 8.28619L9.67578 8.81108ZM9.69318 13.7354L8.84058 14.258L8.84058 14.258L9.69318 13.7354ZM11.5202 15.4233L11.9833 14.5369L11.9833 14.5369L11.5202 15.4233ZM14.1825 36.4872C11.6109 36.4872 9.36139 36.0699 7.41551 35.2591L6.64628 37.1053C8.87653 38.0345 11.3948 38.4872 14.1825 38.4872V36.4872ZM7.42171 35.2617C5.47489 34.4351 3.99243 33.3299 2.93036 31.9659L1.35231 33.1946C2.65671 34.8699 4.43396 36.166 6.64008 37.1026L7.42171 35.2617ZM2.93036 31.9659C1.88383 30.6218 1.36648 29.1154 1.36648 27.4123H-0.633523C-0.633523 29.5605 0.0323637 31.4994 1.35231 33.1946L2.93036 31.9659ZM1.36648 27.4123C1.36648 26.085 1.66548 24.887 2.25486 23.7997L0.496562 22.8466C-0.259708 24.2418 -0.633523 25.7699 -0.633523 27.4123H1.36648ZM2.2533 23.8026C2.86395 22.6848 3.6883 21.7623 4.73489 21.0265L3.58471 19.3904C2.28802 20.3019 1.25632 21.4559 0.498125 22.8437L2.2533 23.8026ZM4.74028 21.0227C5.78367 20.2789 6.94932 19.8032 8.25032 19.595L7.93434 17.6202C6.33524 17.876 4.8792 18.4675 3.57933 19.3942L4.74028 21.0227ZM9.09233 18.6076V18.364H7.09233V18.6076H9.09233ZM8.2896 17.3836C6.60752 17.0452 5.27272 16.2425 4.24102 14.9681L2.68653 16.2265C4.02132 17.8754 5.77221 18.9172 7.89506 19.3443L8.2896 17.3836ZM4.24345 14.9711C3.20758 13.6814 2.68892 12.193 2.68892 10.4641H0.688921C0.688921 12.633 1.3535 14.5667 2.68411 16.2235L4.24345 14.9711ZM2.68892 10.4641C2.68892 8.83004 3.16172 7.40038 4.10717 6.13977L2.50717 4.93977C1.29496 6.55606 0.688921 8.40931 0.688921 10.4641H2.68892ZM4.10948 6.13669C5.07127 4.84396 6.40365 3.80866 8.14573 3.04516L7.34291 1.21336C5.32646 2.09711 3.70075 3.33549 2.50487 4.94286L4.10948 6.13669ZM8.14837 3.044C9.89302 2.27336 11.8981 1.87642 14.1825 1.87642V-0.123581C11.6644 -0.123581 9.37734 0.31471 7.34026 1.21453L8.14837 3.044ZM14.1825 1.87642C16.4671 1.87642 18.4654 2.2734 20.1972 3.04307L21.0095 1.21545C18.9827 0.314662 16.7005 -0.123581 14.1825 -0.123581V1.87642ZM20.1993 3.044C21.9552 3.81962 23.2939 4.86147 24.2556 6.15409L25.8602 4.96026C24.6642 3.35278 23.0332 2.10936 21.0074 1.21453L20.1993 3.044ZM24.2579 6.15717C25.2055 7.42072 25.6833 8.84734 25.6936 10.4705L27.6935 10.4578C27.6806 8.41521 27.0679 6.57052 25.8579 4.95717L24.2579 6.15717ZM25.6936 10.4582C25.6833 12.1995 25.1539 13.687 24.1096 14.9644L25.6581 16.2302C27.0036 14.5843 27.6806 12.6497 27.6935 10.47L25.6936 10.4582ZM24.1096 14.9644C23.0619 16.2461 21.7341 17.0472 20.0893 17.3844L20.4909 19.3436C22.5815 18.9151 24.3161 17.8718 25.6581 16.2302L24.1096 14.9644ZM19.2901 18.364V18.6076H21.2901V18.364H19.2901ZM20.1296 19.5946C21.4053 19.8021 22.5533 20.2764 23.5862 21.02L24.7548 19.3969C23.4675 18.4701 22.0286 17.8771 20.4506 17.6206L20.1296 19.5946ZM23.5954 21.0265C24.642 21.7623 25.4663 22.6848 26.077 23.8026L27.8321 22.8437C27.0739 21.4559 26.0422 20.3019 24.7455 19.3904L23.5954 21.0265ZM26.0823 23.8123C26.6922 24.8999 27.0057 26.0963 27.016 27.4201L29.016 27.4045C29.0031 25.7586 28.6089 24.2289 27.8268 22.8341L26.0823 23.8123ZM27.016 27.4063C27.0057 29.1114 26.4825 30.6202 25.4347 31.9659L27.0127 33.1946C28.3314 31.501 29.003 29.5645 29.016 27.4183L27.016 27.4063ZM25.4347 31.9659C24.3736 33.3287 22.8864 34.4339 20.9278 35.2609L21.7057 37.1034C23.9232 36.1671 25.7074 34.8711 27.0127 33.1946L25.4347 31.9659ZM20.9303 35.2599C18.9972 36.0698 16.7543 36.4872 14.1825 36.4872V38.4872C16.9701 38.4872 19.4834 38.0346 21.7032 37.1045L20.9303 35.2599ZM14.1825 32.9538C15.4969 32.9538 16.6944 32.7175 17.7477 32.2114L16.8815 30.4087C16.1484 30.761 15.2578 30.9538 14.1825 30.9538V32.9538ZM17.7572 32.2068C18.7963 31.6939 19.6351 30.9755 20.2406 30.0462L18.5648 28.9545C18.1727 29.5564 17.6194 30.0445 16.8721 30.4133L17.7572 32.2068ZM20.2386 30.0493C20.8652 29.0951 21.1683 28.0076 21.1683 26.8207H19.1683C19.1683 27.6522 18.961 28.3512 18.5668 28.9514L20.2386 30.0493ZM21.1683 26.8207C21.1683 25.6107 20.8595 24.5044 20.2192 23.5369L18.5514 24.6406C18.9552 25.2509 19.1683 25.9658 19.1683 26.8207H21.1683ZM20.2229 23.5425C19.6003 22.5878 18.7564 21.8453 17.7143 21.3174L16.8106 23.1016C17.5549 23.4786 18.1263 23.9889 18.5477 24.635L20.2229 23.5425ZM17.7234 21.3221C16.6675 20.7736 15.4785 20.5135 14.1825 20.5135V22.5135C15.2067 22.5135 16.0709 22.7174 16.8014 23.0969L17.7234 21.3221ZM14.1825 20.5135C12.8961 20.5135 11.7097 20.7744 10.6463 21.3197L11.5589 23.0993C12.3052 22.7166 13.1721 22.5135 14.1825 22.5135V20.5135ZM10.6554 21.3151C9.60154 21.842 8.74944 22.5846 8.12475 23.5425L9.79997 24.635C10.2193 23.9921 10.7941 23.4818 11.5498 23.1039L10.6554 21.3151ZM8.12279 23.5455C7.4974 24.512 7.19673 25.6153 7.19673 26.8207H9.19673C9.19673 25.9612 9.40649 25.2432 9.80193 24.632L8.12279 23.5455ZM7.19673 26.8207C7.19673 28.0029 7.49158 29.0872 8.10337 30.0405L9.78654 28.9602C9.4007 28.359 9.19673 27.6569 9.19673 26.8207H7.19673ZM8.10709 30.0462C8.71462 30.9787 9.56183 31.6972 10.6125 32.209L11.4884 30.411C10.7294 30.0412 10.1729 29.5532 9.78282 28.9545L8.10709 30.0462ZM10.6218 32.2135C11.6828 32.7168 12.8777 32.9538 14.1825 32.9538V30.9538C13.1209 30.9538 12.2277 30.7617 11.479 30.4065L10.6218 32.2135ZM14.1825 17.0323C15.319 17.0323 16.3691 16.8 17.3078 16.3096L16.3818 14.5369C15.7661 14.8586 15.0413 15.0323 14.1825 15.0323V17.0323ZM17.3078 16.3096C18.2388 15.8233 18.9853 15.1378 19.5245 14.258L17.8193 13.2129C17.4768 13.7716 17.0053 14.2113 16.3818 14.5369L17.3078 16.3096ZM19.5245 14.258C20.0724 13.3641 20.3331 12.3496 20.3331 11.2472H18.3331C18.3331 12.024 18.153 12.6684 17.8193 13.2129L19.5245 14.258ZM20.3331 11.2472C20.3331 10.1543 20.0713 9.15172 19.5167 8.27603L17.8271 9.34613C18.1541 9.86248 18.3331 10.4839 18.3331 11.2472H20.3331ZM19.5207 8.28233C18.9812 7.41636 18.2406 6.74322 17.3202 6.26905L16.4043 8.047C17.0151 8.36165 17.4809 8.79055 17.8231 9.33983L19.5207 8.28233ZM17.3307 6.27456C16.3971 5.77948 15.3376 5.54901 14.1825 5.54901V7.54901C15.0691 7.54901 15.7961 7.72455 16.3937 8.04149L17.3307 6.27456ZM14.1825 5.54901C13.0365 5.54901 11.9802 5.78044 11.0398 6.27168L11.9659 8.04437C12.5799 7.72358 13.3101 7.54901 14.1825 7.54901V5.54901ZM11.0503 6.26628C10.1181 6.73934 9.36879 7.41262 8.827 8.28233L10.5246 9.33983C10.8644 8.79429 11.3331 8.36553 11.9554 8.04978L11.0503 6.26628ZM8.82461 8.28619C8.28548 9.16046 8.03196 10.1594 8.03196 11.2472H10.032C10.032 10.4789 10.2077 9.85374 10.527 9.33597L8.82461 8.28619ZM8.03196 11.2472C8.03196 12.3496 8.29268 13.3641 8.84058 14.258L10.5458 13.2129C10.2121 12.6684 10.032 12.024 10.032 11.2472H8.03196ZM8.84058 14.258C9.37979 15.1378 10.1262 15.8233 11.0572 16.3096L11.9833 14.5369C11.3598 14.2113 10.8882 13.7716 10.5458 13.2129L8.84058 14.258ZM11.0572 16.3096C11.996 16.8 13.0461 17.0323 14.1825 17.0323V15.0323C13.3237 15.0323 12.5989 14.8586 11.9833 14.5369L11.0572 16.3096Z" fill="#001C65" mask="url(#path-1-outside-1_886_10)"/>
</svg>
