<svg width="17" height="34" viewBox="0 0 17 34" fill="none" xmlns="http://www.w3.org/2000/svg">
<mask id="mask0_656_811" style="mask-type:luminance" maskUnits="userSpaceOnUse" x="0" y="0" width="17" height="34">
<path d="M17 0H0V34H17V0Z" fill="white"/>
<path d="M8.6138 32.4478C7.17099 32.4478 5.88211 32.0773 4.74716 31.3361C3.61825 30.5852 2.73082 29.5711 2.08487 28.2935C1.44496 27.0063 1.125 25.5532 1.125 23.9344C1.125 22.6959 1.30913 21.5598 1.67738 20.5261C2.04563 19.4923 2.54368 18.6342 3.17152 17.9516C3.8054 17.2592 4.51172 16.8154 5.29047 16.6204V16.3864C4.27024 16.084 3.43413 15.3185 2.78214 14.0898C2.13618 12.861 1.81321 11.4226 1.81321 9.77456C1.81321 8.21422 2.106 6.82457 2.69158 5.60558C3.2832 4.38658 4.08913 3.42601 5.10938 2.72387C6.13565 2.02173 7.30379 1.67065 8.6138 1.67065C9.92382 1.67065 11.089 2.02173 12.1092 2.72387C13.1355 3.42601 13.9414 4.38658 14.527 5.60558C15.1186 6.82457 15.4144 8.21422 15.4144 9.77456C15.4144 11.4324 15.0854 12.8757 14.4274 14.1044C13.7754 15.3234 12.9453 16.084 11.9371 16.3864V16.6204C12.7099 16.8154 13.4102 17.2592 14.038 17.9516C14.6719 18.6342 15.1729 19.4923 15.5412 20.5261C15.9155 21.5598 16.1026 22.6959 16.1026 23.9344C16.1026 25.5532 15.7797 27.0063 15.1337 28.2935C14.4878 29.5711 13.6003 30.5852 12.4714 31.3361C11.3485 32.0773 10.0627 32.4478 8.6138 32.4478ZM8.6138 27.3135C9.16319 27.3135 9.64615 27.1476 10.0627 26.8161C10.4792 26.4748 10.8052 26.0018 11.0407 25.3972C11.2822 24.7926 11.4029 24.1099 11.4029 23.3493C11.4029 22.5691 11.2822 21.8767 11.0407 21.2721C10.7992 20.6675 10.4672 20.1945 10.0446 19.8532C9.62802 19.5022 9.15108 19.3266 8.6138 19.3266C8.08255 19.3266 7.60566 19.5022 7.18305 19.8532C6.76048 20.1945 6.42845 20.6675 6.18697 21.2721C5.94549 21.8767 5.82475 22.5691 5.82475 23.3493C5.82475 24.1099 5.94246 24.7926 6.17791 25.3972C6.41939 25.992 6.74842 26.4602 7.16496 26.8015C7.58753 27.1428 8.07049 27.3135 8.6138 27.3135ZM8.6138 14.2214C9.0847 14.2214 9.50124 14.0654 9.86347 13.7533C10.2317 13.4413 10.5185 13.0073 10.7237 12.4515C10.935 11.8956 11.0407 11.2666 11.0407 10.5645C11.0407 9.8623 10.935 9.24304 10.7237 8.7067C10.5185 8.17034 10.2347 7.75101 9.87253 7.4487C9.51031 7.13663 9.09073 6.9806 8.6138 6.9806C8.14294 6.9806 7.72337 7.13663 7.35512 7.4487C6.98686 7.75101 6.70009 8.17034 6.49483 8.7067C6.28958 9.24304 6.18697 9.8623 6.18697 10.5645C6.18697 11.2666 6.28958 11.8956 6.49483 12.4515C6.70616 12.9976 6.99593 13.4315 7.36418 13.7533C7.73244 14.0654 8.14898 14.2214 8.6138 14.2214Z" fill="black"/>
</mask>
<g mask="url(#mask0_656_811)">
<path d="M4.75058 31.3362L4.45776 32.485L4.46235 32.488L4.75058 31.3362ZM2.0883 28.2936L1.48866 29.0715L1.49066 29.0755L1.49268 29.0796L2.0883 28.2936ZM3.17494 17.9517L3.60436 18.9823L3.60572 18.9808L3.17494 17.9517ZM5.29389 16.6205L5.41171 17.8482L6.06294 17.6851V16.6205H5.29389ZM5.29389 16.3865H6.06294V15.3513L5.43264 15.1646L5.29389 16.3865ZM2.78556 14.0899L2.19936 14.894L2.20166 14.8984L2.78556 14.0899ZM2.695 5.60569L2.08978 4.8392L2.08743 4.84407L2.695 5.60569ZM5.1128 2.72398L4.81287 1.58004L4.81137 1.58108L5.1128 2.72398ZM12.1126 2.72398L11.8112 3.86689L11.8127 3.86792L12.1126 2.72398ZM14.5304 5.60569L13.9228 6.36732L13.9252 6.37218L14.5304 5.60569ZM14.4308 14.1045L13.8492 13.2918L13.8489 13.2924L14.4308 14.1045ZM11.9406 16.3865L11.8002 15.165L11.1715 15.3536V16.3865H11.9406ZM11.9406 16.6205H11.1715V17.6838L11.8218 17.848L11.9406 16.6205ZM14.0414 17.9517L13.6078 18.9777L13.6113 18.9816L13.6148 18.9853L14.0414 17.9517ZM15.5446 20.5262L14.878 21.1458L14.8808 21.1534L15.5446 20.5262ZM15.1371 28.2936L15.7327 29.0796L15.7346 29.076L15.1371 28.2936ZM12.4748 31.3362L12.7657 32.4863L12.7677 32.485L12.4748 31.3362ZM10.0661 26.8162L10.406 27.9306L10.41 27.9274L10.414 27.9241L10.0661 26.8162ZM11.0441 25.3973L10.3979 24.7238L10.3955 24.7298L10.3931 24.7359L11.0441 25.3973ZM10.048 19.8533L9.69227 20.9547L9.69814 20.9597L9.70405 20.9645L10.048 19.8533ZM7.18647 19.8533L7.5304 20.9645L7.53433 20.9613L7.53821 20.9581L7.18647 19.8533ZM6.18133 25.3973L5.53035 26.0588L5.53424 26.0687L5.5382 26.0785L6.18133 25.3973ZM7.16838 26.8016L6.82049 27.9096L6.82445 27.9128L7.16838 26.8016ZM9.86689 13.7535L9.5096 12.6533L9.50499 12.6573L9.86689 13.7535ZM10.7271 12.4516L10.0718 11.8015L10.0692 11.8083L10.0667 11.8151L10.7271 12.4516ZM10.7271 8.70681L10.073 9.36007L10.0756 9.36694L10.0783 9.3738L10.7271 8.70681ZM9.87595 7.44881L9.51402 8.54499L9.51847 8.54878L9.52292 8.55251L9.87595 7.44881ZM7.35854 7.44881L7.70696 8.5563L7.71141 8.55264L7.71578 8.54891L7.35854 7.44881ZM6.49826 12.4516L5.83781 13.088L5.84189 13.099L5.8461 13.11L6.49826 12.4516ZM7.3676 13.7535L7.00166 14.8461L7.00599 14.8499L7.01032 14.8536L7.3676 13.7535ZM8.61722 31.2057C7.25585 31.2057 6.06735 30.8562 5.03881 30.1845L4.46235 32.488C5.70367 33.2986 7.09297 33.6903 8.61722 33.6903V31.2057ZM5.0434 30.1875C4.00949 29.4998 3.23473 28.5971 2.68391 27.5078L1.49268 29.0796C2.23376 30.5451 3.23385 31.6709 4.45776 32.485L5.0434 30.1875ZM2.68793 27.5158C2.1553 26.4444 1.89747 25.2644 1.89747 23.9345H0.359375C0.359375 25.8422 0.741459 27.5684 1.48866 29.0715L2.68793 27.5158ZM1.89747 23.9345C1.89747 22.9048 2.0489 21.9836 2.34736 21.1458L1.01425 19.9065C0.576202 21.1362 0.359375 22.4873 0.359375 23.9345H1.89747ZM2.34736 21.1458C2.65553 20.2808 3.07143 19.5617 3.60436 18.9823L2.74552 16.9211C2.02277 17.7069 1.44258 18.7042 1.01425 19.9065L2.34736 21.1458ZM3.60572 18.9808C4.14277 18.3942 4.74162 18.016 5.41171 17.8482L5.17606 15.3929C4.28866 15.6152 3.47487 16.1244 2.74416 16.9226L3.60572 18.9808ZM6.06294 16.6205V16.3865H4.52486V16.6205H6.06294ZM5.43264 15.1646C4.5791 14.9116 3.90245 14.2859 3.36946 13.2814L2.20166 14.8984C2.97264 16.3514 3.96823 17.2567 5.15514 17.6084L5.43264 15.1646ZM3.37176 13.2858C2.84671 12.287 2.58568 11.1353 2.58568 9.77468H1.04758C1.04758 11.7101 1.43251 13.4353 2.19936 14.894L3.37176 13.2858ZM2.58568 9.77468C2.58568 8.48679 2.82293 7.36578 3.30258 6.36731L2.08743 4.84407C1.39592 6.28359 1.04758 7.94192 1.04758 9.77468H2.58568ZM3.30023 6.37218C3.8001 5.34221 4.49445 4.4999 5.41422 3.86689L4.81137 1.58108C3.69067 2.35236 2.77314 3.43117 2.08978 4.8392L3.30023 6.37218ZM5.41273 3.86792C6.32899 3.24105 7.39246 2.91308 8.61722 2.91308V0.428467C7.22201 0.428467 5.94916 0.802628 4.81287 1.58004L5.41273 3.86792ZM8.61722 2.91308C9.84216 2.91308 10.9019 3.24112 11.8112 3.86689L12.4141 1.58108C11.2828 0.802571 10.0124 0.428467 8.61722 0.428467V2.91308ZM11.8127 3.86792C12.7382 4.50113 13.4304 5.34226 13.9228 6.36732L15.138 4.84407C14.4592 3.43114 13.5396 2.35112 12.4126 1.58005L11.8127 3.86792ZM13.9252 6.37218C14.4098 7.37074 14.6488 8.49006 14.6488 9.77468H16.1869C16.1869 7.93865 15.8343 6.27864 15.1356 4.8392L13.9252 6.37218ZM14.6488 9.77468C14.6488 11.1407 14.3836 12.2937 13.8492 13.2918L15.0124 14.9173C15.794 13.4578 16.1869 11.7243 16.1869 9.77468H14.6488ZM13.8489 13.2924C13.3145 14.2914 12.6419 14.9127 11.8002 15.165L12.0809 17.6079C13.2555 17.2557 14.2431 16.3556 15.0127 14.9167L13.8489 13.2924ZM11.1715 16.3865V16.6205H12.7096V16.3865H11.1715ZM11.8218 17.848C12.485 18.0154 13.0771 18.3924 13.6078 18.9777L14.475 16.9257C13.7501 16.1261 12.9416 15.6158 12.0593 15.3931L11.8218 17.848ZM13.6148 18.9853C14.1533 19.5652 14.5709 20.2836 14.878 21.1458L16.2112 19.9065C15.7818 18.7014 15.1973 17.7034 14.468 16.918L13.6148 18.9853ZM14.8808 21.1534C15.1838 21.9902 15.337 22.9086 15.337 23.9345H16.8751C16.8751 22.4834 16.6541 21.1297 16.2085 19.899L14.8808 21.1534ZM15.337 23.9345C15.337 25.2613 15.0775 26.4397 14.5397 27.5114L15.7346 29.076C16.4887 27.5731 16.8751 25.8454 16.8751 23.9345H15.337ZM14.5415 27.5078C13.9907 28.5971 13.2159 29.4998 12.182 30.1875L12.7677 32.485C13.9916 31.6709 14.9917 30.5451 15.7327 29.0796L14.5415 27.5078ZM12.1839 30.1863C11.1695 30.8559 9.98532 31.2057 8.61722 31.2057V33.6903C10.1469 33.6903 11.5344 33.299 12.7657 32.4863L12.1839 30.1863ZM8.61722 28.5559C9.26306 28.5559 9.86608 28.3604 10.406 27.9306L9.72619 25.7018C9.43302 25.9352 9.07015 26.0713 8.61722 26.0713V28.5559ZM10.414 27.9241C10.9474 27.487 11.3812 26.8646 11.695 26.0588L10.3931 24.7359C10.236 25.1392 10.0179 25.4627 9.71822 25.7083L10.414 27.9241ZM11.6903 26.0708C12.0167 25.2537 12.1754 24.3347 12.1754 23.3494H10.6373C10.6373 23.8855 10.5545 24.3316 10.3979 24.7238L11.6903 26.0708ZM12.1754 23.3494C12.1754 22.3513 12.0187 21.421 11.6903 20.5987L10.3979 21.9457C10.5524 22.3326 10.6373 22.7872 10.6373 23.3494H12.1754ZM11.6903 20.5987C11.3696 19.7957 10.93 19.1767 10.3919 18.7422L9.70405 20.9645C10.0112 21.2125 10.2356 21.5395 10.3979 21.9457L11.6903 20.5987ZM10.4037 18.7519C9.86252 18.2957 9.26047 18.0844 8.61722 18.0844V20.569C9.04858 20.569 9.4004 20.7087 9.69227 20.9547L10.4037 18.7519ZM8.61722 18.0844C7.97827 18.0844 7.37845 18.2969 6.83478 18.7485L7.53821 20.9581C7.83968 20.7076 8.19372 20.569 8.61722 20.569V18.0844ZM6.84255 18.7422C6.30454 19.1767 5.86489 19.7957 5.54415 20.5987L6.83664 21.9457C6.99883 21.5395 7.22327 21.2125 7.5304 20.9645L6.84255 18.7422ZM5.54415 20.5987C5.21573 21.421 5.05913 22.3513 5.05913 23.3494H6.59722C6.59722 22.7872 6.68206 22.3326 6.83664 21.9457L5.54415 20.5987ZM5.05913 23.3494C5.05913 24.3282 5.21269 25.243 5.53035 26.0588L6.83231 24.7359C6.67906 24.3424 6.59722 23.8919 6.59722 23.3494H5.05913ZM5.5382 26.0785C5.85784 26.866 6.29167 27.4763 6.82049 27.9096L7.51627 25.6937C7.21197 25.4443 6.98778 25.1184 6.82445 24.7161L5.5382 26.0785ZM6.82445 27.9128C7.36878 28.3524 7.97248 28.5559 8.61722 28.5559V26.0713C8.17535 26.0713 7.81313 25.9334 7.51231 25.6905L6.82445 27.9128ZM8.61722 15.4639C9.19563 15.4639 9.73975 15.2709 10.2288 14.8496L9.50499 12.6573C9.26958 12.8601 8.98058 12.9792 8.61722 12.9792V15.4639ZM10.2241 14.8536C10.713 14.4393 11.1069 13.8483 11.3876 13.088L10.0667 11.8151C9.93691 12.1666 9.75724 12.4434 9.5096 12.6533L10.2241 14.8536ZM11.3825 13.1016C11.6738 12.3352 11.8131 11.4779 11.8131 10.5646H10.275C10.275 11.0554 10.203 11.4562 10.0718 11.8015L11.3825 13.1016ZM11.8131 10.5646C11.8131 9.65169 11.6739 8.79606 11.376 8.03982L10.0783 9.3738C10.203 9.69033 10.275 10.0732 10.275 10.5646H11.8131ZM11.3813 8.05356C11.0994 7.31707 10.7092 6.74594 10.2289 6.34511L9.52292 8.55251C9.76711 8.75631 9.94432 9.02386 10.073 9.36007L11.3813 8.05356ZM10.2379 6.35266C9.74744 5.93017 9.19988 5.73841 8.61722 5.73841V8.22303C8.98843 8.22303 9.27998 8.34334 9.51402 8.54499L10.2379 6.35266ZM8.61722 5.73841C8.03854 5.73841 7.49361 5.93149 7.0013 6.34869L7.71578 8.54891C7.95997 8.34203 8.25415 8.22303 8.61722 8.22303V5.73841ZM7.01012 6.34132C6.52372 6.74061 6.12794 7.31192 5.84412 8.05356L7.15243 9.36007C7.27912 9.02896 7.45685 8.76167 7.70696 8.5563L7.01012 6.34132ZM5.84412 8.05356C5.55545 8.80796 5.42135 9.65862 5.42135 10.5646H6.95944C6.95944 10.0662 7.0306 9.67836 7.15243 9.36007L5.84412 8.05356ZM5.42135 10.5646C5.42135 11.4711 5.55549 12.3235 5.83781 13.088L7.15875 11.8151C7.03052 11.4679 6.95944 11.0623 6.95944 10.5646H5.42135ZM5.8461 13.11C6.13154 13.8477 6.52246 14.4273 7.00166 14.8461L7.73351 12.6608C7.4762 12.436 7.28758 12.1477 7.15041 11.7932L5.8461 13.11ZM7.01032 14.8536C7.50126 15.2696 8.04283 15.4639 8.61722 15.4639V12.9792C8.26197 12.9792 7.97042 12.8614 7.72485 12.6534L7.01032 14.8536Z" fill="white"/>
</g>
</svg>
