<svg width="29" height="38" viewBox="0 0 29 38" fill="none" xmlns="http://www.w3.org/2000/svg">
<mask id="path-1-outside-1_886_11" maskUnits="userSpaceOnUse" x="-1" y="-1" width="31" height="40" fill="black">
<rect fill="white" x="-1" y="-1" width="31" height="40"/>
<path d="M13.7823 0.876419C15.6152 0.876419 17.3784 1.18383 19.0721 1.79865C20.7773 2.41347 22.297 3.3937 23.631 4.73935C24.9767 6.08499 26.0381 7.87145 26.8153 10.0987C27.6042 12.3144 28.0044 15.0347 28.016 18.2596C28.016 21.2873 27.6738 23.9902 26.9893 26.3683C26.3165 28.7347 25.3479 30.7474 24.0835 32.4062C22.819 34.0651 21.2936 35.3295 19.5071 36.1996C17.7206 37.058 15.7254 37.4872 13.5213 37.4872C11.1432 37.4872 9.04356 37.029 7.2223 36.1126C5.40104 35.1845 3.93359 33.9259 2.81996 32.3366C1.71792 30.7358 1.0509 28.9377 0.818892 26.9425H8.24893C8.53894 28.2417 9.14796 29.2509 10.076 29.9702C11.004 30.6778 12.1525 31.0316 13.5213 31.0316C15.8414 31.0316 17.6046 30.0224 18.8111 28.0039C20.0175 25.9738 20.6265 23.1955 20.6381 19.669H20.3945C19.8609 20.7131 19.1417 21.6121 18.2369 22.3661C17.332 23.1085 16.2938 23.6828 15.1222 24.0888C13.9621 24.4948 12.7267 24.6978 11.4158 24.6978C9.31617 24.6978 7.44271 24.2048 5.79545 23.2188C4.1482 22.2327 2.84896 20.8755 1.89773 19.147C0.946496 17.4186 0.470881 15.4465 0.470881 13.2308C0.45928 10.8411 1.0103 8.71248 2.12393 6.84482C3.23757 4.97715 4.79202 3.51551 6.78729 2.45987C8.79415 1.39264 11.1258 0.864818 13.7823 0.876419ZM13.8345 6.79261C12.6629 6.79261 11.6188 7.07102 10.7024 7.62784C9.79759 8.18466 9.07836 8.93288 8.54474 9.87251C8.02273 10.8121 7.76752 11.862 7.77912 13.022C7.77912 14.1937 8.03433 15.2493 8.54474 16.1889C9.06676 17.1169 9.77439 17.8594 10.6676 18.4162C11.5724 18.9614 12.6049 19.234 13.7649 19.234C14.6349 19.234 15.4412 19.0716 16.1836 18.7468C16.926 18.422 17.5698 17.9754 18.1151 17.407C18.6719 16.8269 19.1069 16.1599 19.4201 15.4059C19.7333 14.6519 19.8899 13.8514 19.8899 13.0046C19.8783 11.8794 19.6115 10.8469 19.0895 9.90732C18.5675 8.96768 17.8482 8.21366 16.9318 7.64524C16.0154 7.07682 14.983 6.79261 13.8345 6.79261Z"/>
</mask>
<path d="M13.7823 0.876419C15.6152 0.876419 17.3784 1.18383 19.0721 1.79865C20.7773 2.41347 22.297 3.3937 23.631 4.73935C24.9767 6.08499 26.0381 7.87145 26.8153 10.0987C27.6042 12.3144 28.0044 15.0347 28.016 18.2596C28.016 21.2873 27.6738 23.9902 26.9893 26.3683C26.3165 28.7347 25.3479 30.7474 24.0835 32.4062C22.819 34.0651 21.2936 35.3295 19.5071 36.1996C17.7206 37.058 15.7254 37.4872 13.5213 37.4872C11.1432 37.4872 9.04356 37.029 7.2223 36.1126C5.40104 35.1845 3.93359 33.9259 2.81996 32.3366C1.71792 30.7358 1.0509 28.9377 0.818892 26.9425H8.24893C8.53894 28.2417 9.14796 29.2509 10.076 29.9702C11.004 30.6778 12.1525 31.0316 13.5213 31.0316C15.8414 31.0316 17.6046 30.0224 18.8111 28.0039C20.0175 25.9738 20.6265 23.1955 20.6381 19.669H20.3945C19.8609 20.7131 19.1417 21.6121 18.2369 22.3661C17.332 23.1085 16.2938 23.6828 15.1222 24.0888C13.9621 24.4948 12.7267 24.6978 11.4158 24.6978C9.31617 24.6978 7.44271 24.2048 5.79545 23.2188C4.1482 22.2327 2.84896 20.8755 1.89773 19.147C0.946496 17.4186 0.470881 15.4465 0.470881 13.2308C0.45928 10.8411 1.0103 8.71248 2.12393 6.84482C3.23757 4.97715 4.79202 3.51551 6.78729 2.45987C8.79415 1.39264 11.1258 0.864818 13.7823 0.876419ZM13.8345 6.79261C12.6629 6.79261 11.6188 7.07102 10.7024 7.62784C9.79759 8.18466 9.07836 8.93288 8.54474 9.87251C8.02273 10.8121 7.76752 11.862 7.77912 13.022C7.77912 14.1937 8.03433 15.2493 8.54474 16.1889C9.06676 17.1169 9.77439 17.8594 10.6676 18.4162C11.5724 18.9614 12.6049 19.234 13.7649 19.234C14.6349 19.234 15.4412 19.0716 16.1836 18.7468C16.926 18.422 17.5698 17.9754 18.1151 17.407C18.6719 16.8269 19.1069 16.1599 19.4201 15.4059C19.7333 14.6519 19.8899 13.8514 19.8899 13.0046C19.8783 11.8794 19.6115 10.8469 19.0895 9.90732C18.5675 8.96768 17.8482 8.21366 16.9318 7.64524C16.0154 7.07682 14.983 6.79261 13.8345 6.79261Z" fill="#6486FF"/>
<path d="M13.7823 0.876419L13.7779 1.87642H13.7823V0.876419ZM19.0721 1.79865L18.7309 2.73863L18.7329 2.73937L19.0721 1.79865ZM23.631 4.73935L22.9209 5.44339L22.9239 5.44645L23.631 4.73935ZM26.8153 10.0987L25.8712 10.4282L25.8733 10.4341L26.8153 10.0987ZM28.016 18.2596H29.016L29.016 18.256L28.016 18.2596ZM26.9893 26.3683L26.0283 26.0917L26.0275 26.0948L26.9893 26.3683ZM24.0835 32.4062L24.8788 33.0125L24.8788 33.0125L24.0835 32.4062ZM19.5071 36.1996L19.9402 37.1009L19.945 37.0986L19.5071 36.1996ZM7.2223 36.1126L6.76828 37.0036L6.77281 37.0059L7.2223 36.1126ZM2.81996 32.3366L1.99624 32.9037L2.00101 32.9105L2.81996 32.3366ZM0.818892 26.9425V25.9425H-0.304125L-0.174415 27.058L0.818892 26.9425ZM8.24893 26.9425L9.22492 26.7246L9.05033 25.9425H8.24893V26.9425ZM10.076 29.9702L9.4634 30.7606L9.46965 30.7654L10.076 29.9702ZM18.8111 28.0039L19.6694 28.517L19.6707 28.5148L18.8111 28.0039ZM20.6381 19.669L21.6381 19.6723L21.6414 18.669H20.6381V19.669ZM20.3945 19.669V18.669H19.7826L19.5041 19.2139L20.3945 19.669ZM18.2369 22.3661L18.8712 23.1392L18.877 23.1343L18.2369 22.3661ZM15.1222 24.0888L14.7947 23.1439L14.7918 23.1449L15.1222 24.0888ZM5.79545 23.2188L5.28185 24.0768L5.28185 24.0768L5.79545 23.2188ZM1.89773 19.147L1.02164 19.6292L1.02164 19.6292L1.89773 19.147ZM0.470881 13.2308L1.47089 13.2308L1.47087 13.226L0.470881 13.2308ZM2.12393 6.84482L2.98284 7.35696L2.98284 7.35696L2.12393 6.84482ZM6.78729 2.45987L7.25494 3.34379L7.25682 3.34279L6.78729 2.45987ZM10.7024 7.62784L10.1831 6.77321L10.1783 6.77618L10.7024 7.62784ZM8.54474 9.87251L7.67515 9.37867L7.67059 9.38687L8.54474 9.87251ZM7.77912 13.022L8.77917 13.022L8.77907 13.012L7.77912 13.022ZM8.54474 16.1889L7.66602 16.6663L7.66955 16.6727L7.67317 16.6792L8.54474 16.1889ZM10.6676 18.4162L10.1386 19.2648L10.145 19.2688L10.1515 19.2727L10.6676 18.4162ZM16.1836 18.7468L15.7828 17.8306L15.7828 17.8306L16.1836 18.7468ZM18.1151 17.407L17.3937 16.7144L17.3934 16.7147L18.1151 17.407ZM19.4201 15.4059L20.3436 15.7895L20.3436 15.7895L19.4201 15.4059ZM19.8899 13.0046L20.89 13.0046L20.8899 12.9943L19.8899 13.0046ZM19.0895 9.90732L19.9636 9.42167L19.9636 9.42167L19.0895 9.90732ZM16.9318 7.64524L17.4589 6.79543L17.4589 6.79543L16.9318 7.64524ZM13.7823 1.87642C15.5009 1.87642 17.1485 2.16421 18.7309 2.73863L19.4133 0.858667C17.6084 0.203448 15.7295 -0.123581 13.7823 -0.123581V1.87642ZM18.7329 2.73937C20.2921 3.30153 21.6865 4.1983 22.9209 5.44339L24.3412 4.03531C22.9075 2.5891 21.2626 1.52541 19.4113 0.857924L18.7329 2.73937ZM22.9239 5.44645C24.1408 6.66327 25.1319 8.30976 25.8712 10.4282L27.7595 9.76925C26.9443 7.43314 25.8126 5.50671 24.3381 4.03224L22.9239 5.44645ZM25.8733 10.4341C26.613 12.5119 27.0047 15.1124 27.016 18.2632L29.016 18.256C29.0041 14.957 28.5954 12.1169 27.7574 9.76332L25.8733 10.4341ZM27.016 18.2596C27.016 21.2138 26.6819 23.8209 26.0284 26.0917L27.9503 26.6448C28.6657 24.1594 29.016 21.3608 29.016 18.2596H27.016ZM26.0275 26.0948C25.3828 28.3621 24.4644 30.2568 23.2881 31.8L24.8788 33.0125C26.2314 31.238 27.2502 29.1074 27.9512 26.6417L26.0275 26.0948ZM23.2881 31.8C22.1135 33.3411 20.7083 34.5023 19.0693 35.3005L19.945 37.0986C21.8788 36.1568 23.5245 34.7891 24.8788 33.0125L23.2881 31.8ZM19.074 35.2982C17.4372 36.0848 15.5924 36.4872 13.5213 36.4872V38.4872C15.8584 38.4872 18.0041 38.0313 19.9402 37.1009L19.074 35.2982ZM13.5213 36.4872C11.2734 36.4872 9.33214 36.0547 7.67179 35.2193L6.77281 37.0059C8.75498 38.0033 11.0131 38.4872 13.5213 38.4872V36.4872ZM7.67631 35.2216C5.99278 34.3637 4.65363 33.2109 3.63891 31.7628L2.00101 32.9105C3.21355 34.6409 4.8093 36.0054 6.76829 37.0036L7.67631 35.2216ZM3.64365 31.7696C2.63732 30.3078 2.02601 28.6658 1.8122 26.827L-0.174415 27.058C0.0757849 29.2097 0.798527 31.1638 1.99626 32.9037L3.64365 31.7696ZM0.818892 27.9425H8.24893V25.9425H0.818892V27.9425ZM7.27295 27.1603C7.60652 28.6547 8.32674 29.8797 9.46342 30.7606L10.6886 29.1798C9.96919 28.6222 9.47137 27.8287 9.22492 26.7246L7.27295 27.1603ZM9.46965 30.7654C10.6008 31.6279 11.9727 32.0316 13.5213 32.0316V30.0316C12.3322 30.0316 11.4073 29.7277 10.6823 29.175L9.46965 30.7654ZM13.5213 32.0316C16.1991 32.0316 18.2855 30.8324 19.6694 28.517L17.9527 27.4909C16.9238 29.2123 15.4837 30.0316 13.5213 30.0316V32.0316ZM19.6707 28.5148C21.0028 26.2734 21.6262 23.2956 21.6381 19.6723L19.6381 19.6657C19.6269 23.0955 19.0323 25.6743 17.9514 27.493L19.6707 28.5148ZM20.6381 18.669H20.3945V20.669H20.6381V18.669ZM19.5041 19.2139C19.0322 20.1372 18.3983 20.9299 17.5967 21.5979L18.877 23.1343C19.8851 22.2943 20.6896 21.2889 21.285 20.1241L19.5041 19.2139ZM17.6025 21.593C16.7944 22.2562 15.8614 22.7743 14.7947 23.1439L15.4496 25.0337C16.7262 24.5913 17.8697 23.9609 18.8712 23.1392L17.6025 21.593ZM14.7918 23.1449C13.7448 23.5114 12.6217 23.6978 11.4158 23.6978V25.6978C12.8317 25.6978 14.1794 25.4782 15.4525 25.0326L14.7918 23.1449ZM11.4158 23.6978C9.47957 23.6978 7.78675 23.2453 6.30906 22.3607L5.28185 24.0768C7.09866 25.1643 9.15277 25.6978 11.4158 25.6978V23.6978ZM6.30906 22.3607C4.81814 21.4683 3.64212 20.2426 2.77382 18.6649L1.02164 19.6292C2.0558 21.5083 3.47826 22.9972 5.28185 24.0768L6.30906 22.3607ZM2.77382 18.6649C1.91347 17.1016 1.47088 15.299 1.47088 13.2308H-0.529119C-0.529119 15.594 -0.020479 17.7356 1.02164 19.6292L2.77382 18.6649ZM1.47087 13.226C1.46006 10.9997 1.97147 9.05311 2.98284 7.35696L1.26503 6.33267C0.0491318 8.37184 -0.541501 10.6826 -0.529108 13.2357L1.47087 13.226ZM2.98284 7.35696C3.99892 5.65291 5.41523 4.31712 7.25494 3.34379L6.31964 1.57596C4.16882 2.71389 2.47623 4.3014 1.26503 6.33267L2.98284 7.35696ZM7.25682 3.34279C9.09497 2.36527 11.2587 1.86541 13.7779 1.87641L13.7867 -0.123571C10.9929 -0.135771 8.49333 0.42 6.31776 1.57696L7.25682 3.34279ZM13.8345 5.79261C12.4973 5.79261 11.2704 6.1126 10.1832 6.77323L11.2217 8.48246C11.9673 8.02944 12.8285 7.79261 13.8345 7.79261V5.79261ZM10.1783 6.77618C9.1275 7.42284 8.2905 8.2952 7.67518 9.37869L9.41431 10.3663C9.86623 9.57056 10.4677 8.94648 11.2265 8.4795L10.1783 6.77618ZM7.67059 9.38687C7.05777 10.4899 6.76598 11.7128 6.77917 13.032L8.77907 13.012C8.76906 12.0111 8.98769 11.1343 9.4189 10.3582L7.67059 9.38687ZM6.77912 13.022C6.77912 14.3441 7.06857 15.5664 7.66602 16.6663L9.42347 15.7116C9.00008 14.9322 8.77912 14.0432 8.77912 13.022H6.77912ZM7.67317 16.6792C8.27649 17.7517 9.1012 18.6181 10.1386 19.2648L11.1966 17.5676C10.4476 17.1006 9.85703 16.4822 9.41632 15.6987L7.67317 16.6792ZM10.1515 19.2727C11.2272 19.9209 12.4414 20.234 13.7649 20.234V18.234C12.7684 18.234 11.9177 18.0019 11.1837 17.5597L10.1515 19.2727ZM13.7649 20.234C14.7626 20.234 15.7065 20.0471 16.5844 19.663L15.7828 17.8306C15.1758 18.0962 14.5073 18.234 13.7649 18.234V20.234ZM16.5844 19.663C17.4439 19.2869 18.1977 18.7654 18.8367 18.0992L17.3934 16.7147C16.942 17.1853 16.4081 17.5571 15.7828 17.8306L16.5844 19.663ZM18.8364 18.0995C19.4806 17.4285 19.9835 16.6563 20.3436 15.7895L18.4966 15.0223C18.2303 15.6635 17.8632 16.2254 17.3937 16.7144L18.8364 18.0995ZM20.3436 15.7895C20.7092 14.9094 20.8899 13.9781 20.8899 13.0046H18.8899C18.8899 13.7248 18.7574 14.3944 18.4966 15.0223L20.3436 15.7895ZM20.8899 12.9943C20.8766 11.7107 20.5703 10.5137 19.9636 9.42167L18.2153 10.393C18.6527 11.1802 18.88 12.048 18.89 13.0149L20.8899 12.9943ZM19.9636 9.42167C19.3586 8.33256 18.5197 7.45338 17.4589 6.79543L16.4047 8.49504C17.1768 8.97394 17.7764 9.60281 18.2153 10.393L19.9636 9.42167ZM17.4589 6.79543C16.3738 6.12239 15.1566 5.79261 13.8345 5.79261V7.79261C14.8093 7.79261 15.657 8.03125 16.4047 8.49505L17.4589 6.79543Z" fill="#001C65" mask="url(#path-1-outside-1_886_11)"/>
</svg>
