<svg width="17" height="34" viewBox="0 0 17 34" fill="none" xmlns="http://www.w3.org/2000/svg">
<mask id="mask0_656_816" style="mask-type:luminance" maskUnits="userSpaceOnUse" x="0" y="0" width="17" height="34">
<path d="M17 0H0V34H17V0Z" fill="white"/>
<path d="M8.35289 1.67081C9.3671 1.67081 10.336 1.93899 11.2597 2.47535C12.1833 3.00195 13.0074 3.8455 13.7318 5.00599C14.4563 6.15672 15.0267 7.67315 15.4433 9.55528C15.8598 11.4374 16.0681 13.734 16.0681 16.4451C16.0741 18.9416 15.893 21.1796 15.5248 23.1593C15.1565 25.1292 14.6283 26.8065 13.9401 28.1913C13.2579 29.5761 12.4369 30.6342 11.477 31.3656C10.5171 32.0872 9.44558 32.448 8.26234 32.448C6.95836 32.448 5.80831 32.0433 4.81223 31.2339C3.82218 30.4147 3.02832 29.3127 2.43066 27.928C1.83905 26.5432 1.48589 24.9927 1.37118 23.2763H5.78115C5.92002 24.271 6.21279 25.0219 6.65952 25.529C7.10626 26.0263 7.64054 26.275 8.26234 26.275C9.39729 26.275 10.2455 25.4802 10.8069 23.8907C11.3684 22.3011 11.6491 20.1411 11.6491 17.4105H11.5404C11.2808 18.3077 10.9126 19.0781 10.4356 19.7217C9.96477 20.3653 9.41842 20.8578 8.79663 21.1991C8.17479 21.5404 7.5198 21.7111 6.83159 21.7111C5.7208 21.7111 4.73979 21.3015 3.88858 20.4824C3.04341 19.6632 2.37935 18.5368 1.8964 17.1033C1.41948 15.6698 1.178 14.0314 1.17196 12.1883C1.16593 10.1209 1.46476 8.29728 2.06845 6.71745C2.67214 5.12788 3.51429 3.88939 4.59491 3.00195C5.67551 2.10477 6.92816 1.66106 8.35289 1.67081ZM8.38004 7.22943C7.82467 7.22943 7.32965 7.4391 6.89497 7.85843C6.46637 8.2778 6.12827 8.84338 5.88076 9.55528C5.63325 10.2672 5.51251 11.0668 5.51854 11.9542C5.52461 12.8417 5.64835 13.6414 5.88983 14.3533C6.13734 15.0651 6.4724 15.6308 6.89497 16.0501C7.32362 16.4694 7.81261 16.6791 8.36195 16.6791C8.77246 16.6791 9.15278 16.5572 9.50294 16.3134C9.85306 16.0696 10.1579 15.7331 10.4175 15.304C10.6771 14.8652 10.8794 14.3581 11.0242 13.7827C11.1752 13.2074 11.2476 12.593 11.2415 11.9397C11.2355 11.0717 11.1087 10.2818 10.8612 9.56993C10.6137 8.85802 10.2726 8.29238 9.838 7.87306C9.40935 7.44397 8.9234 7.22943 8.38004 7.22943Z" fill="black"/>
</mask>
<g mask="url(#mask0_656_816)">
<path d="M8.3485 1.67093L8.34526 2.91324H8.3485V1.67093ZM11.2553 2.47547L10.9951 3.64456L10.9993 3.64696L11.2553 2.47547ZM13.7274 5.00611L13.1859 5.88822L13.1882 5.89191L13.7274 5.00611ZM16.0637 16.4452H15.2947V16.45L16.0637 16.4452ZM15.5204 23.1594L16.2566 23.5186L16.2569 23.5169L15.5204 23.1594ZM13.9357 28.1914L13.336 27.4136L13.3339 27.4178L13.9357 28.1914ZM11.4726 31.3657L11.7971 32.492L11.8007 32.4893L11.4726 31.3657ZM4.80785 31.234L4.45724 32.3398L4.46225 32.3438L4.80785 31.234ZM2.42628 27.9281L1.79332 28.6337L1.79541 28.6386L2.42628 27.9281ZM1.36679 23.2764V22.0341H0.510258L0.602192 23.4098L1.36679 23.2764ZM5.77676 23.2764L6.52699 23.0031L6.39172 22.0341H5.77676V23.2764ZM6.65513 25.5291L6.21297 26.5456L6.21585 26.5488L6.21872 26.552L6.65513 25.5291ZM11.6447 17.4106H12.4137V16.1683H11.6447V17.4106ZM11.536 17.4106V16.1683H11.0466L10.8393 16.8846L11.536 17.4106ZM10.4312 19.7218L9.93816 18.7684L9.93447 18.7735L10.4312 19.7218ZM3.8842 20.4825L3.48852 21.5477L3.49059 21.5498L3.8842 20.4825ZM1.89201 17.1034L1.21458 17.6915L1.21651 17.6973L1.89201 17.1034ZM1.16758 12.1884L0.398536 12.1943L0.39854 12.195L1.16758 12.1884ZM2.06406 6.71758L2.71847 7.37012L2.71958 7.36722L2.06406 6.71758ZM4.59052 3.00208L4.93904 4.10951L4.94206 4.10699L4.59052 3.00208ZM6.89058 7.85856L6.49627 6.79196L6.49218 6.79593L6.89058 7.85856ZM5.88544 14.3534L5.21098 14.9504L5.21293 14.956L5.21491 14.9617L5.88544 14.3534ZM6.89058 16.0502L6.48805 17.1088L6.49218 17.1128L6.89058 16.0502ZM10.4131 15.3042L10.9631 16.1725L10.9662 16.1675L10.9692 16.1625L10.4131 15.3042ZM11.0198 13.7828L10.3118 13.2982L10.3096 13.3065L10.3075 13.3148L11.0198 13.7828ZM11.2372 11.9398L10.4682 11.9537L10.4682 11.9583L11.2372 11.9398ZM9.83361 7.87318L9.42848 8.92915L9.43386 8.93451L9.43929 8.93974L9.83361 7.87318ZM8.3485 2.91324C9.27702 2.91324 10.1577 3.15827 10.9951 3.64456L11.5154 1.3064C10.5056 0.719976 9.4484 0.428628 8.3485 0.428628V2.91324ZM10.9993 3.64696C11.8112 4.10985 12.5388 4.8516 13.1859 5.88822L14.2689 4.124C13.4672 2.83965 12.5466 1.89431 11.5112 1.30399L10.9993 3.64696ZM13.1882 5.89191C13.8139 6.8858 14.3289 8.23012 14.7147 9.97361L16.163 9.13721C15.7158 7.11644 15.0898 5.42788 14.2666 4.12031L13.1882 5.89191ZM14.7147 9.97361C15.0931 11.6832 15.2947 13.8293 15.2947 16.4452H16.8328C16.8328 13.639 16.6178 11.1919 16.163 9.13721L14.7147 9.97361ZM15.2947 16.45C15.3004 18.8484 15.1263 20.9612 14.7839 22.8019L16.2569 23.5169C16.651 21.3983 16.839 19.0349 16.8328 16.4403L15.2947 16.45ZM14.7842 22.8002C14.4399 24.6417 13.9535 26.171 13.336 27.4136L14.5354 28.9691C15.2943 27.4422 15.8643 25.6169 16.2566 23.5186L14.7842 22.8002ZM13.3339 27.4178C12.7227 28.6586 11.9943 29.5946 11.1445 30.2421L11.8007 32.4893C12.8707 31.674 13.7843 30.4938 14.5375 28.965L13.3339 27.4178ZM11.1481 30.2394C10.3013 30.876 9.34235 31.2058 8.25795 31.2058V33.6904C9.54003 33.6904 10.7242 33.2986 11.7971 32.492L11.1481 30.2394ZM8.25795 31.2058C7.0537 31.2058 6.02553 30.8329 5.15343 30.1242L4.46225 32.3438C5.58235 33.254 6.85424 33.6904 8.25795 33.6904V31.2058ZM5.15845 30.1283C4.27298 29.3957 3.57817 28.4249 3.05714 27.2176L1.79541 28.6386C2.46969 30.2009 3.36258 31.4341 4.45724 32.3398L5.15845 30.1283ZM3.05922 27.2225C2.54222 26.0123 2.23274 24.6595 2.1314 23.143L0.602192 23.4098C0.730252 25.326 1.12709 27.0743 1.79332 28.6337L3.05922 27.2225ZM1.36679 24.5187H5.77676V22.0341H1.36679V24.5187ZM5.02656 23.5497C5.20042 24.7952 5.58579 25.8336 6.21297 26.5456L7.0973 24.5127C6.831 24.2104 6.63081 23.7471 6.52699 23.0031L5.02656 23.5497ZM6.21872 26.552C6.8119 27.2124 7.5038 27.5175 8.25795 27.5175V25.0329C7.76851 25.0329 7.39184 24.8406 7.09155 24.5062L6.21872 26.552ZM8.25795 27.5175C9.66842 27.5175 10.7719 26.4843 11.4705 24.5064L10.1345 23.2751C9.71028 24.4764 9.11734 25.0329 8.25795 25.0329V27.5175ZM11.4705 24.5064C12.1229 22.6592 12.4137 20.2586 12.4137 17.4106H10.8756C10.8756 20.0237 10.605 21.9432 10.1345 23.2751L11.4705 24.5064ZM11.6447 16.1683H11.536V18.6529H11.6447V16.1683ZM10.8393 16.8846C10.6281 17.6146 10.3298 18.2398 9.93816 18.7684L10.9243 20.6752C11.4865 19.9166 11.9248 19.0009 12.2327 17.9366L10.8393 16.8846ZM9.93447 18.7735C9.54181 19.3102 9.08136 19.7285 8.54481 20.023L9.03967 22.3755C9.74671 21.9874 10.3789 21.4207 10.928 20.6702L9.93447 18.7735ZM8.54481 20.023C8.00643 20.3185 7.43531 20.4689 6.8272 20.4689V22.9536C7.59552 22.9536 8.33441 22.7626 9.03967 22.3755L8.54481 20.023ZM6.8272 20.4689C5.8378 20.4689 4.99601 20.1064 4.2778 19.4152L3.49059 21.5498C4.47479 22.4969 5.59502 22.9536 6.8272 22.9536V20.4689ZM4.27987 19.4172C3.55538 18.715 2.9866 17.7536 2.5675 16.5096L1.21651 17.6973C1.76332 19.3203 2.52266 20.6116 3.48852 21.5477L4.27987 19.4172ZM2.56943 16.5153C2.1595 15.2832 1.94207 13.8491 1.93661 12.1818L0.39854 12.195C0.405153 14.2139 0.670669 16.0566 1.21458 17.6915L2.56943 16.5153ZM1.93661 12.1826C1.93118 10.3204 2.19876 8.73019 2.71847 7.37012L1.40965 6.06503C0.721976 7.86462 0.391901 9.92162 0.398536 12.1943L1.93661 12.1826ZM2.71958 7.36722C3.24525 5.98306 3.97832 4.89847 4.93904 4.10951L4.242 1.89466C3.04149 2.88055 2.09025 4.27294 1.40854 6.06793L2.71958 7.36722ZM4.94206 4.10699C5.89544 3.31544 7.02262 2.90419 8.34526 2.91324L8.35177 0.428635C6.82497 0.418187 5.4468 0.894357 4.23896 1.89717L4.94206 4.10699ZM8.37566 5.98725C7.69533 5.98725 7.06152 6.24664 6.49627 6.79196L7.2849 8.92516C7.58896 8.63178 7.94523 8.47185 8.37566 8.47185V5.98725ZM6.49218 6.79593C5.94911 7.32726 5.51771 8.05006 5.20584 8.94707L6.5469 10.1637C6.73006 9.63694 6.97481 9.22855 7.28899 8.92118L6.49218 6.79593ZM5.20584 8.94707C4.88667 9.86507 4.73778 10.8824 4.74516 11.968L6.28316 11.9407C6.27846 11.2515 6.37107 10.6695 6.5469 10.1637L5.20584 8.94707ZM4.74516 11.968C4.75246 13.04 4.90329 14.0432 5.21098 14.9504L6.55989 13.7564C6.38463 13.2398 6.28793 12.6436 6.28316 11.9407L4.74516 11.968ZM5.21491 14.9617C5.52528 15.8544 5.95166 16.5765 6.48805 17.1088L7.29312 14.9917C6.98437 14.6853 6.74062 14.2761 6.55597 13.745L5.21491 14.9617ZM6.49218 17.1128C7.05237 17.6609 7.68169 17.9215 8.35756 17.9215V15.4369C7.93471 15.4369 7.58605 15.2782 7.28899 14.9876L6.49218 17.1128ZM8.35756 17.9215C8.86465 17.9215 9.34947 17.7701 9.80297 17.4543L9.19412 15.1727C8.9473 15.3445 8.6715 15.4369 8.35756 15.4369V17.9215ZM9.80297 17.4543C10.2427 17.1482 10.6316 16.7205 10.9631 16.1725L9.86311 14.4359C9.67551 14.746 9.45471 14.9912 9.19412 15.1727L9.80297 17.4543ZM10.9692 16.1625C11.2971 15.6079 11.5517 14.9677 11.7322 14.251L10.3075 13.3148C10.1982 13.7488 10.0483 14.1228 9.85712 14.4459L10.9692 16.1625ZM11.7279 14.2675C11.9225 13.5258 12.0137 12.7393 12.0061 11.9212L10.4682 11.9583C10.4727 12.447 10.4191 12.8892 10.3118 13.2982L11.7279 14.2675ZM12.0062 11.9258C11.9988 10.8631 11.842 9.8667 11.5274 8.96165L10.1863 10.1784C10.3667 10.6972 10.4635 11.2806 10.4682 11.9537L12.0062 11.9258ZM11.5274 8.96165C11.214 8.06039 10.7776 7.33694 10.2279 6.80661L9.43929 8.93974C9.75889 9.2481 10.0047 9.6559 10.1863 10.1784L11.5274 8.96165ZM10.2387 6.81721C9.67895 6.25687 9.0506 5.98725 8.37566 5.98725V8.47185C8.78738 8.47185 9.13098 8.63132 9.42848 8.92915L10.2387 6.81721Z" fill="white"/>
</g>
</svg>
