<svg width="503" height="417" viewBox="0 0 503 417" fill="none" xmlns="http://www.w3.org/2000/svg">
<g filter="url(#filter0_dddd_672_1288)">
<path d="M304.601 191.667C304.601 191.667 272.475 194.202 257.886 220.019C246.851 239.541 227.61 260.924 217.984 260.661C209.11 273.569 180.539 320.785 203.982 364C249.21 359.867 296.123 315.575 296.123 315.575L304.601 191.667Z" fill="#54A6F7"/>
<path d="M257.742 220.022C246.702 239.547 227.451 260.932 217.819 260.669C213.754 266.577 205.569 279.673 200.129 296.274C211.169 303.617 227.233 302.873 240.138 286.869C266.686 253.907 259.97 196.676 313.234 191.667H304.481C304.481 191.667 272.339 194.202 257.742 220.022Z" fill="#298FE2"/>
<path fill-rule="evenodd" clip-rule="evenodd" d="M304.601 191.667C304.601 191.667 272.475 194.202 257.886 220.019C246.851 239.541 227.61 260.924 217.984 260.661C209.11 273.569 180.539 320.785 203.982 364C249.21 359.867 296.123 315.575 296.123 315.575L304.601 191.667Z" stroke="#1E1E1E" stroke-width="1.4"/>
<path d="M217.798 260.367C214.677 260.289 212.554 257.964 212.042 252.617C209.946 230.615 232.797 180.102 229.064 179.281C225.33 178.459 223.015 186.891 217.877 184.706C212.74 182.52 191.985 171.128 193.382 180.908C194.78 190.688 196.962 191.409 184.832 208.807C174.185 224.044 108.339 308.005 160.263 351.132C173.319 361.981 188.412 365.082 203.697 363.686C180.087 320.497 208.861 273.301 217.798 260.367Z" fill="#F9726B"/>
<path d="M212.138 252.567C210.053 230.463 232.785 179.715 229.071 178.89C225.358 178.065 223.054 186.536 217.944 184.34C217.818 184.294 217.679 184.223 217.533 184.161C217.487 192.57 215.547 219.439 194.788 249.017C181.324 268.208 187.361 287.603 200.163 296.167C205.611 279.498 213.806 266.348 217.877 260.415C214.759 260.306 212.648 257.97 212.138 252.567Z" fill="#EA5653"/>
<path d="M178.896 229.914C189.573 222.148 190.238 209.154 189.606 201.75C188.322 203.819 186.729 206.218 184.741 209.077C180.206 215.628 165.519 234.85 154.375 257.992C155.263 261.837 157.429 263.374 160.747 261.367C174.591 252.933 163.315 241.254 178.896 229.914Z" fill="white"/>
<path fill-rule="evenodd" clip-rule="evenodd" d="M217.798 260.367C214.677 260.289 212.554 257.964 212.042 252.617C209.946 230.615 232.797 180.102 229.064 179.281C225.33 178.459 223.015 186.891 217.877 184.706C212.74 182.52 191.985 171.128 193.382 180.908C194.78 190.688 196.962 191.409 184.832 208.807C174.185 224.044 108.339 308.005 160.263 351.132C173.319 361.981 188.412 365.082 203.697 363.686C180.087 320.497 208.861 273.301 217.798 260.367Z" stroke="#1E1E1E" stroke-width="1.4"/>
<path d="M222.567 161.733C222.567 161.733 228.091 159.419 227.748 167.309C227.405 175.198 225.05 192.858 217.958 193.491C210.866 194.123 222.567 161.733 222.567 161.733Z" fill="#DB281F"/>
<path opacity="0.78" d="M227.735 167.418C228.096 159.372 222.284 161.743 222.284 161.743C222.284 161.743 220.761 165.817 219.117 171.076C219.411 171.523 219.725 171.97 220.073 172.425C220.073 172.425 226.913 178.502 220.594 192.583C225.617 188.023 227.434 174.192 227.735 167.418Z" fill="#A8120E"/>
<path fill-rule="evenodd" clip-rule="evenodd" d="M222.567 161.733C222.567 161.733 228.091 159.419 227.748 167.309C227.405 175.198 225.05 192.858 217.958 193.491C210.866 194.123 222.567 161.733 222.567 161.733Z" stroke="#1E1E1E" stroke-width="1.4"/>
<path d="M222.574 163.166C222.574 163.166 221.76 212.921 199.732 219.983C186.615 222.662 221.387 170.715 197.732 159.677C195.726 145.304 222.574 163.166 222.574 163.166Z" fill="#DB281F"/>
<path opacity="0.78" d="M222.574 166.312C217.637 155.1 205.531 157.506 203.759 165.279C203.759 165.279 217.481 176.569 214.397 189.84C211.97 200.32 199.519 211.433 196.672 218.782C197.064 219.831 197.957 220.324 199.525 219.969C218.489 213.993 221.959 177.286 222.574 166.312Z" fill="#A8120E"/>
<path fill-rule="evenodd" clip-rule="evenodd" d="M222.574 163.166C222.574 163.166 221.76 212.921 199.732 219.983C186.615 222.662 221.387 170.715 197.732 159.677C195.726 145.304 222.574 163.166 222.574 163.166Z" stroke="#1E1E1E" stroke-width="1.4"/>
<path d="M198.828 203.583C200.711 197.162 214.563 203.446 214.805 201.171C215.046 198.895 205.758 195.437 205.758 195.437C205.758 195.437 218.557 197.727 217.619 195.437C216.681 193.146 206.126 189.932 206.126 189.932C206.126 189.932 220.44 191.405 219.026 188.198C217.613 184.992 204.229 183.114 204.229 183.114C204.229 183.114 221.378 181.64 216.795 179.097C189.433 169.332 193.427 180.838 193.427 180.838C193.822 181.014 194.599 177.09 198.754 178.158C202.909 179.227 198.828 203.583 198.828 203.583Z" fill="#F9726B"/>
<path d="M199.652 203.583C201.529 197.162 214.563 203.446 214.805 201.171C215.046 198.895 205.758 195.437 205.758 195.437C205.758 195.437 218.557 197.727 217.619 195.437C216.681 193.146 206.126 189.932 206.126 189.932C206.126 189.932 220.44 191.405 219.026 188.198C217.613 184.992 204.229 183.114 204.229 183.114C204.229 183.114 221.379 181.64 216.795 179.097C189.433 169.332 193.427 180.838 193.427 180.838" stroke="#1E1E1E" stroke-width="1.4"/>
<path d="M417.747 353.754C406.119 308.225 384.846 248.992 367.689 230.119C340.874 200.584 315.45 199.001 315.45 199.001C315.45 199.001 287.527 198.031 271.498 246.168C261.627 275.811 251.67 315.768 244.821 348.128C240.545 368.304 237.489 385.555 236.415 395.465C236.343 396.16 236.408 396.867 236.608 397.529C249.203 397.785 262.197 397.917 275.449 397.917C333.349 397.917 386.046 395.395 425.471 391.274C424.164 381.318 421.446 368.227 417.747 353.754Z" fill="#54A6F7"/>
<path d="M359.181 320.037C368.739 311.701 368.628 297.742 366.361 285.198C365.557 280.466 363.778 276.046 361.185 272.333C362.407 279.653 370.322 310.801 322.734 328.256C335.466 338.579 355.988 316.447 355.988 316.447" fill="#1E1E1E"/>
<path d="M359.181 320.037C368.739 311.701 368.628 297.742 366.361 285.198C365.557 280.466 363.778 276.046 361.185 272.333C362.407 279.653 370.322 310.801 322.734 328.256C335.466 338.579 355.988 316.447 355.988 316.447" stroke="#1E1E1E" stroke-width="1.4"/>
<path d="M415.987 346.442C404.957 305.496 386.997 256.05 371.456 234.75C368.263 244.538 385.878 309.605 369.383 320.507C355.796 329.484 250.683 335.309 246.039 365.317C241.396 395.324 344.024 351.093 362.493 355.474C392.522 362.605 369.945 387.211 381.088 394.25C397.212 393.261 412.124 392.055 425.473 390.657C423.545 379.664 420.173 363.864 415.987 346.442Z" fill="#298FE2"/>
<path d="M266.625 261.773C258.424 288.898 250.543 321.2 244.821 348.193C240.545 368.342 237.489 385.571 236.415 395.468C236.343 396.163 236.408 396.868 236.608 397.529C249.203 397.785 262.197 397.917 275.449 397.917C333.349 397.917 386.046 395.398 425.471 391.283C424.145 381.324 421.446 368.25 417.747 353.796C406.119 308.327 384.846 249.171 367.689 230.324C340.874 200.827 304.425 191.667 304.425 191.667" stroke="#1E1E1E" stroke-width="1.4"/>
<path d="M266.609 261.333C266.143 265.13 250.701 320.864 245.042 347.905C232.131 357.64 213.941 362.167 213.941 362.167C213.941 362.167 247.646 328.892 266.609 261.333Z" fill="#1E1E1E" stroke="#1E1E1E" stroke-width="1.4"/>
<path d="M336.247 189.833C336.247 189.833 461.42 190.741 457.327 316.503C456.367 345.807 443.18 368.336 414.669 375.917C407.178 348.884 371.289 325.401 356.103 316.503C365.745 308.242 368.845 297.965 366.56 285.503C361.408 257.524 330.75 259.973 330.75 259.973C324.273 243.372 301.795 213.712 336.247 189.833Z" fill="#54A6F7"/>
<path d="M311.504 242.083C336.429 241.425 344.562 212.381 350.357 191.25C339.077 188.954 340.44 190.163 337.542 190.064C325.241 201.398 314.587 220.027 311.504 242.083Z" fill="#298FE2"/>
<path d="M342.594 189.833C344.575 190.066 459.367 204.159 435.056 321.224C431.351 336.341 417.845 344.905 399.293 349.998C406.446 357.942 412.251 366.723 414.787 375.917C443.186 368.323 456.395 345.752 457.326 316.394C460.886 207.117 367.454 191.938 342.594 189.833Z" fill="#298FE2"/>
<path d="M331.363 245.744C333.261 246.141 357.886 228.019 364.172 193.029C359.902 192.034 355.949 191.295 352.437 190.75C355.665 206.196 348.957 227.856 331.363 245.744Z" fill="#298FE2"/>
<path d="M336.539 189.833C336.539 189.833 461.399 190.741 457.317 316.503C456.359 345.807 443.206 368.336 414.765 375.917C407.293 348.884 371.493 325.401 356.345 316.503C365.964 308.242 369.056 297.965 366.776 285.503C365.967 280.813 364.179 276.432 361.57 272.753" stroke="#1E1E1E" stroke-width="1.4"/>
<path d="M293.842 242.101C293.842 242.101 280.055 177.267 321.673 171.857C358.925 167.007 364.021 212.652 330.928 245.75" fill="#54A6F7"/>
<path d="M293.842 242.101C293.842 242.101 280.055 177.267 321.673 171.857C358.925 167.007 364.021 212.652 330.928 245.75" stroke="#1E1E1E" stroke-width="1.4"/>
<path d="M498.001 372.25C498.001 386.425 404.651 397.917 289.488 397.917C174.324 397.917 80.9805 386.425 80.9805 372.25" stroke="#1E1E1E" stroke-width="1.4"/>
<path d="M257.112 169.667C264.741 169.667 270.926 162.484 270.926 153.625C270.926 144.766 264.741 137.583 257.112 137.583C249.482 137.583 243.297 144.766 243.297 153.625C243.297 162.484 249.482 169.667 257.112 169.667Z" fill="#F94432"/>
<path opacity="0.83" d="M260.467 150.417C260.467 150.417 250.098 155.353 245.027 161.644C247.564 166.912 252.445 170.016 257.592 169.635C262.739 169.255 267.249 165.458 269.202 159.859C268.692 152.233 260.467 150.417 260.467 150.417Z" fill="#DB281F"/>
<path fill-rule="evenodd" clip-rule="evenodd" d="M257.112 169.667C264.741 169.667 270.926 162.484 270.926 153.625C270.926 144.766 264.741 137.583 257.112 137.583C249.482 137.583 243.297 144.766 243.297 153.625C243.297 162.484 249.482 169.667 257.112 169.667Z" stroke="#1E1E1E" stroke-width="1.4"/>
<path d="M294.599 118.72C294.599 118.72 266.25 179.964 305.687 187.889C304.613 193.285 294.44 235.797 309.227 241.378C324.015 246.959 353.128 219.971 338.664 140.697C335.571 128.448 331.412 87.7475 294.599 118.72Z" fill="#F9726B"/>
<path d="M338.625 140.166C338.545 139.855 338.465 139.522 338.385 139.174C331.729 122.338 321.22 110.778 307.483 109.167C302.759 111.513 298.291 114.504 294.172 118.076C294.172 118.076 293.507 119.502 292.535 121.95C291.563 124.399 316.788 114.923 323.989 132.627C325.586 142.001 327.57 147.154 331.211 142.358C334.851 137.562 342.065 166.98 335.377 202.643C330.498 228.675 309.221 225.111 302.165 232.255C303.337 236.694 305.44 240.064 308.941 241.381C323.836 246.96 353.227 219.843 338.625 140.166Z" fill="#EA5653"/>
<path fill-rule="evenodd" clip-rule="evenodd" d="M294.599 118.72C294.599 118.72 266.25 179.964 305.687 187.889C304.613 193.285 294.44 235.797 309.227 241.378C324.015 246.959 353.128 219.971 338.664 140.697C335.571 128.448 331.412 87.7475 294.599 118.72Z" stroke="#1E1E1E" stroke-width="1.4"/>
<path d="M327.187 158.576C327.187 158.576 324.875 155.858 324.413 136.896C323.951 117.933 309.602 113.736 294.56 118.801C279.518 123.864 251.513 114.371 249.433 83.1823C247.353 51.9941 280.673 34.8738 293.867 53.8678C307.06 72.8611 317.11 82.7412 335.982 80.194C368.615 75.7959 340.842 117.36 350.331 116.586C359.82 115.812 360.051 128.804 348.02 133.682C335.989 138.561 354.035 143.454 353.804 152.955C353.573 162.455 341.489 160.287 341.489 160.287C341.489 160.287 337.065 129.625 331.122 139.653C325.179 149.679 327.187 158.576 327.187 158.576Z" fill="#F7B90D"/>
<path d="M341.43 159.373C341.43 159.373 353.556 161.521 353.787 152.082C354.02 142.643 335.897 137.777 347.983 132.919C360.069 128.061 359.824 115.111 350.302 115.919C341.808 116.643 363.071 83.814 344.504 79.8335C358.545 88.1332 339.435 124.958 333.273 128.615C325.527 133.235 334.744 92.1754 301.852 103.778C271.564 114.465 252.209 89.6887 249.34 85.7082C252.971 114.364 279.734 123.041 294.338 118.167C309.432 113.132 323.831 117.274 324.295 136.16C324.758 155.046 327.078 157.718 327.078 157.718C327.078 157.718 325.09 148.802 331.054 138.824C337.017 128.846 341.43 159.373 341.43 159.373Z" fill="#F98D0B"/>
<path fill-rule="evenodd" clip-rule="evenodd" d="M327.187 158.576C327.187 158.576 324.875 155.858 324.413 136.896C323.951 117.933 309.602 113.736 294.56 118.801C279.518 123.864 251.513 114.371 249.433 83.1823C247.353 51.9941 280.673 34.8738 293.867 53.8678C307.06 72.8611 317.11 82.7412 335.982 80.194C368.615 75.7959 340.842 117.36 350.331 116.586C359.82 115.812 360.051 128.804 348.02 133.682C335.989 138.561 354.035 143.454 353.804 152.955C353.573 162.455 341.489 160.287 341.489 160.287C341.489 160.287 337.065 129.625 331.122 139.653C325.179 149.679 327.187 158.576 327.187 158.576Z" stroke="#1E1E1E" stroke-width="1.4"/>
<path d="M206.145 100.164C174.372 75.4199 134.58 39.7366 109.425 12.9166C138.968 65.8677 80.1133 188 80.1133 188C80.1133 188 153.623 163.349 187.122 163.62C189.372 163.62 191.576 163.69 193.726 163.768C211.601 143.323 208.342 112.397 206.145 100.164Z" fill="white"/>
<path opacity="0.64" d="M80.1133 188C80.1133 188 153.44 163.458 186.856 163.728C189.1 163.728 191.298 163.797 193.443 163.875C196.857 159.97 199.698 155.439 201.852 150.462C169.496 153.377 136.795 156.154 141.019 132.908C149.706 85.0899 128.506 33.0833 128.506 33.0833C124.416 33.5428 120.403 34.6779 116.588 36.4538C124.997 95.0469 80.1133 188 80.1133 188Z" fill="#ADAAAA"/>
<path fill-rule="evenodd" clip-rule="evenodd" d="M206.145 100.164C174.372 75.4199 134.58 39.7366 109.425 12.9166C138.968 65.8677 80.1133 188 80.1133 188C80.1133 188 153.623 163.349 187.122 163.62C189.372 163.62 191.576 163.69 193.726 163.768C211.601 143.323 208.342 112.397 206.145 100.164Z" stroke="#1E1E1E" stroke-width="1.4"/>
<path d="M241.905 171.281C242.345 171.414 242.571 171.5 242.571 171.5L242.611 171.391C243.197 171.453 243.79 171.5 244.389 171.5C253.839 171.523 261.823 163.315 263.009 152.36C264.193 141.404 258.209 131.132 249.051 128.407C240.526 125.52 224.503 114.678 205.683 99.9999C207.887 112.289 211.157 143.357 193.223 163.888C208.319 164.351 223.345 166.472 238.103 170.223C239.335 170.73 240.61 171.084 241.905 171.281Z" fill="#F94432"/>
<path opacity="0.83" d="M261.431 159.596C258.228 145.431 230.106 148.06 201.716 150.575C199.54 155.537 196.671 160.055 193.223 163.948C208.383 164.406 223.473 166.501 238.292 170.208C239.537 170.721 240.826 171.082 242.137 171.285C242.579 171.416 242.806 171.5 242.806 171.5L242.846 171.392C243.434 171.454 244.03 171.5 244.632 171.5C251.738 171.502 258.238 166.896 261.431 159.596Z" fill="#DB281F"/>
<path fill-rule="evenodd" clip-rule="evenodd" d="M241.905 171.281C242.345 171.414 242.571 171.5 242.571 171.5L242.611 171.391C243.197 171.453 243.79 171.5 244.389 171.5C253.839 171.523 261.823 163.315 263.009 152.36C264.193 141.404 258.209 131.132 249.051 128.407C240.526 125.52 224.503 114.678 205.683 99.9999C207.887 112.289 211.157 143.357 193.223 163.888C208.319 164.351 223.345 166.472 238.103 170.223C239.335 170.73 240.61 171.084 241.905 171.281Z" stroke="#1E1E1E" stroke-width="1.4"/>
<path d="M356.4 316.333C344.316 326.644 316.346 329.219 281.48 333.435C218.751 340.992 201.153 377.414 202.826 377.956C204.497 378.498 216.502 372.086 218.426 371.722C202.195 392.683 207.809 408.23 210.569 407.967C213.33 407.704 210.569 396.659 220.205 384.763C218.486 399.583 220.55 408.617 222.268 407.967C223.987 407.317 227.086 385.49 227.086 385.49C227.086 385.49 226.422 402.506 229.84 407.101C233.158 411.54 231.061 398.175 236.383 385.582C236.564 385.045 236.786 384.527 237.046 384.035C236.808 384.546 236.582 385.057 236.383 385.582C233.961 392.319 236.031 404.811 240.166 406.814C244.638 408.98 236.383 398.5 248.427 383.316C256.656 372.952 353.553 391.971 415.114 375.659C407.576 348.649 371.616 325.213 356.4 316.333Z" fill="#F9726B"/>
<path d="M226.943 385.311C226.943 385.311 226.278 402.485 229.698 407.122C233.019 411.602 230.92 398.113 236.247 385.405C236.428 384.862 236.65 384.34 236.911 383.844C236.672 384.359 236.446 384.874 236.247 385.405C233.823 392.204 235.895 404.811 240.032 406.833C244.508 409.019 236.247 398.441 248.3 383.118C256.535 372.658 353.507 391.853 415.116 375.39C412.566 366.148 406.728 357.319 399.536 349.333C334.248 367.288 206.78 342.488 222.121 407.995C223.848 407.34 226.943 385.311 226.943 385.311Z" fill="#EA5653"/>
<path d="M236.383 385.582C231.061 398.175 233.158 411.54 229.84 407.101C226.422 402.506 227.086 385.49 227.086 385.49C227.086 385.49 223.987 407.317 222.268 407.967C220.55 408.617 218.486 399.583 220.205 384.763C210.569 396.659 213.33 407.704 210.569 407.967C207.809 408.23 202.195 392.683 218.426 371.722C216.502 372.086 204.497 378.498 202.826 377.956C201.153 377.414 218.751 340.992 281.48 333.435C316.346 329.219 344.316 326.644 356.4 316.333C371.616 325.213 407.576 348.649 415.114 375.659C353.553 391.971 256.656 372.952 248.427 383.316C236.383 398.5 244.638 408.98 240.166 406.814C236.031 404.811 233.961 392.319 236.383 385.582ZM236.383 385.582C236.564 385.045 236.786 384.527 237.046 384.035C236.808 384.546 236.582 385.057 236.383 385.582Z" stroke="#1E1E1E" stroke-width="1.4"/>
<path d="M127.326 112.155C138.293 57.3281 128.945 7.85003 106.447 1.64328C83.9494 -4.56406 56.8207 34.8502 45.854 89.6774C34.8873 144.505 44.2352 193.983 66.733 200.19C89.2309 206.397 116.36 166.983 127.326 112.155Z" fill="#F94432"/>
<path opacity="0.83" d="M127.326 112.155C138.293 57.3281 128.945 7.85003 106.447 1.64328C83.9494 -4.56406 56.8207 34.8502 45.854 89.6774C34.8873 144.505 44.2352 193.983 66.733 200.19C89.2309 206.397 116.36 166.983 127.326 112.155Z" fill="#DB281F"/>
<path d="M101.884 3.42044C97.9685 2.40774 93.8874 2.70952 90.1116 4.29044C72.0904 14.8371 54.2683 47.667 45.8659 89.4365C41.7244 109.964 40.4747 129.738 41.7244 146.77C44.543 169.628 52.5599 185.938 64.5585 189.231C85.7245 195.04 111.244 158.164 121.561 106.849C131.878 55.5349 123.05 9.22956 101.884 3.42044Z" fill="#F94432"/>
<path fill-rule="evenodd" clip-rule="evenodd" d="M127.326 112.155C138.293 57.3281 128.945 7.85003 106.447 1.64328C83.9494 -4.56406 56.8207 34.8502 45.854 89.6774C34.8873 144.505 44.2352 193.983 66.733 200.19C89.2309 206.397 116.36 166.983 127.326 112.155Z" stroke="#1E1E1E" stroke-width="1.4"/>
<path d="M113.061 107.789C122.087 62.7112 116.007 22.4764 99.4796 17.9218C82.9526 13.3672 62.2368 46.2178 53.2102 91.2946C44.1835 136.372 50.2639 176.607 66.7912 181.162C83.3183 185.716 104.034 152.866 113.061 107.789Z" fill="white" stroke="#1E1E1E" stroke-width="1.4"/>
<path d="M113.451 36.75C101.062 47.4585 88.8956 73.1436 82.5434 104.962C76.9387 133.054 77.1945 159.264 82.1826 176.083C94.5721 165.374 106.739 139.682 113.09 107.871C118.695 79.7786 118.44 53.5694 113.451 36.75Z" fill="#1E1E1E"/>
<path d="M117.242 72.8878C95.7276 78.3816 68.9335 72.5 68.9335 72.5L63.6083 92.2558L59.3945 112.663C59.3945 112.663 86.5945 126.902 100.88 147.667C106.3 135.067 110.404 121.755 113.102 108.016C115.46 96.4912 116.847 84.7262 117.242 72.8878Z" fill="#D8D8D8" stroke="#1E1E1E" stroke-width="1.4"/>
<path d="M72.1476 95.1983C74.4328 83.8662 72.8931 73.7511 68.7092 72.606C64.5253 71.4614 59.2807 79.7194 56.9955 91.0522C54.7102 102.384 56.2495 112.499 60.4333 113.644C64.6178 114.789 69.8623 106.531 72.1476 95.1983Z" fill="#F94432"/>
<path opacity="0.83" d="M72.1626 95.1805C74.4262 83.8526 72.897 73.7384 68.7436 72.5941C68.1302 72.4422 67.4936 72.4746 66.8943 72.6885C68.2292 77.2639 71.4079 91.4906 63.482 98.5026C60.6292 101.049 58.3393 104.362 56.8047 108.163C57.5392 111.139 58.8078 113.153 60.5105 113.647C64.6836 114.774 69.8923 106.557 72.1626 95.1805Z" fill="#DB281F"/>
<path fill-rule="evenodd" clip-rule="evenodd" d="M72.1476 95.1983C74.4328 83.8662 72.8931 73.7511 68.7092 72.606C64.5253 71.4614 59.2807 79.7194 56.9955 91.0522C54.7102 102.384 56.2495 112.499 60.4333 113.644C64.6178 114.789 69.8623 106.531 72.1476 95.1983Z" stroke="#1E1E1E"/>
<path d="M295.966 128.417C295.966 128.417 287.046 149.395 289.479 150.103C291.912 150.809 295.384 150.103 295.384 150.103" fill="#F9726B"/>
<path d="M295.966 128.417C295.966 128.417 287.046 149.395 289.479 150.103C291.912 150.809 295.384 150.103 295.384 150.103" stroke="#1E1E1E" stroke-linecap="round"/>
<path d="M305.465 187.572C305.465 187.572 320.926 190.755 326.186 179.75L305.465 187.572Z" fill="#F9726B"/>
<path d="M305.465 187.572C305.465 187.572 320.926 190.755 326.186 179.75" stroke="#1E1E1E" stroke-linecap="round"/>
<path d="M305.617 187.499C305.617 187.499 320.962 190.652 326.183 179.75C326.183 191.639 315.117 208.471 302.008 208.162C304.151 194.507 305.617 187.499 305.617 187.499Z" fill="#1E1E1E" stroke="#1E1E1E" stroke-linecap="round"/>
<path d="M308.052 134.833C312.344 134.833 315.822 133.192 315.822 131.167C315.822 129.142 312.344 127.5 308.052 127.5C303.761 127.5 300.281 129.142 300.281 131.167C300.281 133.192 303.761 134.833 308.052 134.833Z" fill="white" stroke="#161515"/>
<path d="M305.275 127.5C302.364 127.997 300.281 129.257 300.281 130.709C300.281 132.16 302.364 133.444 305.275 133.917C306.893 133.412 308.052 132.152 308.052 130.709C308.052 129.265 306.893 127.997 305.275 127.5Z" fill="#161515"/>
<path d="M282.149 134.833C286.441 134.833 289.92 133.192 289.92 131.167C289.92 129.142 286.441 127.5 282.149 127.5C277.858 127.5 274.379 129.142 274.379 131.167C274.379 133.192 277.858 134.833 282.149 134.833Z" fill="white" stroke="#161515" stroke-width="1.4"/>
<path d="M279.371 127.5C276.456 127.997 274.379 129.257 274.379 130.709C274.379 132.16 276.456 133.444 279.371 133.917C280.996 133.412 282.149 132.152 282.149 130.709C282.149 129.265 281.01 127.997 279.371 127.5Z" fill="#161515"/>
<path opacity="0.51" d="M95.7288 74.8871C101.336 94.3792 97.6951 115.884 86.1602 131.412C91.5899 136.127 96.5185 141.584 100.84 147.667C106.274 135.002 110.387 121.62 113.092 107.81C115.456 96.2258 116.845 84.3997 117.242 72.5C110.164 74.1882 102.952 74.9883 95.7288 74.8871Z" fill="#1E1E1E"/>
<path d="M294.235 173.333C296.619 173.333 298.552 169.845 298.552 165.542C298.552 161.238 296.619 157.75 294.235 157.75C291.851 157.75 289.918 161.238 289.918 165.542C289.918 169.845 291.851 173.333 294.235 173.333Z" fill="#1E1E1E" stroke="#1E1E1E" stroke-width="1.4" stroke-linecap="round"/>
<path d="M311.505 242.083L302.008 303.5" stroke="#1E1E1E" stroke-width="1.4"/>
<path d="M308.915 261.333C311.299 261.333 313.232 259.281 313.232 256.75C313.232 254.219 311.299 252.167 308.915 252.167C306.53 252.167 304.598 254.219 304.598 256.75C304.598 259.281 306.53 261.333 308.915 261.333Z" fill="white" stroke="#1E1E1E" stroke-width="1.4"/>
<path d="M306.757 277.833C308.902 277.833 310.642 275.576 310.642 272.791C310.642 270.007 308.902 267.75 306.757 267.75C304.611 267.75 302.871 270.007 302.871 272.791C302.871 275.576 304.611 277.833 306.757 277.833Z" fill="white" stroke="#1E1E1E" stroke-width="1.4"/>
<path d="M304.598 294.333C306.983 294.333 308.915 292.281 308.915 289.75C308.915 287.219 306.983 285.167 304.598 285.167C302.214 285.167 300.281 287.219 300.281 289.75C300.281 292.281 302.214 294.333 304.598 294.333Z" fill="white" stroke="#1E1E1E" stroke-width="1.4"/>
<path d="M375.507 304.771C375.507 304.771 386.134 276.328 367.199 263.626C350.108 251.193 370.657 238.761 384.744 250.383C398.83 262.006 378.28 308.018 388.696 308.018C399.113 308.018 369.504 332.883 375.507 304.771Z" fill="white"/>
<path d="M397.532 284.915C397.532 284.915 390.455 298.741 397.532 300.636C404.608 302.531 402.718 280.159 397.532 284.915Z" fill="white"/>
<path d="M366.762 239.142C366.762 239.142 370.943 237.281 374.454 239.142C377.965 241.003 370.82 228.387 366.762 239.142Z" fill="white"/>
<path d="M262.294 342.917C259.197 343.755 256.323 344.689 253.66 345.667" stroke="white" stroke-width="1.4" stroke-linecap="round"/>
<path d="M358.132 325.5C358.132 325.5 335.573 336.633 276.973 340.167" stroke="white" stroke-width="1.4" stroke-linecap="round"/>
<path d="M222.303 361.289C222.303 361.289 234.229 349.886 237.566 352.462C240.904 355.038 227.965 358.156 229.935 361.954C231.905 365.753 216.101 368.616 222.303 361.289Z" fill="white"/>
<path d="M176.814 240.273C176.814 240.273 169.938 245.894 173.54 253.697C177.143 261.499 176.814 245.529 179.764 244.077C182.715 242.626 180.493 234.947 176.814 240.273Z" fill="white"/>
<path d="M157.816 338.333C159.164 339.736 160.61 340.963 162.133 342" stroke="white" stroke-width="1.4" stroke-linecap="round"/>
<path d="M151.094 279.667C151.094 279.667 141.047 315.3 154.368 334.666" stroke="white" stroke-width="1.4" stroke-linecap="round"/>
<path d="M200.989 177.932C200.989 177.932 194.935 177.623 195.916 179.75" stroke="white" stroke-width="1.4" stroke-linecap="round"/>
<path d="M276.987 256.896C276.987 256.896 268.783 275.824 273.004 286.678C277.226 297.531 277.649 264.158 280.968 258.46C284.288 252.762 279.908 248.473 276.987 256.896Z" fill="white"/>
<path d="M269.79 294.333C272.012 297.15 272.425 301.459 270.795 304.838C268.05 310.957 265.434 295.264 269.79 294.333Z" fill="white"/>
<path d="M295.965 228.333C296.366 230.511 296.944 232.656 297.692 234.75" stroke="white" stroke-width="1.4" stroke-linecap="round"/>
<path d="M298.555 193.5C298.555 193.5 295.558 207.14 296.012 221.917" stroke="white" stroke-width="1.4" stroke-linecap="round"/>
<path d="M254.524 76.4604C254.524 76.4604 254.289 59.6044 273.324 54.1669C291.936 55.7961 255.477 66.4385 264.877 72.9234C274.277 79.4077 255.698 95.2163 254.524 76.4604Z" fill="white"/>
<path d="M279.74 64.6524C279.74 64.6524 284.684 56.6856 291.505 66.0816C298.325 75.4776 267.896 68.0714 279.74 64.6524Z" fill="white"/>
<path d="M304.598 77.9999C310.094 82.1706 318.567 86.6057 329.042 85.639C348.017 83.878 343.947 98.1665 343.947 98.1665" stroke="white" stroke-width="1.4" stroke-linecap="round"/>
<path d="M296.832 70.6667C297.909 71.9792 299.063 73.2039 300.286 74.3334" stroke="white" stroke-width="1.4" stroke-linecap="round"/>
<path d="M235.584 129.864C235.584 129.864 237.129 135.995 239.386 133.175C241.642 130.354 234.872 126.182 235.584 129.864Z" fill="white"/>
<path d="M249.34 133.917C249.34 133.917 257.9 134.874 258.837 147.667" stroke="white" stroke-width="1.4" stroke-linecap="round"/>
<path d="M211.348 119.216C211.348 119.216 211.276 106.454 216.792 112.741C222.307 119.029 224.813 126.229 229.577 124.684C234.342 123.14 233.507 130.605 230.335 131.151C227.162 131.697 216.041 117.664 215.167 123.405C214.293 129.146 211.568 124.052 211.348 119.216Z" fill="white"/>
<path d="M169.043 78.9166C182.36 89.2759 197.74 102.403 200.167 109.434C202.776 117.002 202.117 127.461 199.818 135.75" stroke="#1E1E1E"/>
<path d="M158.684 70.6667C160.289 71.7886 162.056 73.028 163.864 74.3334" stroke="#1E1E1E"/>
<path d="M149.191 63.3334C149.191 63.3334 151.174 64.7081 154.372 67" stroke="#1E1E1E"/>
<path d="M120.692 98.1666C120.435 100.84 120.147 103.59 119.828 106.417" stroke="white"/>
<path d="M109.469 16.5834C117.858 25.0416 126.576 43.6078 122.039 88.0834" stroke="white"/>
<path d="M65.3784 77.5776C65.3784 77.5776 58.1044 88.2641 59.5962 91.8833C61.0878 95.5025 63.298 85.366 64.9886 86.0943C66.6785 86.8226 68.7041 74.5012 65.3784 77.5776Z" fill="white"/>
<path d="M80.035 79.9134C80.035 79.9134 111.196 79.1478 111.196 82.3551C111.196 85.5618 93.8693 83.4947 95.6122 86.9133C97.3546 90.332 74.8209 85.7333 80.035 79.9134Z" fill="white"/>
<path d="M466.059 324.583C465.658 329.537 465.09 334.732 464.332 340.166" stroke="#1E1E1E" stroke-width="1.4" stroke-linecap="round"/>
<path d="M440.148 232C440.148 232 467.73 250.275 466.895 309.917" stroke="#1E1E1E" stroke-width="1.4" stroke-linecap="round"/>
<path d="M282.154 180.667L266.613 192.583" stroke="#1E1E1E" stroke-width="1.4" stroke-linecap="round"/>
<path d="M280.425 174.25L257.113 177.917" stroke="#1E1E1E" stroke-width="1.4" stroke-linecap="round"/>
<path d="M274.379 164.167L280.423 167.833" stroke="#1E1E1E" stroke-width="1.4" stroke-linecap="round"/>
<path d="M135.296 279.667C135.296 279.667 124.914 323.856 140.552 345.666" stroke="#1E1E1E" stroke-width="1.4" stroke-linecap="round"/>
<path d="M38.6721 174.25C37.9179 170.929 37.3413 167.563 36.9453 164.167" stroke="white" stroke-width="1.4" stroke-linecap="round"/>
<path d="M89.6157 206.019C89.6157 206.019 71.0992 219.569 55.5674 208.219C49.2269 203.585 44.9335 195.303 42.1289 187.083" stroke="white" stroke-width="1.4" stroke-linecap="round"/>
<path d="M36.9457 82.5833L5 72.5" stroke="white" stroke-width="1.4" stroke-linecap="round"/>
<path d="M28.3047 56.9166L42.9824 74.3333" stroke="white" stroke-width="1.4" stroke-linecap="round"/>
<path d="M38.671 96.3334L16.2227 100.917" stroke="white" stroke-width="1.4" stroke-linecap="round"/>
<path d="M47.3125 212.75C51.5362 218.998 57.96 222.388 64.5804 221.863" stroke="white" stroke-width="1.4" stroke-linecap="round"/>
</g>
<defs>
<filter id="filter0_dddd_672_1288" x="0.300781" y="0.299683" width="502.398" height="416.402" filterUnits="userSpaceOnUse" color-interpolation-filters="sRGB">
<feFlood flood-opacity="0" result="BackgroundImageFix"/>
<feColorMatrix in="SourceAlpha" type="matrix" values="0 0 0 0 0 0 0 0 0 0 0 0 0 0 0 0 0 0 127 0" result="hardAlpha"/>
<feOffset dy="4"/>
<feGaussianBlur stdDeviation="2"/>
<feComposite in2="hardAlpha" operator="out"/>
<feColorMatrix type="matrix" values="0 0 0 0 0 0 0 0 0 0 0 0 0 0 0 0 0 0 0.25 0"/>
<feBlend mode="normal" in2="BackgroundImageFix" result="effect1_dropShadow_672_1288"/>
<feColorMatrix in="SourceAlpha" type="matrix" values="0 0 0 0 0 0 0 0 0 0 0 0 0 0 0 0 0 0 127 0" result="hardAlpha"/>
<feOffset dy="4"/>
<feGaussianBlur stdDeviation="2"/>
<feComposite in2="hardAlpha" operator="out"/>
<feColorMatrix type="matrix" values="0 0 0 0 0 0 0 0 0 0 0 0 0 0 0 0 0 0 0.25 0"/>
<feBlend mode="normal" in2="effect1_dropShadow_672_1288" result="effect2_dropShadow_672_1288"/>
<feColorMatrix in="SourceAlpha" type="matrix" values="0 0 0 0 0 0 0 0 0 0 0 0 0 0 0 0 0 0 127 0" result="hardAlpha"/>
<feOffset dy="4"/>
<feGaussianBlur stdDeviation="2"/>
<feComposite in2="hardAlpha" operator="out"/>
<feColorMatrix type="matrix" values="0 0 0 0 0 0 0 0 0 0 0 0 0 0 0 0 0 0 0.25 0"/>
<feBlend mode="normal" in2="effect2_dropShadow_672_1288" result="effect3_dropShadow_672_1288"/>
<feColorMatrix in="SourceAlpha" type="matrix" values="0 0 0 0 0 0 0 0 0 0 0 0 0 0 0 0 0 0 127 0" result="hardAlpha"/>
<feOffset dy="4"/>
<feGaussianBlur stdDeviation="2"/>
<feComposite in2="hardAlpha" operator="out"/>
<feColorMatrix type="matrix" values="0 0 0 0 0 0 0 0 0 0 0 0 0 0 0 0 0 0 0.25 0"/>
<feBlend mode="normal" in2="effect3_dropShadow_672_1288" result="effect4_dropShadow_672_1288"/>
<feBlend mode="normal" in="SourceGraphic" in2="effect4_dropShadow_672_1288" result="shape"/>
</filter>
</defs>
</svg>
