<svg width="24" height="10" viewBox="0 0 24 10" fill="none" xmlns="http://www.w3.org/2000/svg">
<path d="M11.9999 9.99999C11.8068 10.0006 11.6153 9.97266 11.4368 9.9177C11.2584 9.86289 11.0967 9.78205 10.9608 9.68013L0.236626 1.68364C0.0574506 1.47871 -0.0237558 1.23509 0.00602508 0.991843C0.0357864 0.748605 0.174829 0.51982 0.400842 0.342153C0.626855 0.164501 0.926743 0.048248 1.25247 0.0120459C1.5782 -0.0241561 1.91087 0.0217874 2.19719 0.142505L11.9999 7.41205L21.8027 0.142505C22.0892 0.0217874 22.4219 -0.0241561 22.7475 0.0120459C23.0732 0.048248 23.3731 0.164501 23.5992 0.342153C23.825 0.51982 23.9642 0.748605 23.994 0.991843C24.0236 1.23509 23.9425 1.47871 23.7633 1.68364L12.9802 9.68013C12.7204 9.87554 12.3699 9.98996 11.9999 9.99999Z" fill="#403CF6"/>
</svg>
