<svg width="449" height="460" viewBox="0 0 449 460" fill="none" xmlns="http://www.w3.org/2000/svg">
<path d="M389.39 101.522C388.013 99.1669 386.576 96.8577 385.08 94.5945C365.117 64.5473 331.891 43.9945 299.599 34.6657C285.522 30.6548 271.027 28.3817 256.423 27.8945C161.316 24.3525 126.375 104.687 95.735 125.414C65.0953 146.142 18.067 181.534 23.9669 255.834C28.4569 312.34 59.824 366.381 117.134 390.963C123.609 393.747 130.253 396.098 137.025 398.001C150.74 401.805 164.828 404.024 179.025 404.616C222.353 406.594 257.537 395.885 291.948 368.948C299.949 362.682 307.906 355.617 318.286 354.844C325.839 354.283 332.987 357.052 325.102 364.532C315.835 373.308 326.53 390.577 350.058 378.58C389.363 358.542 405.527 315.302 413.142 271.336C422.49 217.359 417.964 150.254 389.39 101.522Z" fill="#1A46F3"/>
<path opacity="0.7" d="M389.39 101.522C388.013 99.1669 386.576 96.8577 385.08 94.5945C365.117 64.5473 331.891 43.9945 299.599 34.6657C285.522 30.6548 271.027 28.3817 256.423 27.8945C161.316 24.3525 126.375 104.687 95.7351 125.414C65.0953 146.142 18.067 181.534 23.9669 255.834C28.4569 312.34 59.824 366.381 117.134 390.963C123.609 393.747 130.253 396.098 137.025 398.001C150.74 401.805 164.828 404.024 179.025 404.616C222.353 406.594 257.537 395.885 291.948 368.948C299.949 362.683 307.906 355.617 318.286 354.844C325.839 354.283 332.987 357.052 325.102 364.532C315.835 373.308 326.53 390.577 350.058 378.58C389.363 358.542 405.527 315.302 413.142 271.336C422.49 217.359 417.964 150.254 389.39 101.522Z" fill="white"/>
<path d="M134.643 353.354C132.273 354.117 126.75 353.354 126.75 353.354C126.75 353.354 128.339 349.775 128.465 349.563C129.956 347.098 134.257 343.234 137.337 344.043C137.844 344.188 138.316 344.441 138.722 344.785C139.127 345.129 139.457 345.556 139.691 346.04C139.925 346.523 140.057 347.051 140.078 347.59C140.1 348.129 140.01 348.666 139.816 349.168C139.053 351.32 136.664 352.71 134.643 353.354Z" fill="#263238"/>
<path d="M83.2075 351.771C83.1536 351.771 82.6058 347.898 82.5968 347.64C82.516 344.742 84.0247 339.094 87.015 338.008C87.5161 337.842 88.0459 337.786 88.5697 337.843C89.0934 337.901 89.5994 338.071 90.0545 338.343C90.5096 338.615 90.9037 338.982 91.2109 339.421C91.5181 339.859 91.7315 340.359 91.8372 340.888C92.3671 343.114 91.1188 345.626 89.7898 347.328C88.2183 349.278 83.2075 351.771 83.2075 351.771Z" fill="#263238"/>
<path d="M84.1676 393.53C86.0175 393.769 89.6814 392.702 90.7051 392.389C90.8757 394.008 91.0733 395.6 91.3516 397.164C91.4774 397.836 91.5672 398.535 91.7288 399.17C91.8904 399.804 92.0341 400.458 92.1778 401.092C92.528 402.39 92.8423 403.595 93.2015 404.772C93.3721 405.389 93.5517 405.95 93.7313 406.539C93.2913 405.619 92.5729 404.147 92.4921 404.018C91.1271 401.884 87.2747 398.581 84.5897 399.335C84.1473 399.472 83.7379 399.703 83.3882 400.012C83.0384 400.322 82.7561 400.703 82.5597 401.132C82.3632 401.561 82.2569 402.027 82.2477 402.5C82.2385 402.974 82.3267 403.444 82.5063 403.88C83.2158 405.72 85.353 406.934 87.14 407.459C89.1066 408.038 93.426 407.404 93.9648 407.321C94.4138 408.756 94.8628 410.154 95.2939 411.452C95.5812 412.307 95.8596 413.108 96.129 413.89H97.925C97.5658 412.97 97.1976 411.948 96.8115 410.881C96.4253 409.814 95.9674 408.48 95.5363 407.201C96.0212 406.99 99.7749 405.361 101.284 403.862C102.478 404.621 103.717 405.306 104.992 405.913C104.579 407.367 104.202 408.784 103.87 410.108C103.538 411.433 103.232 412.694 102.972 413.89H104.768C104.992 412.813 105.235 411.709 105.504 410.513C105.774 409.317 106.097 408.029 106.402 406.723C106.932 406.824 111.233 407.643 113.218 407.146C115.014 406.695 117.205 405.6 117.977 403.751C118.17 403.325 118.273 402.862 118.281 402.392C118.288 401.922 118.2 401.455 118.022 401.022C117.844 400.589 117.579 400.199 117.245 399.877C116.911 399.555 116.515 399.308 116.083 399.151C113.389 398.296 109.446 401.433 108.001 403.512C107.911 403.65 106.995 405.352 106.546 406.217C106.743 405.426 106.95 404.644 107.174 403.825C107.489 402.647 107.857 401.405 108.216 400.209L108.836 398.369C109.033 397.725 109.303 397.146 109.536 396.529C109.895 395.609 110.308 394.689 110.722 393.769C111.871 394.165 115.274 395.287 117.07 395.131C118.866 394.974 121.237 394.211 122.279 392.518C122.538 392.125 122.714 391.68 122.795 391.213C122.876 390.745 122.86 390.266 122.748 389.805C122.636 389.344 122.431 388.913 122.146 388.539C121.861 388.164 121.502 387.856 121.093 387.633C118.588 386.372 114.197 388.866 112.464 390.696C112.401 390.752 112.077 391.175 111.691 391.69C112.122 390.77 112.589 389.924 113.011 389.05C114.322 386.566 115.705 384.082 117.142 381.579L118.04 380.015C119.01 380.356 122.692 381.598 124.569 381.432C126.445 381.266 128.735 380.512 129.777 378.819C130.036 378.427 130.212 377.983 130.293 377.516C130.374 377.049 130.358 376.57 130.246 376.11C130.134 375.65 129.929 375.22 129.644 374.846C129.359 374.473 129 374.165 128.592 373.943C126.086 372.683 121.695 375.167 119.962 376.998C119.899 377.062 119.504 377.577 119.064 378.148C119.809 376.777 120.537 375.388 121.219 374.017C122.398 371.636 123.421 369.177 124.281 366.657C124.623 366.786 128.906 368.34 130.989 368.147C132.848 367.982 135.156 367.227 136.207 365.534C136.466 365.141 136.641 364.697 136.721 364.23C136.801 363.763 136.785 363.283 136.672 362.823C136.559 362.363 136.353 361.933 136.067 361.56C135.781 361.187 135.422 360.88 135.012 360.658C132.516 359.398 128.116 361.882 126.383 363.713C126.257 363.842 124.865 365.691 124.389 366.372V366.289C125.18 363.798 125.748 361.24 126.086 358.644C126.407 356.333 126.593 354.004 126.643 351.67C126.715 349.499 126.643 347.521 126.58 345.764C126.535 344.844 126.472 343.924 126.41 343.132H126.454C126.454 343.132 127.622 339.885 127.667 339.673C128.215 337.189 127.846 332.056 125.449 330.593C125.044 330.363 124.596 330.224 124.135 330.183C123.675 330.143 123.21 330.202 122.773 330.357C122.336 330.513 121.936 330.761 121.599 331.085C121.261 331.409 120.994 331.803 120.815 332.24C119.989 334.08 120.644 336.453 121.524 338.137C122.404 339.82 125.503 342.369 126.275 342.985C126.329 343.832 126.374 344.733 126.401 345.745C126.401 347.502 126.454 349.48 126.338 351.642C126.338 352.213 126.257 352.829 126.212 353.427C126.077 352.406 125.88 350.998 125.844 350.87C125.215 348.404 122.575 344.016 119.8 343.859C119.334 343.844 118.87 343.931 118.438 344.113C118.007 344.296 117.619 344.57 117.299 344.918C116.979 345.266 116.734 345.68 116.582 346.131C116.43 346.583 116.373 347.063 116.415 347.539C116.505 349.554 118.166 351.366 119.702 352.443C121.237 353.519 125.269 354.347 126.14 354.504C126.023 355.828 125.871 357.19 125.637 358.598C125.26 361.156 124.659 363.675 123.841 366.123H123.689C123.689 365.203 123.608 363.152 123.59 362.986C123.222 360.456 121.075 355.801 118.328 355.332C117.869 355.267 117.402 355.302 116.958 355.434C116.513 355.566 116.101 355.793 115.748 356.099C115.395 356.406 115.108 356.785 114.908 357.212C114.707 357.639 114.596 358.105 114.583 358.579C114.448 360.594 115.912 362.572 117.277 363.823C118.902 365.249 123.437 366.583 123.608 366.648C122.719 369.054 121.678 371.399 120.492 373.667C119.594 375.351 118.696 377.025 117.708 378.69C117.708 378.019 117.627 375.369 117.6 375.176C117.241 372.655 115.095 368 112.347 367.531C111.894 367.476 111.435 367.518 110.999 367.653C110.563 367.789 110.159 368.015 109.812 368.318C109.465 368.622 109.184 368.995 108.985 369.415C108.786 369.836 108.674 370.293 108.656 370.76C108.53 372.766 109.985 374.753 111.395 375.995C112.975 377.393 117.322 378.7 117.681 378.81C117.241 379.564 116.783 380.328 116.352 381.082C114.897 383.548 113.424 386.004 112.051 388.488C111.575 389.344 111.153 390.209 110.686 391.074C110.686 390.062 110.614 388.222 110.587 388.065C110.228 385.544 108.081 380.889 105.334 380.411C104.875 380.346 104.407 380.381 103.962 380.513C103.518 380.645 103.105 380.872 102.751 381.178C102.397 381.484 102.11 381.863 101.908 382.291C101.706 382.718 101.594 383.184 101.58 383.658C101.454 385.673 102.909 387.651 104.274 388.902C105.639 390.154 109.312 391.322 110.335 391.662C109.608 393.107 108.917 394.551 108.306 396.005C108.045 396.64 107.749 397.274 107.543 397.9C107.336 398.526 107.103 399.142 106.878 399.74C106.474 401.019 106.088 402.206 105.738 403.42C105.558 404.027 105.405 404.598 105.235 405.196C105.369 404.165 105.558 402.537 105.558 402.39C105.558 399.832 104.139 394.901 101.49 394.008C101.047 393.873 100.58 393.834 100.122 393.895C99.6627 393.956 99.2215 394.116 98.8268 394.363C98.432 394.61 98.0925 394.94 97.8304 395.331C97.5683 395.721 97.3894 396.164 97.3054 396.63C97.2534 396.875 97.2233 397.125 97.2156 397.376C96.0156 399.253 95.3017 401.412 95.1412 403.65C95.1412 403.806 95.2849 405.748 95.3837 406.732C95.1232 405.959 94.8718 405.186 94.6204 404.377C94.2432 403.218 93.893 401.976 93.5428 400.77L93.0578 398.866C92.8782 398.222 92.7795 397.578 92.6448 396.934C92.4562 396.014 92.3035 394.974 92.1598 393.981C93.3362 393.668 96.7845 392.674 98.1944 391.534C99.6043 390.393 101.176 388.424 101.131 386.409C101.135 385.938 101.043 385.47 100.86 385.037C100.678 384.604 100.408 384.215 100.07 383.895C99.7316 383.576 99.3315 383.332 98.8955 383.18C98.4596 383.028 97.9974 382.972 97.5389 383.014C94.773 383.364 92.4472 387.927 91.9802 390.439C91.9802 390.522 91.9264 391.055 91.8815 391.699C91.7647 390.724 91.648 389.749 91.5582 388.755C91.3157 385.94 91.1541 383.07 90.9835 380.19C90.9835 379.592 90.9026 378.985 90.8667 378.35C91.8545 378.092 95.5992 377.053 97.0719 375.848C98.5446 374.642 100.062 372.738 100.017 370.723C100.02 370.252 99.9273 369.785 99.7441 369.353C99.5609 368.921 99.2916 368.532 98.9535 368.213C98.6154 367.893 98.2159 367.649 97.7805 367.497C97.3452 367.345 96.8836 367.287 96.4253 367.328C93.6595 367.687 91.3337 372.25 90.8667 374.753C90.8667 374.845 90.8039 375.489 90.75 376.216C90.6332 374.652 90.4985 373.088 90.3189 371.551C90.0145 368.906 89.5405 366.285 88.9001 363.704C89.2503 363.612 93.6595 362.48 95.2939 361.146C96.7486 359.959 98.2842 358.036 98.2393 356.022C98.2423 355.55 98.1492 355.084 97.966 354.651C97.7828 354.219 97.5136 353.831 97.1755 353.511C96.8373 353.192 96.4378 352.948 96.0025 352.796C95.5671 352.643 95.1056 352.586 94.6473 352.627C91.8815 352.986 89.5556 357.549 89.0887 360.051C89.0887 360.235 88.8911 362.563 88.8552 363.4C88.8594 363.369 88.8594 363.339 88.8552 363.308C88.1768 360.776 87.275 358.313 86.1612 355.948C85.1785 353.839 84.0781 351.791 82.8655 349.812C81.752 347.972 80.6295 346.343 79.6238 344.917C79.076 344.144 78.5641 343.454 78.0702 342.82H78.1241C78.1241 342.82 77.3428 339.462 77.2261 339.259C76.3281 336.876 73.2749 332.819 70.4911 332.939C70.0293 332.976 69.5803 333.112 69.1733 333.339C68.7662 333.565 68.4101 333.877 68.1281 334.253C67.8462 334.63 67.6446 335.063 67.5365 335.524C67.4285 335.985 67.4163 336.465 67.5008 336.932C67.7971 338.919 69.638 340.538 71.2724 341.449C72.9067 342.36 76.8759 342.728 77.8457 342.801C78.3486 343.482 78.8694 344.209 79.4262 345.028C80.396 346.472 81.4826 348.11 82.5512 349.968C82.8296 350.465 83.117 351.017 83.4043 351.541C82.7398 350.759 81.8239 349.701 81.7161 349.609C79.8662 347.907 75.3044 345.736 72.9067 347.18C72.5114 347.428 72.1712 347.758 71.9085 348.149C71.6457 348.54 71.4661 348.983 71.3815 349.45C71.2968 349.917 71.3089 350.397 71.4169 350.858C71.525 351.32 71.7266 351.753 72.0087 352.13C73.1671 353.758 75.5289 354.329 77.3967 354.366C79.2646 354.402 83.0631 352.802 83.8803 352.452C84.4999 353.62 85.1016 354.835 85.6763 356.132C86.7274 358.503 87.5689 360.967 88.1907 363.492L88.047 363.556C87.5172 362.765 86.3767 361.118 86.251 360.999C84.5897 359.094 80.2973 356.399 77.7469 357.586C77.33 357.792 76.96 358.085 76.6609 358.448C76.3618 358.81 76.1403 359.232 76.0108 359.687C75.8812 360.143 75.8466 360.621 75.909 361.091C75.9714 361.561 76.1295 362.012 76.373 362.416C77.3428 364.164 79.6327 365.001 81.4736 365.24C83.6019 365.516 88.1009 364.072 88.2715 364.016C88.8417 366.541 89.2497 369.101 89.4928 371.68C89.6724 373.584 89.7801 375.507 89.8699 377.448C89.5197 376.878 88.0201 374.688 87.8943 374.578C86.233 372.674 81.9406 369.978 79.3903 371.165C78.9733 371.371 78.6033 371.665 78.3042 372.027C78.0052 372.389 77.7837 372.811 77.6541 373.267C77.5246 373.722 77.4899 374.2 77.5523 374.67C77.6147 375.14 77.7728 375.591 78.0163 375.995C78.9862 377.743 81.2761 378.58 83.117 378.819C85.1914 379.095 89.5197 377.724 89.8789 377.605C89.8789 378.525 89.9687 379.362 89.9957 380.245C90.1124 383.125 90.2112 386.014 90.3908 388.856C90.4536 389.85 90.5524 390.816 90.6512 391.791C90.0944 390.954 89.0528 389.454 88.945 389.335C87.2837 387.43 82.9913 384.735 80.4409 385.931C80.0233 386.135 79.6524 386.427 79.3526 386.788C79.0527 387.149 78.8307 387.571 78.701 388.026C78.5713 388.481 78.5368 388.959 78.5999 389.429C78.663 389.899 78.8222 390.349 79.067 390.752C80.0368 392.454 82.3267 393.291 84.1676 393.53Z" fill="white"/>
<path d="M269.092 120.318C266.697 119.03 264.458 116.699 262.375 113.326C260.21 109.738 259.115 105.582 259.223 101.366C259.223 96.9251 260.378 93.5916 262.689 91.3652C265 89.1388 268.394 87.4522 272.872 86.3053L289.243 82.2481C296.247 80.4081 299.747 76.9673 299.741 71.9257C299.741 69.2025 298.447 66.835 295.861 64.8233C293.275 62.8115 288.83 61.8087 282.526 61.8149C277.061 61.7779 271.618 62.5368 266.362 64.0689C262.085 65.2408 257.987 67.0149 254.185 69.3405C251.786 67.4605 249.725 65.166 248.097 62.5601C246.357 59.6901 245.48 56.3596 245.573 52.9829C245.529 49.4623 246.646 46.0295 248.743 43.2401C251.067 40.2651 254.055 37.9052 257.454 36.3585C261.663 34.413 266.114 33.0724 270.681 32.3749C276.272 31.48 281.923 31.0493 287.582 31.0869C304.087 31.0623 316.584 34.8067 325.073 42.3201C333.562 49.8334 337.795 59.6927 337.771 71.8981C337.771 94.8429 321.954 109.541 290.32 115.994L269.092 120.318ZM262.159 148.497C262.159 142.622 263.955 137.782 267.547 133.98C271.139 130.177 276.075 128.276 282.355 128.276C288.647 128.276 293.58 130.177 297.154 133.98C300.728 137.782 302.524 142.622 302.542 148.497C302.542 154.385 300.746 159.224 297.154 163.015C293.562 166.805 288.629 168.707 282.355 168.719C276.051 168.719 271.115 166.818 267.547 163.015C263.979 159.212 262.183 154.373 262.159 148.497Z" fill="#263238"/>
<path d="M282.32 169.179C275.927 169.179 270.835 167.21 267.189 163.337C263.543 159.464 261.711 154.477 261.711 148.497C261.711 142.517 263.552 137.531 267.189 133.658C270.826 129.784 275.927 127.816 282.32 127.816C288.714 127.816 293.806 129.784 297.443 133.658C301.08 137.531 302.921 142.526 302.921 148.497C302.921 154.468 301.08 159.473 297.443 163.337C293.806 167.201 288.714 169.179 282.32 169.179ZM282.32 128.699C276.178 128.699 271.302 130.539 267.836 134.219C264.369 137.899 262.609 142.692 262.609 148.414C262.609 154.137 264.405 158.921 267.836 162.619C271.266 166.318 276.178 168.139 282.32 168.139C288.463 168.139 293.33 166.299 296.796 162.619C300.262 158.939 302.023 154.146 302.023 148.414C302.023 142.683 300.271 138 296.796 134.32C293.321 130.64 288.463 128.736 282.32 128.736V128.699ZM269.093 120.741C269.018 120.74 268.944 120.721 268.877 120.686C266.444 119.37 264.127 117.006 261.99 113.537C259.796 109.879 258.68 105.649 258.775 101.356C258.775 96.8024 259.987 93.3248 262.367 91.0156C264.747 88.7064 268.222 87.0136 272.757 85.8544L289.154 81.7972C295.979 79.9572 299.302 76.7464 299.302 71.9256C299.302 69.368 298.062 67.0956 295.602 65.1912C293.141 63.2868 288.705 62.2748 282.536 62.2748C277.114 62.2412 271.714 62.9938 266.498 64.5104C262.264 65.6756 258.206 67.4308 254.438 69.7268C254.36 69.7787 254.27 69.8063 254.177 69.8063C254.085 69.8063 253.994 69.7787 253.917 69.7268C251.483 67.8116 249.39 65.4804 247.729 62.836C245.947 59.8843 245.051 56.4612 245.152 52.992C245.095 49.3587 246.237 45.8122 248.394 42.9272C250.754 39.8874 253.79 37.4709 257.248 35.88C261.495 33.9181 265.985 32.5652 270.593 31.8596C276.207 30.962 281.883 30.5282 287.565 30.5624C304.115 30.5624 316.822 34.3988 325.344 41.9704C333.866 49.542 338.194 59.6252 338.194 71.898C338.194 94.9808 322.111 109.968 290.384 116.444L269.174 120.741H269.093ZM282.563 61.318C288.93 61.318 293.51 62.3576 296.168 64.4184C298.826 66.4792 300.227 69.0184 300.227 71.8888C300.227 77.1144 296.59 80.7392 289.397 82.6528L272.99 86.7836C268.608 87.906 265.24 89.5436 263.004 91.724C260.768 93.9044 259.682 97.0968 259.682 101.393C259.584 105.514 260.654 109.575 262.762 113.086C264.765 116.306 266.92 118.606 269.174 119.839L290.223 115.57C321.464 109.195 337.305 94.5116 337.305 71.9256C337.305 59.9656 333.084 50.094 324.733 42.688C316.382 35.282 303.872 31.51 287.547 31.51C281.913 31.4727 276.285 31.9034 270.718 32.798C266.192 33.4886 261.781 34.8136 257.607 36.7356C254.276 38.2561 251.347 40.5716 249.067 43.4884C247.044 46.2169 245.981 49.5662 246.05 52.992C245.959 56.2774 246.812 59.5179 248.502 62.3116C250.05 64.7717 251.989 66.9485 254.24 68.7516C258.008 66.4968 262.051 64.7643 266.264 63.5996C271.555 62.0688 277.03 61.3131 282.527 61.3548L282.563 61.318Z" fill="#263238"/>
<path d="M194.945 266.726L196.723 414.055H267.064L261.281 268.548L194.945 266.726Z" fill="#263238"/>
<path d="M267.066 414.515H196.725C196.606 414.515 196.492 414.467 196.408 414.38C196.324 414.294 196.276 414.177 196.276 414.055L194.48 266.726C194.484 266.603 194.532 266.485 194.615 266.395C194.659 266.351 194.711 266.317 194.768 266.295C194.825 266.273 194.886 266.263 194.947 266.266L261.283 268.106C261.396 268.111 261.505 268.158 261.586 268.24C261.667 268.322 261.716 268.432 261.723 268.548L267.515 414C267.519 414.061 267.509 414.123 267.488 414.18C267.466 414.237 267.432 414.289 267.389 414.331C267.352 414.385 267.304 414.429 267.248 414.461C267.192 414.492 267.13 414.511 267.066 414.515ZM197.165 413.595H266.599L260.852 268.999L195.396 267.159L197.165 413.595Z" fill="#263238"/>
<path d="M194.945 214.093L196.723 361.422H267.064L261.281 215.915L194.945 214.093Z" fill="white"/>
<path d="M267.066 361.882H196.725C196.606 361.882 196.492 361.833 196.408 361.747C196.324 361.661 196.276 361.544 196.276 361.422L194.48 214.102C194.481 213.978 194.529 213.859 194.615 213.771C194.657 213.724 194.708 213.687 194.766 213.663C194.823 213.639 194.885 213.629 194.947 213.633L261.283 215.473C261.396 215.473 261.506 215.518 261.588 215.599C261.67 215.679 261.718 215.789 261.723 215.906L267.506 361.413C267.51 361.475 267.5 361.538 267.479 361.597C267.457 361.656 267.423 361.709 267.38 361.753C267.295 361.836 267.183 361.882 267.066 361.882ZM197.165 360.962H266.599L260.852 216.366L195.396 214.526L197.165 360.962Z" fill="#263238"/>
<path d="M219.416 229.982L226.744 242.494L213.93 336.922L233.255 356.73L245.872 331.927L231.423 243.119L238.75 232.907L230.615 219.558L219.416 229.982Z" fill="#263238"/>
<path d="M233.255 357.19C233.196 357.191 233.138 357.179 233.083 357.155C233.029 357.131 232.981 357.096 232.94 357.052L213.607 337.254C213.558 337.202 213.521 337.139 213.5 337.071C213.478 337.002 213.471 336.929 213.481 336.858L226.295 242.586L219.057 230.221C219.001 230.13 218.979 230.022 218.993 229.916C219.008 229.809 219.06 229.712 219.138 229.641L230.327 219.218C230.378 219.175 230.437 219.142 230.5 219.124C230.564 219.105 230.63 219.099 230.695 219.107C230.76 219.116 230.821 219.14 230.876 219.177C230.93 219.213 230.976 219.262 231.01 219.319L239.146 232.659C239.196 232.735 239.223 232.825 239.223 232.916C239.223 233.008 239.196 233.098 239.146 233.174L231.962 243.23L246.375 331.844C246.391 331.945 246.375 332.048 246.33 332.138L233.758 356.978C233.725 357.042 233.677 357.097 233.619 357.139C233.562 357.18 233.495 357.207 233.425 357.218L233.255 357.19ZM214.397 336.766L233.129 355.957L245.396 331.844L230.974 243.193C230.955 243.07 230.984 242.945 231.055 242.843L238.239 232.88L230.543 220.276L220.009 230.074L227.193 242.254C227.245 242.346 227.267 242.453 227.256 242.558L214.397 336.766Z" fill="#263238"/>
<path d="M226.742 242.494L226.464 244.564L234.636 238.639L238.748 232.907L234.824 226.467L222.566 235.354L226.742 242.494Z" fill="#1A46F3"/>
<path d="M226.466 245.024C226.383 245.022 226.302 244.996 226.232 244.95C226.157 244.904 226.097 244.837 226.059 244.757C226.021 244.677 226.006 244.588 226.017 244.499L226.277 242.586L222.182 235.594C222.12 235.494 222.099 235.374 222.123 235.259C222.146 235.144 222.213 235.043 222.308 234.977L234.566 226.099C234.667 226.026 234.793 225.996 234.916 226.016C234.975 226.03 235.031 226.056 235.081 226.092C235.13 226.128 235.172 226.175 235.203 226.228L239.127 232.668C239.178 232.744 239.204 232.834 239.204 232.926C239.204 233.017 239.178 233.107 239.127 233.183L235.024 238.915C234.992 238.953 234.956 238.987 234.916 239.016L226.744 244.941C226.662 244.997 226.565 245.026 226.466 245.024ZM223.161 235.52L227.13 242.291C227.182 242.383 227.204 242.489 227.193 242.595L227.049 243.607L234.323 238.344L238.211 232.916L234.7 227.166L223.161 235.52Z" fill="#263238"/>
<path d="M222.504 273.746L234.941 264.73L233.19 253.966L224.309 260.397L222.504 273.746Z" fill="#1A46F3"/>
<path d="M222.506 274.16C222.424 274.162 222.343 274.139 222.273 274.096C222.199 274.049 222.14 273.982 222.101 273.902C222.063 273.822 222.048 273.733 222.057 273.645L223.853 260.296C223.862 260.233 223.883 260.173 223.916 260.119C223.948 260.065 223.991 260.019 224.042 259.983L232.914 253.543C232.976 253.498 233.048 253.47 233.124 253.462C233.199 253.454 233.276 253.466 233.345 253.497C233.415 253.528 233.476 253.576 233.523 253.637C233.57 253.698 233.602 253.77 233.615 253.846L235.366 264.61C235.379 264.695 235.369 264.782 235.338 264.862C235.306 264.941 235.253 265.01 235.186 265.061L222.767 274.16C222.682 274.185 222.591 274.185 222.506 274.16ZM224.733 260.627L223.09 272.716L234.45 264.436L232.869 254.684L224.733 260.627Z" fill="#263238"/>
<path d="M233.614 356.022L243.304 336.968L226.125 349.425L233.004 356.472L233.614 356.022Z" fill="#1A46F3"/>
<path d="M233.001 356.96C232.88 356.96 232.764 356.91 232.678 356.822L225.808 349.775C225.76 349.728 225.723 349.67 225.7 349.607C225.677 349.543 225.668 349.475 225.674 349.407C225.679 349.341 225.699 349.277 225.732 349.22C225.765 349.162 225.809 349.113 225.862 349.076L243.041 336.628C243.12 336.564 243.218 336.529 243.319 336.529C243.42 336.529 243.519 336.564 243.598 336.628C243.673 336.695 243.723 336.786 243.741 336.886C243.759 336.987 243.743 337.09 243.697 337.18L234.016 356.233C233.981 356.299 233.932 356.355 233.872 356.399L233.262 356.84C233.192 356.911 233.099 356.953 233.001 356.96ZM226.814 349.499L233.046 355.884L233.262 355.727L242.044 338.468L226.814 349.499Z" fill="#263238"/>
<path d="M237.019 277.5L220.352 289.579L218.547 302.919L238.77 288.264L237.019 277.5Z" fill="#1A46F3"/>
<path d="M218.543 303.379C218.461 303.381 218.38 303.359 218.31 303.315C218.234 303.268 218.172 303.2 218.134 303.118C218.096 303.036 218.082 302.945 218.094 302.855L219.89 289.515C219.908 289.39 219.972 289.278 220.07 289.202L236.737 277.132C236.799 277.085 236.871 277.055 236.947 277.045C237.023 277.036 237.101 277.046 237.172 277.075C237.243 277.105 237.306 277.153 237.354 277.214C237.402 277.275 237.434 277.348 237.446 277.426L239.188 288.19C239.206 288.275 239.198 288.363 239.166 288.444C239.134 288.524 239.079 288.593 239.009 288.641L218.786 303.296C218.714 303.347 218.63 303.375 218.543 303.379ZM220.77 289.8L219.109 301.935L238.263 288.052L236.674 278.3L220.77 289.8Z" fill="#263238"/>
<path d="M241.678 306.139L215.537 325.082L213.93 336.922L214.702 337.714L243.429 316.903L241.678 306.139Z" fill="#1A46F3"/>
<path d="M214.702 338.174C214.643 338.175 214.583 338.165 214.528 338.143C214.472 338.12 214.422 338.087 214.379 338.045L213.607 337.254C213.558 337.202 213.521 337.139 213.5 337.071C213.478 337.002 213.471 336.929 213.481 336.858L215.088 325.018C215.11 324.892 215.177 324.781 215.277 324.705L241.418 305.762C241.48 305.717 241.552 305.69 241.628 305.682C241.703 305.673 241.78 305.685 241.85 305.715C241.92 305.746 241.981 305.794 242.028 305.855C242.075 305.916 242.106 305.989 242.118 306.066L243.869 316.83C243.88 316.914 243.87 317.001 243.838 317.08C243.807 317.159 243.755 317.228 243.69 317.28L214.954 338.091C214.879 338.143 214.792 338.171 214.702 338.174ZM214.406 336.766L214.747 337.116L242.935 316.692L241.355 306.94L215.95 325.34L214.406 336.766Z" fill="#263238"/>
<path d="M229.798 223.937L211.892 243.745L205.785 218.104L207.698 210.248L229.798 223.937Z" fill="white"/>
<path d="M211.926 244.205H211.809C211.731 244.184 211.66 244.143 211.603 244.085C211.546 244.026 211.506 243.953 211.486 243.874L205.388 218.233C205.371 218.161 205.371 218.085 205.388 218.012L207.301 210.156C207.319 210.087 207.352 210.023 207.397 209.969C207.442 209.915 207.498 209.872 207.562 209.843C207.624 209.811 207.694 209.795 207.764 209.795C207.834 209.795 207.903 209.811 207.966 209.843L230.03 223.56C230.087 223.595 230.137 223.643 230.174 223.7C230.211 223.758 230.236 223.823 230.245 223.891C230.254 223.959 230.248 224.028 230.227 224.093C230.207 224.158 230.173 224.218 230.128 224.268L212.222 244.076C212.141 244.154 212.036 244.199 211.926 244.205ZM206.286 218.104L212.168 242.806L229.132 224.038L208.029 210.965L206.286 218.104Z" fill="#263238"/>
<path d="M229.797 223.937L243.429 242.282L249.939 217.065L247.703 211.223L229.797 223.937Z" fill="white"/>
<path d="M243.428 242.742C243.359 242.741 243.292 242.725 243.23 242.695C243.168 242.665 243.113 242.621 243.069 242.567L229.437 224.167C229.4 224.119 229.373 224.062 229.359 224.002C229.345 223.941 229.344 223.878 229.356 223.818C229.365 223.756 229.387 223.698 229.419 223.645C229.452 223.593 229.494 223.548 229.545 223.514L247.442 210.8C247.499 210.76 247.565 210.734 247.633 210.723C247.701 210.712 247.771 210.716 247.837 210.735C247.901 210.759 247.959 210.796 248.008 210.843C248.058 210.891 248.097 210.948 248.125 211.011L250.361 216.844C250.387 216.937 250.387 217.036 250.361 217.129L243.85 242.356C243.83 242.44 243.786 242.516 243.724 242.575C243.661 242.634 243.584 242.673 243.5 242.687L243.428 242.742ZM230.443 224.048L243.23 241.261L249.472 217.12L247.496 211.968L230.443 224.048Z" fill="#263238"/>
<path d="M102.013 210.008C102.013 210.008 95.9068 197.276 92.8536 193.108C89.8004 188.94 86.7382 186.429 83.2809 185.803C79.8236 185.178 77.372 185.389 74.7229 184.34C72.0738 183.292 66.7756 181.838 65.3568 179.961C63.938 178.084 61.2799 179.336 62.5012 182.464C63.7224 185.592 68.0059 187.68 68.0059 187.68L71.4632 189.345C71.4632 189.345 60.2651 191.02 59.448 191.645C58.6308 192.271 48.8516 193.108 48.8516 193.108C48.8516 193.108 53.135 200.827 59.2414 204.378C65.3478 207.929 84.5022 205.004 84.5022 205.004L90.2045 217.313L102.013 210.008Z" fill="white"/>
<path d="M90.2035 217.773H90.0688C90.0095 217.753 89.9549 217.721 89.9085 217.678C89.8621 217.635 89.825 217.583 89.7994 217.525L84.2318 205.565C81.5378 205.951 64.826 208.205 59.0249 204.838C52.8736 201.204 48.644 193.651 48.4914 193.329C48.456 193.261 48.4375 193.185 48.4375 193.108C48.4375 193.031 48.456 192.955 48.4914 192.887C48.5264 192.819 48.5778 192.762 48.6406 192.72C48.7035 192.678 48.7758 192.653 48.8506 192.648C53.5112 192.252 58.6657 191.627 59.2225 191.277C59.9319 190.725 66.4065 189.658 69.9985 189.115L67.8792 188.094C67.6996 188.011 63.3892 185.895 62.1589 182.638C61.3777 180.633 62.0512 179.363 62.8684 178.885C63.3636 178.628 63.9337 178.567 64.4702 178.713C65.0066 178.859 65.472 179.201 65.7779 179.676C66.8016 181.028 70.2679 182.252 72.8362 183.144C73.6264 183.42 74.3628 183.678 74.9554 183.908C76.5219 184.472 78.1566 184.812 79.8136 184.92C80.9092 185.03 82.0496 185.15 83.3517 185.389C86.8001 186.006 89.9251 188.388 93.2297 192.869C96.274 197.027 102.21 209.318 102.434 209.843C102.484 209.946 102.494 210.065 102.463 210.176C102.431 210.287 102.36 210.381 102.264 210.441L90.4549 217.746C90.3745 217.775 90.2882 217.785 90.2035 217.773ZM84.5012 204.544C84.5856 204.542 84.6685 204.566 84.7402 204.612C84.8118 204.657 84.8691 204.723 84.9053 204.801L90.3921 216.651L101.473 209.834C100.432 207.69 95.1874 197.073 92.4934 193.384C89.3504 189.097 86.4049 186.834 83.1991 186.254C81.9239 186.024 80.8014 185.914 79.7238 185.803C77.9555 185.707 76.2087 185.36 74.5334 184.773C73.9497 184.543 73.2313 184.285 72.45 184.018C69.6483 183.034 66.164 181.81 64.9697 180.246C64.7952 179.95 64.5213 179.728 64.1991 179.623C63.8768 179.518 63.5283 179.537 63.2186 179.676C62.7067 179.98 62.3206 180.835 62.8953 182.289C64.0358 185.224 68.1217 187.248 68.1666 187.266L71.6239 188.931C71.7114 188.975 71.7836 189.045 71.8303 189.132C71.877 189.22 71.8958 189.32 71.8843 189.419C71.8682 189.517 71.8221 189.607 71.7527 189.676C71.6833 189.746 71.5942 189.791 71.4981 189.805C66.2089 190.596 60.2731 191.645 59.6805 192.013C58.9082 192.611 52.4965 193.246 49.5869 193.504C50.7454 195.344 54.508 201.112 59.4649 203.973C65.3738 207.405 84.2408 204.571 84.4293 204.544H84.5012Z" fill="#263238"/>
<path d="M44.9995 191.047C44.9995 191.047 41.8565 184.193 42.1169 182.712C42.3773 181.231 45.1342 182.178 46.0501 184.193C46.9661 186.208 50.1181 191.047 50.1181 191.047H44.9995Z" fill="white"/>
<path d="M50.1178 191.507H44.9992C44.9143 191.505 44.8316 191.48 44.7603 191.432C44.6889 191.385 44.6317 191.319 44.5951 191.24C44.0563 190.072 41.3982 184.175 41.6766 182.629C41.7185 182.343 41.8542 182.079 42.0614 181.882C42.2686 181.685 42.5351 181.565 42.8171 181.544C43.5893 181.558 44.3416 181.797 44.9869 182.231C45.6322 182.666 46.144 183.279 46.463 184C47.361 185.969 50.4591 190.753 50.495 190.799C50.5378 190.869 50.5617 190.95 50.5643 191.032C50.5669 191.115 50.5481 191.197 50.5098 191.27C50.4715 191.343 50.415 191.404 50.3462 191.447C50.2774 191.49 50.1986 191.514 50.1178 191.516V191.507ZM45.2866 190.587H49.2827C47.9688 188.585 46.755 186.515 45.6458 184.386C45.4081 183.846 45.0323 183.381 44.5581 183.041C44.084 182.701 43.529 182.498 42.9518 182.454C42.6644 182.454 42.6016 182.638 42.5746 182.795C42.395 183.733 44.1012 187.956 45.2866 190.587Z" fill="#263238"/>
<path d="M39.4219 187.781C39.4219 187.781 44.307 198.426 47.5667 201.342C50.8265 204.258 57.346 204.479 57.346 204.479C57.346 204.479 49.6052 196.126 47.9798 192.998C46.3544 189.87 40.4097 182.353 39.4219 187.781Z" fill="white"/>
<path d="M57.3451 204.939C57.0757 204.939 50.628 204.691 47.2874 201.692C43.9469 198.692 39.2054 188.416 39.0348 187.974C39.004 187.885 39.004 187.788 39.0348 187.698C39.2863 186.328 39.87 185.564 40.759 185.426C43.2913 185.03 47.2156 190.458 48.4279 192.786C50.0084 195.822 57.6504 204.074 57.7222 204.157C57.7802 204.224 57.8186 204.305 57.8329 204.393C57.8472 204.481 57.8368 204.571 57.8029 204.653C57.769 204.735 57.713 204.806 57.6414 204.856C57.5699 204.907 57.4858 204.936 57.3989 204.939H57.3451ZM39.8879 187.726C40.4716 188.977 44.9077 198.352 47.8622 201.002C50.161 203.062 54.247 203.762 56.2225 203.927C54.1931 201.701 48.9218 195.794 47.5748 193.218C46.2278 190.642 42.6268 186.052 40.8398 186.337C40.4088 186.41 40.0765 186.87 39.8879 187.726Z" fill="#263238"/>
<path d="M43.3555 188.72C43.3555 188.72 48.2406 199.364 51.5003 202.29C54.7601 205.215 61.2795 205.418 61.2795 205.418C61.2795 205.418 53.5388 197.073 51.9134 193.936C50.288 190.799 44.3702 183.301 43.3555 188.72Z" fill="white"/>
<path d="M61.2786 205.878C61.0092 205.878 54.5706 205.629 51.221 202.63C47.8715 199.631 43.139 189.354 42.9684 188.922C42.9376 188.83 42.9376 188.729 42.9684 188.637C43.2258 187.269 43.8006 186.515 44.6926 186.374C47.2339 185.969 51.1492 191.397 52.3615 193.734C53.942 196.77 61.584 205.022 61.6558 205.114C61.7175 205.178 61.759 205.26 61.775 205.348C61.791 205.437 61.7808 205.528 61.7456 205.611C61.7048 205.7 61.6378 205.773 61.5541 205.821C61.4703 205.869 61.3739 205.889 61.2786 205.878ZM43.8215 188.664C44.4052 189.916 48.8413 199.29 51.7957 201.94C54.1036 204.001 58.1805 204.7 60.1651 204.866C58.1266 202.639 52.8554 196.742 51.5174 194.157C50.1793 191.572 46.5604 187.008 44.7734 187.284C44.3244 187.349 44.0011 187.818 43.8215 188.664Z" fill="#263238"/>
<path d="M87.5534 199.576C87.5534 199.576 86.5297 197.901 83.0634 195.61C79.5971 193.32 61.2689 199.152 61.2689 199.152C61.2689 199.152 52.9175 188.517 51.6962 187.468C50.475 186.42 48.23 185.803 47.8259 187.892C47.4218 189.98 52.9175 198.932 54.3453 200.413C55.7732 201.894 61.2689 205.418 61.2689 205.418C64.6096 206.595 68.1268 207.158 71.6588 207.083C75.986 206.764 80.279 206.068 84.4912 205.004" fill="white"/>
<path d="M70.7969 207.561C67.5013 207.528 64.2324 206.95 61.1165 205.85L61.0626 205.804C60.8381 205.657 55.504 202.216 54.0672 200.735C52.801 199.438 46.946 190.219 47.422 187.8C47.4656 187.436 47.606 187.092 47.8277 186.805C48.0494 186.518 48.344 186.298 48.6792 186.171C49.2673 186.043 49.8768 186.059 50.4576 186.219C51.0384 186.379 51.5738 186.678 52.0197 187.091C53.1692 188.076 60.1826 196.963 61.4667 198.6C64.3672 197.68 79.9475 192.942 83.342 195.196C86.7364 197.45 87.9128 199.235 87.9577 199.3C87.9903 199.351 88.0124 199.408 88.0228 199.468C88.0333 199.528 88.0317 199.589 88.0183 199.648C88.0048 199.708 87.9798 199.764 87.9447 199.813C87.9096 199.862 87.8652 199.903 87.814 199.934C87.765 199.968 87.7099 199.99 87.652 200.001C87.5942 200.011 87.5349 200.01 87.4777 199.996C87.4205 199.982 87.3667 199.956 87.3195 199.921C87.2723 199.885 87.2328 199.839 87.2034 199.787C85.9892 198.245 84.5063 196.948 82.8301 195.96C80.1361 194.166 66.4506 197.947 61.4128 199.557C61.3269 199.585 61.2347 199.586 61.1482 199.56C61.0617 199.534 60.9849 199.482 60.9279 199.41C58.0543 195.73 52.361 188.591 51.4181 187.79C51.0916 187.476 50.6998 187.241 50.2721 187.104C49.8443 186.967 49.3918 186.931 48.9486 186.999C48.7658 187.076 48.6066 187.202 48.4881 187.364C48.3695 187.526 48.2959 187.718 48.2751 187.919C47.9338 189.649 53.1153 198.426 54.6688 200.017C55.9799 201.36 60.9548 204.617 61.4757 204.939C64.7521 206.07 68.1932 206.617 71.65 206.558C75.9508 206.257 80.2193 205.586 84.4106 204.553C84.5297 204.523 84.6552 204.544 84.7597 204.609C84.8641 204.675 84.9388 204.78 84.9674 204.902C84.9959 205.024 84.976 205.153 84.912 205.26C84.848 205.367 84.7452 205.443 84.6261 205.473C80.3842 206.544 76.0614 207.246 71.7039 207.57C71.3806 207.561 71.0843 207.561 70.7969 207.561Z" fill="#263238"/>
<path d="M109.124 220.929L101.787 207.635L84.0156 218.62L88.5236 229.899L109.124 220.929Z" fill="white"/>
<path d="M88.524 230.359C88.4674 230.367 88.4099 230.367 88.3533 230.359C88.2442 230.311 88.1572 230.222 88.1109 230.11L83.6209 218.831C83.582 218.729 83.5796 218.615 83.614 218.511C83.6485 218.407 83.7177 218.318 83.8095 218.261L101.581 207.276C101.636 207.251 101.696 207.239 101.756 207.239C101.816 207.239 101.876 207.251 101.931 207.276C102.047 207.307 102.147 207.383 102.209 207.488L109.555 220.708C109.579 220.766 109.592 220.829 109.592 220.892C109.592 220.955 109.579 221.018 109.555 221.076C109.535 221.138 109.502 221.195 109.459 221.242C109.416 221.29 109.363 221.327 109.304 221.352L88.7035 230.322C88.6459 230.344 88.5853 230.356 88.524 230.359ZM84.5728 218.813L88.7664 229.292L108.522 220.708L101.662 208.27L84.5728 218.813Z" fill="#263238"/>
<path d="M205.783 218.104L198.86 414.064H148.635L158.791 274.427C158.791 274.427 131.42 305.072 128.313 306.802C125.206 308.531 121.264 303.048 121.264 303.048L84.293 228.74L106.303 216.31L130.549 256.79L134.213 254.187L137.033 255.631C137.033 255.631 162.177 210.248 164.125 209.088C166.074 207.929 175.413 208.509 175.413 208.509L199.659 210.533L207.876 208.693L205.783 218.104Z" fill="#1A46F3"/>
<path d="M198.861 414.515H148.636C148.574 414.515 148.512 414.502 148.455 414.477C148.398 414.451 148.347 414.414 148.304 414.368C148.258 414.32 148.222 414.262 148.199 414.199C148.176 414.135 148.166 414.068 148.169 414L158.227 275.687C153.45 281.023 131.368 305.587 128.512 307.179C125.109 309.083 121.05 303.499 120.879 303.287L83.8904 228.951C83.8388 228.843 83.8296 228.719 83.8647 228.605C83.8998 228.49 83.9765 228.393 84.079 228.335L106.089 215.906C106.19 215.85 106.308 215.835 106.42 215.864C106.531 215.893 106.628 215.963 106.691 216.062L130.703 256.128L133.99 253.8C134.058 253.76 134.136 253.739 134.214 253.739C134.293 253.739 134.371 253.76 134.439 253.8L136.881 255.052C140.285 248.906 161.954 209.87 163.929 208.72C165.905 207.57 174.499 208.021 175.468 208.076L199.714 210.1L207.859 208.26C207.932 208.243 208.009 208.244 208.081 208.265C208.153 208.286 208.219 208.326 208.272 208.38C208.326 208.436 208.364 208.506 208.385 208.581C208.405 208.657 208.407 208.736 208.389 208.812L206.27 218.169L199.355 414.064C199.353 414.128 199.338 414.19 199.312 414.247C199.286 414.305 199.248 414.356 199.202 414.398C199.156 414.44 199.102 414.472 199.044 414.492C198.985 414.512 198.923 414.52 198.861 414.515ZM149.121 413.595H198.457L205.363 218.086C205.359 218.056 205.359 218.025 205.363 217.994L207.33 209.3L199.813 210.974H199.679L175.433 208.95C172.891 208.794 165.932 208.573 164.405 209.466C162.896 210.514 147.478 237.774 137.465 255.843C137.408 255.946 137.315 256.022 137.205 256.056C137.094 256.091 136.975 256.08 136.872 256.027L134.286 254.702L130.838 257.149C130.788 257.186 130.731 257.211 130.67 257.224C130.61 257.237 130.548 257.236 130.488 257.223C130.428 257.209 130.372 257.184 130.323 257.147C130.273 257.111 130.232 257.065 130.2 257.011L106.143 216.918L84.8962 228.924L121.66 302.827C121.66 302.827 125.378 307.915 128.099 306.388C130.506 305.044 149.013 284.685 158.46 274.105C158.524 274.034 158.607 273.985 158.699 273.965C158.791 273.946 158.886 273.956 158.972 273.994C159.058 274.034 159.129 274.099 159.177 274.181C159.226 274.263 159.248 274.359 159.242 274.454L149.121 413.595Z" fill="#263238"/>
<path d="M159.069 270.075L160.82 252.227L147.754 286.267L158.79 274.418L159.069 270.075Z" fill="#263238"/>
<path d="M147.756 286.727C147.67 286.727 147.586 286.701 147.514 286.654C147.426 286.597 147.36 286.511 147.328 286.41C147.295 286.31 147.297 286.201 147.334 286.102L160.409 252.062C160.449 251.959 160.523 251.874 160.618 251.822C160.714 251.769 160.824 251.753 160.93 251.776C161.036 251.803 161.129 251.867 161.192 251.959C161.255 252.05 161.283 252.162 161.271 252.273L159.475 270.121L159.197 274.445C159.188 274.552 159.144 274.653 159.071 274.73L148.079 286.58C148.039 286.627 147.989 286.664 147.933 286.689C147.877 286.715 147.817 286.727 147.756 286.727ZM160.05 255.447L149.013 284.28L158.352 274.243L158.622 270.075L160.05 255.447Z" fill="#263238"/>
<path d="M157.661 257.821C157.554 257.82 157.45 257.779 157.37 257.707C157.289 257.634 157.236 257.534 157.221 257.425C156.934 255.41 155.039 228.197 154.958 227.065C154.954 227.005 154.962 226.944 154.98 226.887C154.999 226.829 155.029 226.776 155.067 226.731C155.146 226.638 155.257 226.582 155.376 226.573C155.495 226.564 155.612 226.605 155.702 226.685C155.793 226.765 155.848 226.879 155.856 227.001C155.856 227.286 157.832 255.337 158.11 257.361C158.125 257.482 158.093 257.604 158.021 257.7C157.949 257.797 157.842 257.86 157.724 257.876L157.661 257.821Z" fill="#263238"/>
<path d="M155.405 268.226C155.298 268.227 155.193 268.189 155.111 268.118C155.028 268.047 154.974 267.948 154.956 267.84L151.858 247.6C151.848 247.54 151.85 247.48 151.863 247.421C151.876 247.362 151.9 247.307 151.934 247.258C151.969 247.209 152.012 247.168 152.062 247.136C152.113 247.105 152.168 247.084 152.226 247.075C152.345 247.057 152.467 247.087 152.564 247.159C152.662 247.231 152.727 247.34 152.747 247.462L155.845 267.702C155.856 267.761 155.854 267.822 155.841 267.88C155.828 267.939 155.804 267.995 155.769 268.043C155.735 268.092 155.691 268.134 155.641 268.165C155.591 268.196 155.535 268.217 155.477 268.226H155.405Z" fill="#263238"/>
<path d="M122.954 275.163C122.89 275.18 122.822 275.18 122.757 275.163C122.652 275.109 122.571 275.016 122.533 274.902C122.494 274.789 122.5 274.664 122.55 274.556L129.887 258.916C129.91 258.857 129.944 258.803 129.987 258.759C130.031 258.714 130.083 258.679 130.14 258.656C130.198 258.633 130.259 258.622 130.321 258.624C130.382 258.626 130.443 258.641 130.498 258.669C130.554 258.696 130.604 258.735 130.644 258.782C130.684 258.83 130.715 258.886 130.733 258.946C130.752 259.006 130.758 259.07 130.751 259.133C130.745 259.196 130.726 259.256 130.695 259.311L123.359 274.951C123.317 275.021 123.257 275.079 123.186 275.116C123.114 275.153 123.034 275.17 122.954 275.163Z" fill="#263238"/>
<path d="M130.853 270.25C130.785 270.249 130.718 270.233 130.656 270.204C130.55 270.149 130.47 270.054 130.431 269.939C130.393 269.824 130.399 269.698 130.449 269.588L136.376 257.444C136.402 257.389 136.438 257.341 136.482 257.301C136.527 257.261 136.579 257.23 136.635 257.212C136.691 257.193 136.75 257.186 136.809 257.191C136.868 257.196 136.925 257.213 136.978 257.241C137.031 257.268 137.078 257.305 137.118 257.35C137.157 257.395 137.187 257.448 137.206 257.506C137.225 257.563 137.233 257.623 137.229 257.684C137.226 257.744 137.21 257.803 137.184 257.858L131.257 269.992C131.22 270.07 131.163 270.135 131.092 270.181C131.02 270.226 130.938 270.25 130.853 270.25Z" fill="#263238"/>
<path d="M196.606 308.697C196.514 308.7 196.422 308.672 196.346 308.617C196.27 308.562 196.213 308.484 196.184 308.393C191.847 295.964 188.578 276.708 186.594 262.734C186.578 262.614 186.609 262.493 186.68 262.397C186.75 262.301 186.855 262.237 186.971 262.218C187.088 262.202 187.207 262.234 187.303 262.306C187.398 262.378 187.463 262.485 187.483 262.605C189.458 276.534 192.718 295.725 197.029 308.09C197.048 308.146 197.057 308.207 197.053 308.267C197.05 308.327 197.035 308.386 197.009 308.44C196.983 308.494 196.947 308.542 196.902 308.581C196.858 308.621 196.806 308.651 196.75 308.669C196.704 308.687 196.656 308.697 196.606 308.697Z" fill="#263238"/>
<path d="M186.153 256.588C186.045 256.587 185.94 256.547 185.858 256.475C185.776 256.402 185.721 256.302 185.704 256.192C185.166 251.997 184.869 249.338 184.869 249.32C184.861 249.234 184.875 249.147 184.912 249.069C184.948 248.992 185.005 248.925 185.076 248.878L195.385 242.006L182.705 239.89C182.626 239.878 182.552 239.844 182.49 239.793C182.428 239.741 182.382 239.673 182.355 239.596C182.328 239.518 182.321 239.435 182.335 239.355C182.35 239.274 182.384 239.198 182.436 239.136C182.436 239.136 185.273 235.64 188.048 231.371C190.823 227.102 199.803 212.971 199.893 212.879C199.959 212.776 200.062 212.704 200.179 212.678C200.297 212.652 200.42 212.675 200.521 212.741C200.62 212.808 200.688 212.913 200.712 213.032C200.735 213.151 200.712 213.274 200.647 213.376C200.557 213.523 191.586 227.599 188.794 231.886C186.683 235.124 184.555 237.912 183.612 239.108L196.66 241.298C196.75 241.312 196.833 241.355 196.898 241.419C196.964 241.483 197.009 241.566 197.028 241.656C197.045 241.747 197.035 241.841 197 241.926C196.965 242.011 196.906 242.084 196.831 242.135L185.776 249.495C185.866 250.277 186.135 252.669 186.575 256.073C186.591 256.194 186.559 256.316 186.486 256.412C186.414 256.509 186.307 256.572 186.189 256.588H186.153Z" fill="#263238"/>
<path d="M353.566 210.008C353.566 210.008 359.673 197.276 362.735 193.108C365.797 188.94 368.841 186.429 372.308 185.803C375.774 185.178 378.208 185.389 380.857 184.34C383.506 183.292 388.804 181.838 390.232 179.961C391.66 178.084 394.3 179.336 393.078 182.464C391.857 185.592 387.583 187.68 387.583 187.68L384.116 189.345C384.116 189.345 395.323 191.02 396.132 191.645C396.94 192.271 406.728 193.108 406.728 193.108C406.728 193.108 402.445 200.827 396.338 204.378C390.232 207.929 371.086 205.004 371.086 205.004L365.384 217.313L353.566 210.008Z" fill="white"/>
<path d="M365.378 217.773C365.299 217.77 365.222 217.748 365.153 217.709L353.336 210.404C353.241 210.343 353.171 210.248 353.139 210.138C353.108 210.028 353.117 209.91 353.165 209.806C353.416 209.282 359.334 196.99 362.379 192.832C365.656 188.352 368.79 185.969 372.257 185.352C373.559 185.113 374.699 184.994 375.795 184.883C377.474 184.795 379.134 184.467 380.725 183.908C381.326 183.678 382.054 183.42 382.844 183.144C385.394 182.224 388.878 181.028 389.902 179.676C390.207 179.2 390.672 178.856 391.209 178.71C391.746 178.564 392.317 178.626 392.812 178.885C393.629 179.363 394.311 180.633 393.53 182.638C392.255 185.895 387.98 188.011 387.801 188.094L385.682 189.115C389.202 189.658 395.712 190.725 396.458 191.277C397.005 191.627 402.16 192.252 406.821 192.648C406.896 192.653 406.969 192.677 407.032 192.719C407.095 192.761 407.147 192.819 407.182 192.888C407.217 192.956 407.235 193.033 407.233 193.11C407.231 193.187 407.209 193.262 407.171 193.329C407 193.651 402.762 201.204 396.619 204.774C390.818 208.141 374.061 205.887 371.403 205.5L365.845 217.46C365.817 217.519 365.778 217.571 365.731 217.614C365.683 217.657 365.627 217.689 365.566 217.709L365.378 217.773ZM354.153 209.834L365.189 216.651L370.676 204.801C370.719 204.712 370.788 204.639 370.873 204.593C370.959 204.547 371.056 204.53 371.152 204.544C371.341 204.544 390.217 207.405 396.116 203.973C401.046 201.112 404.818 195.39 405.994 193.504C403.112 193.246 396.673 192.584 395.892 192.013C395.317 191.636 389.372 190.596 384.083 189.805C383.988 189.792 383.899 189.747 383.831 189.677C383.763 189.607 383.719 189.517 383.706 189.419C383.691 189.321 383.707 189.22 383.753 189.132C383.798 189.044 383.87 188.974 383.957 188.931L387.415 187.266C387.46 187.266 391.555 185.214 392.695 182.289C393.261 180.835 392.875 179.98 392.372 179.676C392.057 179.526 391.698 179.501 391.366 179.607C391.035 179.712 390.753 179.94 390.576 180.246C389.39 181.81 385.897 183.006 383.095 184.018C382.323 184.285 381.605 184.543 381.012 184.773C379.345 185.358 377.608 185.705 375.849 185.803C374.771 185.914 373.648 186.024 372.373 186.254C369.176 186.834 366.222 189.097 363.088 193.384C360.394 197.073 355.195 207.69 354.153 209.834Z" fill="#263238"/>
<path d="M410.583 191.047C410.583 191.047 413.726 184.193 413.466 182.712C413.206 181.231 410.449 182.178 409.533 184.193C408.617 186.208 405.465 191.047 405.465 191.047H410.583Z" fill="white"/>
<path d="M410.581 191.507H405.463C405.381 191.505 405.302 191.48 405.233 191.437C405.164 191.393 405.107 191.332 405.067 191.259C405.023 191.189 405 191.107 405 191.024C405 190.941 405.023 190.859 405.067 190.79C405.067 190.79 408.202 185.96 409.1 183.991C409.413 183.278 409.917 182.671 410.552 182.238C411.187 181.805 411.929 181.564 412.692 181.544C412.974 181.565 413.24 181.685 413.447 181.882C413.654 182.079 413.79 182.343 413.832 182.629C414.11 184.175 411.452 190.072 410.913 191.24C410.883 191.309 410.837 191.369 410.779 191.415C410.721 191.462 410.653 191.493 410.581 191.507ZM406.298 190.587H410.294C411.488 187.956 413.185 183.733 412.988 182.795C412.988 182.638 412.898 182.491 412.611 182.454C412.034 182.499 411.479 182.702 411.005 183.042C410.531 183.382 410.155 183.846 409.917 184.386C408.813 186.515 407.605 188.584 406.298 190.587Z" fill="#263238"/>
<path d="M416.158 187.781C416.158 187.781 411.273 198.426 408.014 201.342C404.754 204.258 398.234 204.479 398.234 204.479C398.234 204.479 405.975 196.126 407.609 192.998C409.244 189.87 415.144 182.353 416.158 187.781Z" fill="white"/>
<path d="M398.236 204.939C398.15 204.938 398.066 204.911 397.994 204.862C397.923 204.813 397.866 204.744 397.832 204.663C397.796 204.58 397.785 204.488 397.799 204.398C397.813 204.308 397.853 204.224 397.913 204.157C397.994 204.074 405.636 195.822 407.216 192.786C408.428 190.458 412.353 185.021 414.885 185.426C415.783 185.564 416.349 186.346 416.6 187.698C416.627 187.788 416.627 187.884 416.6 187.974C416.394 188.416 411.634 198.738 408.339 201.692C405.043 204.645 398.55 204.93 398.281 204.939H398.236ZM414.589 186.328C412.793 186.328 409.282 190.771 408.006 193.218C406.731 195.666 401.388 201.701 399.359 203.927C401.334 203.725 405.42 203.062 407.719 201.002C410.673 198.352 415.11 188.977 415.693 187.726C415.514 186.87 415.19 186.41 414.75 186.337L414.589 186.328Z" fill="#263238"/>
<path d="M412.225 188.72C412.225 188.72 407.34 199.364 404.08 202.29C400.82 205.215 394.301 205.418 394.301 205.418C394.301 205.418 402.042 197.073 403.676 193.936C405.31 190.799 411.21 183.301 412.225 188.72Z" fill="white"/>
<path d="M394.303 205.878C394.217 205.876 394.133 205.849 394.061 205.8C393.99 205.751 393.933 205.682 393.899 205.602C393.86 205.52 393.847 205.429 393.861 205.34C393.876 205.251 393.917 205.169 393.98 205.105C394.06 205.013 401.693 196.76 403.274 193.724C404.486 191.397 408.392 185.969 410.943 186.364C411.841 186.502 412.415 187.284 412.667 188.628C412.698 188.72 412.698 188.82 412.667 188.913C412.469 189.345 407.701 199.677 404.414 202.621C401.128 205.565 394.626 205.859 394.357 205.868L394.303 205.878ZM410.655 187.266C408.814 187.266 405.339 191.71 404.073 194.157C402.726 196.742 397.455 202.639 395.425 204.866C397.401 204.663 401.487 204.001 403.786 201.94C406.74 199.29 411.176 189.916 411.76 188.664C411.58 187.818 411.257 187.349 410.808 187.284L410.655 187.266Z" fill="#263238"/>
<path d="M368.027 199.576C368.027 199.576 369.051 197.901 372.517 195.61C375.984 193.32 394.312 199.152 394.312 199.152C394.312 199.152 402.663 188.517 403.885 187.468C405.106 186.42 407.351 185.803 407.755 187.892C408.159 189.98 402.663 198.932 401.235 200.413C399.808 201.894 394.312 205.418 394.312 205.418C390.971 206.595 387.454 207.158 383.922 207.083C379.598 206.764 375.308 206.069 371.099 205.004" fill="white"/>
<path d="M384.79 207.561C384.494 207.561 384.198 207.561 383.892 207.561C379.535 207.238 375.212 206.536 370.97 205.464C370.851 205.434 370.748 205.358 370.684 205.251C370.62 205.144 370.6 205.015 370.629 204.893C370.657 204.771 370.732 204.666 370.836 204.6C370.941 204.535 371.066 204.514 371.186 204.544C375.366 205.599 379.625 206.291 383.919 206.614C387.376 206.679 390.818 206.131 394.093 204.994C394.596 204.663 399.589 201.416 400.9 200.072C402.454 198.481 407.635 189.704 407.294 187.974C407.275 187.772 407.202 187.58 407.084 187.417C406.965 187.255 406.805 187.13 406.621 187.054C406.177 186.987 405.725 187.023 405.297 187.16C404.87 187.297 404.478 187.532 404.151 187.846C403.253 188.646 397.524 195.794 394.641 199.465C394.584 199.537 394.507 199.589 394.421 199.615C394.334 199.642 394.242 199.641 394.156 199.612C389.119 198.012 375.442 194.23 372.739 196.015C369.434 198.205 368.411 199.824 368.402 199.833C368.339 199.937 368.238 200.011 368.122 200.038C368.005 200.066 367.883 200.045 367.782 199.98C367.681 199.916 367.609 199.813 367.582 199.693C367.555 199.574 367.575 199.449 367.638 199.346C367.638 199.281 368.752 197.57 372.254 195.242C375.756 192.915 391.229 197.726 394.138 198.646C395.423 197.009 402.427 188.122 403.576 187.137C404.024 186.726 404.559 186.429 405.14 186.269C405.72 186.11 406.329 186.092 406.917 186.217C407.253 186.343 407.549 186.561 407.771 186.849C407.993 187.136 408.132 187.481 408.174 187.846C408.65 190.265 402.786 199.484 401.538 200.781C400.092 202.262 394.758 205.703 394.534 205.85L394.453 205.896C391.34 206.98 388.078 207.543 384.79 207.561Z" fill="#263238"/>
<path d="M346.457 220.929L353.794 207.635L371.574 218.62L367.057 229.899L346.457 220.929Z" fill="white"/>
<path d="M367.054 230.359C366.995 230.367 366.934 230.367 366.875 230.359L346.275 221.389C346.216 221.365 346.164 221.328 346.122 221.28C346.08 221.232 346.049 221.175 346.032 221.113C346.006 221.055 345.992 220.992 345.992 220.929C345.992 220.865 346.006 220.802 346.032 220.745L353.369 207.442C353.432 207.337 353.532 207.261 353.647 207.23C353.703 207.205 353.762 207.193 353.822 207.193C353.883 207.193 353.942 207.205 353.998 207.23L371.769 218.224C371.859 218.283 371.926 218.372 371.959 218.476C371.992 218.58 371.988 218.693 371.949 218.794L367.459 230.074C367.412 230.185 367.325 230.274 367.216 230.322C367.164 230.342 367.11 230.354 367.054 230.359ZM347.092 220.708L366.848 229.292L371.042 218.813L353.98 208.27L347.092 220.708Z" fill="#263238"/>
<path d="M249.796 218.104L256.72 414.064H306.954L296.789 274.418C296.789 274.418 324.16 305.063 327.267 306.792C330.374 308.522 334.325 303.039 334.325 303.039L371.287 228.74L349.322 216.31L325.076 256.79L321.403 254.187L318.583 255.631C318.583 255.631 293.439 210.248 291.49 209.088C289.542 207.929 280.203 208.509 280.203 208.509L255.957 210.533L246.977 208.693L249.796 218.104Z" fill="#1A46F3"/>
<path d="M306.954 414.515H256.72C256.603 414.513 256.491 414.465 256.408 414.381C256.324 414.297 256.275 414.184 256.271 414.064L249.347 218.178L246.438 208.84C246.415 208.763 246.412 208.68 246.429 208.601C246.446 208.522 246.483 208.449 246.536 208.389C246.588 208.329 246.654 208.284 246.728 208.258C246.802 208.232 246.882 208.227 246.958 208.242L255.938 210.082L280.14 208.058C281.118 208.003 289.658 207.506 291.688 208.702C293.717 209.898 315.332 248.888 318.736 255.033L321.178 253.782C321.248 253.742 321.327 253.721 321.407 253.721C321.487 253.721 321.566 253.742 321.636 253.782L324.914 256.11L348.935 216.044C348.997 215.946 349.092 215.875 349.202 215.846C349.312 215.817 349.428 215.832 349.528 215.887L371.538 228.316C371.641 228.375 371.717 228.471 371.752 228.586C371.787 228.701 371.778 228.825 371.727 228.933L334.756 303.232C334.549 303.526 330.499 309.092 327.087 307.179C324.24 305.587 302.159 281.023 297.372 275.687L307.403 414C307.407 414.064 307.398 414.128 307.376 414.188C307.354 414.249 307.321 414.304 307.277 414.35C307.238 414.4 307.189 414.44 307.133 414.469C307.077 414.497 307.016 414.513 306.954 414.515ZM257.151 413.595H306.469L296.339 274.454C296.332 274.357 296.356 274.261 296.406 274.178C296.456 274.095 296.53 274.031 296.618 273.994C296.702 273.955 296.797 273.945 296.887 273.964C296.978 273.984 297.06 274.034 297.121 274.105C306.577 284.685 325.075 305.044 327.482 306.36C330.176 307.887 333.921 302.79 333.966 302.735L370.694 228.896L349.438 216.89L325.39 256.993C325.359 257.047 325.318 257.094 325.268 257.13C325.219 257.167 325.162 257.192 325.102 257.204C325.042 257.218 324.98 257.218 324.92 257.206C324.859 257.193 324.802 257.168 324.752 257.131L321.304 254.684L318.718 256.008C318.616 256.061 318.498 256.071 318.39 256.037C318.281 256.003 318.189 255.927 318.134 255.824C308.13 237.756 292.712 210.496 291.194 209.447C289.676 208.527 282.717 208.776 280.158 208.932L255.912 210.956H255.786L247.524 209.282L250.218 217.948C250.223 217.988 250.223 218.028 250.218 218.068L257.151 413.595Z" fill="#263238"/>
<path d="M296.787 274.418L296.445 260.314L307.338 285.43L296.787 274.418Z" fill="#263238"/>
<path d="M307.338 285.89C307.279 285.891 307.221 285.879 307.166 285.855C307.112 285.831 307.064 285.796 307.024 285.752L296.472 274.712C296.392 274.628 296.344 274.517 296.337 274.399L295.996 260.36C295.995 260.254 296.029 260.151 296.093 260.068C296.157 259.984 296.246 259.925 296.346 259.9C296.448 259.874 296.555 259.885 296.649 259.932C296.742 259.98 296.817 260.059 296.858 260.158L307.751 285.274C307.794 285.372 307.801 285.482 307.771 285.585C307.741 285.688 307.677 285.776 307.589 285.835C307.513 285.88 307.425 285.899 307.338 285.89ZM297.235 274.224L305.919 283.296L296.939 262.614L297.235 274.224Z" fill="#263238"/>
<path d="M296.511 270.535C296.398 270.536 296.289 270.492 296.206 270.414C296.122 270.335 296.071 270.228 296.062 270.112L293.521 231.95C293.517 231.89 293.524 231.829 293.543 231.772C293.562 231.715 293.591 231.661 293.63 231.616C293.669 231.57 293.716 231.533 293.769 231.506C293.822 231.479 293.879 231.463 293.938 231.458C293.997 231.454 294.056 231.462 294.112 231.481C294.168 231.5 294.22 231.531 294.265 231.57C294.31 231.61 294.346 231.658 294.372 231.712C294.399 231.767 294.415 231.826 294.419 231.886L296.96 270.048C296.964 270.108 296.956 270.169 296.936 270.226C296.917 270.283 296.887 270.336 296.848 270.381C296.809 270.427 296.761 270.463 296.708 270.49C296.655 270.516 296.597 270.532 296.538 270.535H296.511Z" fill="#263238"/>
<path d="M297.921 257.821H297.858C297.741 257.803 297.637 257.738 297.566 257.642C297.496 257.546 297.465 257.425 297.48 257.306C297.75 255.318 299.106 239.31 299.115 239.154C299.13 239.033 299.19 238.922 299.281 238.844C299.373 238.766 299.49 238.725 299.609 238.731C299.726 238.743 299.835 238.801 299.91 238.894C299.986 238.987 300.023 239.107 300.013 239.228C299.959 239.89 298.648 255.42 298.37 257.434C298.351 257.543 298.295 257.64 298.213 257.711C298.131 257.782 298.028 257.82 297.921 257.821Z" fill="#263238"/>
<path d="M300.182 268.226H300.11C300.051 268.218 299.995 268.198 299.943 268.167C299.892 268.136 299.848 268.095 299.812 268.046C299.777 267.997 299.752 267.942 299.738 267.882C299.725 267.823 299.723 267.762 299.733 267.702L302.84 247.462C302.849 247.401 302.869 247.343 302.9 247.291C302.931 247.238 302.971 247.193 303.019 247.157C303.067 247.12 303.122 247.094 303.18 247.079C303.237 247.064 303.298 247.062 303.357 247.071C303.415 247.08 303.472 247.101 303.523 247.132C303.574 247.163 303.619 247.205 303.654 247.254C303.69 247.303 303.715 247.359 303.73 247.418C303.744 247.478 303.747 247.539 303.738 247.6L300.631 267.84C300.616 267.949 300.561 268.049 300.479 268.121C300.396 268.192 300.29 268.229 300.182 268.226Z" fill="#263238"/>
<path d="M326.718 267.922C326.612 267.92 326.511 267.88 326.431 267.81C326.351 267.739 326.297 267.643 326.278 267.536L324.85 259.173C324.84 259.113 324.842 259.051 324.855 258.991C324.868 258.931 324.893 258.875 324.928 258.825C324.962 258.775 325.006 258.733 325.057 258.7C325.107 258.667 325.164 258.645 325.223 258.635C325.282 258.625 325.342 258.626 325.401 258.64C325.459 258.654 325.514 258.679 325.563 258.714C325.612 258.75 325.653 258.795 325.685 258.847C325.717 258.899 325.738 258.956 325.748 259.017L327.185 267.38C327.203 267.5 327.175 267.623 327.106 267.723C327.038 267.822 326.934 267.891 326.817 267.913L326.718 267.922Z" fill="#263238"/>
<path d="M318.71 263.819C318.592 263.812 318.481 263.76 318.4 263.673C318.318 263.586 318.272 263.471 318.27 263.35L318.359 257.637C318.372 257.519 318.424 257.408 318.508 257.326C318.592 257.244 318.701 257.194 318.817 257.186C318.876 257.187 318.934 257.2 318.988 257.225C319.042 257.249 319.091 257.284 319.132 257.327C319.173 257.371 319.205 257.422 319.227 257.479C319.248 257.535 319.259 257.595 319.257 257.655L319.168 263.359C319.168 263.42 319.156 263.481 319.133 263.537C319.109 263.594 319.076 263.645 319.033 263.688C318.99 263.731 318.94 263.764 318.884 263.787C318.829 263.809 318.769 263.82 318.71 263.819Z" fill="#263238"/>
<path d="M258.981 308.697C258.931 308.711 258.879 308.711 258.829 308.697C258.717 308.657 258.626 308.574 258.573 308.466C258.521 308.357 258.513 308.232 258.55 308.117C259.233 306.167 259.915 303.959 260.58 301.548C260.596 301.488 260.623 301.431 260.66 301.382C260.698 301.332 260.744 301.291 260.797 301.26C260.85 301.228 260.908 301.208 260.969 301.2C261.03 301.192 261.091 301.196 261.15 301.213C261.209 301.229 261.264 301.257 261.313 301.295C261.361 301.333 261.402 301.381 261.432 301.435C261.462 301.489 261.482 301.549 261.49 301.611C261.498 301.673 261.494 301.736 261.478 301.797C260.804 304.226 260.113 306.461 259.43 308.421C259.393 308.509 259.33 308.583 259.249 308.633C259.169 308.682 259.075 308.705 258.981 308.697Z" fill="#263238"/>
<path d="M262.215 297.703H262.099C261.985 297.672 261.887 297.598 261.827 297.494C261.766 297.391 261.748 297.268 261.775 297.151C266.553 277.831 269.498 252.466 269.857 249.513L258.803 242.153C258.727 242.103 258.669 242.03 258.635 241.944C258.601 241.859 258.594 241.765 258.614 241.675C258.63 241.584 258.673 241.501 258.738 241.436C258.802 241.372 258.885 241.33 258.973 241.316L272.039 239.126C271.141 237.93 268.968 235.143 266.858 231.904C264.065 227.617 255.094 213.504 255.004 213.394C254.947 213.292 254.931 213.171 254.958 213.056C254.986 212.942 255.055 212.843 255.152 212.779C255.248 212.715 255.365 212.692 255.478 212.714C255.591 212.736 255.691 212.802 255.759 212.897C255.848 213.035 264.819 227.111 267.603 231.389C270.387 235.667 273.198 239.126 273.225 239.154C273.273 239.218 273.305 239.294 273.318 239.375C273.33 239.455 273.323 239.537 273.297 239.614C273.27 239.691 273.223 239.759 273.161 239.811C273.1 239.863 273.025 239.896 272.946 239.908L260.267 242.024L270.585 248.897C270.654 248.944 270.71 249.011 270.745 249.089C270.78 249.167 270.793 249.253 270.782 249.338C270.782 249.605 267.747 276.846 262.7 297.372C262.671 297.477 262.606 297.568 262.517 297.629C262.428 297.689 262.321 297.716 262.215 297.703Z" fill="#263238"/>
<path d="M207.617 190.587L207.698 210.248L229.798 223.937L247.704 211.223L246.052 188.922C246.052 188.922 232.213 198.122 230.381 198.508C228.55 198.895 207.617 190.587 207.617 190.587Z" fill="white"/>
<path d="M229.798 224.397C229.716 224.399 229.635 224.377 229.565 224.333L207.438 210.68C207.372 210.638 207.317 210.58 207.278 210.511C207.239 210.442 207.217 210.364 207.214 210.284L207.133 190.624C207.134 190.55 207.153 190.477 207.187 190.412C207.222 190.346 207.271 190.29 207.33 190.248C207.39 190.206 207.458 190.179 207.53 190.169C207.602 190.159 207.675 190.167 207.743 190.192C215.825 193.393 228.99 198.361 230.274 198.094C231.558 197.828 240.26 192.234 245.801 188.572C245.867 188.532 245.943 188.511 246.021 188.511C246.098 188.511 246.174 188.532 246.241 188.572C246.311 188.608 246.37 188.662 246.414 188.728C246.458 188.794 246.485 188.87 246.492 188.95L248.118 211.25C248.123 211.331 248.108 211.412 248.073 211.485C248.038 211.557 247.986 211.619 247.92 211.664L230.023 224.379C229.951 224.404 229.874 224.41 229.798 224.397ZM208.148 209.99L229.78 223.394L247.237 210.993L245.684 189.722C242.739 191.673 232.214 198.573 230.508 198.922C228.802 199.272 212.664 193.044 208.058 191.222L208.148 209.99Z" fill="#263238"/>
<path d="M207.92 206.485L228.906 201.158L207.695 192.289L207.92 206.485Z" fill="#263238"/>
<path d="M207.924 206.936C207.823 206.938 207.725 206.905 207.645 206.844C207.592 206.801 207.549 206.747 207.519 206.685C207.489 206.622 207.474 206.554 207.475 206.485L207.25 192.28C207.25 192.204 207.268 192.129 207.302 192.062C207.337 191.995 207.387 191.937 207.448 191.894C207.512 191.857 207.585 191.838 207.659 191.838C207.732 191.838 207.805 191.857 207.87 191.894L229.08 200.762C229.168 200.799 229.243 200.863 229.293 200.946C229.343 201.029 229.366 201.125 229.359 201.222C229.349 201.319 229.312 201.41 229.251 201.484C229.19 201.558 229.109 201.611 229.018 201.636L208.031 206.954L207.924 206.936ZM208.166 192.979L208.364 205.859L227.464 201.011L208.166 192.979Z" fill="#263238"/>
<path d="M246.052 165.986C246.052 165.986 245.845 157.026 248.288 152.021C249.07 150.4 249.477 148.617 249.477 146.809C249.477 145.001 249.07 143.218 248.288 141.597L250.542 140.76C249.314 139.707 248.025 138.733 246.68 137.844C246.07 137.632 247.084 132.011 245.252 129.085C243.42 126.16 241.588 125.543 241.588 125.543L240.574 129.297C240.574 129.297 235.078 122.627 232.025 121.376C228.972 120.124 220.234 114.08 220.01 117.208C219.785 120.336 221.033 121.587 221.033 121.587C221.033 121.587 214.927 118.036 210.257 119.287C205.588 120.538 201.098 123.464 202.112 124.504C203.127 125.543 207.608 129.922 207.608 129.922C207.608 129.922 197.236 130.336 196.015 131.588C195.195 132.56 194.583 133.698 194.219 134.927L200.119 138.055C200.119 138.055 194.83 137.632 192.791 140.972C190.753 144.311 190.349 145.572 191.776 146.179C193.187 146.915 194.547 147.752 195.844 148.681C195.844 148.681 194.417 151.184 196.051 155.351C197.685 159.519 201.538 168.7 201.538 168.7C201.538 168.7 202.965 153.686 203.98 150.77C204.995 147.853 217.621 140.972 219.444 140.346C221.267 139.72 234.099 143.262 234.916 143.262C235.734 143.262 241.014 164.321 242.235 165.149C243.456 165.977 246.052 165.986 246.052 165.986Z" fill="#263238"/>
<path d="M201.511 169.16C201.423 169.158 201.339 169.13 201.267 169.079C201.195 169.029 201.139 168.958 201.106 168.875C201.106 168.783 197.218 159.675 195.602 155.526C194.264 152.104 194.901 149.739 195.251 148.847C194.078 148.01 192.847 147.26 191.57 146.602C191.33 146.519 191.112 146.381 190.932 146.2C190.751 146.018 190.613 145.797 190.528 145.553C190.223 144.55 190.914 143.143 192.387 140.723C193.77 138.451 196.491 137.798 198.314 137.632L193.967 135.332C193.873 135.286 193.799 135.206 193.757 135.108C193.716 135.01 193.711 134.9 193.743 134.798C194.135 133.492 194.797 132.288 195.682 131.266C196.796 130.125 203.585 129.665 206.53 129.508C205.21 128.211 202.543 125.598 201.789 124.826C201.662 124.704 201.572 124.547 201.531 124.374C201.489 124.2 201.498 124.019 201.555 123.85C201.995 122.185 206.45 119.83 210.131 118.846C213.651 117.926 217.854 119.526 219.946 120.511C219.597 119.439 219.466 118.306 219.56 117.18C219.562 116.952 219.622 116.727 219.736 116.53C219.85 116.333 220.012 116.17 220.207 116.058C221.563 115.294 224.625 116.868 228.801 119.186C230.13 119.922 231.387 120.621 232.186 120.952C234.763 122.001 238.867 126.61 240.358 128.312L241.148 125.387C241.166 125.326 241.194 125.27 241.233 125.221C241.271 125.172 241.319 125.132 241.373 125.102C241.427 125.075 241.487 125.061 241.548 125.061C241.608 125.061 241.668 125.075 241.723 125.102C241.804 125.102 243.725 125.81 245.62 128.782C246.851 130.741 246.869 133.768 246.877 135.774C246.865 136.321 246.889 136.868 246.949 137.411C248.296 138.309 249.588 139.289 250.82 140.346C250.882 140.399 250.929 140.468 250.957 140.545C250.986 140.622 250.994 140.706 250.981 140.788C250.966 140.867 250.93 140.941 250.878 141.002C250.826 141.064 250.76 141.11 250.685 141.137L248.889 141.8C249.606 143.436 249.959 145.215 249.922 147.009C249.884 148.802 249.458 150.564 248.673 152.168C246.312 157.016 246.482 165.83 246.482 165.922C246.482 166.046 246.434 166.165 246.348 166.253C246.308 166.297 246.259 166.333 246.205 166.356C246.151 166.38 246.092 166.392 246.033 166.391C245.917 166.391 243.232 166.391 241.921 165.471C241.256 165.02 240.286 162.021 237.709 153.235C236.55 149.307 235.132 144.458 234.647 143.64C234.234 143.584 233.327 143.364 231.387 142.904C227.912 142.066 220.683 140.318 219.515 140.714C217.612 141.367 205.255 148.203 204.33 150.834C203.351 153.668 201.933 168.498 201.915 168.645C201.906 168.747 201.864 168.844 201.796 168.919C201.727 168.994 201.636 169.043 201.537 169.059L201.511 169.16ZM199.553 138.497C198.224 138.497 194.659 138.736 193.141 141.257C191.947 143.226 191.184 144.67 191.345 145.323C191.345 145.443 191.48 145.627 191.893 145.811C193.33 146.556 194.713 147.404 196.033 148.35C196.128 148.416 196.195 148.516 196.22 148.631C196.245 148.745 196.226 148.865 196.167 148.966C196.167 148.966 194.883 151.349 196.401 155.232C197.595 158.286 199.993 164.1 201.205 166.934C201.618 162.849 202.678 153.024 203.495 150.659C204.636 147.393 217.755 140.466 219.246 139.96C220.539 139.509 225.828 140.723 231.594 142.112C233.147 142.49 234.62 142.839 234.853 142.848C235.446 142.848 235.67 143.198 238.571 153.079C239.963 157.798 241.858 164.248 242.441 164.827C243.424 165.305 244.497 165.556 245.584 165.563C245.584 163.604 245.71 156.299 247.874 151.864C248.616 150.307 249.002 148.597 249.002 146.864C249.002 145.131 248.616 143.421 247.874 141.864C247.843 141.806 247.825 141.741 247.82 141.675C247.816 141.609 247.826 141.542 247.849 141.48C247.872 141.418 247.908 141.362 247.954 141.315C248 141.269 248.056 141.233 248.117 141.211L249.607 140.659C248.625 139.808 247.587 139.027 246.5 138.322C245.97 138.147 245.971 137.485 245.953 135.875C245.953 133.98 245.953 131.118 244.839 129.38C244.097 128.104 243.069 127.028 241.84 126.242L240.942 129.462C240.921 129.543 240.879 129.617 240.821 129.675C240.762 129.734 240.689 129.775 240.609 129.794C240.529 129.81 240.446 129.805 240.369 129.777C240.291 129.749 240.222 129.701 240.169 129.637C240.116 129.573 234.71 123.041 231.8 121.845C230.609 121.293 229.446 120.678 228.316 120.005C225.622 118.524 221.617 116.325 220.584 116.868C220.539 116.868 220.422 116.96 220.404 117.245C220.225 120.088 221.302 121.256 221.302 121.274C221.374 121.357 221.413 121.463 221.413 121.573C221.413 121.684 221.374 121.79 221.302 121.872C221.237 121.96 221.142 122.02 221.037 122.042C220.931 122.064 220.822 122.046 220.728 121.992C220.674 121.992 214.729 118.56 210.275 119.747C206.108 120.86 202.588 123.16 202.337 124.108C203.342 125.212 207.788 129.554 207.832 129.628C207.896 129.691 207.94 129.771 207.959 129.859C207.979 129.948 207.972 130.04 207.94 130.124C207.909 130.209 207.853 130.282 207.782 130.334C207.71 130.387 207.624 130.416 207.536 130.419C203.298 130.585 196.994 131.174 196.239 131.956C195.534 132.758 194.99 133.696 194.641 134.716L200.199 137.66C200.29 137.71 200.361 137.79 200.402 137.887C200.443 137.983 200.45 138.091 200.424 138.193C200.394 138.295 200.332 138.384 200.247 138.445C200.163 138.507 200.061 138.538 199.957 138.534C199.957 138.534 199.858 138.497 199.553 138.497Z" fill="#263238"/>
<path d="M212.5 135.139C212.5 135.139 198.868 148.939 198.661 151.184C198.455 153.428 204.561 189.124 204.947 190.376C205.334 191.627 219.8 201.011 224.272 202.05C228.744 203.09 233.432 201.839 234.653 200.799C235.874 199.76 247.674 192.878 248.896 187.248C250.117 181.617 242.457 143.262 241.559 141.809C240.661 140.355 221.659 130.962 212.5 135.139Z" fill="white"/>
<path d="M227.841 202.897C226.618 202.901 225.398 202.769 224.204 202.501C219.938 201.508 205.058 192.096 204.547 190.541C203.99 188.83 198.018 153.447 198.216 151.165C198.413 148.884 209.89 137.144 212.189 134.826C212.226 134.785 212.272 134.754 212.323 134.734C221.375 130.612 240.925 139.684 241.957 141.597C242.801 143.106 250.578 181.59 249.33 187.367C248.288 192.179 239.973 197.754 236.426 200.137C235.698 200.624 235.133 201.002 234.935 201.176C233.92 202.05 231.029 202.897 227.841 202.897ZM212.763 135.525C207.528 140.806 199.248 149.684 199.114 151.23C198.934 153.3 204.888 188.664 205.4 190.228C206.028 191.443 219.911 200.56 224.401 201.6C228.891 202.639 233.31 201.379 234.396 200.45C234.63 200.247 235.159 199.888 235.968 199.346C239.425 197.027 247.525 191.599 248.486 187.146C249.662 181.737 242.02 143.594 241.212 142.066C240.458 140.88 221.806 131.56 212.763 135.525Z" fill="#263238"/>
<path d="M212.5 135.139C212.5 135.139 217.223 137.531 219.172 138.423C221.121 139.316 223.276 136.206 223.276 136.206C223.276 136.206 240.006 142.085 241.595 141.809C243.185 141.533 237.105 135.093 230.819 132.655C224.533 130.217 212.536 130.52 212.5 135.139Z" fill="#263238"/>
<path d="M241.506 142.269C239.342 142.269 226.743 137.908 223.438 136.749C222.81 137.54 220.888 139.702 218.948 138.846C217.009 137.991 212.312 135.571 212.267 135.544C212.191 135.506 212.128 135.447 212.083 135.374C212.039 135.3 212.015 135.216 212.016 135.13C212.034 134.587 212.186 134.058 212.458 133.591C212.729 133.125 213.112 132.736 213.569 132.462C217.161 129.968 226.006 130.29 230.981 132.232C236.495 134.375 242.422 139.923 242.26 141.588C242.247 141.756 242.179 141.914 242.066 142.036C241.953 142.158 241.803 142.237 241.641 142.26L241.506 142.269ZM223.277 135.746C223.327 135.737 223.379 135.737 223.429 135.746C229.634 137.926 239.737 141.266 241.389 141.33C241.012 140.07 236.163 135.185 230.703 133.05C225.962 131.21 217.377 130.907 214.126 133.188C213.832 133.363 213.578 133.599 213.38 133.881C213.181 134.163 213.044 134.485 212.976 134.826C214.009 135.341 217.709 137.218 219.361 137.963C220.681 138.561 222.379 136.675 222.953 135.902C222.993 135.854 223.043 135.815 223.098 135.788C223.154 135.761 223.215 135.747 223.277 135.746Z" fill="#263238"/>
<path d="M224.985 174.598C224.868 174.607 224.751 174.607 224.635 174.598L223.494 174.404C222.687 174.54 221.87 174.607 221.052 174.607C220.511 174.569 219.996 174.352 219.587 173.989C219.177 173.625 218.893 173.135 218.78 172.592C218.755 172.474 218.776 172.351 218.838 172.248C218.9 172.145 218.998 172.071 219.112 172.04C219.226 172.012 219.347 172.031 219.447 172.093C219.548 172.155 219.621 172.255 219.651 172.371C219.651 172.426 220.001 173.696 221.052 173.696C221.84 173.699 222.627 173.631 223.404 173.494H223.602L224.823 173.696C225.91 173.889 228.254 172.693 228.415 172.169C228.577 171.644 227.4 166.318 226.619 162.463C225.721 157.936 225.146 155.103 225.146 154.56C225.146 153.198 227.625 150.411 228.119 149.868C228.204 149.783 228.319 149.736 228.438 149.736C228.557 149.736 228.671 149.783 228.756 149.868C228.798 149.911 228.832 149.962 228.855 150.018C228.877 150.074 228.889 150.134 228.889 150.195C228.889 150.255 228.877 150.315 228.855 150.372C228.832 150.428 228.798 150.478 228.756 150.521C227.625 151.763 226.062 153.852 226.062 154.588C226.062 155.103 226.835 158.93 227.517 162.306C228.963 169.473 229.421 171.939 229.313 172.426C228.99 173.42 226.422 174.598 224.985 174.598Z" fill="#263238"/>
<path d="M229.5 172.767C229.229 172.764 228.958 172.74 228.691 172.693C228.634 172.681 228.579 172.658 228.53 172.624C228.481 172.59 228.439 172.547 228.406 172.496C228.374 172.446 228.351 172.389 228.34 172.33C228.329 172.271 228.329 172.21 228.341 172.15C228.352 172.091 228.374 172.034 228.407 171.983C228.439 171.932 228.482 171.889 228.531 171.855C228.581 171.822 228.636 171.799 228.695 171.788C228.753 171.777 228.813 171.778 228.871 171.792C229.376 171.906 229.903 171.858 230.38 171.654C230.484 171.577 230.555 171.461 230.577 171.332L230.775 170.08C230.797 169.961 230.863 169.854 230.96 169.784C231.058 169.713 231.178 169.684 231.296 169.703C231.354 169.712 231.409 169.733 231.46 169.764C231.51 169.796 231.553 169.837 231.588 169.886C231.622 169.935 231.646 169.99 231.659 170.049C231.672 170.108 231.674 170.168 231.664 170.228L231.457 171.479C231.428 171.663 231.362 171.839 231.265 171.997C231.168 172.155 231.041 172.292 230.891 172.399C230.473 172.659 229.989 172.787 229.5 172.767Z" fill="#263238"/>
<path d="M223.484 174.368C223.394 174.368 223.306 174.339 223.233 174.285C222.735 173.891 222.373 173.346 222.197 172.728C222.021 172.109 222.041 171.45 222.254 170.844C222.267 170.78 222.293 170.72 222.331 170.668C222.368 170.616 222.416 170.572 222.471 170.54C222.526 170.508 222.588 170.488 222.651 170.482C222.714 170.476 222.778 170.483 222.838 170.504C222.898 170.525 222.953 170.559 222.999 170.603C223.046 170.648 223.082 170.702 223.107 170.761C223.132 170.821 223.143 170.886 223.142 170.951C223.14 171.016 223.125 171.08 223.098 171.138C222.946 171.558 222.928 172.017 223.046 172.448C223.164 172.879 223.411 173.261 223.753 173.54C223.829 173.598 223.885 173.678 223.913 173.771C223.941 173.863 223.94 173.962 223.91 174.053C223.88 174.145 223.823 174.224 223.747 174.281C223.67 174.337 223.578 174.368 223.484 174.368Z" fill="#263238"/>
<path d="M219.829 187.082C219.718 187.082 219.61 187.043 219.524 186.972C219.441 186.884 219.395 186.767 219.395 186.645C219.395 186.523 219.441 186.406 219.524 186.318C219.596 186.236 226.537 178.397 234.475 181.608C234.53 181.63 234.58 181.664 234.623 181.706C234.665 181.748 234.699 181.798 234.722 181.854C234.745 181.909 234.758 181.969 234.759 182.029C234.759 182.09 234.749 182.15 234.727 182.206C234.705 182.262 234.673 182.313 234.631 182.357C234.59 182.4 234.541 182.435 234.487 182.459C234.433 182.483 234.375 182.495 234.316 182.496C234.257 182.497 234.198 182.486 234.143 182.464C226.789 179.492 220.26 186.852 220.197 186.935C220.151 186.986 220.094 187.027 220.03 187.052C219.966 187.078 219.897 187.088 219.829 187.082Z" fill="#263238"/>
<path d="M205.785 158.36C205.677 158.361 205.57 158.339 205.471 158.295C205.25 158.209 205.072 158.036 204.975 157.816C204.877 157.596 204.868 157.345 204.95 157.118C205.907 154.751 207.51 152.716 209.566 151.257C212.996 148.911 218.941 151.69 219.192 151.809C219.3 151.861 219.396 151.933 219.476 152.023C219.556 152.112 219.618 152.217 219.658 152.331C219.699 152.445 219.717 152.566 219.712 152.687C219.707 152.809 219.678 152.928 219.628 153.037C219.578 153.147 219.507 153.246 219.42 153.328C219.332 153.41 219.23 153.473 219.119 153.515C219.007 153.556 218.889 153.575 218.771 153.57C218.653 153.564 218.536 153.535 218.429 153.484C216.974 152.784 212.709 151.312 210.563 152.784C208.825 154.036 207.462 155.76 206.629 157.762C206.565 157.938 206.45 158.089 206.299 158.196C206.148 158.303 205.969 158.36 205.785 158.36Z" fill="#263238"/>
<path d="M241.401 154.404C241.237 154.405 241.076 154.36 240.935 154.274C240.794 154.188 240.679 154.064 240.602 153.916C239.584 152.14 238.03 150.752 236.174 149.96C235.374 149.663 234.511 149.586 233.673 149.738C232.834 149.89 232.05 150.264 231.397 150.825C231.309 150.907 231.207 150.971 231.095 151.012C230.984 151.053 230.865 151.071 230.746 151.065C230.628 151.059 230.512 151.029 230.404 150.977C230.297 150.925 230.201 150.851 230.122 150.76C229.963 150.58 229.88 150.342 229.892 150.099C229.904 149.855 230.009 149.627 230.185 149.463C231.082 148.676 232.169 148.147 233.332 147.932C234.495 147.717 235.693 147.823 236.803 148.24C239.069 149.185 240.964 150.874 242.191 153.042C242.248 153.149 242.283 153.266 242.295 153.387C242.307 153.508 242.296 153.63 242.261 153.746C242.227 153.863 242.171 153.971 242.096 154.065C242.02 154.159 241.928 154.236 241.823 154.293C241.693 154.365 241.548 154.403 241.401 154.404Z" fill="#263238"/>
<path d="M214.847 163.696C215.69 163.696 216.374 162.715 216.374 161.506C216.374 160.297 215.69 159.316 214.847 159.316C214.004 159.316 213.32 160.297 213.32 161.506C213.32 162.715 214.004 163.696 214.847 163.696Z" fill="#263238"/>
<path d="M234.584 158.378C234.584 159.583 233.893 160.568 233.058 160.568C232.223 160.568 231.531 159.583 231.531 158.378C231.531 157.173 232.214 156.188 233.058 156.188C233.902 156.188 234.584 157.173 234.584 158.378Z" fill="#263238"/>
<path d="M201.152 166.4C201.152 166.4 197.291 160.779 195.459 165.149C193.627 169.519 195.459 173.07 197.255 175.996C199.051 178.922 202.948 180.375 202.948 180.375L201.152 166.4Z" fill="white"/>
<path d="M202.946 180.835C202.896 180.845 202.844 180.845 202.794 180.835C202.632 180.78 198.762 179.29 196.876 176.235C194.819 172.96 193.176 169.335 195.008 164.965C195.147 164.476 195.415 164.036 195.782 163.694C196.15 163.351 196.603 163.119 197.091 163.024C199.13 162.812 201.249 165.784 201.483 166.134C201.528 166.192 201.556 166.262 201.563 166.336L203.359 180.302C203.368 180.381 203.357 180.462 203.327 180.536C203.297 180.609 203.25 180.675 203.189 180.725C203.12 180.785 203.036 180.824 202.946 180.835ZM197.307 163.944H197.181C196.642 163.999 196.193 164.468 195.834 165.324C194.083 169.501 195.834 172.886 197.63 175.738C198.862 177.437 200.506 178.775 202.399 179.621L200.683 166.566C200.091 165.756 198.528 163.944 197.298 163.944H197.307Z" fill="#263238"/>
<path d="M246.482 159.528C246.482 159.528 246.886 155.563 248.52 155.977C250.155 156.391 253.199 159.528 251.367 163.898C249.535 168.268 247.703 172.868 247.703 172.868L246.051 164.321L246.482 159.528Z" fill="white"/>
<path d="M247.704 173.328C247.607 173.316 247.517 173.273 247.446 173.205C247.375 173.138 247.327 173.048 247.309 172.951L245.683 164.404C245.678 164.361 245.678 164.318 245.683 164.275L246.087 159.482C246.087 159.188 246.42 156.575 247.56 155.756C247.721 155.639 247.905 155.56 248.099 155.523C248.292 155.487 248.492 155.494 248.683 155.544C249.366 155.795 249.993 156.183 250.528 156.686C251.063 157.188 251.495 157.795 251.799 158.47C252.213 159.346 252.429 160.307 252.429 161.281C252.429 162.254 252.213 163.215 251.799 164.091C250.003 168.415 248.153 173.006 248.135 173.052C248.1 173.138 248.039 173.211 247.962 173.26C247.885 173.31 247.795 173.333 247.704 173.328ZM246.527 164.294L247.856 171.276C248.548 169.574 249.751 166.584 250.955 163.723C251.308 162.966 251.492 162.138 251.492 161.299C251.492 160.46 251.308 159.632 250.955 158.875C250.458 157.749 249.548 156.87 248.422 156.428C248.355 156.407 248.285 156.403 248.216 156.416C248.147 156.428 248.083 156.458 248.027 156.501C247.425 156.934 247.039 158.608 246.941 159.565L246.527 164.294Z" fill="#263238"/>
</svg>
