<svg width="665" height="517" viewBox="0 0 665 517" fill="none" xmlns="http://www.w3.org/2000/svg">
<g clip-path="url(#clip0_990_1006)">
<path d="M650.968 0H116.763C109.843 0 104.234 6.02783 104.234 13.4635V503.536C104.234 510.972 109.843 517 116.763 517H650.968C657.887 517 663.496 510.972 663.496 503.536V13.4635C663.496 6.02783 657.887 0 650.968 0Z" fill="#FEFAEE"/>
<path d="M665.003 158.87H611.883V345.744H665.003V158.87Z" fill="#CCB5DD"/>
<path d="M495.622 0H303.188V158.87H495.622V0Z" fill="#FFCC5F"/>
<path d="M500.629 345.744H308.195V517H500.629V345.744Z" fill="#F3A397"/>
<path d="M444.504 158.87H276.625V345.744H444.504V158.87Z" fill="black"/>
<path d="M104.984 0V517" stroke="black" stroke-width="3"/>
<path d="M303.938 0V158.87" stroke="black" stroke-width="3"/>
<path d="M309.008 345.744V517" stroke="black" stroke-width="3.2339"/>
<path d="M445.32 158.87V345.744" stroke="black" stroke-width="3.25368"/>
<path d="M612.695 158.87V345.744" stroke="black" stroke-width="3.25368"/>
<path d="M276.938 158.87V345.744" stroke="black" stroke-width="3.25368"/>
<path d="M496.367 0V158.87" stroke="black" stroke-width="3"/>
<path d="M499.438 345.744V517" stroke="black" stroke-width="3.2339"/>
<path d="M104.734 158.062H664.998" stroke="black" stroke-width="3"/>
<path d="M104.734 344.936H664.998" stroke="black" stroke-width="3"/>
<path d="M233.643 129.051H177.517C174.59 129.051 171.759 126.611 171.198 123.6L156.449 44.8172C155.888 41.8068 157.802 39.3672 160.729 39.3672H216.855C219.782 39.3672 222.613 41.8068 223.175 44.8172L237.908 123.6C238.489 126.632 236.57 129.051 233.643 129.051Z" fill="black" stroke="black" stroke-width="2" stroke-linejoin="round"/>
<path d="M234.996 127.672H178.869C175.942 127.672 173.116 125.232 172.55 122.222L157.816 43.4383C157.255 40.4279 159.169 37.9883 162.096 37.9883H218.223C221.149 37.9883 223.976 40.4279 224.542 43.4383L239.275 122.222C239.841 125.232 237.922 127.672 234.996 127.672Z" fill="#F3A397" stroke="black" stroke-width="2" stroke-linejoin="round"/>
<path d="M177.897 122.519C177.818 122.516 177.741 122.485 177.679 122.432C177.617 122.378 177.572 122.305 177.552 122.222L162.818 43.4391C162.81 43.4026 162.811 43.3647 162.819 43.3283C162.827 43.292 162.843 43.2582 162.865 43.2294C162.887 43.2007 162.915 43.178 162.948 43.163C162.979 43.148 163.014 43.1411 163.049 43.1429H219.175C219.255 43.1449 219.332 43.1749 219.394 43.2284C219.457 43.2819 219.502 43.3559 219.521 43.4391L234.254 122.222C234.262 122.259 234.262 122.297 234.254 122.333C234.246 122.369 234.23 122.403 234.208 122.432C234.185 122.46 234.157 122.483 234.125 122.499C234.093 122.514 234.058 122.52 234.024 122.519H177.897Z" fill="black" stroke="black" stroke-width="2" stroke-linejoin="round"/>
<path d="M195.617 40.0678H185.464L184.462 34.844C183.92 31.9574 185.76 29.6201 188.561 29.6201C189.965 29.653 191.319 30.1828 192.413 31.1274C193.508 32.0719 194.281 33.3784 194.615 34.844L195.617 40.0678Z" fill="white" stroke="black" stroke-width="2" stroke-linejoin="round"/>
<path d="M251.403 112.377H194.69C179.004 100.605 170.42 72.9078 162.758 43.1426H219.476C226.752 71.7014 236.229 96.6952 251.403 112.377Z" fill="#FEFAEE" stroke="black" stroke-width="2" stroke-linejoin="round"/>
<path d="M212.971 45.8835H170.3L168.125 34.251H210.796L212.971 45.8835Z" fill="#FFCC5F" stroke="black" stroke-width="2" stroke-linejoin="round"/>
<path d="M206.365 101.438C207.39 99.2049 205.272 95.8331 201.635 93.9062C197.998 91.9798 194.22 92.2281 193.195 94.4614C192.171 96.6942 194.289 100.066 197.926 101.992C201.563 103.919 205.341 103.67 206.365 101.438Z" fill="black" stroke="black" stroke-width="2" stroke-linejoin="round"/>
<path d="M173.75 55.459H216.04" stroke="black" stroke-width="2" stroke-linejoin="round"/>
<path d="M176.859 65.0342H219.15" stroke="black" stroke-width="2" stroke-linejoin="round"/>
<path d="M179.969 74.6094H222.259" stroke="black" stroke-width="2" stroke-linejoin="round"/>
<path d="M538.719 422.648L583.64 388.289L628.556 422.648H538.719Z" fill="black" stroke="black" stroke-width="2" stroke-linejoin="round"/>
<path d="M628.556 422.647H538.719V474.391H628.556V422.647Z" fill="black" stroke="black" stroke-width="2" stroke-linejoin="round"/>
<path d="M614.905 396.586V433.086L583.635 457.007L552.359 433.086V396.586H614.905Z" fill="#CCB5DD" stroke="black" stroke-width="2" stroke-linejoin="round"/>
<path d="M558.398 429.435H598.098" stroke="black" stroke-width="2" stroke-linejoin="round"/>
<path d="M558.398 437.879H598.098" stroke="black" stroke-width="2" stroke-linejoin="round"/>
<path d="M575.631 402.265H557.641V421.597H575.631V402.265Z" fill="#FEFAEE" stroke="black" stroke-width="2" stroke-linejoin="round"/>
<path d="M628.556 422.647V481.711H538.719V422.647L552.365 433.086L583.64 457.006L614.911 433.086L628.556 422.647Z" fill="#FFCC5F" stroke="black" stroke-width="2" stroke-linejoin="round"/>
<path d="M538.719 481.995L583.64 447.636L628.556 481.995H538.719Z" fill="#FFCC5F" stroke="black" stroke-width="2" stroke-linejoin="round"/>
<path d="M578.922 224.033H489.309C486.705 224.033 484.594 226.302 484.594 229.101V280.769C484.594 283.567 486.705 285.836 489.309 285.836H578.922C581.527 285.836 583.637 283.567 583.637 280.769V229.101C583.637 226.302 581.527 224.033 578.922 224.033Z" fill="#FFCC5F" stroke="black" stroke-width="2" stroke-linejoin="round"/>
<path d="M583.637 234.405H484.594V249.554H583.637V234.405Z" fill="black" stroke="black" stroke-width="2" stroke-linejoin="round"/>
<path d="M554.883 267.649V280.451H578.631V267.649H554.883Z" fill="#CCB5DD" stroke="black" stroke-width="2" stroke-linejoin="round"/>
<path d="M507.821 245.618V253.491C507.821 254.332 507.515 255.139 506.964 255.736C506.413 256.333 505.661 256.67 504.879 256.674H495.163C494.38 256.672 493.63 256.338 493.077 255.743C492.524 255.149 492.212 254.343 492.211 253.502V245.618C492.211 244.776 492.522 243.969 493.075 243.373C493.629 242.777 494.379 242.442 495.163 242.44H504.879C505.661 242.44 506.418 242.775 506.969 243.371C507.525 243.967 507.836 244.775 507.836 245.618H507.821Z" fill="#F3A397" stroke="black" stroke-width="2" stroke-linejoin="round"/>
<path d="M500.016 242.446V256.664" stroke="black" stroke-width="2" stroke-linejoin="round"/>
<path d="M497.167 246.071V253.034L493.248 255.904C492.923 255.607 492.662 255.237 492.483 254.821C492.304 254.404 492.211 253.951 492.211 253.492V245.618C492.211 245.158 492.304 244.704 492.483 244.287C492.662 243.87 492.923 243.499 493.248 243.2L497.167 246.071Z" fill="#F3A397" stroke="black" stroke-width="2" stroke-linejoin="round"/>
<path d="M507.821 245.618V253.492C507.821 253.951 507.731 254.404 507.551 254.821C507.37 255.238 507.11 255.607 506.784 255.904L502.875 253.034V246.071L506.784 243.211C507.11 243.508 507.37 243.877 507.546 244.293C507.726 244.708 507.821 245.16 507.821 245.618Z" fill="#F3A397" stroke="black" stroke-width="2" stroke-linejoin="round"/>
<path d="M502.862 246.07H497.164V253.034H502.862V246.07Z" fill="#F3A397" stroke="black" stroke-width="2" stroke-linejoin="round"/>
<path d="M108.996 239.382H100.477V248.537H108.996V239.382Z" fill="#FEFAEE" stroke="black" stroke-width="3"/>
<path d="M194.691 154.292H186.172V163.447H194.691V154.292Z" fill="#FEFAEE" stroke="black" stroke-width="3"/>
<path d="M201.207 341.166H192.688V350.321H201.207V341.166Z" fill="#FEFAEE" stroke="black" stroke-width="3"/>
<path d="M503.886 427.333H495.367V436.488H503.886V427.333Z" fill="#FEFAEE" stroke="black" stroke-width="3"/>
<path d="M616.644 238.305H608.125V247.46H616.644V238.305Z" fill="#FEFAEE" stroke="black" stroke-width="3"/>
<path d="M362.492 53.0029V96.2478C355.756 96.2478 350.289 100.761 350.289 106.324C350.289 111.887 355.756 116.4 362.492 116.4H459.105V53.0029H362.492Z" fill="#ADD8B8" stroke="black" stroke-width="2" stroke-linejoin="round"/>
<path d="M362.492 32.8506V97.6695C355.751 97.6695 350.289 102.182 350.289 107.746V42.9213C350.289 37.3636 355.751 32.8506 362.492 32.8506Z" fill="#ADD8B8" stroke="black" stroke-width="2" stroke-linejoin="round"/>
<path d="M396.987 63.4561H372.336V77.1081H396.987V63.4561Z" fill="#ADD8B8" stroke="black" stroke-width="2" stroke-linejoin="round"/>
<path d="M421.635 63.4561H396.984V77.1081H421.635V63.4561Z" fill="#ADD8B8" stroke="black" stroke-width="2" stroke-linejoin="round"/>
<path d="M446.283 63.4561H421.633V77.1081H446.283V63.4561Z" fill="#ADD8B8" stroke="black" stroke-width="2" stroke-linejoin="round"/>
<path d="M396.987 77.1084H372.336V90.7604H396.987V77.1084Z" fill="#ADD8B8" stroke="black" stroke-width="2" stroke-linejoin="round"/>
<path d="M421.635 77.1084H396.984V90.7604H421.635V77.1084Z" fill="#ADD8B8" stroke="black" stroke-width="2" stroke-linejoin="round"/>
<path d="M446.283 77.1084H421.633V90.7604H446.283V77.1084Z" fill="#ADD8B8" stroke="black" stroke-width="2" stroke-linejoin="round"/>
<path d="M396.987 90.7607H372.336V104.413H396.987V90.7607Z" fill="#ADD8B8" stroke="black" stroke-width="2" stroke-linejoin="round"/>
<path d="M421.635 90.7607H396.984V104.413H421.635V90.7607Z" fill="#ADD8B8" stroke="black" stroke-width="2" stroke-linejoin="round"/>
<path d="M446.283 90.7607H421.633V104.413H446.283V90.7607Z" fill="#ADD8B8" stroke="black" stroke-width="2" stroke-linejoin="round"/>
<path d="M322.289 220.484L314.852 263.729C308.117 263.729 301.878 268.242 300.921 273.811C299.964 279.379 304.654 283.887 311.389 283.887H408.002L418.897 220.484H322.289Z" fill="#CCB5DD" stroke="black" stroke-width="2" stroke-linejoin="round"/>
<path d="M325.756 200.338L314.616 265.157C307.876 265.157 301.637 269.664 300.68 275.227L311.82 210.409C312.777 204.845 319.016 200.338 325.756 200.338Z" fill="#CCB5DD" stroke="black" stroke-width="2" stroke-linejoin="round"/>
<path d="M330.337 230.938H354.988L352.643 244.59H327.992L330.337 230.938Z" fill="#CCB5DD" stroke="black" stroke-width="2" stroke-linejoin="round"/>
<path d="M354.986 230.938H379.637L377.286 244.59H352.641L354.986 230.938Z" fill="#CCB5DD" stroke="black" stroke-width="2" stroke-linejoin="round"/>
<path d="M379.639 230.938H404.29L401.94 244.59H377.289L379.639 230.938Z" fill="#CCB5DD" stroke="black" stroke-width="2" stroke-linejoin="round"/>
<path d="M327.991 244.59H352.642L350.291 258.247H325.641L327.991 244.59Z" fill="#CCB5DD" stroke="black" stroke-width="2" stroke-linejoin="round"/>
<path d="M352.639 244.59H377.285L374.94 258.247H350.289L352.639 244.59Z" fill="#CCB5DD" stroke="black" stroke-width="2" stroke-linejoin="round"/>
<path d="M377.283 244.59H401.933L399.588 258.247H374.938L377.283 244.59Z" fill="#CCB5DD" stroke="black" stroke-width="2" stroke-linejoin="round"/>
<path d="M325.642 258.247H350.293L347.947 271.899H323.297L325.642 258.247Z" fill="#CCB5DD" stroke="black" stroke-width="2" stroke-linejoin="round"/>
<path d="M350.291 258.247H374.941L372.596 271.899H347.945L350.291 258.247Z" fill="#CCB5DD" stroke="black" stroke-width="2" stroke-linejoin="round"/>
<path d="M374.939 258.247H399.59L397.244 271.899H372.594L374.939 258.247Z" fill="#CCB5DD" stroke="black" stroke-width="2" stroke-linejoin="round"/>
<path d="M357.392 483.365L374.165 379.426C374.397 378.165 375.018 377.026 375.927 376.191C376.836 375.356 377.981 374.876 379.176 374.827H435.709C436.245 374.808 436.778 374.921 437.266 375.158C437.756 375.395 438.187 375.749 438.529 376.193C438.871 376.637 439.113 377.16 439.237 377.72C439.362 378.28 439.365 378.864 439.247 379.426L422.479 483.365C422.248 484.626 421.627 485.767 420.718 486.603C419.808 487.439 418.663 487.92 417.468 487.97H360.935C360.398 487.989 359.864 487.877 359.374 487.64C358.884 487.404 358.452 487.049 358.109 486.604C357.767 486.16 357.524 485.636 357.4 485.074C357.276 484.513 357.273 483.928 357.392 483.365Z" fill="black" stroke="black" stroke-width="2" stroke-linejoin="round"/>
<path d="M362.408 483.365L379.181 379.426C379.411 378.165 380.031 377.023 380.941 376.189C381.85 375.353 382.996 374.874 384.192 374.827H440.725C441.26 374.808 441.793 374.921 442.282 375.158C442.771 375.395 443.203 375.749 443.544 376.193C443.886 376.637 444.129 377.16 444.253 377.72C444.377 378.28 444.381 378.864 444.263 379.426L427.495 483.365C427.263 484.626 426.643 485.767 425.733 486.603C424.824 487.439 423.679 487.92 422.483 487.97H365.951C365.414 487.989 364.88 487.877 364.39 487.64C363.9 487.404 363.467 487.049 363.125 486.604C362.782 486.16 362.54 485.636 362.415 485.074C362.291 484.513 362.289 483.928 362.408 483.365Z" fill="#AAA9A7" stroke="black" stroke-width="2" stroke-linejoin="round"/>
<path d="M438.866 381.812L422.874 480.957C422.79 481.402 422.569 481.804 422.246 482.097C421.923 482.39 421.518 482.558 421.095 482.573H369.058C368.87 482.579 368.682 482.54 368.51 482.456C368.339 482.373 368.187 482.249 368.066 482.093C367.946 481.937 367.86 481.754 367.816 481.557C367.772 481.36 367.77 481.155 367.81 480.957L383.801 381.812C383.886 381.368 384.106 380.967 384.428 380.674C384.749 380.38 385.154 380.212 385.575 380.196H437.613C437.801 380.189 437.989 380.228 438.161 380.311C438.334 380.394 438.487 380.518 438.607 380.674C438.728 380.83 438.814 381.014 438.859 381.211C438.904 381.408 438.906 381.614 438.866 381.812Z" fill="#FEFAEE" stroke="black" stroke-width="2" stroke-linejoin="round"/>
<path d="M428.179 412.197L422.23 419.989L389.802 462.459L384.761 460.617L387.031 449.587L369.07 473.116L370.919 461.635L390.128 436.474L395.169 438.321L392.899 449.345L417.996 416.467L423.849 408.804L428.179 412.197Z" fill="black" stroke="black" stroke-width="2" stroke-linejoin="round"/>
<path d="M430.827 404.377L413.438 412.676L426.407 423.463L430.827 404.377Z" fill="black" stroke="black" stroke-width="2" stroke-linejoin="round"/>
<path d="M418.557 390.488H401.304C400.959 390.5 400.617 390.428 400.302 390.275C399.988 390.123 399.71 389.896 399.491 389.61C399.271 389.324 399.116 388.988 399.037 388.627C398.958 388.267 398.956 387.892 399.033 387.531C399.18 386.72 399.579 385.986 400.164 385.45C400.75 384.914 401.487 384.607 402.256 384.58H419.51C419.854 384.566 420.197 384.638 420.511 384.79C420.825 384.941 421.103 385.168 421.323 385.453C421.543 385.739 421.699 386.074 421.779 386.434C421.859 386.795 421.861 387.17 421.785 387.531C421.636 388.342 421.236 389.077 420.65 389.613C420.064 390.15 419.327 390.458 418.557 390.488Z" fill="black" stroke="black" stroke-width="2" stroke-linejoin="round"/>
<path d="M241.586 464.223H156.398L165.299 408.215H250.496L241.586 464.223Z" fill="#FFCC5F" stroke="black" stroke-width="2" stroke-linejoin="round"/>
<path d="M156.352 464.492L204.129 431.91L241.544 464.492H156.352Z" fill="#FFCC5F" stroke="black" stroke-width="2" stroke-linejoin="round"/>
<path d="M250.494 408.215L203.959 442.143L165.297 408.215H250.494Z" fill="black" stroke="black" stroke-width="2" stroke-linejoin="round"/>
<path d="M250.494 408.215L198.196 439.72L165.297 408.215H250.494Z" fill="#FFCC5F" stroke="black" stroke-width="2" stroke-linejoin="round"/>
<path d="M69.2244 329.218C106.904 329.218 137.449 296.393 137.449 255.9C137.449 215.408 106.904 182.582 69.2244 182.582C31.5452 182.582 1 215.408 1 255.9C1 296.393 31.5452 329.218 69.2244 329.218Z" fill="black" stroke="black" stroke-width="2.73816" stroke-linejoin="round"/>
<path d="M77.0999 320.046C114.779 320.046 145.324 287.22 145.324 246.728C145.324 206.236 114.779 173.41 77.0999 173.41C39.4202 173.41 8.875 206.236 8.875 246.728C8.875 287.22 39.4202 320.046 77.0999 320.046Z" fill="#AAA9A7" stroke="black" stroke-width="2.73816" stroke-linejoin="round"/>
<path d="M77.1047 305.3C66.3249 305.3 55.7871 301.865 46.8243 295.429C37.8613 288.993 30.8756 279.845 26.7503 269.142C22.6251 258.44 21.5459 246.663 23.6488 235.302C25.7518 223.939 30.9427 213.503 38.5651 205.312C46.1875 197.12 55.8988 191.542 66.4717 189.282C77.044 187.022 88.0028 188.182 97.9617 192.615C107.921 197.048 116.433 204.555 122.422 214.187C128.411 223.819 131.607 235.144 131.607 246.728C131.589 262.256 125.841 277.143 115.624 288.123C105.407 299.103 91.5538 305.28 77.1047 305.3Z" fill="#FEFAEE" stroke="black" stroke-width="2.73816" stroke-linejoin="round"/>
<path d="M52.3754 254.942C52.3754 250.64 50.7849 246.515 47.9543 243.472C45.1236 240.431 41.2844 238.721 37.2812 238.721C41.2844 238.721 45.1236 237.013 47.9543 233.97C50.7849 230.929 52.3754 226.803 52.3754 222.501C52.3754 226.803 53.9655 230.929 56.7959 233.97C59.6268 237.013 63.466 238.721 67.469 238.721C63.466 238.721 59.6268 240.431 56.7959 243.472C53.9655 246.515 52.3754 250.64 52.3754 254.942Z" fill="#FFCC5F" stroke="black" stroke-width="2.73816" stroke-linejoin="round"/>
<path d="M137.107 408.921L117.553 416.957L87.3655 330.265C84.0309 320.945 103.585 312.879 106.919 322.199L137.107 408.921Z" fill="#AAA9A7" stroke="black" stroke-width="2.73816" stroke-linejoin="round"/>
<path d="M129.447 418.962C134.844 416.734 138.263 412.252 137.083 408.953C135.904 405.653 130.572 404.786 125.174 407.015C119.777 409.243 116.358 413.725 117.538 417.024C118.717 420.324 124.049 421.191 129.447 418.962Z" fill="#AAA9A7" stroke="black" stroke-width="2.73816" stroke-linejoin="round"/>
<path d="M232.515 253.106C232.123 257.995 230.838 262.753 228.731 267.108C226.462 271.819 223.343 275.999 219.556 279.403C213.188 285.226 205.116 288.456 196.754 288.526C195.655 288.526 194.574 288.468 193.512 288.353C192.426 288.238 191.347 288.058 190.28 287.815C175.461 284.583 165.223 270.258 166.591 253.095C167.959 235.932 180.432 221.633 195.772 218.38C197.94 217.914 200.146 217.679 202.357 217.68C209.379 217.604 216.208 220.143 221.685 224.865C229.107 231.343 233.427 241.581 232.515 253.106Z" fill="black" stroke="black" stroke-width="2" stroke-linejoin="round"/>
<path d="M228.733 267.103C226.464 271.816 223.345 275.998 219.557 279.403H203.852L204.824 267.103H228.733Z" fill="#FFCC5F" stroke="black" stroke-width="2" stroke-linejoin="round"/>
<path d="M232.514 253.106H205.062L207.293 224.876H221.68C229.107 231.344 233.426 241.582 232.514 253.106Z" fill="#FFCC5F" stroke="black" stroke-width="2" stroke-linejoin="round"/>
<path d="M190.274 287.826C191.342 288.07 192.421 288.249 193.507 288.365H190.234L190.274 287.826Z" fill="white" stroke="black" stroke-width="2" stroke-linejoin="round"/>
<path d="M214.845 277.658C228.58 263.558 229.944 241.137 217.892 227.579C205.841 214.021 184.936 214.461 171.201 228.561C157.467 242.661 156.103 265.082 168.155 278.64C180.207 292.198 201.111 291.758 214.845 277.658Z" fill="#FFCC5F" stroke="black" stroke-width="2" stroke-linejoin="round"/>
<path d="M202.559 249.12C200.83 248.103 199.006 247.285 197.117 246.681C196.42 246.438 195.784 246.212 195.192 246.013L195.573 241.209C196.064 241.3 196.55 241.424 197.026 241.581C198.023 241.912 198.999 242.311 199.948 242.776C200.954 243.289 201.931 243.865 202.875 244.5L207.7 235.953C206.698 235.388 205.511 234.784 204.162 234.149C202.748 233.487 201.287 232.947 199.793 232.533C198.874 232.276 197.937 232.096 196.991 231.995L197.417 226.609H193.463L193.037 231.995C191.407 232.182 189.813 232.638 188.312 233.347C186.287 234.283 184.514 235.752 183.155 237.617C181.735 239.646 180.905 242.083 180.77 244.618C180.594 246.211 180.788 247.827 181.336 249.32C181.913 250.679 182.833 251.838 183.992 252.664C185.492 253.736 187.121 254.584 188.833 255.184C189.899 255.572 190.893 255.918 191.815 256.224L191.449 260.882C190.75 260.774 190.06 260.611 189.384 260.392C188.184 260.006 187.012 259.527 185.876 258.96C184.69 258.343 183.538 257.651 182.428 256.886L177.562 265.966C178.99 266.898 180.501 267.672 182.073 268.276C183.761 268.94 185.498 269.455 187.264 269.817C188.201 270.01 189.119 270.15 190.026 270.242L189.524 276.748H193.478L193.98 270.312C195.126 270.231 196.264 270.051 197.382 269.773C198.963 269.383 200.47 268.709 201.842 267.781C203.213 266.85 204.361 265.586 205.195 264.092C206.136 262.35 206.68 260.394 206.783 258.383C206.974 256.014 206.697 254.111 205.952 252.675C205.152 251.172 203.977 249.941 202.559 249.12ZM191.534 244.451C191.306 244.276 191.125 244.039 191.007 243.766C190.89 243.492 190.841 243.191 190.864 242.89C190.888 242.59 190.984 242.301 191.143 242.053C191.301 241.804 191.517 241.605 191.77 241.473C192.159 241.281 192.573 241.154 192.997 241.096L192.682 245.087C192.287 244.92 191.91 244.707 191.559 244.451H191.534ZM196.285 259.369C196.266 259.615 196.191 259.853 196.067 260.061C195.943 260.27 195.774 260.442 195.573 260.564C195.082 260.843 194.535 260.991 193.98 260.995L194.29 257.123C194.647 257.283 194.994 257.462 195.333 257.662C195.642 257.799 195.903 258.038 196.079 258.345C196.255 258.652 196.335 259.01 196.31 259.369H196.285Z" fill="#FFCC5F" stroke="black" stroke-width="2" stroke-linejoin="round"/>
<path d="M202.35 217.691C200.139 217.69 197.934 217.925 195.766 218.392L195.821 217.691H202.35Z" fill="white" stroke="black" stroke-width="2" stroke-linejoin="round"/>
<path d="M597.738 66.1849C597.738 60.6897 596.259 55.3118 593.478 50.699C590.702 46.0864 586.738 42.4363 582.072 40.189C577.407 37.9417 572.235 37.1929 567.179 38.0332C562.127 38.8734 557.407 41.2667 553.593 44.9244C549.774 48.5822 547.023 53.3482 545.67 58.6481C544.317 63.9473 544.422 69.5546 545.966 74.7925C547.514 80.0308 550.436 84.6768 554.385 88.1698C558.334 91.6633 563.135 93.8547 568.216 94.4799V126.405H574.255V94.5015C580.719 93.7028 586.688 90.3757 591.017 85.1535C595.347 79.9318 597.743 73.1801 597.738 66.1849Z" fill="#AAA9A7" stroke="black" stroke-width="2" stroke-linejoin="round"/>
<path d="M571.236 89.3043C566.986 89.3043 562.832 87.9504 559.299 85.4133C555.761 82.8763 553.01 79.2702 551.381 75.0507C549.752 70.8312 549.326 66.1879 550.153 61.7083C550.98 57.2282 553.025 53.1125 556.032 49.8813C559.033 46.6501 562.862 44.4485 567.031 43.5549C571.201 42.6612 575.521 43.1155 579.449 44.8605C583.373 46.6054 586.731 49.5626 589.096 53.3582C591.462 57.1539 592.724 61.6173 592.729 66.1847C592.729 72.3122 590.464 78.1888 586.435 82.5235C582.406 86.8588 576.939 89.2973 571.236 89.3043Z" fill="#FEFAEE" stroke="black" stroke-width="2" stroke-linejoin="round"/>
<path d="M571.236 128.273C572.899 128.273 574.252 127.447 574.252 126.426C574.252 125.406 572.899 124.579 571.236 124.579C569.572 124.579 568.219 125.406 568.219 126.426C568.219 127.447 569.572 128.273 571.236 128.273Z" fill="black" stroke="black" stroke-width="2" stroke-linejoin="round"/>
<path d="M561.051 66.1848C561.051 64.6139 560.47 63.1071 559.438 61.996C558.406 60.885 557.002 60.2609 555.539 60.2609C557.002 60.2609 558.406 59.6367 559.438 58.5262C560.47 57.4152 561.051 55.9084 561.051 54.3369C561.051 55.9084 561.633 57.4152 562.665 58.5262C563.698 59.6367 565.101 60.2609 566.564 60.2609C565.101 60.2609 563.698 60.885 562.665 61.996C561.633 63.1071 561.051 64.6139 561.051 66.1848Z" fill="#FFCC5F" stroke="black" stroke-width="2" stroke-linejoin="round"/>
</g>
<defs>
<clipPath id="clip0_990_1006">
<rect width="665" height="517" fill="white"/>
</clipPath>
</defs>
</svg>
