<svg width="632" height="538" viewBox="0 0 632 538" fill="none" xmlns="http://www.w3.org/2000/svg">
<g filter="url(#filter0_ddd_675_20)">
<mask id="mask0_675_20" style="mask-type:luminance" maskUnits="userSpaceOnUse" x="4" y="0" width="633" height="502">
<path fill-rule="evenodd" clip-rule="evenodd" d="M93.292 91.2179C93.292 91.2179 204.103 -22.5725 380.584 4.03079C557.065 30.634 380.584 161.172 548.337 200.575C716.091 239.978 610.925 452.287 511.402 483.317C411.879 514.347 352.877 508.932 307.222 439.974C261.567 371.017 142.028 424.703 65.5858 378.888C-10.8567 333.074 -31.3714 219.786 93.292 91.2179Z" fill="white"/>
</mask>
<g mask="url(#mask0_675_20)">
<path d="M93.2881 91.2184C93.2881 91.2184 204.099 -22.572 380.58 4.03128C557.061 30.6345 380.58 161.172 548.333 200.575C716.088 239.979 610.921 452.288 511.398 483.318C411.875 514.348 352.873 508.932 307.218 439.975C261.563 371.018 142.024 424.703 65.5819 378.889C-10.8606 333.075 -31.3753 219.786 93.2881 91.2184Z" fill="#866EF9"/>
<g opacity="0.59">
<path d="M541.565 189.088C541.565 189.088 584.992 286.773 514.612 349.866C444.231 412.958 537.578 445.427 575.026 407.498C612.475 369.571 637.077 253.103 588.372 199.748C539.667 146.395 541.565 189.088 541.565 189.088Z" fill="#A997FF"/>
<path d="M133.817 274.992C133.817 274.992 123.552 339.486 201.532 345.89C279.511 352.294 347.248 375.938 353.395 411.402C359.541 446.865 483.176 397.893 422.13 336.424C361.085 274.955 311.097 275.929 254.524 277.914C197.951 279.898 133.817 274.992 133.817 274.992Z" fill="#A997FF"/>
<path d="M377.586 514.841C377.586 514.841 381.005 460.166 439.054 467.559C497.102 474.951 478.593 425.19 565.83 456.721C653.068 488.252 434.628 536.022 377.586 514.841Z" fill="#A997FF"/>
<path d="M434.949 214.43C434.949 214.43 509.777 218.06 517.769 263.011C525.759 307.961 491.891 362.408 463.131 336.424C434.373 310.441 472.79 242.442 389.47 234.563C306.152 226.684 384.676 197.742 434.949 214.43Z" fill="#A997FF"/>
<path d="M-18.5548 249.583C-17.5943 251.125 15.8209 306.973 51.7333 285.792C87.6458 264.611 17.3576 248.846 37.3653 224.706C57.373 200.567 48.2758 158.7 21.7833 158.7C-4.70918 158.7 -37.018 219.786 -18.5548 249.583Z" fill="#A997FF"/>
<path d="M106.297 404.504C106.297 404.504 163.592 354.263 186.919 386.797C210.246 419.332 230.715 370.567 248.701 395.651C266.689 420.734 176.769 443.914 106.297 404.504Z" fill="#A997FF"/>
<path d="M325.429 -8.77627C325.429 -8.77627 426.735 -0.727461 435.971 61.5017C445.206 123.731 359.552 92.9523 353.39 64.01C347.227 35.0682 322.156 22.6961 294.419 30.1105C266.682 37.5248 215.518 10.929 259.567 -8.77627C303.616 -28.4816 325.429 -8.77627 325.429 -8.77627Z" fill="#A997FF"/>
<path d="M471.233 92.3911C471.233 92.3911 437.894 104.814 447.967 136.449C458.04 168.084 425.9 170.548 446.069 183.356C466.239 196.163 491.402 177.609 483.718 150.156C476.035 122.705 471.233 92.3911 471.233 92.3911Z" fill="#A997FF"/>
<path d="M287.186 100.152C287.186 100.152 309.837 79.7464 320.34 96.5667C330.843 113.388 371.105 126.519 353.018 152.466C334.931 178.413 251.074 188.062 287.186 100.152Z" fill="#A997FF"/>
</g>
</g>
</g>
<path d="M83.5 25.374H269.155V318.297H83.5V25.374Z" fill="white" stroke="#111111" stroke-width="1.34"/>
<path d="M129.119 150.164H168.42V187.885H129.119C118.269 187.885 109.473 179.439 109.473 169.021C109.478 158.605 118.272 150.164 129.119 150.164Z" fill="#111111" stroke="#111111" stroke-width="1.34"/>
<path d="M105.312 60.0483H178.897V122.824H105.312V60.0483Z" fill="#111111" stroke="#111111" stroke-width="1.34"/>
<path d="M111.879 51.3198H205.178V114.095H111.879V51.3198Z" fill="white" stroke="#111111" stroke-width="1.34"/>
<path d="M269.498 294.327H104.364C100.677 294.327 97.6875 297.197 97.6875 300.737V302.089C97.6875 305.629 100.677 308.499 104.364 308.499H269.498C273.185 308.499 276.174 305.629 276.174 302.089V300.737C276.174 297.197 273.185 294.327 269.498 294.327Z" fill="#111111" stroke="#111111" stroke-width="1.34"/>
<path d="M273.314 290.388H108.18C104.493 290.388 101.504 293.258 101.504 296.798V298.15C101.504 301.69 104.493 304.56 108.18 304.56H273.314C277.001 304.56 279.99 301.69 279.99 298.15V296.798C279.99 293.258 277.001 290.388 273.314 290.388Z" fill="white" stroke="#111111" stroke-width="1.34"/>
<path d="M557.228 294.011C554.962 294.011 553.126 292.247 553.126 290.071V254.608C553.121 250.983 550.062 248.046 546.287 248.042H291.804C290.294 248.105 288.871 247.367 288.096 246.121C287.322 244.875 287.322 243.321 288.096 242.075C288.871 240.829 290.294 240.092 291.804 240.155H546.287C554.597 240.163 561.33 246.629 561.339 254.608V290.108C561.314 292.271 559.481 294.011 557.228 294.011Z" fill="white" stroke="#111111" stroke-width="1.34"/>
<path fill-rule="evenodd" clip-rule="evenodd" d="M127.788 156.369H167.088V194.09H127.788C116.946 194.078 108.164 185.636 108.164 175.226C108.168 164.819 116.949 156.381 127.788 156.369Z" stroke="#111111" stroke-width="1.34"/>
<path d="M144.342 162.646C134.699 167.376 142.951 181.829 153.062 169.788C190.234 195.543 221.114 208.823 245.801 215.086C244.754 208.844 244.24 202.53 244.264 196.207C244.223 189.457 244.807 182.717 246.009 176.067L245.862 175.941C202.336 175.491 161.368 154.28 144.342 162.646Z" fill="white"/>
<path d="M160.961 61.5015H302.698V277.913H160.961V61.5015Z" fill="white" stroke="#111111" stroke-width="1.34"/>
<path d="M172.57 90.4434H237.795V150.164H172.57V90.4434Z" fill="#111111" stroke="#111111" stroke-width="1.34"/>
<path d="M177.012 86.1279H242.236V145.848H177.012V86.1279Z" fill="white" stroke="#111111" stroke-width="1.34"/>
<path d="M171.594 210.792H213.223V267.687H171.594V210.792Z" fill="#111111" stroke="#111111" stroke-width="1.34"/>
<path d="M177.012 206.115H218.64V263.01H177.012V206.115Z" fill="white" stroke="#111111" stroke-width="1.34"/>
<path d="M177.012 120.558L200.853 97.2969L215.905 118.964L231.833 105.833L242.236 115.992L240.869 139.983" fill="white"/>
<path d="M177.012 120.558L200.853 97.2969L215.905 118.964L231.833 105.833L242.236 115.992L240.869 139.983" stroke="#111111" stroke-width="1.34"/>
<path d="M207.027 105.833H325.437V239.816H207.027V105.833Z" fill="white" stroke="#111111" stroke-width="1.34"/>
<path d="M207.027 105.833H325.437V120.558H207.027V105.833Z" fill="#111111" stroke="#111111" stroke-width="1.34"/>
<path d="M340.054 328.647C348.676 323.343 356.121 321.779 362.552 322.915C369.467 283.726 373.432 246.809 364.127 245.894C344.15 243.917 315.076 226.048 286.954 258.207C286.954 258.207 237.204 297.308 245.148 339.485C245.895 343.42 247.092 347.265 248.714 350.95C263.728 353.133 298.533 354.181 340.054 328.647Z" fill="#F9B132" stroke="#111111" stroke-width="1.34"/>
<path d="M319.027 248.388L313.372 242.677C311.067 244.787 258.343 293.515 263.752 342.635C266.349 342.547 269.131 342.392 271.959 342.126C266.741 296.747 318.489 248.882 319.027 248.388Z" fill="white" stroke="#111111" stroke-width="1.34"/>
<path d="M341.629 241.092C345.832 245.445 327.231 310.174 312.609 324.708C297.987 339.242 286.7 339.729 276.758 341.58C286.063 338.26 294.391 329.385 291.195 304.56C287.999 279.735 329.182 259.557 321.929 244.249C323.811 243.917 336.366 235.639 341.629 241.092Z" fill="#111111" stroke="#111111" stroke-width="1.34"/>
<path d="M245.703 342.177C245.703 342.177 288.416 346.604 306.909 330.123" stroke="#111111" stroke-width="1.34"/>
<path d="M342.856 415.835C342.856 415.835 354.627 367.881 362.549 322.916C356.118 321.779 348.673 323.343 340.051 328.647C298.561 354.181 263.725 353.133 248.711 350.95C267.919 394.868 342.856 415.835 342.856 415.835Z" fill="#FC9E7A"/>
<path d="M325.238 409.763C356.74 422.076 331.054 362.717 319.928 339.293C287.489 353.79 261.22 352.772 248.711 350.95C248.711 350.95 272.998 359.353 286.859 361.485C300.72 363.617 286.145 394.492 325.238 409.763Z" fill="#F97A53"/>
<path fill-rule="evenodd" clip-rule="evenodd" d="M342.856 415.835C342.856 415.835 354.627 367.881 362.549 322.916C356.118 321.779 348.673 323.343 340.051 328.647C298.561 354.181 263.725 353.133 248.711 350.95C267.919 394.868 342.856 415.835 342.856 415.835Z" stroke="#111111" stroke-width="1.34"/>
<path d="M384.456 363.942C386.907 339.353 395.459 312.83 413.929 285.792C419.4 247.038 364.164 234.769 364.164 234.769C364.164 234.769 300.23 241.409 302.773 343.587C303.053 356.446 304.857 369.233 308.152 381.7C317.433 384.599 347.253 390.589 384.456 363.942Z" fill="#F9B132"/>
<path fill-rule="evenodd" clip-rule="evenodd" d="M384.455 363.942C386.907 339.353 395.458 312.83 413.929 285.792C419.4 247.038 364.163 234.769 364.163 234.769C364.163 234.769 340.706 237.211 322.773 261.845C319.232 266.751 316.218 271.989 313.775 277.478C306.722 293.133 302.05 314.483 302.773 343.587C303.052 356.446 304.856 369.233 308.151 381.7C317.432 384.599 347.252 390.589 384.455 363.942Z" stroke="#111111" stroke-width="1.34"/>
<path d="M392.972 249.584L394.839 253.641L391.097 245.526C390.421 245.814 374.378 252.808 360.678 272.498C349.153 289.031 337.359 317.914 343.145 363.588C343.498 366.367 343.915 369.212 344.397 372.124C347.34 371.57 350.352 370.884 353.394 370.036C352.913 367.085 352.503 364.188 352.165 361.345C348.123 327.718 353.532 299.05 368.031 277.898C380.217 260.111 394.716 253.686 394.854 253.626L392.972 249.584Z" fill="white" stroke="#111111" stroke-width="1.34"/>
<path d="M334.123 249.435C333.701 249.804 333.286 250.173 332.863 250.564C345.786 253.47 381.653 262.722 384.173 276.429C387.247 293.176 364.964 286.382 370.581 304.56C376.198 322.738 357.35 331.119 362.552 357.464C364.688 368.257 374.846 362.554 386.125 352.063C389.898 330.897 398.418 308.536 413.931 285.792C414.765 280.328 414.27 274.752 412.486 269.502C400.908 257.942 378.011 248.727 334.123 249.435Z" fill="#111111" stroke="#111111" stroke-width="1.34"/>
<path d="M403.98 492.679C413.2 498.92 412.532 534.73 412.532 534.73C412.532 534.73 418.34 516.013 425.525 494.339C422.213 490.916 377.287 435.68 384.425 363.963C347.223 390.611 317.403 384.621 308.137 381.721C328.045 456.101 396.02 487.279 403.98 492.679Z" fill="#FC9E7A"/>
<path d="M362.548 384.385C382.118 376.424 355.442 411.563 376.302 438.491C397.163 465.419 421.235 491.609 416.663 505.81C414.266 513.232 413.113 523.59 412.56 531.779V534.73C412.56 534.73 418.369 516.013 425.553 494.339C422.241 490.916 377.317 435.68 384.454 363.963C350.024 388.626 321.926 385.358 310.586 382.408C310.251 382.366 309.925 382.279 309.617 382.149C309.617 382.149 341.319 394.654 362.548 384.385Z" fill="#F97A53"/>
<path fill-rule="evenodd" clip-rule="evenodd" d="M403.98 492.679C413.2 498.92 412.532 534.73 412.532 534.73C412.532 534.73 418.34 516.013 425.525 494.339C422.213 490.916 377.287 435.68 384.425 363.963C347.223 390.611 317.403 384.621 308.137 381.721C328.045 456.101 396.02 487.279 403.98 492.679Z" stroke="#111111" stroke-width="1.34"/>
<path d="M447.12 194.089C439.936 162.565 383.655 136.043 383.655 136.043C362.142 132.354 345.437 143.679 288.496 168.061C283.82 170.056 278.978 171.667 274.02 172.879C270.001 181.901 264.277 201.068 276.755 219.829C280.983 220.02 285.218 219.978 289.441 219.703C321.081 204.026 328.933 168.88 331.846 163.753C331.531 189.433 321.05 210.577 319.291 213.919L319.245 214.015L319.037 214.407C316.479 219.15 308.941 231.065 286.959 258.177C378.53 231.36 413.966 285.791 413.966 285.791C413.966 285.791 454.296 225.613 447.12 194.089Z" fill="#FC3F3F"/>
<path fill-rule="evenodd" clip-rule="evenodd" d="M447.12 194.089C439.936 162.565 383.655 136.043 383.655 136.043C362.142 132.354 345.437 143.679 288.496 168.061C283.82 170.056 278.978 171.667 274.02 172.879C270.001 181.901 264.277 201.068 276.755 219.829C305.906 221.083 320.32 211.655 320.32 211.655C320.32 211.655 318.507 219.291 286.951 258.206C378.53 231.36 413.966 285.791 413.966 285.791C413.966 285.791 454.296 225.613 447.12 194.089Z" stroke="#111111" stroke-width="1.34"/>
<path d="M319.291 213.943C321.051 210.578 331.532 189.435 331.847 163.775C328.934 168.94 321.09 204.049 289.441 219.727C310.087 218.369 320.321 211.678 320.321 211.678C320.054 212.462 319.709 213.221 319.291 213.943Z" fill="#111111" stroke="#111111" stroke-width="1.34"/>
<path d="M409.563 194.665C409.74 190.239 401.111 180.603 390.062 173.971C391.092 177.055 397.892 192.201 391.868 199.467C385.844 206.734 406.874 209.929 409.563 194.665Z" fill="#111111" stroke="#111111" stroke-width="1.34"/>
<path d="M254.527 232.224C260.184 232.224 264.769 216.099 264.769 196.207C264.769 176.315 260.184 160.189 254.527 160.189C248.871 160.189 244.285 176.315 244.285 196.207C244.285 216.099 248.871 232.224 254.527 232.224Z" fill="#111111" stroke="#111111" stroke-width="1.34"/>
<path d="M244.286 196.207C244.262 202.53 244.776 208.844 245.823 215.086C255.937 217.721 266.315 219.31 276.78 219.83C264.302 201.069 270.026 181.902 274.045 172.88C264.846 175.082 255.386 176.111 245.908 175.941L246.054 176.067C244.844 182.717 244.253 189.456 244.286 196.207Z" fill="#FC9E7A"/>
<path d="M245.799 215.086C255.913 217.721 266.29 219.31 276.756 219.83C264.278 201.069 270.002 181.902 274.02 172.88L273.59 172.983C270.232 177.255 265.307 186.108 264.638 201.807C264.638 209.531 254.458 199.276 244.293 197.439C244.322 203.35 244.826 209.25 245.799 215.086Z" fill="#F97A53"/>
<path fill-rule="evenodd" clip-rule="evenodd" d="M244.286 196.207C244.262 202.53 244.776 208.844 245.823 215.086C255.937 217.721 266.315 219.31 276.78 219.83C264.302 201.069 270.026 181.902 274.045 172.88C264.846 175.082 255.386 176.111 245.908 175.941L246.054 176.067C244.844 182.717 244.253 189.456 244.286 196.207Z" stroke="#111111" stroke-width="1.34"/>
<path fill-rule="evenodd" clip-rule="evenodd" d="M144.342 162.646C134.699 167.376 142.951 181.829 153.062 169.788C190.234 195.543 221.114 208.823 245.801 215.086C244.754 208.844 244.24 202.53 244.264 196.207C244.223 189.457 244.807 182.717 246.009 176.067L245.862 175.941C202.336 175.491 161.368 154.28 144.342 162.646Z" stroke="#111111" stroke-width="1.34"/>
<path d="M461.606 175.454C431.341 136.287 383.627 136.043 383.627 136.043C372.871 148.357 356.95 164.366 374.177 167.567C391.402 170.769 409.789 188.225 409.52 194.665C443.327 190.172 456.497 213.293 460.031 221.356C474.184 210.128 475.175 192.968 461.606 175.454Z" fill="#FC3F3F"/>
<path d="M409.564 194.665C333.122 207.207 336.971 230.129 342.856 233.574C348.742 237.019 352.361 232.593 350.309 225.201C405.184 240.044 442.642 235.234 460.075 221.357C456.54 213.293 443.356 190.172 409.564 194.665Z" fill="#FC9E7A"/>
<path fill-rule="evenodd" clip-rule="evenodd" d="M409.564 194.665C333.122 207.207 336.971 230.129 342.856 233.574C348.742 237.019 352.361 232.593 350.309 225.201C405.184 240.044 442.642 235.234 460.075 221.357C456.54 213.293 443.356 190.172 409.564 194.665Z" stroke="#111111" stroke-width="1.34"/>
<path d="M460.07 221.357C456.535 213.293 443.35 190.172 409.559 194.665L409.236 194.717C418.002 196.384 440.039 201.453 442.904 210.792C446.493 222.493 408.46 199.638 405.64 217.321C403.919 228.159 349.021 208.697 346.969 225.436C346.485 229.398 345.379 232.179 343.973 234.134C349.182 236.414 352.225 232.091 350.304 225.185C405.186 240.044 442.644 235.234 460.07 221.357Z" fill="#F97A53"/>
<path d="M390.064 173.971C401.089 180.611 409.741 190.253 409.564 194.665C333.122 207.206 336.971 230.128 342.856 233.574C348.742 237.019 352.361 232.592 350.309 225.201C449.579 252.047 491.899 214.614 461.634 175.454C431.369 136.294 383.655 136.043 383.655 136.043" stroke="#111111" stroke-width="1.34" stroke-linecap="round"/>
<path d="M371.709 101.782C371.709 101.782 351.356 124.386 371.424 130.325C370.487 140.949 367.114 160.669 367.114 160.669C367.114 160.669 387.091 144.047 388.797 135.039C390.503 126.032 388.59 100.793 388.59 100.793C388.59 100.793 377.164 96.079 371.709 101.782Z" fill="#FC9E7A"/>
<path d="M388.815 135.04C390.297 127.153 389.022 106.814 388.684 101.878C386.571 101.105 384.185 101.558 382.537 103.044C382.537 103.044 391.174 106.386 388.261 112.265C385.349 118.145 384.673 124.711 386.556 128.002C388.23 130.953 379.741 145.885 369.391 146.357C368.254 154.015 367.086 160.669 367.086 160.669C367.086 160.669 387.124 144.033 388.815 135.04Z" fill="#F97A53"/>
<path fill-rule="evenodd" clip-rule="evenodd" d="M371.709 101.782C371.709 101.782 351.356 124.386 371.424 130.325C370.487 140.949 367.114 160.669 367.114 160.669C367.114 160.669 387.091 144.047 388.797 135.039C390.503 126.032 388.59 100.793 388.59 100.793C388.59 100.793 377.164 96.079 371.709 101.782Z" stroke="#111111" stroke-width="1.34"/>
<path d="M369.788 89.2261C345.47 88.7173 348.274 73.999 352.745 64.4009C349.252 66.6459 346.315 69.6 344.14 73.0548C332.892 90.5249 357.932 106.253 372.192 102.682C386.453 99.112 377.348 110.695 379.691 115.741C379.691 115.741 384.479 105.295 386.161 106.888C387.844 108.482 381.759 118.589 390.287 117.873C398.293 117.194 394.259 107.183 397.509 105.486C395.773 104.38 392.569 104.047 388.02 103.502C379.807 102.55 405.976 89.986 369.788 89.2261Z" fill="#BC3C1E"/>
<path fill-rule="evenodd" clip-rule="evenodd" d="M379.695 115.74C379.695 115.74 384.481 105.294 386.164 106.888C387.846 108.481 381.761 118.588 390.289 117.873C398.818 117.157 393.671 105.803 398.265 105.264C402.86 104.726 414.631 95.0465 409.329 84.1944C403.889 73.0546 393.678 84.1945 387.009 72.5751C378.196 57.2223 355.399 55.555 344.143 73.0252C332.887 90.4946 357.935 106.224 372.195 102.653C386.456 99.0823 377.351 110.694 379.695 115.74Z" stroke="#111111" stroke-width="1.34"/>
<path d="M382.548 126.813C382.548 126.813 379.313 131.978 371.438 130.325L382.548 126.813Z" fill="#FC9E7A"/>
<path d="M382.548 126.813C382.548 126.813 379.313 131.978 371.438 130.325" stroke="#111111" stroke-width="1.34" stroke-linecap="round"/>
<path d="M371.439 130.325C379.315 131.948 382.55 126.813 382.55 126.813C382.373 128.164 381.144 135.386 370.863 136.043C371.286 131.919 371.439 130.325 371.439 130.325Z" fill="#111111" stroke="#111111" stroke-width="1.34"/>
<path d="M369.784 163.531C368.6 164.173 367.41 164.786 366.211 165.354" stroke="#111111" stroke-width="1.34" stroke-linecap="round"/>
<path d="M375.391 160.189C374.336 160.869 373.266 161.53 372.18 162.174" stroke="#111111" stroke-width="1.34" stroke-linecap="round"/>
<path d="M388.431 136.427C388.431 136.427 393.041 136.286 393.149 141.591C393.218 144.239 389.922 148.533 384.905 152.997C382.587 155.035 380.147 156.942 377.598 158.707" stroke="#111111" stroke-width="1.34" stroke-linecap="round"/>
<path d="M360.955 159.526C360.894 160.854 360.856 162.263 360.84 163.754" stroke="#111111" stroke-width="1.34" stroke-linecap="round"/>
<path d="M369.92 135.734C369.92 135.734 362.836 136.081 361.168 155.964" stroke="#111111" stroke-width="1.34" stroke-linecap="round"/>
<path d="M319.043 214.429C319.043 214.429 331.505 191.788 331.851 163.753" stroke="#111111" stroke-width="1.34" stroke-linecap="round"/>
<path d="M319.25 214.038L319.035 214.437" stroke="#111111" stroke-linecap="round"/>
<path d="M215.903 115.822C217.414 115.822 218.638 114.646 218.638 113.196C218.638 111.745 217.414 110.569 215.903 110.569C214.393 110.569 213.168 111.745 213.168 113.196C213.168 114.646 214.393 115.822 215.903 115.822Z" fill="white" stroke="#111111"/>
<path d="M225.829 115.822C227.34 115.822 228.565 114.646 228.565 113.196C228.565 111.745 227.34 110.569 225.829 110.569C224.318 110.569 223.094 111.745 223.094 113.196C223.094 114.646 224.318 115.822 225.829 115.822Z" fill="white" stroke="#111111"/>
<path d="M235.743 115.822C237.253 115.822 238.478 114.646 238.478 113.196C238.478 111.745 237.253 110.569 235.743 110.569C234.232 110.569 233.008 111.745 233.008 113.196C233.008 114.646 234.232 115.822 235.743 115.822Z" fill="white" stroke="#111111"/>
<path d="M319.037 113.196H308.926" stroke="white"/>
<path d="M160.961 61.5015H302.698V76.2272H160.961V61.5015Z" fill="#111111" stroke="#111111"/>
<path d="M169.837 71.4909C171.348 71.4909 172.572 70.315 172.572 68.864C172.572 67.4137 171.348 66.2378 169.837 66.2378C168.326 66.2378 167.102 67.4137 167.102 68.864C167.102 70.315 168.326 71.4909 169.837 71.4909Z" fill="white" stroke="#111111"/>
<path d="M179.747 71.4909C181.257 71.4909 182.482 70.315 182.482 68.864C182.482 67.4137 181.257 66.2378 179.747 66.2378C178.236 66.2378 177.012 67.4137 177.012 68.864C177.012 70.315 178.236 71.4909 179.747 71.4909Z" fill="white" stroke="#111111"/>
<path d="M189.666 71.4909C191.176 71.4909 192.401 70.315 192.401 68.864C192.401 67.4137 191.176 66.2378 189.666 66.2378C188.154 66.2378 186.93 67.4137 186.93 68.864C186.93 70.315 188.154 71.4909 189.666 71.4909Z" fill="white" stroke="#111111"/>
<path d="M294.423 68.8638H284.312" stroke="white"/>
<path d="M83.5 25.374H269.155V40.0995H83.5V25.374Z" fill="#111111" stroke="#111111"/>
<path d="M256.941 132.147H313.983" stroke="#111111"/>
<path d="M281.703 142.285H313.989" stroke="#111111"/>
<path d="M274.859 86.1279H299.47" stroke="#111111"/>
<path d="M260.523 92.3687H299.471" stroke="#111111"/>
<path d="M291.832 152.466H313.984" stroke="#111111"/>
<path d="M256.941 142.285H272.654" stroke="#111111"/>
<path d="M227.465 100.764C229.88 100.764 231.837 98.8845 231.837 96.5661C231.837 94.2477 229.88 92.3687 227.465 92.3687C225.051 92.3687 223.094 94.2477 223.094 96.5661C223.094 98.8845 225.051 100.764 227.465 100.764Z" fill="white" stroke="#111111"/>
<path d="M283.88 249.583H233" stroke="#111111"/>
<path d="M283.881 257.713H260.523" stroke="#111111"/>
<path d="M212.238 134.331H242.68V155.394H212.238V134.331Z" fill="#111111" stroke="#111111"/>
<path d="M215.902 131.396H246.344V152.459H215.902V131.396Z" fill="white" stroke="#111111"/>
<path d="M223.094 51.3198H260.528" stroke="#111111"/>
<path d="M105.312 139.983H142.754" stroke="#111111"/>
<path d="M101.504 224.706H146.13" stroke="#111111"/>
<path d="M101.504 214.43H124.032" stroke="#111111"/>
<path d="M101.504 234.769H146.13" stroke="#111111"/>
<path d="M101.504 244.824H146.13" stroke="#111111"/>
<path d="M101.504 254.88H146.13" stroke="#111111"/>
<path d="M101.504 264.936H146.13" stroke="#111111"/>
<path d="M101.504 274.991H146.13" stroke="#111111"/>
<path d="M246.34 56.249H260.524" stroke="#111111"/>
<path d="M306.07 372.839C318.797 374.708 331.764 374.458 344.403 372.101L306.07 372.839Z" fill="#F9B132"/>
<path d="M306.07 372.839C318.797 374.708 331.764 374.458 344.403 372.101" stroke="#111111"/>
<path d="M353.398 370.042C365.46 366.783 376.592 360.933 385.953 352.934" stroke="#111111"/>
<path d="M90.7266 340.467H146.132V370.043H90.7266V340.467Z" fill="white" stroke="#111111"/>
<path d="M106.309 340.467H146.132V370.043H106.309V340.467Z" fill="#111111" stroke="#111111"/>
<path fill-rule="evenodd" clip-rule="evenodd" d="M510.176 213.189L520.079 210.082C525.294 208.445 530.904 211.177 532.608 216.185C534.313 221.193 531.467 226.579 526.252 228.215L516.348 231.324L510.176 213.189Z" stroke="#111111"/>
<path d="M512.189 204.263V225.96C512.194 232.208 507.836 237.684 501.555 239.32C502.779 239.647 504.042 239.814 505.312 239.815C513.281 239.815 519.742 233.612 519.742 225.96V204.263H512.189Z" fill="#111111" stroke="#111111"/>
<path d="M512.193 225.96V204.263H490.871V225.96C490.872 232.223 495.257 237.704 501.558 239.32C507.84 237.684 512.198 232.208 512.193 225.96Z" fill="#FC56BD"/>
<path fill-rule="evenodd" clip-rule="evenodd" d="M490.867 204.263H519.718V225.968C519.718 233.619 513.258 239.822 505.289 239.822C497.32 239.822 490.859 233.619 490.859 225.968V204.263H490.867Z" stroke="#111111" stroke-width="1.34"/>
<path d="M517.779 205.694C519.008 205.112 519.722 204.432 519.722 203.709C519.722 201.496 513.26 199.748 505.293 199.748C497.325 199.748 490.871 201.518 490.871 203.709C490.871 204.447 491.586 205.112 492.815 205.694C495.312 204.507 499.96 203.709 505.293 203.709C510.625 203.709 515.281 204.529 517.779 205.694Z" fill="white" stroke="#111111" stroke-width="1.34"/>
<path d="M505.294 207.679C512.186 207.679 517.773 206.79 517.773 205.694C517.773 204.598 512.186 203.709 505.294 203.709C498.403 203.709 492.816 204.598 492.816 205.694C492.816 206.79 498.403 207.679 505.294 207.679Z" fill="#E5592E" stroke="#111111" stroke-width="1.34"/>
<path d="M513.648 101.133C525.726 109.618 537.336 125.516 529.975 134.532C520.355 146.335 499.195 145.347 516.191 159.526C527.716 169.154 513.709 170.416 504.112 177.107C503.982 177.35 503.859 177.594 503.698 177.844C495.038 191.544 505.941 196.635 505.941 196.635C504.013 174.635 542.484 178.619 525.495 164.432C508.507 150.245 529.66 151.219 539.279 139.437C548.584 128.047 527.593 105.671 513.648 101.133Z" fill="#F9AC30"/>
<path d="M516.158 159.526C499.162 145.346 520.323 146.312 529.942 134.531C537.303 125.516 525.693 109.617 513.615 101.133C513.146 100.985 512.685 100.845 512.232 100.735C498.355 97.3552 485.708 109.049 505.909 124.881C526.108 140.713 491.802 131.211 487.953 148.142C484.18 164.756 511.248 164.188 504.087 177.106C513.707 170.415 527.683 169.153 516.158 159.526Z" fill="#F9C764"/>
<path fill-rule="evenodd" clip-rule="evenodd" d="M505.94 196.635C505.94 196.635 495.037 191.545 503.697 177.845C512.356 164.145 484.134 165.074 487.984 148.143C491.833 131.212 526.147 140.706 505.94 124.852C485.732 108.998 498.387 97.3266 512.264 100.705C526.14 104.085 548.898 127.626 539.278 139.408C529.659 151.19 508.476 150.253 525.494 164.432C542.514 178.612 504.012 174.635 505.94 196.635Z" stroke="#111111" stroke-width="1.34"/>
<path d="M373.929 112.339C375.622 112.339 376.995 111.844 376.995 111.233C376.995 110.621 375.622 110.125 373.929 110.125C372.236 110.125 370.863 110.621 370.863 111.233C370.863 111.844 372.236 112.339 373.929 112.339Z" fill="white" stroke="#161515" stroke-width="1.34"/>
<path d="M372.83 110.2C371.678 110.362 370.863 110.761 370.863 111.233C370.863 111.705 371.678 112.103 372.83 112.265C373.468 112.103 373.929 111.705 373.929 111.233C373.929 110.761 373.468 110.362 372.83 110.2Z" fill="#161515"/>
<path d="M363.066 112.339C364.759 112.339 366.132 111.844 366.132 111.233C366.132 110.621 364.759 110.125 363.066 110.125C361.373 110.125 360 110.621 360 111.233C360 111.844 361.373 112.339 363.066 112.339Z" fill="white" stroke="#161515" stroke-width="1.34"/>
<path d="M361.967 110.2C360.814 110.362 359.992 110.761 359.992 111.233C359.992 111.705 360.814 112.103 361.967 112.265C362.605 112.103 363.065 111.705 363.065 111.233C363.065 110.761 362.605 110.362 361.967 110.2Z" fill="#161515"/>
<path d="M368.588 111.233C367.87 113.082 366.904 114.833 365.715 116.442C365.526 116.639 365.463 116.919 365.551 117.174C365.638 117.428 365.863 117.616 366.138 117.666C367.459 117.858 368.996 117.939 368.996 117.939" stroke="#161515" stroke-linecap="round"/>
<path d="M365.121 122.742C365.121 122.742 368.748 124.594 373.927 122.004" stroke="#161515" stroke-linecap="round"/>
<path d="M199.832 482.55C199.832 482.55 205.64 465.146 222.405 457.916C239.171 450.686 219.278 426.407 237.941 422.453C256.604 418.498 228.214 404.562 241.729 401.191C255.244 397.819 266.708 414.574 258.41 423.434C250.112 432.294 240.822 441.56 250.596 446.127C260.369 450.694 249.405 492.303 227.868 499.245C206.332 506.187 175.544 526.881 199.832 482.55Z" fill="#111111" stroke="#111111"/>
<path d="M373.93 119.909C373.465 121.273 374.121 122.758 375.467 123.383" stroke="#161515" stroke-linecap="round"/>
<path d="M259.253 491.086C259.253 491.086 261.989 462.888 281.358 466.784C313.982 473.35 276.748 496.338 274.858 513.262C273.629 524.262 302.334 511.904 301.527 536.288C280.882 536.368 182.25 536.288 182.25 536.288C182.25 536.288 184.27 489.772 259.253 491.086Z" fill="#111111" stroke="#111111"/>
<path d="M201.799 501.384C201.799 501.384 160.308 490.473 153.132 510.156C145.956 529.839 116.536 514.641 113.801 536.361C148.684 536.405 193.708 536.361 193.708 536.361C193.708 536.361 237.128 513.328 201.799 501.384Z" fill="#111111" stroke="#111111"/>
<path d="M409.357 84.2233C403.916 73.0834 393.705 84.2233 387.036 72.604C383.861 66.9095 378.327 62.7699 371.801 61.2071C365.274 59.6443 358.363 60.804 352.776 64.4001C348.311 73.9909 345.499 88.7459 369.817 89.2253C406.006 89.9632 379.806 102.549 388.05 103.53C392.599 104.077 395.803 104.408 397.539 105.515C397.779 105.397 398.04 105.322 398.308 105.294C402.856 104.755 414.627 95.0754 409.357 84.2233Z" fill="#E5592E"/>
<path d="M218.295 500.277C248.26 499.296 272.409 478.241 249.029 443.714C242.467 445.47 237.727 452.272 240.838 463.87C247.353 488.134 227.008 486.378 204.119 494.892C176.121 505.323 197.895 528.828 197.895 528.828C198.064 528.186 198.242 527.582 198.418 526.977C198.595 526.372 188.199 501.266 218.295 500.277Z" fill="#A1E23B" stroke="#111111" stroke-width="1.34"/>
<path d="M153.499 491.115C153.499 491.115 169.42 468.65 150.795 440.121C132.17 411.592 151.963 387.586 161.597 399.295C171.233 411.002 146.315 421.773 165.916 428.672C185.516 435.569 212.093 455.725 193.576 476.138C175.059 496.552 166.315 509.352 153.499 491.115Z" fill="#111111" stroke="#111111" stroke-width="1.34"/>
<path d="M126.214 458.492C161.266 480.411 162.288 464.896 179.476 496.914C181.013 499.762 182.457 502.359 183.833 504.756C183.24 500.855 183.447 496.88 184.44 493.056C189.979 471.373 184.778 460.115 151.6 454.862C119.038 449.698 125.362 415.857 115.573 414.61C109.634 422.025 98.6462 441.25 126.214 458.492Z" fill="#7FD335" stroke="#111111" stroke-width="1.34"/>
<path d="M131.775 489.447C174.279 500.934 170.761 528.85 199.835 530.163C199.835 530.163 186.15 520.078 183.838 504.756C182.463 502.358 181.01 499.761 179.481 496.913C162.294 464.895 161.271 480.41 126.22 458.491C98.6515 441.25 109.639 422.024 115.578 414.61C115.391 414.598 115.204 414.598 115.017 414.61C104.414 414.573 68.156 472.368 131.775 489.447Z" fill="#A1E23B" stroke="#111111" stroke-width="1.34"/>
<path d="M245.967 508.127C272.858 503.981 276.139 476.5 269.163 456.389C265.528 445.891 256.193 441.796 249.024 443.714C272.405 478.241 248.256 499.297 218.291 500.278C188.195 501.266 198.414 526.962 198.414 526.962C205.26 503.871 219.758 512.17 245.967 508.127Z" fill="#7FD335" stroke="#111111" stroke-width="1.34"/>
<path d="M186.491 497.651C191.962 481.893 222.381 459.886 206.661 441.501C190.941 423.116 221.028 408.303 204.271 392.899C200.342 389.206 196.218 385.71 191.916 382.422C189.611 385.152 190.133 389.8 196.442 396.255C212.516 412.751 160.53 422.453 179.723 437.237C198.916 452.021 196.442 464.489 180.022 488.141C163.603 511.794 199.861 530.194 199.861 530.194C199.615 529.95 199.377 529.691 199.138 529.456C198.702 529.329 198.292 529.132 197.925 528.873C197.925 528.873 181.013 513.417 186.491 497.651Z" fill="#A1E23B" stroke="#111111" stroke-width="1.34"/>
<path d="M216.924 481.922C244.285 465.175 240.527 446.784 230.263 445.138C219.998 443.493 207.689 434.957 216.586 423.795C225.483 412.633 224.792 392.928 213.167 384.03C206.098 378.623 195.495 378.232 191.884 382.452C196.196 385.738 200.33 389.235 204.27 392.928C221.027 408.361 190.931 423.138 206.659 441.53C222.387 459.923 191.961 481.922 186.49 497.651C181.02 513.38 197.892 528.821 197.892 528.821C198.259 529.08 198.67 529.277 199.106 529.403C189.264 518.67 190.201 498.249 216.924 481.922Z" fill="#7FD335" stroke="#111111" stroke-width="1.34"/>
<path d="M159.008 536.324H247.498C247.498 536.324 236.473 512.716 222.911 519.083C209.35 525.45 199.315 525.98 188.029 513.299C176.742 500.616 150.318 506.519 160.322 518.094C170.326 529.669 141.114 519.326 139.039 536.324H159.008Z" fill="#61AA1B" stroke="#111111" stroke-width="1.34"/>
<path d="M471.238 513.299C471.238 513.299 502.325 500.934 483.97 479.267C465.614 457.599 517.078 443.117 525.199 472.369C533.321 501.621 574.373 469.632 585.314 486.268C596.256 502.904 579.168 520.677 609.256 517.371C639.344 514.067 631.138 536.376 631.138 536.376H471.238V513.299Z" fill="#111111" stroke="#111111" stroke-width="1.34"/>
<path d="M471.239 536.375H592.799C592.451 526.466 586.384 517.567 577.064 513.299C561.074 505.795 579.076 481.42 559.945 466.547C540.813 451.674 520.29 462.858 525.077 478.61C529.864 494.36 515.504 501.383 492.807 486.267C471.938 472.331 447.052 502.284 460.067 517.37C473.084 532.458 436.149 520.588 435.48 536.375C456.679 535.777 471.239 536.375 471.239 536.375Z" fill="#7FD335"/>
<path d="M577.063 513.299C561.074 505.796 579.076 481.421 559.945 466.547C553.737 461.723 547.382 459.65 541.796 459.576C548.173 467.632 552.154 479.871 541.581 496.154C520.974 527.876 486.752 486.246 490.87 513.299C494.428 536.693 473.898 526.578 463.871 536.169C468.573 536.25 471.239 536.361 471.239 536.361H592.799C592.446 526.457 586.379 517.565 577.063 513.299Z" fill="#61AA1B"/>
<path fill-rule="evenodd" clip-rule="evenodd" d="M471.239 536.375H592.798C592.451 526.466 586.383 517.567 577.063 513.299C561.074 505.795 579.076 481.42 559.944 466.547C540.812 451.674 520.29 462.858 525.077 478.61C529.863 494.36 515.503 501.383 492.806 486.267C471.938 472.331 447.052 502.284 460.067 517.37C473.083 532.458 436.149 520.588 435.48 536.375C456.679 535.777 471.239 536.375 471.239 536.375Z" stroke="#111111"/>
<path d="M557.747 481.03C557.747 492.214 552.276 508.459 562.702 513.299C576.041 519.488 572.084 531.152 572.084 531.152" stroke="#111111" stroke-linecap="round"/>
<path d="M556.035 461.317C556.762 462.481 557.24 463.773 557.441 465.116" stroke="#111111" stroke-linecap="round"/>
<path d="M548.355 455.828C549.887 456.353 551.34 457.073 552.673 457.968" stroke="#111111" stroke-linecap="round"/>
<path d="M463.595 491.72C463.198 493.822 463.056 495.961 463.172 498.094" stroke="#111111" stroke-linecap="round"/>
<path d="M473.69 477.164C470.065 479.274 467.191 482.389 465.445 486.098" stroke="#111111" stroke-linecap="round"/>
<path d="M402.832 386.856C403.606 389.777 404.543 392.76 405.644 395.805" stroke="white"/>
<path d="M424.535 301.417C424.535 301.417 392.265 331.082 401.109 379.176" stroke="white"/>
<path d="M234.536 330.123C234.536 330.123 233.176 349.614 246.337 363.262" stroke="white"/>
<path d="M507.352 336.283H527.997C538.911 336.283 547.759 344.778 547.759 355.258C547.746 365.729 538.902 374.211 527.997 374.211H507.352V336.283Z" fill="white" stroke="#111111"/>
<path d="M507.355 373.849C518.159 373.849 526.917 365.439 526.917 355.066C526.917 344.692 518.159 336.283 507.355 336.283C496.551 336.283 487.793 344.692 487.793 355.066C487.793 365.439 496.551 373.849 507.355 373.849Z" fill="#111111" stroke="#111111"/>
<path fill-rule="evenodd" clip-rule="evenodd" d="M413.097 60.0472C421.707 60.0472 428.687 53.3454 428.687 45.0783C428.687 36.8112 421.707 30.1094 413.097 30.1094C404.487 30.1094 397.508 36.8112 397.508 45.0783C397.508 53.3454 404.487 60.0472 413.097 60.0472Z" stroke="white"/>
<path d="M72.2539 173.971V242.677" stroke="white"/>
<path d="M72.2539 147.566V161.171" stroke="white"/>
<defs>
<filter id="filter0_ddd_675_20" x="0" y="0" width="640.629" height="509.422" filterUnits="userSpaceOnUse" color-interpolation-filters="sRGB">
<feFlood flood-opacity="0" result="BackgroundImageFix"/>
<feColorMatrix in="SourceAlpha" type="matrix" values="0 0 0 0 0 0 0 0 0 0 0 0 0 0 0 0 0 0 127 0" result="hardAlpha"/>
<feOffset dy="4"/>
<feGaussianBlur stdDeviation="2"/>
<feComposite in2="hardAlpha" operator="out"/>
<feColorMatrix type="matrix" values="0 0 0 0 0 0 0 0 0 0 0 0 0 0 0 0 0 0 0.25 0"/>
<feBlend mode="normal" in2="BackgroundImageFix" result="effect1_dropShadow_675_20"/>
<feColorMatrix in="SourceAlpha" type="matrix" values="0 0 0 0 0 0 0 0 0 0 0 0 0 0 0 0 0 0 127 0" result="hardAlpha"/>
<feOffset dy="4"/>
<feGaussianBlur stdDeviation="2"/>
<feComposite in2="hardAlpha" operator="out"/>
<feColorMatrix type="matrix" values="0 0 0 0 0 0 0 0 0 0 0 0 0 0 0 0 0 0 0.25 0"/>
<feBlend mode="normal" in2="effect1_dropShadow_675_20" result="effect2_dropShadow_675_20"/>
<feColorMatrix in="SourceAlpha" type="matrix" values="0 0 0 0 0 0 0 0 0 0 0 0 0 0 0 0 0 0 127 0" result="hardAlpha"/>
<feOffset dy="4"/>
<feGaussianBlur stdDeviation="2"/>
<feComposite in2="hardAlpha" operator="out"/>
<feColorMatrix type="matrix" values="0 0 0 0 0 0 0 0 0 0 0 0 0 0 0 0 0 0 0.25 0"/>
<feBlend mode="normal" in2="effect2_dropShadow_675_20" result="effect3_dropShadow_675_20"/>
<feBlend mode="normal" in="SourceGraphic" in2="effect3_dropShadow_675_20" result="shape"/>
</filter>
</defs>
</svg>
