<svg width="176" height="55" viewBox="0 0 176 55" fill="none" xmlns="http://www.w3.org/2000/svg">
<path d="M7.75 28.175C6.53333 28.175 5.43333 27.9667 4.45 27.55C3.48333 27.1333 2.71667 26.5333 2.15 25.75C1.58333 24.9667 1.29167 24.0417 1.275 22.975H5.025C5.075 23.6917 5.325 24.2583 5.775 24.675C6.24167 25.0917 6.875 25.3 7.675 25.3C8.49167 25.3 9.13333 25.1083 9.6 24.725C10.0667 24.325 10.3 23.8083 10.3 23.175C10.3 22.6583 10.1417 22.2333 9.825 21.9C9.50833 21.5667 9.10833 21.3083 8.625 21.125C8.15833 20.925 7.50833 20.7083 6.675 20.475C5.54167 20.1417 4.61667 19.8167 3.9 19.5C3.2 19.1667 2.59167 18.675 2.075 18.025C1.575 17.3583 1.325 16.475 1.325 15.375C1.325 14.3417 1.58333 13.4417 2.1 12.675C2.61667 11.9083 3.34167 11.325 4.275 10.925C5.20833 10.5083 6.275 10.3 7.475 10.3C9.275 10.3 10.7333 10.7417 11.85 11.625C12.9833 12.4917 13.6083 13.7083 13.725 15.275H9.875C9.84167 14.675 9.58333 14.1833 9.1 13.8C8.63333 13.4 8.00833 13.2 7.225 13.2C6.54167 13.2 5.99167 13.375 5.575 13.725C5.175 14.075 4.975 14.5833 4.975 15.25C4.975 15.7167 5.125 16.1083 5.425 16.425C5.74167 16.725 6.125 16.975 6.575 17.175C7.04167 17.3583 7.69167 17.575 8.525 17.825C9.65833 18.1583 10.5833 18.4917 11.3 18.825C12.0167 19.1583 12.6333 19.6583 13.15 20.325C13.6667 20.9917 13.925 21.8667 13.925 22.95C13.925 23.8833 13.6833 24.75 13.2 25.55C12.7167 26.35 12.0083 26.9917 11.075 27.475C10.1417 27.9417 9.03333 28.175 7.75 28.175ZM29.3594 20.775C29.3594 21.275 29.326 21.725 29.2594 22.125H19.1344C19.2177 23.125 19.5677 23.9083 20.1844 24.475C20.801 25.0417 21.5594 25.325 22.4594 25.325C23.7594 25.325 24.6844 24.7667 25.2344 23.65H29.0094C28.6094 24.9833 27.8427 26.0833 26.7094 26.95C25.576 27.8 24.1844 28.225 22.5344 28.225C21.201 28.225 20.001 27.9333 18.9344 27.35C17.8844 26.75 17.0594 25.9083 16.4594 24.825C15.876 23.7417 15.5844 22.4917 15.5844 21.075C15.5844 19.6417 15.876 18.3833 16.4594 17.3C17.0427 16.2167 17.8594 15.3833 18.9094 14.8C19.9594 14.2167 21.1677 13.925 22.5344 13.925C23.851 13.925 25.026 14.2083 26.0594 14.775C27.1094 15.3417 27.9177 16.15 28.4844 17.2C29.0677 18.2333 29.3594 19.425 29.3594 20.775ZM25.7344 19.775C25.7177 18.875 25.3927 18.1583 24.7594 17.625C24.126 17.075 23.351 16.8 22.4344 16.8C21.5677 16.8 20.8344 17.0667 20.2344 17.6C19.651 18.1167 19.2927 18.8417 19.1594 19.775H25.7344ZM34.9391 9.5V28H31.4391V9.5H34.9391ZM41.4221 9.5V28H37.9221V9.5H41.4221ZM57.2801 20.775C57.2801 21.275 57.2467 21.725 57.1801 22.125H47.0551C47.1384 23.125 47.4884 23.9083 48.1051 24.475C48.7217 25.0417 49.4801 25.325 50.3801 25.325C51.6801 25.325 52.6051 24.7667 53.1551 23.65H56.9301C56.5301 24.9833 55.7634 26.0833 54.6301 26.95C53.4967 27.8 52.1051 28.225 50.4551 28.225C49.1217 28.225 47.9217 27.9333 46.8551 27.35C45.8051 26.75 44.9801 25.9083 44.3801 24.825C43.7967 23.7417 43.5051 22.4917 43.5051 21.075C43.5051 19.6417 43.7967 18.3833 44.3801 17.3C44.9634 16.2167 45.7801 15.3833 46.8301 14.8C47.8801 14.2167 49.0884 13.925 50.4551 13.925C51.7717 13.925 52.9467 14.2083 53.9801 14.775C55.0301 15.3417 55.8384 16.15 56.4051 17.2C56.9884 18.2333 57.2801 19.425 57.2801 20.775ZM53.6551 19.775C53.6384 18.875 53.3134 18.1583 52.6801 17.625C52.0467 17.075 51.2717 16.8 50.3551 16.8C49.4884 16.8 48.7551 17.0667 48.1551 17.6C47.5717 18.1167 47.2134 18.8417 47.0801 19.775H53.6551ZM62.8598 16.3C63.3098 15.5667 63.8931 14.9917 64.6098 14.575C65.3431 14.1583 66.1764 13.95 67.1098 13.95V17.625H66.1848C65.0848 17.625 64.2514 17.8833 63.6848 18.4C63.1348 18.9167 62.8598 19.8167 62.8598 21.1V28H59.3598V14.15H62.8598V16.3ZM80.0492 28.175C78.8992 28.175 77.8826 27.975 76.9992 27.575C76.1326 27.175 75.4492 26.6167 74.9492 25.9C74.4492 25.1833 74.1826 24.3833 74.1492 23.5H75.9992C76.0826 24.35 76.4576 25.1 77.1242 25.75C77.7909 26.3833 78.7659 26.7 80.0492 26.7C81.2326 26.7 82.1659 26.4 82.8492 25.8C83.5492 25.1833 83.8992 24.4083 83.8992 23.475C83.8992 22.725 83.7076 22.125 83.3242 21.675C82.9409 21.2083 82.4659 20.8667 81.8992 20.65C81.3326 20.4167 80.5492 20.1667 79.5492 19.9C78.3826 19.5833 77.4576 19.275 76.7742 18.975C76.0909 18.675 75.5076 18.2083 75.0242 17.575C74.5409 16.9417 74.2992 16.0833 74.2992 15C74.2992 14.1 74.5326 13.3 74.9992 12.6C75.4659 11.8833 76.1242 11.325 76.9742 10.925C77.8242 10.525 78.7992 10.325 79.8992 10.325C81.5159 10.325 82.8159 10.725 83.7992 11.525C84.7992 12.3083 85.3742 13.325 85.5242 14.575H83.6242C83.5076 13.8583 83.1159 13.225 82.4492 12.675C81.7826 12.1083 80.8826 11.825 79.7492 11.825C78.6992 11.825 77.8242 12.1083 77.1242 12.675C76.4242 13.225 76.0742 13.9833 76.0742 14.95C76.0742 15.6833 76.2659 16.275 76.6492 16.725C77.0326 17.175 77.5076 17.5167 78.0742 17.75C78.6576 17.9833 79.4409 18.2333 80.4242 18.5C81.5576 18.8167 82.4742 19.1333 83.1742 19.45C83.8742 19.75 84.4659 20.2167 84.9492 20.85C85.4326 21.4833 85.6742 22.3333 85.6742 23.4C85.6742 24.2167 85.4576 24.9917 85.0242 25.725C84.5909 26.4583 83.9492 27.05 83.0992 27.5C82.2492 27.95 81.2326 28.175 80.0492 28.175ZM100.406 14.35V28H98.6559V25.6C98.2559 26.45 97.6392 27.1 96.8059 27.55C95.9725 28 95.0392 28.225 94.0059 28.225C92.3725 28.225 91.0392 27.725 90.0059 26.725C88.9725 25.7083 88.4559 24.2417 88.4559 22.325V14.35H90.1809V22.125C90.1809 23.6083 90.5475 24.7417 91.2809 25.525C92.0309 26.3083 93.0475 26.7 94.3309 26.7C95.6475 26.7 96.6975 26.2833 97.4809 25.45C98.2642 24.6167 98.6559 23.3917 98.6559 21.775V14.35H100.406ZM103.126 21.175C103.126 19.7583 103.41 18.525 103.976 17.475C104.543 16.4083 105.326 15.5917 106.326 15.025C107.326 14.4417 108.468 14.15 109.751 14.15C111.435 14.15 112.818 14.5667 113.901 15.4C115.001 16.2333 115.71 17.3667 116.026 18.8H114.151C113.918 17.8167 113.41 17.05 112.626 16.5C111.86 15.9333 110.901 15.65 109.751 15.65C108.835 15.65 108.01 15.8583 107.276 16.275C106.543 16.6917 105.96 17.3167 105.526 18.15C105.11 18.9667 104.901 19.975 104.901 21.175C104.901 22.375 105.11 23.3917 105.526 24.225C105.96 25.0583 106.543 25.6833 107.276 26.1C108.01 26.5167 108.835 26.725 109.751 26.725C110.901 26.725 111.86 26.45 112.626 25.9C113.41 25.3333 113.918 24.55 114.151 23.55H116.026C115.71 24.95 115.001 26.075 113.901 26.925C112.801 27.775 111.418 28.2 109.751 28.2C108.468 28.2 107.326 27.9167 106.326 27.35C105.326 26.7667 104.543 25.95 103.976 24.9C103.41 23.8333 103.126 22.5917 103.126 21.175ZM117.983 21.175C117.983 19.7583 118.267 18.525 118.833 17.475C119.4 16.4083 120.183 15.5917 121.183 15.025C122.183 14.4417 123.325 14.15 124.608 14.15C126.292 14.15 127.675 14.5667 128.758 15.4C129.858 16.2333 130.567 17.3667 130.883 18.8H129.008C128.775 17.8167 128.267 17.05 127.483 16.5C126.717 15.9333 125.758 15.65 124.608 15.65C123.692 15.65 122.867 15.8583 122.133 16.275C121.4 16.6917 120.817 17.3167 120.383 18.15C119.967 18.9667 119.758 19.975 119.758 21.175C119.758 22.375 119.967 23.3917 120.383 24.225C120.817 25.0583 121.4 25.6833 122.133 26.1C122.867 26.5167 123.692 26.725 124.608 26.725C125.758 26.725 126.717 26.45 127.483 25.9C128.267 25.3333 128.775 24.55 129.008 23.55H130.883C130.567 24.95 129.858 26.075 128.758 26.925C127.658 27.775 126.275 28.2 124.608 28.2C123.325 28.2 122.183 27.9167 121.183 27.35C120.183 26.7667 119.4 25.95 118.833 24.9C118.267 23.8333 117.983 22.5917 117.983 21.175ZM145.99 20.475C145.99 21.075 145.974 21.5333 145.94 21.85H134.615C134.665 22.8833 134.915 23.7667 135.365 24.5C135.815 25.2333 136.407 25.7917 137.14 26.175C137.874 26.5417 138.674 26.725 139.54 26.725C140.674 26.725 141.624 26.45 142.39 25.9C143.174 25.35 143.69 24.6083 143.94 23.675H145.79C145.457 25.0083 144.74 26.1 143.64 26.95C142.557 27.7833 141.19 28.2 139.54 28.2C138.257 28.2 137.107 27.9167 136.09 27.35C135.074 26.7667 134.274 25.95 133.69 24.9C133.124 23.8333 132.84 22.5917 132.84 21.175C132.84 19.7583 133.124 18.5167 133.69 17.45C134.257 16.3833 135.049 15.5667 136.065 15C137.082 14.4333 138.24 14.15 139.54 14.15C140.84 14.15 141.974 14.4333 142.94 15C143.924 15.5667 144.674 16.3333 145.19 17.3C145.724 18.25 145.99 19.3083 145.99 20.475ZM144.215 20.425C144.232 19.4083 144.024 18.5417 143.59 17.825C143.174 17.1083 142.599 16.5667 141.865 16.2C141.132 15.8333 140.332 15.65 139.465 15.65C138.165 15.65 137.057 16.0667 136.14 16.9C135.224 17.7333 134.715 18.9083 134.615 20.425H144.215ZM153.417 28.2C151.85 28.2 150.567 27.8417 149.567 27.125C148.584 26.3917 148.034 25.4 147.917 24.15H149.717C149.8 24.9167 150.159 25.5417 150.792 26.025C151.442 26.4917 152.309 26.725 153.392 26.725C154.342 26.725 155.084 26.5 155.617 26.05C156.167 25.6 156.442 25.0417 156.442 24.375C156.442 23.9083 156.292 23.525 155.992 23.225C155.692 22.925 155.309 22.6917 154.842 22.525C154.392 22.3417 153.775 22.15 152.992 21.95C151.975 21.6833 151.15 21.4167 150.517 21.15C149.884 20.8833 149.342 20.4917 148.892 19.975C148.459 19.4417 148.242 18.7333 148.242 17.85C148.242 17.1833 148.442 16.5667 148.842 16C149.242 15.4333 149.809 14.9833 150.542 14.65C151.275 14.3167 152.109 14.15 153.042 14.15C154.509 14.15 155.692 14.525 156.592 15.275C157.492 16.0083 157.975 17.025 158.042 18.325H156.292C156.242 17.525 155.925 16.8833 155.342 16.4C154.775 15.9 153.992 15.65 152.992 15.65C152.109 15.65 151.392 15.8583 150.842 16.275C150.292 16.6917 150.017 17.2083 150.017 17.825C150.017 18.3583 150.175 18.8 150.492 19.15C150.825 19.4833 151.234 19.75 151.717 19.95C152.2 20.1333 152.85 20.3417 153.667 20.575C154.65 20.8417 155.434 21.1 156.017 21.35C156.6 21.6 157.1 21.9667 157.517 22.45C157.934 22.9333 158.15 23.575 158.167 24.375C158.167 25.1083 157.967 25.7667 157.567 26.35C157.167 26.9167 156.609 27.3667 155.892 27.7C155.175 28.0333 154.35 28.2 153.417 28.2ZM165.686 28.2C164.119 28.2 162.836 27.8417 161.836 27.125C160.853 26.3917 160.303 25.4 160.186 24.15H161.986C162.069 24.9167 162.428 25.5417 163.061 26.025C163.711 26.4917 164.578 26.725 165.661 26.725C166.611 26.725 167.353 26.5 167.886 26.05C168.436 25.6 168.711 25.0417 168.711 24.375C168.711 23.9083 168.561 23.525 168.261 23.225C167.961 22.925 167.578 22.6917 167.111 22.525C166.661 22.3417 166.044 22.15 165.261 21.95C164.244 21.6833 163.419 21.4167 162.786 21.15C162.153 20.8833 161.611 20.4917 161.161 19.975C160.728 19.4417 160.511 18.7333 160.511 17.85C160.511 17.1833 160.711 16.5667 161.111 16C161.511 15.4333 162.078 14.9833 162.811 14.65C163.544 14.3167 164.378 14.15 165.311 14.15C166.778 14.15 167.961 14.525 168.861 15.275C169.761 16.0083 170.244 17.025 170.311 18.325H168.561C168.511 17.525 168.194 16.8833 167.611 16.4C167.044 15.9 166.261 15.65 165.261 15.65C164.378 15.65 163.661 15.8583 163.111 16.275C162.561 16.6917 162.286 17.2083 162.286 17.825C162.286 18.3583 162.444 18.8 162.761 19.15C163.094 19.4833 163.503 19.75 163.986 19.95C164.469 20.1333 165.119 20.3417 165.936 20.575C166.919 20.8417 167.703 21.1 168.286 21.35C168.869 21.6 169.369 21.9667 169.786 22.45C170.203 22.9333 170.419 23.575 170.436 24.375C170.436 25.1083 170.236 25.7667 169.836 26.35C169.436 26.9167 168.878 27.3667 168.161 27.7C167.444 28.0333 166.619 28.2 165.686 28.2Z" fill="white"/>
<path d="M13.342 39.1395L10.514 48.8975H9.086L6.818 41.0435L4.466 48.8975L3.052 48.9115L0.322 39.1395H1.68L3.808 47.4135L6.16 39.1395H7.588L9.828 47.3855L11.97 39.1395H13.342ZM22.8282 39.1395V48.8975H21.5542V44.4735H16.5842V48.8975H15.3102V39.1395H16.5842V43.4235H21.5542V39.1395H22.8282ZM26.8516 40.1755V43.4375H30.4076V44.4875H26.8516V47.8475H30.8276V48.8975H25.5776V39.1255H30.8276V40.1755H26.8516ZM38.4673 48.8975L36.1433 44.9075H34.6033V48.8975H33.3293V39.1395H36.4793C37.2166 39.1395 37.8373 39.2655 38.3413 39.5175C38.8546 39.7695 39.2373 40.1101 39.4893 40.5395C39.7413 40.9688 39.8673 41.4588 39.8673 42.0095C39.8673 42.6815 39.6713 43.2741 39.2793 43.7875C38.8966 44.3008 38.318 44.6415 37.5433 44.8095L39.9933 48.8975H38.4673ZM34.6033 43.8855H36.4793C37.17 43.8855 37.688 43.7175 38.0333 43.3815C38.3786 43.0361 38.5513 42.5788 38.5513 42.0095C38.5513 41.4308 38.3786 40.9828 38.0333 40.6655C37.6973 40.3481 37.1793 40.1895 36.4793 40.1895H34.6033V43.8855ZM43.6949 40.1755V43.4375H47.2509V44.4875H43.6949V47.8475H47.6709V48.8975H42.4209V39.1255H47.6709V40.1755H43.6949ZM57.573 48.9955C56.929 48.9955 56.3504 48.8835 55.837 48.6595C55.333 48.4261 54.9364 48.1088 54.647 47.7075C54.3577 47.2968 54.2084 46.8255 54.199 46.2935H55.557C55.6037 46.7508 55.7904 47.1381 56.117 47.4555C56.453 47.7635 56.9384 47.9175 57.573 47.9175C58.1797 47.9175 58.6557 47.7681 59.001 47.4695C59.3557 47.1615 59.533 46.7695 59.533 46.2935C59.533 45.9201 59.4304 45.6168 59.225 45.3835C59.0197 45.1501 58.763 44.9728 58.455 44.8515C58.147 44.7301 57.7317 44.5995 57.209 44.4595C56.565 44.2915 56.047 44.1235 55.655 43.9555C55.2724 43.7875 54.941 43.5261 54.661 43.1715C54.3904 42.8075 54.255 42.3221 54.255 41.7155C54.255 41.1835 54.3904 40.7121 54.661 40.3015C54.9317 39.8908 55.3097 39.5735 55.795 39.3495C56.2897 39.1255 56.8544 39.0135 57.489 39.0135C58.4037 39.0135 59.1504 39.2421 59.729 39.6995C60.317 40.1568 60.6484 40.7635 60.723 41.5195H59.323C59.2764 41.1461 59.0804 40.8195 58.735 40.5395C58.3897 40.2501 57.9324 40.1055 57.363 40.1055C56.831 40.1055 56.397 40.2455 56.061 40.5255C55.725 40.7961 55.557 41.1788 55.557 41.6735C55.557 42.0281 55.655 42.3175 55.851 42.5415C56.0564 42.7655 56.3037 42.9381 56.593 43.0595C56.8917 43.1715 57.307 43.3021 57.839 43.4515C58.483 43.6288 59.001 43.8061 59.393 43.9835C59.785 44.1515 60.121 44.4175 60.401 44.7815C60.681 45.1361 60.821 45.6215 60.821 46.2375C60.821 46.7135 60.695 47.1615 60.443 47.5815C60.191 48.0015 59.8177 48.3421 59.323 48.6035C58.8284 48.8648 58.245 48.9955 57.573 48.9955ZM64.5158 39.1395V45.3135C64.5158 46.1815 64.7258 46.8255 65.1458 47.2455C65.5752 47.6655 66.1678 47.8755 66.9238 47.8755C67.6705 47.8755 68.2538 47.6655 68.6738 47.2455C69.1032 46.8255 69.3178 46.1815 69.3178 45.3135V39.1395H70.5918V45.2995C70.5918 46.1115 70.4285 46.7975 70.1018 47.3575C69.7752 47.9081 69.3318 48.3188 68.7718 48.5895C68.2212 48.8601 67.6005 48.9955 66.9098 48.9955C66.2192 48.9955 65.5938 48.8601 65.0338 48.5895C64.4832 48.3188 64.0445 47.9081 63.7178 47.3575C63.4005 46.7975 63.2418 46.1115 63.2418 45.2995V39.1395H64.5158ZM72.8151 44.0115C72.8151 43.0595 73.0298 42.2055 73.4591 41.4495C73.8884 40.6841 74.4718 40.0868 75.2091 39.6575C75.9558 39.2281 76.7818 39.0135 77.6871 39.0135C78.7511 39.0135 79.6798 39.2701 80.4731 39.7835C81.2664 40.2968 81.8451 41.0248 82.2091 41.9675H80.6831C80.4124 41.3795 80.0204 40.9268 79.5071 40.6095C79.0031 40.2921 78.3964 40.1335 77.6871 40.1335C77.0058 40.1335 76.3944 40.2921 75.8531 40.6095C75.3118 40.9268 74.8871 41.3795 74.5791 41.9675C74.2711 42.5461 74.1171 43.2275 74.1171 44.0115C74.1171 44.7861 74.2711 45.4675 74.5791 46.0555C74.8871 46.6341 75.3118 47.0821 75.8531 47.3995C76.3944 47.7168 77.0058 47.8755 77.6871 47.8755C78.3964 47.8755 79.0031 47.7215 79.5071 47.4135C80.0204 47.0961 80.4124 46.6435 80.6831 46.0555H82.2091C81.8451 46.9888 81.2664 47.7121 80.4731 48.2255C79.6798 48.7295 78.7511 48.9815 77.6871 48.9815C76.7818 48.9815 75.9558 48.7715 75.2091 48.3515C74.4718 47.9221 73.8884 47.3295 73.4591 46.5735C73.0298 45.8175 72.8151 44.9635 72.8151 44.0115ZM84.2035 44.0115C84.2035 43.0595 84.4182 42.2055 84.8475 41.4495C85.2769 40.6841 85.8602 40.0868 86.5975 39.6575C87.3442 39.2281 88.1702 39.0135 89.0755 39.0135C90.1395 39.0135 91.0682 39.2701 91.8615 39.7835C92.6549 40.2968 93.2335 41.0248 93.5975 41.9675H92.0715C91.8009 41.3795 91.4089 40.9268 90.8955 40.6095C90.3915 40.2921 89.7849 40.1335 89.0755 40.1335C88.3942 40.1335 87.7829 40.2921 87.2415 40.6095C86.7002 40.9268 86.2755 41.3795 85.9675 41.9675C85.6595 42.5461 85.5055 43.2275 85.5055 44.0115C85.5055 44.7861 85.6595 45.4675 85.9675 46.0555C86.2755 46.6341 86.7002 47.0821 87.2415 47.3995C87.7829 47.7168 88.3942 47.8755 89.0755 47.8755C89.7849 47.8755 90.3915 47.7215 90.8955 47.4135C91.4089 47.0961 91.8009 46.6435 92.0715 46.0555H93.5975C93.2335 46.9888 92.6549 47.7121 91.8615 48.2255C91.0682 48.7295 90.1395 48.9815 89.0755 48.9815C88.1702 48.9815 87.3442 48.7715 86.5975 48.3515C85.8602 47.9221 85.2769 47.3295 84.8475 46.5735C84.4182 45.8175 84.2035 44.9635 84.2035 44.0115ZM97.342 40.1755V43.4375H100.898V44.4875H97.342V47.8475H101.318V48.8975H96.068V39.1255H101.318V40.1755H97.342ZM106.914 48.9955C106.27 48.9955 105.691 48.8835 105.178 48.6595C104.674 48.4261 104.277 48.1088 103.988 47.7075C103.698 47.2968 103.549 46.8255 103.54 46.2935H104.898C104.944 46.7508 105.131 47.1381 105.458 47.4555C105.794 47.7635 106.279 47.9175 106.914 47.9175C107.52 47.9175 107.996 47.7681 108.342 47.4695C108.696 47.1615 108.874 46.7695 108.874 46.2935C108.874 45.9201 108.771 45.6168 108.566 45.3835C108.36 45.1501 108.104 44.9728 107.796 44.8515C107.488 44.7301 107.072 44.5995 106.55 44.4595C105.906 44.2915 105.388 44.1235 104.996 43.9555C104.613 43.7875 104.282 43.5261 104.002 43.1715C103.731 42.8075 103.596 42.3221 103.596 41.7155C103.596 41.1835 103.731 40.7121 104.002 40.3015C104.272 39.8908 104.65 39.5735 105.136 39.3495C105.63 39.1255 106.195 39.0135 106.83 39.0135C107.744 39.0135 108.491 39.2421 109.07 39.6995C109.658 40.1568 109.989 40.7635 110.064 41.5195H108.664C108.617 41.1461 108.421 40.8195 108.076 40.5395C107.73 40.2501 107.273 40.1055 106.704 40.1055C106.172 40.1055 105.738 40.2455 105.402 40.5255C105.066 40.7961 104.898 41.1788 104.898 41.6735C104.898 42.0281 104.996 42.3175 105.192 42.5415C105.397 42.7655 105.644 42.9381 105.934 43.0595C106.232 43.1715 106.648 43.3021 107.18 43.4515C107.824 43.6288 108.342 43.8061 108.734 43.9835C109.126 44.1515 109.462 44.4175 109.742 44.7815C110.022 45.1361 110.162 45.6215 110.162 46.2375C110.162 46.7135 110.036 47.1615 109.784 47.5815C109.532 48.0015 109.158 48.3421 108.664 48.6035C108.169 48.8648 107.586 48.9955 106.914 48.9955ZM115.705 48.9955C115.061 48.9955 114.482 48.8835 113.969 48.6595C113.465 48.4261 113.068 48.1088 112.779 47.7075C112.489 47.2968 112.34 46.8255 112.331 46.2935H113.689C113.735 46.7508 113.922 47.1381 114.249 47.4555C114.585 47.7635 115.07 47.9175 115.705 47.9175C116.311 47.9175 116.787 47.7681 117.133 47.4695C117.487 47.1615 117.665 46.7695 117.665 46.2935C117.665 45.9201 117.562 45.6168 117.357 45.3835C117.151 45.1501 116.895 44.9728 116.587 44.8515C116.279 44.7301 115.863 44.5995 115.341 44.4595C114.697 44.2915 114.179 44.1235 113.787 43.9555C113.404 43.7875 113.073 43.5261 112.793 43.1715C112.522 42.8075 112.387 42.3221 112.387 41.7155C112.387 41.1835 112.522 40.7121 112.793 40.3015C113.063 39.8908 113.441 39.5735 113.927 39.3495C114.421 39.1255 114.986 39.0135 115.621 39.0135C116.535 39.0135 117.282 39.2421 117.861 39.6995C118.449 40.1568 118.78 40.7635 118.855 41.5195H117.455C117.408 41.1461 117.212 40.8195 116.867 40.5395C116.521 40.2501 116.064 40.1055 115.495 40.1055C114.963 40.1055 114.529 40.2455 114.193 40.5255C113.857 40.7961 113.689 41.1788 113.689 41.6735C113.689 42.0281 113.787 42.3175 113.983 42.5415C114.188 42.7655 114.435 42.9381 114.725 43.0595C115.023 43.1715 115.439 43.3021 115.971 43.4515C116.615 43.6288 117.133 43.8061 117.525 43.9835C117.917 44.1515 118.253 44.4175 118.533 44.7815C118.813 45.1361 118.953 45.6215 118.953 46.2375C118.953 46.7135 118.827 47.1615 118.575 47.5815C118.323 48.0015 117.949 48.3421 117.455 48.6035C116.96 48.8648 116.377 48.9955 115.705 48.9955ZM130.594 43.8715C130.948 43.9275 131.27 44.0721 131.56 44.3055C131.858 44.5388 132.092 44.8281 132.26 45.1735C132.437 45.5188 132.526 45.8875 132.526 46.2795C132.526 46.7741 132.4 47.2221 132.148 47.6235C131.896 48.0155 131.527 48.3281 131.042 48.5615C130.566 48.7855 130.001 48.8975 129.348 48.8975H125.708V39.1395H129.208C129.87 39.1395 130.435 39.2515 130.902 39.4755C131.368 39.6901 131.718 39.9841 131.952 40.3575C132.185 40.7308 132.302 41.1508 132.302 41.6175C132.302 42.1961 132.143 42.6768 131.826 43.0595C131.518 43.4328 131.107 43.7035 130.594 43.8715ZM126.982 43.3535H129.124C129.721 43.3535 130.183 43.2135 130.51 42.9335C130.836 42.6535 131 42.2661 131 41.7715C131 41.2768 130.836 40.8895 130.51 40.6095C130.183 40.3295 129.712 40.1895 129.096 40.1895H126.982V43.3535ZM129.236 47.8475C129.87 47.8475 130.365 47.6981 130.72 47.3995C131.074 47.1008 131.252 46.6855 131.252 46.1535C131.252 45.6121 131.065 45.1875 130.692 44.8795C130.318 44.5621 129.819 44.4035 129.194 44.4035H126.982V47.8475H129.236ZM136.142 40.1755V43.4375H139.698V44.4875H136.142V47.8475H140.118V48.8975H134.868V39.1255H140.118V40.1755H136.142ZM150.011 41.9675C149.741 41.3981 149.349 40.9595 148.835 40.6515C148.322 40.3341 147.725 40.1755 147.043 40.1755C146.362 40.1755 145.746 40.3341 145.195 40.6515C144.654 40.9595 144.225 41.4075 143.907 41.9955C143.599 42.5741 143.445 43.2461 143.445 44.0115C143.445 44.7768 143.599 45.4488 143.907 46.0275C144.225 46.6061 144.654 47.0541 145.195 47.3715C145.746 47.6795 146.362 47.8335 147.043 47.8335C147.995 47.8335 148.779 47.5488 149.395 46.9795C150.011 46.4101 150.371 45.6401 150.473 44.6695H146.581V43.6335H151.831V44.6135C151.757 45.4161 151.505 46.1535 151.075 46.8255C150.646 47.4881 150.081 48.0155 149.381 48.4075C148.681 48.7901 147.902 48.9815 147.043 48.9815C146.138 48.9815 145.312 48.7715 144.565 48.3515C143.819 47.9221 143.226 47.3295 142.787 46.5735C142.358 45.8175 142.143 44.9635 142.143 44.0115C142.143 43.0595 142.358 42.2055 142.787 41.4495C143.226 40.6841 143.819 40.0915 144.565 39.6715C145.312 39.2421 146.138 39.0275 147.043 39.0275C148.079 39.0275 148.994 39.2841 149.787 39.7975C150.59 40.3108 151.173 41.0341 151.537 41.9675H150.011ZM155.364 39.1395V48.8975H154.09V39.1395H155.364ZM165.781 48.8975H164.507L159.383 41.1275V48.8975H158.109V39.1255H159.383L164.507 46.8815V39.1255H165.781V48.8975ZM171.621 48.9955C170.977 48.9955 170.398 48.8835 169.885 48.6595C169.381 48.4261 168.984 48.1088 168.695 47.7075C168.406 47.2968 168.256 46.8255 168.247 46.2935H169.605C169.652 46.7508 169.838 47.1381 170.165 47.4555C170.501 47.7635 170.986 47.9175 171.621 47.9175C172.228 47.9175 172.704 47.7681 173.049 47.4695C173.404 47.1615 173.581 46.7695 173.581 46.2935C173.581 45.9201 173.478 45.6168 173.273 45.3835C173.068 45.1501 172.811 44.9728 172.503 44.8515C172.195 44.7301 171.78 44.5995 171.257 44.4595C170.613 44.2915 170.095 44.1235 169.703 43.9555C169.32 43.7875 168.989 43.5261 168.709 43.1715C168.438 42.8075 168.303 42.3221 168.303 41.7155C168.303 41.1835 168.438 40.7121 168.709 40.3015C168.98 39.8908 169.358 39.5735 169.843 39.3495C170.338 39.1255 170.902 39.0135 171.537 39.0135C172.452 39.0135 173.198 39.2421 173.777 39.6995C174.365 40.1568 174.696 40.7635 174.771 41.5195H173.371C173.324 41.1461 173.128 40.8195 172.783 40.5395C172.438 40.2501 171.98 40.1055 171.411 40.1055C170.879 40.1055 170.445 40.2455 170.109 40.5255C169.773 40.7961 169.605 41.1788 169.605 41.6735C169.605 42.0281 169.703 42.3175 169.899 42.5415C170.104 42.7655 170.352 42.9381 170.641 43.0595C170.94 43.1715 171.355 43.3021 171.887 43.4515C172.531 43.6288 173.049 43.8061 173.441 43.9835C173.833 44.1515 174.169 44.4175 174.449 44.7815C174.729 45.1361 174.869 45.6215 174.869 46.2375C174.869 46.7135 174.743 47.1615 174.491 47.5815C174.239 48.0015 173.866 48.3421 173.371 48.6035C172.876 48.8648 172.293 48.9955 171.621 48.9955Z" fill="white"/>
</svg>
