<svg width="176" height="55" viewBox="0 0 176 55" fill="none" xmlns="http://www.w3.org/2000/svg">
<path d="M7.75 28.175C6.53333 28.175 5.43333 27.9667 4.45 27.55C3.48333 27.1333 2.71667 26.5333 2.15 25.75C1.58333 24.9667 1.29167 24.0417 1.275 22.975H5.025C5.075 23.6917 5.325 24.2583 5.775 24.675C6.24167 25.0917 6.875 25.3 7.675 25.3C8.49167 25.3 9.13333 25.1083 9.6 24.725C10.0667 24.325 10.3 23.8083 10.3 23.175C10.3 22.6583 10.1417 22.2333 9.825 21.9C9.50833 21.5667 9.10833 21.3083 8.625 21.125C8.15833 20.925 7.50833 20.7083 6.675 20.475C5.54167 20.1417 4.61667 19.8167 3.9 19.5C3.2 19.1667 2.59167 18.675 2.075 18.025C1.575 17.3583 1.325 16.475 1.325 15.375C1.325 14.3417 1.58333 13.4417 2.1 12.675C2.61667 11.9083 3.34167 11.325 4.275 10.925C5.20833 10.5083 6.275 10.3 7.475 10.3C9.275 10.3 10.7333 10.7417 11.85 11.625C12.9833 12.4917 13.6083 13.7083 13.725 15.275H9.875C9.84167 14.675 9.58333 14.1833 9.1 13.8C8.63333 13.4 8.00833 13.2 7.225 13.2C6.54167 13.2 5.99167 13.375 5.575 13.725C5.175 14.075 4.975 14.5833 4.975 15.25C4.975 15.7167 5.125 16.1083 5.425 16.425C5.74167 16.725 6.125 16.975 6.575 17.175C7.04167 17.3583 7.69167 17.575 8.525 17.825C9.65833 18.1583 10.5833 18.4917 11.3 18.825C12.0167 19.1583 12.6333 19.6583 13.15 20.325C13.6667 20.9917 13.925 21.8667 13.925 22.95C13.925 23.8833 13.6833 24.75 13.2 25.55C12.7167 26.35 12.0083 26.9917 11.075 27.475C10.1417 27.9417 9.03333 28.175 7.75 28.175ZM29.3594 20.775C29.3594 21.275 29.326 21.725 29.2594 22.125H19.1344C19.2177 23.125 19.5677 23.9083 20.1844 24.475C20.801 25.0417 21.5594 25.325 22.4594 25.325C23.7594 25.325 24.6844 24.7667 25.2344 23.65H29.0094C28.6094 24.9833 27.8427 26.0833 26.7094 26.95C25.576 27.8 24.1844 28.225 22.5344 28.225C21.201 28.225 20.001 27.9333 18.9344 27.35C17.8844 26.75 17.0594 25.9083 16.4594 24.825C15.876 23.7417 15.5844 22.4917 15.5844 21.075C15.5844 19.6417 15.876 18.3833 16.4594 17.3C17.0427 16.2167 17.8594 15.3833 18.9094 14.8C19.9594 14.2167 21.1677 13.925 22.5344 13.925C23.851 13.925 25.026 14.2083 26.0594 14.775C27.1094 15.3417 27.9177 16.15 28.4844 17.2C29.0677 18.2333 29.3594 19.425 29.3594 20.775ZM25.7344 19.775C25.7177 18.875 25.3927 18.1583 24.7594 17.625C24.126 17.075 23.351 16.8 22.4344 16.8C21.5677 16.8 20.8344 17.0667 20.2344 17.6C19.651 18.1167 19.2927 18.8417 19.1594 19.775H25.7344ZM34.9391 9.5V28H31.4391V9.5H34.9391ZM41.4221 9.5V28H37.9221V9.5H41.4221ZM57.2801 20.775C57.2801 21.275 57.2467 21.725 57.1801 22.125H47.0551C47.1384 23.125 47.4884 23.9083 48.1051 24.475C48.7217 25.0417 49.4801 25.325 50.3801 25.325C51.6801 25.325 52.6051 24.7667 53.1551 23.65H56.9301C56.5301 24.9833 55.7634 26.0833 54.6301 26.95C53.4967 27.8 52.1051 28.225 50.4551 28.225C49.1217 28.225 47.9217 27.9333 46.8551 27.35C45.8051 26.75 44.9801 25.9083 44.3801 24.825C43.7967 23.7417 43.5051 22.4917 43.5051 21.075C43.5051 19.6417 43.7967 18.3833 44.3801 17.3C44.9634 16.2167 45.7801 15.3833 46.8301 14.8C47.8801 14.2167 49.0884 13.925 50.4551 13.925C51.7717 13.925 52.9467 14.2083 53.9801 14.775C55.0301 15.3417 55.8384 16.15 56.4051 17.2C56.9884 18.2333 57.2801 19.425 57.2801 20.775ZM53.6551 19.775C53.6384 18.875 53.3134 18.1583 52.6801 17.625C52.0467 17.075 51.2717 16.8 50.3551 16.8C49.4884 16.8 48.7551 17.0667 48.1551 17.6C47.5717 18.1167 47.2134 18.8417 47.0801 19.775H53.6551ZM62.8598 16.3C63.3098 15.5667 63.8931 14.9917 64.6098 14.575C65.3431 14.1583 66.1764 13.95 67.1098 13.95V17.625H66.1848C65.0848 17.625 64.2514 17.8833 63.6848 18.4C63.1348 18.9167 62.8598 19.8167 62.8598 21.1V28H59.3598V14.15H62.8598V16.3ZM80.3492 28.175C79.1826 28.175 78.1326 27.975 77.1992 27.575C76.2659 27.1583 75.5326 26.575 74.9992 25.825C74.4659 25.075 74.1992 24.2 74.1992 23.2H77.2492C77.3159 23.95 77.6076 24.5667 78.1242 25.05C78.6576 25.5333 79.3992 25.775 80.3492 25.775C81.3326 25.775 82.0992 25.5417 82.6492 25.075C83.1992 24.5917 83.4742 23.975 83.4742 23.225C83.4742 22.6417 83.2992 22.1667 82.9492 21.8C82.6159 21.4333 82.1909 21.15 81.6742 20.95C81.1742 20.75 80.4742 20.5333 79.5742 20.3C78.4409 20 77.5159 19.7 76.7992 19.4C76.0992 19.0833 75.4992 18.6 74.9992 17.95C74.4992 17.3 74.2492 16.4333 74.2492 15.35C74.2492 14.35 74.4992 13.475 74.9992 12.725C75.4992 11.975 76.1992 11.4 77.0992 11C77.9992 10.6 79.0409 10.4 80.2242 10.4C81.9076 10.4 83.2826 10.825 84.3492 11.675C85.4326 12.5083 86.0326 13.6583 86.1492 15.125H82.9992C82.9492 14.4917 82.6492 13.95 82.0992 13.5C81.5492 13.05 80.8242 12.825 79.9242 12.825C79.1076 12.825 78.4409 13.0333 77.9242 13.45C77.4076 13.8667 77.1492 14.4667 77.1492 15.25C77.1492 15.7833 77.3076 16.225 77.6242 16.575C77.9576 16.9083 78.3742 17.175 78.8742 17.375C79.3742 17.575 80.0576 17.7917 80.9242 18.025C82.0742 18.3417 83.0076 18.6583 83.7242 18.975C84.4576 19.2917 85.0742 19.7833 85.5742 20.45C86.0909 21.1 86.3492 21.975 86.3492 23.075C86.3492 23.9583 86.1076 24.7917 85.6242 25.575C85.1576 26.3583 84.4659 26.9917 83.5492 27.475C82.6492 27.9417 81.5826 28.175 80.3492 28.175ZM101.712 14.225V28H98.8621V26.375C98.4121 26.9417 97.8204 27.3917 97.0871 27.725C96.3704 28.0417 95.6038 28.2 94.7871 28.2C93.7038 28.2 92.7288 27.975 91.8621 27.525C91.0121 27.075 90.3371 26.4083 89.8371 25.525C89.3538 24.6417 89.1121 23.575 89.1121 22.325V14.225H91.9371V21.9C91.9371 23.1333 92.2454 24.0833 92.8621 24.75C93.4788 25.4 94.3204 25.725 95.3871 25.725C96.4538 25.725 97.2954 25.4 97.9121 24.75C98.5454 24.0833 98.8621 23.1333 98.8621 21.9V14.225H101.712ZM104.047 21.1C104.047 19.6833 104.331 18.4417 104.897 17.375C105.481 16.2917 106.281 15.4583 107.297 14.875C108.314 14.2917 109.481 14 110.797 14C112.464 14 113.839 14.4 114.922 15.2C116.022 15.9833 116.764 17.1083 117.147 18.575H114.072C113.822 17.8917 113.422 17.3583 112.872 16.975C112.322 16.5917 111.631 16.4 110.797 16.4C109.631 16.4 108.697 16.8167 107.997 17.65C107.314 18.4667 106.972 19.6167 106.972 21.1C106.972 22.5833 107.314 23.7417 107.997 24.575C108.697 25.4083 109.631 25.825 110.797 25.825C112.447 25.825 113.539 25.1 114.072 23.65H117.147C116.747 25.05 115.997 26.1667 114.897 27C113.797 27.8167 112.431 28.225 110.797 28.225C109.481 28.225 108.314 27.9333 107.297 27.35C106.281 26.75 105.481 25.9167 104.897 24.85C104.331 23.7667 104.047 22.5167 104.047 21.1ZM118.563 21.1C118.563 19.6833 118.846 18.4417 119.413 17.375C119.996 16.2917 120.796 15.4583 121.813 14.875C122.829 14.2917 123.996 14 125.313 14C126.979 14 128.354 14.4 129.438 15.2C130.538 15.9833 131.279 17.1083 131.663 18.575H128.588C128.338 17.8917 127.938 17.3583 127.388 16.975C126.838 16.5917 126.146 16.4 125.313 16.4C124.146 16.4 123.213 16.8167 122.513 17.65C121.829 18.4667 121.488 19.6167 121.488 21.1C121.488 22.5833 121.829 23.7417 122.513 24.575C123.213 25.4083 124.146 25.825 125.313 25.825C126.963 25.825 128.054 25.1 128.588 23.65H131.663C131.263 25.05 130.513 26.1667 129.413 27C128.313 27.8167 126.946 28.225 125.313 28.225C123.996 28.225 122.829 27.9333 121.813 27.35C120.796 26.75 119.996 25.9167 119.413 24.85C118.846 23.7667 118.563 22.5167 118.563 21.1ZM146.653 20.775C146.653 21.2917 146.62 21.7583 146.553 22.175H136.028C136.111 23.275 136.52 24.1583 137.253 24.825C137.986 25.4917 138.886 25.825 139.953 25.825C141.486 25.825 142.57 25.1833 143.203 23.9H146.278C145.861 25.1667 145.103 26.2083 144.003 27.025C142.92 27.825 141.57 28.225 139.953 28.225C138.636 28.225 137.453 27.9333 136.403 27.35C135.37 26.75 134.553 25.9167 133.953 24.85C133.37 23.7667 133.078 22.5167 133.078 21.1C133.078 19.6833 133.361 18.4417 133.928 17.375C134.511 16.2917 135.32 15.4583 136.353 14.875C137.403 14.2917 138.603 14 139.953 14C141.253 14 142.411 14.2833 143.428 14.85C144.445 15.4167 145.236 16.2167 145.803 17.25C146.37 18.2667 146.653 19.4417 146.653 20.775ZM143.678 19.875C143.661 18.825 143.286 17.9833 142.553 17.35C141.82 16.7167 140.911 16.4 139.828 16.4C138.845 16.4 138.003 16.7167 137.303 17.35C136.603 17.9667 136.186 18.8083 136.053 19.875H143.678ZM153.983 28.225C152.899 28.225 151.924 28.0333 151.058 27.65C150.208 27.25 149.533 26.7167 149.033 26.05C148.533 25.3667 148.266 24.6083 148.233 23.775H151.183C151.233 24.3583 151.508 24.85 152.008 25.25C152.524 25.6333 153.166 25.825 153.933 25.825C154.733 25.825 155.349 25.675 155.783 25.375C156.233 25.0583 156.458 24.6583 156.458 24.175C156.458 23.6583 156.208 23.275 155.708 23.025C155.224 22.775 154.449 22.5 153.383 22.2C152.349 21.9167 151.508 21.6417 150.858 21.375C150.208 21.1083 149.641 20.7 149.158 20.15C148.691 19.6 148.458 18.875 148.458 17.975C148.458 17.2417 148.674 16.575 149.108 15.975C149.541 15.3583 150.158 14.875 150.958 14.525C151.774 14.175 152.708 14 153.758 14C155.324 14 156.583 14.4 157.533 15.2C158.499 15.9833 159.016 17.0583 159.083 18.425H156.233C156.183 17.8083 155.933 17.3167 155.483 16.95C155.033 16.5833 154.424 16.4 153.658 16.4C152.908 16.4 152.333 16.5417 151.933 16.825C151.533 17.1083 151.333 17.4833 151.333 17.95C151.333 18.3167 151.466 18.625 151.733 18.875C151.999 19.125 152.324 19.325 152.708 19.475C153.091 19.6083 153.658 19.7833 154.408 20C155.408 20.2667 156.224 20.5417 156.858 20.825C157.508 21.0917 158.066 21.4917 158.533 22.025C158.999 22.5583 159.241 23.2667 159.258 24.15C159.258 24.9333 159.041 25.6333 158.608 26.25C158.174 26.8667 157.558 27.35 156.758 27.7C155.974 28.05 155.049 28.225 153.983 28.225ZM166.862 28.225C165.779 28.225 164.804 28.0333 163.937 27.65C163.087 27.25 162.412 26.7167 161.912 26.05C161.412 25.3667 161.145 24.6083 161.112 23.775H164.062C164.112 24.3583 164.387 24.85 164.887 25.25C165.404 25.6333 166.045 25.825 166.812 25.825C167.612 25.825 168.229 25.675 168.662 25.375C169.112 25.0583 169.337 24.6583 169.337 24.175C169.337 23.6583 169.087 23.275 168.587 23.025C168.104 22.775 167.329 22.5 166.262 22.2C165.229 21.9167 164.387 21.6417 163.737 21.375C163.087 21.1083 162.52 20.7 162.037 20.15C161.57 19.6 161.337 18.875 161.337 17.975C161.337 17.2417 161.554 16.575 161.987 15.975C162.42 15.3583 163.037 14.875 163.837 14.525C164.654 14.175 165.587 14 166.637 14C168.204 14 169.462 14.4 170.412 15.2C171.379 15.9833 171.895 17.0583 171.962 18.425H169.112C169.062 17.8083 168.812 17.3167 168.362 16.95C167.912 16.5833 167.304 16.4 166.537 16.4C165.787 16.4 165.212 16.5417 164.812 16.825C164.412 17.1083 164.212 17.4833 164.212 17.95C164.212 18.3167 164.345 18.625 164.612 18.875C164.879 19.125 165.204 19.325 165.587 19.475C165.97 19.6083 166.537 19.7833 167.287 20C168.287 20.2667 169.104 20.5417 169.737 20.825C170.387 21.0917 170.945 21.4917 171.412 22.025C171.879 22.5583 172.12 23.2667 172.137 24.15C172.137 24.9333 171.92 25.6333 171.487 26.25C171.054 26.8667 170.437 27.35 169.637 27.7C168.854 28.05 167.929 28.225 166.862 28.225Z" fill="black"/>
<path d="M13.342 39.242L10.514 49H9.086L6.818 41.146L4.466 49L3.052 49.014L0.322 39.242H1.68L3.808 47.516L6.16 39.242H7.588L9.828 47.488L11.97 39.242H13.342ZM22.8282 39.242V49H21.5542V44.576H16.5842V49H15.3102V39.242H16.5842V43.526H21.5542V39.242H22.8282ZM26.8516 40.278V43.54H30.4076V44.59H26.8516V47.95H30.8276V49H25.5776V39.228H30.8276V40.278H26.8516ZM38.4673 49L36.1433 45.01H34.6033V49H33.3293V39.242H36.4793C37.2166 39.242 37.8373 39.368 38.3413 39.62C38.8546 39.872 39.2373 40.2127 39.4893 40.642C39.7413 41.0713 39.8673 41.5613 39.8673 42.112C39.8673 42.784 39.6713 43.3767 39.2793 43.89C38.8966 44.4033 38.318 44.744 37.5433 44.912L39.9933 49H38.4673ZM34.6033 43.988H36.4793C37.17 43.988 37.688 43.82 38.0333 43.484C38.3786 43.1387 38.5513 42.6813 38.5513 42.112C38.5513 41.5333 38.3786 41.0853 38.0333 40.768C37.6973 40.4507 37.1793 40.292 36.4793 40.292H34.6033V43.988ZM43.6949 40.278V43.54H47.2509V44.59H43.6949V47.95H47.6709V49H42.4209V39.228H47.6709V40.278H43.6949ZM57.573 49.098C56.929 49.098 56.3504 48.986 55.837 48.762C55.333 48.5287 54.9364 48.2113 54.647 47.81C54.3577 47.3993 54.2084 46.928 54.199 46.396H55.557C55.6037 46.8533 55.7904 47.2407 56.117 47.558C56.453 47.866 56.9384 48.02 57.573 48.02C58.1797 48.02 58.6557 47.8707 59.001 47.572C59.3557 47.264 59.533 46.872 59.533 46.396C59.533 46.0227 59.4304 45.7193 59.225 45.486C59.0197 45.2527 58.763 45.0753 58.455 44.954C58.147 44.8327 57.7317 44.702 57.209 44.562C56.565 44.394 56.047 44.226 55.655 44.058C55.2724 43.89 54.941 43.6287 54.661 43.274C54.3904 42.91 54.255 42.4247 54.255 41.818C54.255 41.286 54.3904 40.8147 54.661 40.404C54.9317 39.9933 55.3097 39.676 55.795 39.452C56.2897 39.228 56.8544 39.116 57.489 39.116C58.4037 39.116 59.1504 39.3447 59.729 39.802C60.317 40.2593 60.6484 40.866 60.723 41.622H59.323C59.2764 41.2487 59.0804 40.922 58.735 40.642C58.3897 40.3527 57.9324 40.208 57.363 40.208C56.831 40.208 56.397 40.348 56.061 40.628C55.725 40.8987 55.557 41.2813 55.557 41.776C55.557 42.1307 55.655 42.42 55.851 42.644C56.0564 42.868 56.3037 43.0407 56.593 43.162C56.8917 43.274 57.307 43.4047 57.839 43.554C58.483 43.7313 59.001 43.9087 59.393 44.086C59.785 44.254 60.121 44.52 60.401 44.884C60.681 45.2387 60.821 45.724 60.821 46.34C60.821 46.816 60.695 47.264 60.443 47.684C60.191 48.104 59.8177 48.4447 59.323 48.706C58.8284 48.9673 58.245 49.098 57.573 49.098ZM64.5158 39.242V45.416C64.5158 46.284 64.7258 46.928 65.1458 47.348C65.5752 47.768 66.1678 47.978 66.9238 47.978C67.6705 47.978 68.2538 47.768 68.6738 47.348C69.1032 46.928 69.3178 46.284 69.3178 45.416V39.242H70.5918V45.402C70.5918 46.214 70.4285 46.9 70.1018 47.46C69.7752 48.0107 69.3318 48.4213 68.7718 48.692C68.2212 48.9627 67.6005 49.098 66.9098 49.098C66.2192 49.098 65.5938 48.9627 65.0338 48.692C64.4832 48.4213 64.0445 48.0107 63.7178 47.46C63.4005 46.9 63.2418 46.214 63.2418 45.402V39.242H64.5158ZM72.8151 44.114C72.8151 43.162 73.0298 42.308 73.4591 41.552C73.8884 40.7867 74.4718 40.1893 75.2091 39.76C75.9558 39.3307 76.7818 39.116 77.6871 39.116C78.7511 39.116 79.6798 39.3727 80.4731 39.886C81.2664 40.3993 81.8451 41.1273 82.2091 42.07H80.6831C80.4124 41.482 80.0204 41.0293 79.5071 40.712C79.0031 40.3947 78.3964 40.236 77.6871 40.236C77.0058 40.236 76.3944 40.3947 75.8531 40.712C75.3118 41.0293 74.8871 41.482 74.5791 42.07C74.2711 42.6487 74.1171 43.33 74.1171 44.114C74.1171 44.8887 74.2711 45.57 74.5791 46.158C74.8871 46.7367 75.3118 47.1847 75.8531 47.502C76.3944 47.8193 77.0058 47.978 77.6871 47.978C78.3964 47.978 79.0031 47.824 79.5071 47.516C80.0204 47.1987 80.4124 46.746 80.6831 46.158H82.2091C81.8451 47.0913 81.2664 47.8147 80.4731 48.328C79.6798 48.832 78.7511 49.084 77.6871 49.084C76.7818 49.084 75.9558 48.874 75.2091 48.454C74.4718 48.0247 73.8884 47.432 73.4591 46.676C73.0298 45.92 72.8151 45.066 72.8151 44.114ZM84.2035 44.114C84.2035 43.162 84.4182 42.308 84.8475 41.552C85.2769 40.7867 85.8602 40.1893 86.5975 39.76C87.3442 39.3307 88.1702 39.116 89.0755 39.116C90.1395 39.116 91.0682 39.3727 91.8615 39.886C92.6549 40.3993 93.2335 41.1273 93.5975 42.07H92.0715C91.8009 41.482 91.4089 41.0293 90.8955 40.712C90.3915 40.3947 89.7849 40.236 89.0755 40.236C88.3942 40.236 87.7829 40.3947 87.2415 40.712C86.7002 41.0293 86.2755 41.482 85.9675 42.07C85.6595 42.6487 85.5055 43.33 85.5055 44.114C85.5055 44.8887 85.6595 45.57 85.9675 46.158C86.2755 46.7367 86.7002 47.1847 87.2415 47.502C87.7829 47.8193 88.3942 47.978 89.0755 47.978C89.7849 47.978 90.3915 47.824 90.8955 47.516C91.4089 47.1987 91.8009 46.746 92.0715 46.158H93.5975C93.2335 47.0913 92.6549 47.8147 91.8615 48.328C91.0682 48.832 90.1395 49.084 89.0755 49.084C88.1702 49.084 87.3442 48.874 86.5975 48.454C85.8602 48.0247 85.2769 47.432 84.8475 46.676C84.4182 45.92 84.2035 45.066 84.2035 44.114ZM97.342 40.278V43.54H100.898V44.59H97.342V47.95H101.318V49H96.068V39.228H101.318V40.278H97.342ZM106.914 49.098C106.27 49.098 105.691 48.986 105.178 48.762C104.674 48.5287 104.277 48.2113 103.988 47.81C103.698 47.3993 103.549 46.928 103.54 46.396H104.898C104.944 46.8533 105.131 47.2407 105.458 47.558C105.794 47.866 106.279 48.02 106.914 48.02C107.52 48.02 107.996 47.8707 108.342 47.572C108.696 47.264 108.874 46.872 108.874 46.396C108.874 46.0227 108.771 45.7193 108.566 45.486C108.36 45.2527 108.104 45.0753 107.796 44.954C107.488 44.8327 107.072 44.702 106.55 44.562C105.906 44.394 105.388 44.226 104.996 44.058C104.613 43.89 104.282 43.6287 104.002 43.274C103.731 42.91 103.596 42.4247 103.596 41.818C103.596 41.286 103.731 40.8147 104.002 40.404C104.272 39.9933 104.65 39.676 105.136 39.452C105.63 39.228 106.195 39.116 106.83 39.116C107.744 39.116 108.491 39.3447 109.07 39.802C109.658 40.2593 109.989 40.866 110.064 41.622H108.664C108.617 41.2487 108.421 40.922 108.076 40.642C107.73 40.3527 107.273 40.208 106.704 40.208C106.172 40.208 105.738 40.348 105.402 40.628C105.066 40.8987 104.898 41.2813 104.898 41.776C104.898 42.1307 104.996 42.42 105.192 42.644C105.397 42.868 105.644 43.0407 105.934 43.162C106.232 43.274 106.648 43.4047 107.18 43.554C107.824 43.7313 108.342 43.9087 108.734 44.086C109.126 44.254 109.462 44.52 109.742 44.884C110.022 45.2387 110.162 45.724 110.162 46.34C110.162 46.816 110.036 47.264 109.784 47.684C109.532 48.104 109.158 48.4447 108.664 48.706C108.169 48.9673 107.586 49.098 106.914 49.098ZM115.705 49.098C115.061 49.098 114.482 48.986 113.969 48.762C113.465 48.5287 113.068 48.2113 112.779 47.81C112.489 47.3993 112.34 46.928 112.331 46.396H113.689C113.735 46.8533 113.922 47.2407 114.249 47.558C114.585 47.866 115.07 48.02 115.705 48.02C116.311 48.02 116.787 47.8707 117.133 47.572C117.487 47.264 117.665 46.872 117.665 46.396C117.665 46.0227 117.562 45.7193 117.357 45.486C117.151 45.2527 116.895 45.0753 116.587 44.954C116.279 44.8327 115.863 44.702 115.341 44.562C114.697 44.394 114.179 44.226 113.787 44.058C113.404 43.89 113.073 43.6287 112.793 43.274C112.522 42.91 112.387 42.4247 112.387 41.818C112.387 41.286 112.522 40.8147 112.793 40.404C113.063 39.9933 113.441 39.676 113.927 39.452C114.421 39.228 114.986 39.116 115.621 39.116C116.535 39.116 117.282 39.3447 117.861 39.802C118.449 40.2593 118.78 40.866 118.855 41.622H117.455C117.408 41.2487 117.212 40.922 116.867 40.642C116.521 40.3527 116.064 40.208 115.495 40.208C114.963 40.208 114.529 40.348 114.193 40.628C113.857 40.8987 113.689 41.2813 113.689 41.776C113.689 42.1307 113.787 42.42 113.983 42.644C114.188 42.868 114.435 43.0407 114.725 43.162C115.023 43.274 115.439 43.4047 115.971 43.554C116.615 43.7313 117.133 43.9087 117.525 44.086C117.917 44.254 118.253 44.52 118.533 44.884C118.813 45.2387 118.953 45.724 118.953 46.34C118.953 46.816 118.827 47.264 118.575 47.684C118.323 48.104 117.949 48.4447 117.455 48.706C116.96 48.9673 116.377 49.098 115.705 49.098ZM130.594 43.974C130.948 44.03 131.27 44.1747 131.56 44.408C131.858 44.6413 132.092 44.9307 132.26 45.276C132.437 45.6213 132.526 45.99 132.526 46.382C132.526 46.8767 132.4 47.3247 132.148 47.726C131.896 48.118 131.527 48.4307 131.042 48.664C130.566 48.888 130.001 49 129.348 49H125.708V39.242H129.208C129.87 39.242 130.435 39.354 130.902 39.578C131.368 39.7927 131.718 40.0867 131.952 40.46C132.185 40.8333 132.302 41.2533 132.302 41.72C132.302 42.2987 132.143 42.7793 131.826 43.162C131.518 43.5353 131.107 43.806 130.594 43.974ZM126.982 43.456H129.124C129.721 43.456 130.183 43.316 130.51 43.036C130.836 42.756 131 42.3687 131 41.874C131 41.3793 130.836 40.992 130.51 40.712C130.183 40.432 129.712 40.292 129.096 40.292H126.982V43.456ZM129.236 47.95C129.87 47.95 130.365 47.8007 130.72 47.502C131.074 47.2033 131.252 46.788 131.252 46.256C131.252 45.7147 131.065 45.29 130.692 44.982C130.318 44.6647 129.819 44.506 129.194 44.506H126.982V47.95H129.236ZM136.142 40.278V43.54H139.698V44.59H136.142V47.95H140.118V49H134.868V39.228H140.118V40.278H136.142ZM150.011 42.07C149.741 41.5007 149.349 41.062 148.835 40.754C148.322 40.4367 147.725 40.278 147.043 40.278C146.362 40.278 145.746 40.4367 145.195 40.754C144.654 41.062 144.225 41.51 143.907 42.098C143.599 42.6767 143.445 43.3487 143.445 44.114C143.445 44.8793 143.599 45.5513 143.907 46.13C144.225 46.7087 144.654 47.1567 145.195 47.474C145.746 47.782 146.362 47.936 147.043 47.936C147.995 47.936 148.779 47.6513 149.395 47.082C150.011 46.5127 150.371 45.7427 150.473 44.772H146.581V43.736H151.831V44.716C151.757 45.5187 151.505 46.256 151.075 46.928C150.646 47.5907 150.081 48.118 149.381 48.51C148.681 48.8927 147.902 49.084 147.043 49.084C146.138 49.084 145.312 48.874 144.565 48.454C143.819 48.0247 143.226 47.432 142.787 46.676C142.358 45.92 142.143 45.066 142.143 44.114C142.143 43.162 142.358 42.308 142.787 41.552C143.226 40.7867 143.819 40.194 144.565 39.774C145.312 39.3447 146.138 39.13 147.043 39.13C148.079 39.13 148.994 39.3867 149.787 39.9C150.59 40.4133 151.173 41.1367 151.537 42.07H150.011ZM155.364 39.242V49H154.09V39.242H155.364ZM165.781 49H164.507L159.383 41.23V49H158.109V39.228H159.383L164.507 46.984V39.228H165.781V49ZM171.621 49.098C170.977 49.098 170.398 48.986 169.885 48.762C169.381 48.5287 168.984 48.2113 168.695 47.81C168.406 47.3993 168.256 46.928 168.247 46.396H169.605C169.652 46.8533 169.838 47.2407 170.165 47.558C170.501 47.866 170.986 48.02 171.621 48.02C172.228 48.02 172.704 47.8707 173.049 47.572C173.404 47.264 173.581 46.872 173.581 46.396C173.581 46.0227 173.478 45.7193 173.273 45.486C173.068 45.2527 172.811 45.0753 172.503 44.954C172.195 44.8327 171.78 44.702 171.257 44.562C170.613 44.394 170.095 44.226 169.703 44.058C169.32 43.89 168.989 43.6287 168.709 43.274C168.438 42.91 168.303 42.4247 168.303 41.818C168.303 41.286 168.438 40.8147 168.709 40.404C168.98 39.9933 169.358 39.676 169.843 39.452C170.338 39.228 170.902 39.116 171.537 39.116C172.452 39.116 173.198 39.3447 173.777 39.802C174.365 40.2593 174.696 40.866 174.771 41.622H173.371C173.324 41.2487 173.128 40.922 172.783 40.642C172.438 40.3527 171.98 40.208 171.411 40.208C170.879 40.208 170.445 40.348 170.109 40.628C169.773 40.8987 169.605 41.2813 169.605 41.776C169.605 42.1307 169.703 42.42 169.899 42.644C170.104 42.868 170.352 43.0407 170.641 43.162C170.94 43.274 171.355 43.4047 171.887 43.554C172.531 43.7313 173.049 43.9087 173.441 44.086C173.833 44.254 174.169 44.52 174.449 44.884C174.729 45.2387 174.869 45.724 174.869 46.34C174.869 46.816 174.743 47.264 174.491 47.684C174.239 48.104 173.866 48.4447 173.371 48.706C172.876 48.9673 172.293 49.098 171.621 49.098Z" fill="#3A3A3A"/>
</svg>
