<svg width="298" height="278" viewBox="0 0 298 278" fill="none" xmlns="http://www.w3.org/2000/svg">
<path d="M290.436 0L10.5636 0C6.93863 0 4 3.24127 4 7.23958L4 270.76C4 274.759 6.93863 278 10.5636 278H290.436C294.061 278 297 274.759 297 270.76V7.23958C297 3.24127 294.061 0 290.436 0Z" fill="#FEFAEE"/>
<path d="M297.025 85.4268H269.266V185.912H297.025V85.4268Z" fill="#CCB5DD"/>
<path d="M208.509 0L107.945 0V85.4271H208.509V0Z" fill="#FFCC5F"/>
<path d="M211.119 185.912H110.555V278H211.119V185.912Z" fill="#F3A397"/>
<path d="M181.794 85.4268H94.0625V185.912H181.794V85.4268Z" fill="black"/>
<path d="M108.336 0V85.4271" stroke="black" stroke-width="3"/>
<path d="M110.984 185.912V278" stroke="black" stroke-width="3.2339"/>
<path d="M182.211 85.4268V185.912" stroke="black" stroke-width="3.25368"/>
<path d="M269.695 85.4268V185.912" stroke="black" stroke-width="3.25368"/>
<path d="M94.2188 85.4268V185.912" stroke="black" stroke-width="3.25368"/>
<path d="M208.898 0V85.4271" stroke="black" stroke-width="3"/>
<path d="M210.5 185.912V278" stroke="black" stroke-width="3.2339"/>
<path d="M4.23438 84.9932H297.022" stroke="black" stroke-width="3"/>
<path d="M4.23438 185.478H297.022" stroke="black" stroke-width="3"/>
<path d="M71.595 69.3923H42.2638C40.7344 69.3923 39.2548 68.0805 38.9615 66.4617L31.2542 24.0986C30.9609 22.4798 31.9613 21.168 33.4907 21.168H62.8218C64.3512 21.168 65.8309 22.4798 66.1242 24.0986L73.8236 66.4617C74.1274 68.0921 73.1244 69.3923 71.595 69.3923Z" fill="black" stroke="black" stroke-width="2" stroke-linejoin="round"/>
<path d="M72.3059 68.652H42.9747C41.4453 68.652 39.9683 67.3402 39.6724 65.7215L31.9729 23.3583C31.6796 21.7395 32.68 20.4277 34.2094 20.4277H63.5406C65.07 20.4277 66.547 21.7395 66.843 23.3583L74.5424 65.7215C74.8383 67.3402 73.8353 68.652 72.3059 68.652Z" fill="#F3A397" stroke="black" stroke-width="2" stroke-linejoin="round"/>
<path d="M42.4613 65.8801C42.4196 65.8786 42.3796 65.8621 42.3471 65.8335C42.3146 65.8048 42.2913 65.7654 42.2806 65.7208L34.5811 23.3577C34.5769 23.3381 34.5772 23.3177 34.5814 23.2981C34.5856 23.2786 34.594 23.2604 34.6055 23.245C34.6173 23.2295 34.632 23.2173 34.6487 23.2092C34.6652 23.2011 34.6835 23.1974 34.7016 23.1984H64.0328C64.0744 23.1995 64.1147 23.2156 64.1472 23.2444C64.1799 23.2732 64.2033 23.3129 64.2135 23.3577L71.9129 65.7208C71.9168 65.7405 71.9168 65.7608 71.9126 65.7805C71.9084 65.7999 71.9001 65.8181 71.8885 65.8335C71.8767 65.8488 71.8621 65.8613 71.8453 65.8694C71.8286 65.8775 71.8105 65.8809 71.7924 65.8801H42.4613Z" fill="black" stroke="black" stroke-width="2" stroke-linejoin="round"/>
<path d="M51.7227 21.5447H46.4169L45.8931 18.7357C45.6103 17.1835 46.5714 15.9268 48.0353 15.9268C48.7689 15.9444 49.4765 16.2293 50.0485 16.7372C50.6204 17.2451 51.0248 17.9476 51.1989 18.7357L51.7227 21.5447Z" fill="white" stroke="black" stroke-width="2" stroke-linejoin="round"/>
<path d="M80.8796 60.4271H51.242C43.045 54.0968 38.5589 39.2035 34.5547 23.1982H64.1949C67.9974 38.5548 72.9497 51.9944 80.8796 60.4271Z" fill="#FEFAEE" stroke="black" stroke-width="2" stroke-linejoin="round"/>
<path d="M60.7955 24.673H38.496L37.3594 18.418H59.6589L60.7955 24.673Z" fill="#FFCC5F" stroke="black" stroke-width="2" stroke-linejoin="round"/>
<path d="M57.3454 54.545C57.8807 53.3444 56.774 51.5313 54.8732 50.4952C52.9727 49.4593 50.9981 49.5928 50.4628 50.7937C49.9278 51.9943 51.0345 53.8074 52.935 54.8433C54.8355 55.8794 56.8101 55.7456 57.3454 54.545Z" fill="black" stroke="black" stroke-width="2" stroke-linejoin="round"/>
<path d="M40.3047 29.8213H62.4052" stroke="black" stroke-width="2" stroke-linejoin="round"/>
<path d="M41.9219 34.9707H64.0224" stroke="black" stroke-width="2" stroke-linejoin="round"/>
<path d="M43.5469 40.1182H65.6474" stroke="black" stroke-width="2" stroke-linejoin="round"/>
<path d="M227 223.533L255.002 203L283 223.533H227Z" fill="black" stroke="black" stroke-width="2" stroke-linejoin="round"/>
<path d="M283 223.532H227V254.455H283V223.532Z" fill="black" stroke="black" stroke-width="2" stroke-linejoin="round"/>
<path d="M274.504 207.959V229.772L255.011 244.067L235.516 229.772V207.959H274.504Z" fill="#CCB5DD" stroke="black" stroke-width="2" stroke-linejoin="round"/>
<path d="M239.273 227.588H264.02" stroke="black" stroke-width="2" stroke-linejoin="round"/>
<path d="M239.273 232.636H264.02" stroke="black" stroke-width="2" stroke-linejoin="round"/>
<path d="M250.011 211.353H238.797V222.906H250.011V211.353Z" fill="#FEFAEE" stroke="black" stroke-width="2" stroke-linejoin="round"/>
<path d="M283 223.532V258.829H227V223.532L235.506 229.77L255.002 244.066L274.494 229.77L283 223.532Z" fill="#FFCC5F" stroke="black" stroke-width="2" stroke-linejoin="round"/>
<path d="M227 259L255.002 238.467L283 259H227Z" fill="#FFCC5F" stroke="black" stroke-width="2" stroke-linejoin="round"/>
<path d="M252.037 120.466H205.207C203.846 120.466 202.742 121.686 202.742 123.191V150.973C202.742 152.478 203.846 153.698 205.207 153.698H252.037C253.399 153.698 254.501 152.478 254.501 150.973V123.191C254.501 121.686 253.399 120.466 252.037 120.466Z" fill="#FFCC5F" stroke="black" stroke-width="2" stroke-linejoin="round"/>
<path d="M254.501 126.043H202.742V134.189H254.501V126.043Z" fill="black" stroke="black" stroke-width="2" stroke-linejoin="round"/>
<path d="M239.469 143.921V150.804H251.879V143.921H239.469Z" fill="#CCB5DD" stroke="black" stroke-width="2" stroke-linejoin="round"/>
<path d="M214.876 132.074V136.307C214.876 136.76 214.717 137.194 214.429 137.514C214.141 137.835 213.748 138.017 213.339 138.019H208.261C207.852 138.018 207.46 137.838 207.171 137.519C206.882 137.199 206.72 136.765 206.719 136.313V132.074C206.719 131.621 206.881 131.187 207.17 130.867C207.46 130.546 207.852 130.366 208.261 130.365H213.339C213.748 130.365 214.143 130.545 214.431 130.866C214.722 131.186 214.884 131.621 214.884 132.074H214.876Z" fill="#F3A397" stroke="black" stroke-width="2" stroke-linejoin="round"/>
<path d="M210.805 130.367V138.012" stroke="black" stroke-width="2" stroke-linejoin="round"/>
<path d="M209.309 132.316V136.06L207.261 137.604C207.091 137.444 206.954 137.245 206.861 137.021C206.767 136.797 206.719 136.553 206.719 136.306V132.073C206.719 131.825 206.767 131.581 206.861 131.357C206.954 131.132 207.091 130.933 207.261 130.772L209.309 132.316Z" fill="#F3A397" stroke="black" stroke-width="2" stroke-linejoin="round"/>
<path d="M214.882 132.073V136.306C214.882 136.553 214.835 136.797 214.74 137.021C214.646 137.245 214.51 137.444 214.34 137.604L212.297 136.06V132.316L214.34 130.778C214.51 130.938 214.646 131.137 214.738 131.36C214.832 131.583 214.882 131.827 214.882 132.073Z" fill="#F3A397" stroke="black" stroke-width="2" stroke-linejoin="round"/>
<path d="M212.29 132.316H209.312V136.061H212.29V132.316Z" fill="#F3A397" stroke="black" stroke-width="2" stroke-linejoin="round"/>
<path d="M6.45205 128.72H2V133.643H6.45205V128.72Z" fill="#FEFAEE" stroke="black" stroke-width="3"/>
<path d="M51.2411 82.9658H46.7891V87.8887H51.2411V82.9658Z" fill="#FEFAEE" stroke="black" stroke-width="3"/>
<path d="M54.6474 183.451H50.1953V188.374H54.6474V183.451Z" fill="#FEFAEE" stroke="black" stroke-width="3"/>
<path d="M212.819 229.784H208.367V234.707H212.819V229.784Z" fill="#FEFAEE" stroke="black" stroke-width="3"/>
<path d="M271.749 128.141H267.297V133.064H271.749V128.141Z" fill="#FEFAEE" stroke="black" stroke-width="3"/>
<path d="M138.939 28.5V51.7535C135.42 51.7535 132.562 54.1802 132.562 57.1716C132.562 60.163 135.42 62.5897 138.939 62.5897H189.428V28.5H138.939Z" fill="#ADD8B8" stroke="black" stroke-width="2" stroke-linejoin="round"/>
<path d="M138.939 17.665V52.5193C135.417 52.5193 132.562 54.946 132.562 57.9374V23.0802C132.562 20.0917 135.417 17.665 138.939 17.665Z" fill="#ADD8B8" stroke="black" stroke-width="2" stroke-linejoin="round"/>
<path d="M156.96 34.1211H144.078V41.462H156.96V34.1211Z" fill="#ADD8B8" stroke="black" stroke-width="2" stroke-linejoin="round"/>
<path d="M169.843 34.1211H156.961V41.462H169.843V34.1211Z" fill="#ADD8B8" stroke="black" stroke-width="2" stroke-linejoin="round"/>
<path d="M182.718 34.1211H169.836V41.462H182.718V34.1211Z" fill="#ADD8B8" stroke="black" stroke-width="2" stroke-linejoin="round"/>
<path d="M156.96 41.4629H144.078V48.8038H156.96V41.4629Z" fill="#ADD8B8" stroke="black" stroke-width="2" stroke-linejoin="round"/>
<path d="M169.843 41.4629H156.961V48.8038H169.843V41.4629Z" fill="#ADD8B8" stroke="black" stroke-width="2" stroke-linejoin="round"/>
<path d="M182.718 41.4629H169.836V48.8038H182.718V41.4629Z" fill="#ADD8B8" stroke="black" stroke-width="2" stroke-linejoin="round"/>
<path d="M156.96 48.8037H144.078V56.1447H156.96V48.8037Z" fill="#ADD8B8" stroke="black" stroke-width="2" stroke-linejoin="round"/>
<path d="M169.843 48.8037H156.961V56.1447H169.843V48.8037Z" fill="#ADD8B8" stroke="black" stroke-width="2" stroke-linejoin="round"/>
<path d="M182.718 48.8037H169.836V56.1447H182.718V48.8037Z" fill="#ADD8B8" stroke="black" stroke-width="2" stroke-linejoin="round"/>
<path d="M117.927 118.559L114.04 141.812C110.521 141.812 107.26 144.239 106.76 147.233C106.26 150.227 108.711 152.651 112.231 152.651H162.72L168.413 118.559H117.927Z" fill="#CCB5DD" stroke="black" stroke-width="2" stroke-linejoin="round"/>
<path d="M119.738 107.726L113.916 142.58C110.393 142.58 107.133 145.004 106.633 147.995L112.455 113.141C112.955 110.149 116.215 107.726 119.738 107.726Z" fill="#CCB5DD" stroke="black" stroke-width="2" stroke-linejoin="round"/>
<path d="M122.132 124.179H135.014L133.788 131.52H120.906L122.132 124.179Z" fill="#CCB5DD" stroke="black" stroke-width="2" stroke-linejoin="round"/>
<path d="M135.015 124.179H147.897L146.669 131.52H133.789L135.015 124.179Z" fill="#CCB5DD" stroke="black" stroke-width="2" stroke-linejoin="round"/>
<path d="M147.9 124.179H160.782L159.554 131.52H146.672L147.9 124.179Z" fill="#CCB5DD" stroke="black" stroke-width="2" stroke-linejoin="round"/>
<path d="M120.9 131.521H133.782L132.554 138.864H119.672L120.9 131.521Z" fill="#CCB5DD" stroke="black" stroke-width="2" stroke-linejoin="round"/>
<path d="M133.791 131.521H146.67L145.445 138.864H132.562L133.791 131.521Z" fill="#CCB5DD" stroke="black" stroke-width="2" stroke-linejoin="round"/>
<path d="M146.663 131.521H159.545L158.32 138.864H145.438L146.663 131.521Z" fill="#CCB5DD" stroke="black" stroke-width="2" stroke-linejoin="round"/>
<path d="M119.679 138.863H132.561L131.335 146.204H118.453L119.679 138.863Z" fill="#CCB5DD" stroke="black" stroke-width="2" stroke-linejoin="round"/>
<path d="M132.554 138.863H145.436L144.21 146.204H131.328L132.554 138.863Z" fill="#CCB5DD" stroke="black" stroke-width="2" stroke-linejoin="round"/>
<path d="M145.437 138.863H158.319L157.093 146.204H144.211L145.437 138.863Z" fill="#CCB5DD" stroke="black" stroke-width="2" stroke-linejoin="round"/>
<path d="M136.272 259.914L145.038 204.024C145.159 203.346 145.483 202.733 145.958 202.284C146.433 201.835 147.032 201.577 147.657 201.551H177.2C177.48 201.541 177.758 201.601 178.014 201.729C178.269 201.856 178.495 202.046 178.673 202.285C178.852 202.524 178.979 202.805 179.044 203.106C179.109 203.408 179.11 203.722 179.049 204.024L170.286 259.914C170.165 260.592 169.841 261.205 169.365 261.655C168.89 262.104 168.292 262.363 167.667 262.39H138.124C137.843 262.4 137.564 262.34 137.308 262.213C137.052 262.085 136.826 261.895 136.647 261.655C136.468 261.416 136.341 261.135 136.276 260.833C136.211 260.531 136.21 260.216 136.272 259.914Z" fill="black" stroke="black" stroke-width="2" stroke-linejoin="round"/>
<path d="M138.882 259.914L147.647 204.024C147.767 203.345 148.091 202.732 148.567 202.283C149.042 201.834 149.641 201.576 150.266 201.551H179.809C180.089 201.541 180.368 201.601 180.623 201.729C180.879 201.856 181.104 202.046 181.283 202.285C181.461 202.524 181.588 202.805 181.653 203.106C181.718 203.408 181.72 203.722 181.658 204.024L172.895 259.914C172.774 260.592 172.45 261.205 171.975 261.655C171.5 262.104 170.901 262.363 170.277 262.39H140.733C140.453 262.4 140.174 262.34 139.917 262.213C139.661 262.085 139.435 261.895 139.256 261.655C139.077 261.416 138.951 261.135 138.886 260.833C138.821 260.531 138.819 260.216 138.882 259.914Z" fill="#AAA9A7" stroke="black" stroke-width="2" stroke-linejoin="round"/>
<path d="M178.851 205.307L170.494 258.619C170.45 258.858 170.334 259.074 170.166 259.232C169.997 259.389 169.785 259.48 169.565 259.488H142.37C142.272 259.491 142.174 259.47 142.084 259.425C141.995 259.38 141.915 259.313 141.852 259.23C141.789 259.146 141.744 259.047 141.721 258.941C141.698 258.836 141.697 258.725 141.718 258.619L150.075 205.307C150.119 205.068 150.234 204.852 150.402 204.695C150.571 204.537 150.782 204.447 151.002 204.438H178.196C178.295 204.434 178.393 204.455 178.483 204.5C178.573 204.544 178.653 204.611 178.716 204.695C178.779 204.779 178.824 204.878 178.848 204.984C178.871 205.09 178.872 205.2 178.851 205.307Z" fill="#FEFAEE" stroke="black" stroke-width="2" stroke-linejoin="round"/>
<path d="M173.257 221.645L170.148 225.835L153.201 248.672L150.567 247.681L151.753 241.75L142.367 254.402L143.334 248.228L153.372 234.699L156.006 235.692L154.82 241.62L167.935 223.941L170.994 219.82L173.257 221.645Z" fill="black" stroke="black" stroke-width="2" stroke-linejoin="round"/>
<path d="M174.642 217.44L165.555 221.903L172.332 227.703L174.642 217.44Z" fill="black" stroke="black" stroke-width="2" stroke-linejoin="round"/>
<path d="M168.233 209.972H159.216C159.036 209.978 158.857 209.939 158.693 209.857C158.529 209.775 158.384 209.653 158.269 209.499C158.154 209.346 158.073 209.165 158.032 208.971C157.99 208.778 157.989 208.576 158.03 208.382C158.106 207.946 158.315 207.551 158.621 207.263C158.927 206.974 159.312 206.81 159.714 206.795H168.73C168.91 206.788 169.089 206.826 169.254 206.908C169.418 206.989 169.563 207.111 169.678 207.265C169.793 207.418 169.874 207.598 169.916 207.792C169.958 207.986 169.959 208.187 169.919 208.382C169.842 208.818 169.633 209.213 169.326 209.502C169.02 209.79 168.635 209.956 168.233 209.972Z" fill="black" stroke="black" stroke-width="2" stroke-linejoin="round"/>
<path d="M75.7444 249.622H31.2266L35.8776 219.505H80.4008L75.7444 249.622Z" fill="#FFCC5F" stroke="black" stroke-width="2" stroke-linejoin="round"/>
<path d="M31.2031 249.765L56.1713 232.245L75.7236 249.765H31.2031Z" fill="#FFCC5F" stroke="black" stroke-width="2" stroke-linejoin="round"/>
<path d="M80.4059 219.505L56.0873 237.749L35.8828 219.505H80.4059Z" fill="black" stroke="black" stroke-width="2" stroke-linejoin="round"/>
<path d="M80.4059 219.505L53.0756 236.446L35.8828 219.505H80.4059Z" fill="#FFCC5F" stroke="black" stroke-width="2" stroke-linejoin="round"/>
<path d="M17.1421 225.284C19.9628 224.085 21.7497 221.675 21.1329 219.901C20.5165 218.127 17.7303 217.661 14.9095 218.859C12.0887 220.057 10.3019 222.467 10.9186 224.241C11.5351 226.016 14.3216 226.482 17.1421 225.284Z" fill="#AAA9A7" stroke="black" stroke-width="2.73816" stroke-linejoin="round"/>
<path d="M71.0072 136.1C70.8024 138.73 70.1306 141.288 69.0299 143.63C67.8441 146.163 66.2142 148.411 64.2348 150.241C60.907 153.372 56.6886 155.109 52.319 155.146C51.7447 155.146 51.1798 155.115 50.6246 155.054C50.0574 154.992 49.4933 154.895 48.9355 154.764C41.1915 153.027 35.8412 145.324 36.5562 136.095C37.2711 126.866 43.7894 119.177 51.8057 117.428C52.9389 117.177 54.0915 117.051 55.2469 117.052C58.9165 117.011 62.4854 118.376 65.3478 120.915C69.2264 124.398 71.4838 129.903 71.0072 136.1Z" fill="black" stroke="black" stroke-width="2" stroke-linejoin="round"/>
<path d="M69.0339 143.625C67.8483 146.16 66.2183 148.408 64.2387 150.239H56.0312L56.5393 143.625H69.0339Z" fill="#FFCC5F" stroke="black" stroke-width="2" stroke-linejoin="round"/>
<path d="M71.0101 136.1H56.6641L57.8295 120.92H65.3482C69.2293 124.398 71.4868 129.903 71.0101 136.1Z" fill="#FFCC5F" stroke="black" stroke-width="2" stroke-linejoin="round"/>
<path d="M48.935 154.771C49.4928 154.901 50.0569 154.998 50.6242 155.06H48.9141L48.935 154.771Z" fill="white" stroke="black" stroke-width="2" stroke-linejoin="round"/>
<path d="M61.7724 149.302C68.9499 141.72 69.663 129.664 63.3646 122.373C57.0665 115.083 46.1423 115.32 38.9645 122.901C31.787 130.483 31.0742 142.54 37.3723 149.83C43.6706 157.12 54.5949 156.883 61.7724 149.302Z" fill="#FFCC5F" stroke="black" stroke-width="2" stroke-linejoin="round"/>
<path d="M55.3519 133.955C54.4487 133.408 53.4951 132.968 52.5078 132.643C52.1438 132.513 51.8112 132.391 51.5022 132.284L51.7012 129.701C51.9579 129.75 52.2116 129.817 52.4607 129.901C52.9816 130.079 53.4915 130.294 53.9875 130.544C54.5131 130.82 55.0238 131.129 55.5169 131.471L58.0388 126.875C57.5151 126.571 56.8944 126.246 56.1899 125.905C55.4506 125.549 54.6872 125.258 53.9063 125.036C53.426 124.898 52.9365 124.801 52.4424 124.746L52.665 121.851H50.5987L50.3761 124.746C49.5242 124.847 48.6911 125.092 47.9065 125.473C46.8485 125.977 45.9217 126.767 45.2117 127.77C44.4695 128.861 44.0358 130.171 43.9651 131.534C43.8732 132.391 43.9748 133.26 44.2611 134.062C44.5628 134.793 45.0436 135.416 45.649 135.861C46.4329 136.437 47.284 136.893 48.1789 137.216C48.7359 137.424 49.2552 137.611 49.7371 137.775L49.5459 140.28C49.1808 140.222 48.8202 140.134 48.4669 140.016C47.84 139.809 47.2272 139.551 46.6337 139.246C46.0136 138.914 45.4118 138.542 44.832 138.131L42.2891 143.013C43.0349 143.514 43.8245 143.93 44.646 144.256C45.5286 144.612 46.436 144.89 47.3592 145.084C47.8489 145.188 48.3281 145.263 48.8021 145.313L48.5403 148.811H50.6065L50.8684 145.35C51.4674 145.307 52.0621 145.21 52.6466 145.061C53.4726 144.851 54.2604 144.488 54.9774 143.989C55.6937 143.489 56.2939 142.809 56.7294 142.006C57.2212 141.069 57.5056 140.017 57.5596 138.936C57.6591 137.662 57.5143 136.638 57.1249 135.866C56.7072 135.058 56.093 134.396 55.3519 133.955ZM49.5904 131.444C49.4715 131.35 49.3765 131.223 49.3152 131.076C49.2539 130.929 49.2282 130.767 49.2405 130.605C49.2528 130.444 49.3031 130.288 49.3859 130.155C49.4689 130.021 49.5818 129.914 49.7135 129.843C49.917 129.74 50.1333 129.671 50.3551 129.64L50.1901 131.786C49.9838 131.696 49.7871 131.582 49.6035 131.444H49.5904ZM52.0731 139.466C52.0631 139.598 52.0241 139.726 51.9594 139.838C51.8945 139.95 51.806 140.043 51.7012 140.109C51.4446 140.259 51.1588 140.338 50.8684 140.34L51.0308 138.258C51.217 138.344 51.3987 138.441 51.5755 138.548C51.7374 138.622 51.8738 138.75 51.9655 138.915C52.0574 139.08 52.0995 139.273 52.0862 139.466H52.0731Z" fill="#FFCC5F" stroke="black" stroke-width="2" stroke-linejoin="round"/>
<path d="M55.2537 117.057C54.0982 117.056 52.9457 117.182 51.8125 117.433L51.8413 117.057H55.2537Z" fill="white" stroke="black" stroke-width="2" stroke-linejoin="round"/>
<path d="M248.014 68.9758C248.884 68.9758 249.591 68.5313 249.591 67.9825C249.591 67.4341 248.884 66.9893 248.014 66.9893C247.145 66.9893 246.438 67.4341 246.438 67.9825C246.438 68.5313 247.145 68.9758 248.014 68.9758Z" fill="black" stroke="black" stroke-width="2" stroke-linejoin="round"/>
<path d="M244.272 55.2228C256.02 55.2228 265.544 46.3274 265.544 35.3542C265.544 24.3809 256.02 15.4854 244.272 15.4854C232.524 15.4854 223 24.3809 223 35.3542C223 46.3274 232.524 55.2228 244.272 55.2228Z" fill="black" stroke="black" stroke-width="2.73816" stroke-linejoin="round"/>
<path d="M246.725 52.7375C258.473 52.7375 267.997 43.8419 267.997 32.8687C267.997 21.8956 258.473 13 246.725 13C234.977 13 225.453 21.8956 225.453 32.8687C225.453 43.8419 234.977 52.7375 246.725 52.7375Z" fill="#AAA9A7" stroke="black" stroke-width="2.73816" stroke-linejoin="round"/>
<path d="M246.728 48.7413C243.367 48.7413 240.081 47.8105 237.287 46.0663C234.492 44.3222 232.314 41.8432 231.028 38.9429C229.742 36.0426 229.405 32.8511 230.061 29.7722C230.717 26.6931 232.335 23.8649 234.712 21.6451C237.088 19.4252 240.116 17.9136 243.413 17.301C246.709 16.6887 250.126 17.003 253.231 18.2043C256.336 19.4057 258.99 21.4401 260.857 24.0504C262.725 26.6606 263.721 29.7294 263.721 32.8688C263.716 37.0767 261.923 41.111 258.738 44.0865C255.552 47.0621 251.233 48.736 246.728 48.7413Z" fill="#FEFAEE" stroke="black" stroke-width="2.73816" stroke-linejoin="round"/>
<path d="M239.019 35.0951C239.019 33.9293 238.523 32.8113 237.64 31.9868C236.758 31.1626 235.561 30.6993 234.312 30.6993C235.561 30.6993 236.758 30.2363 237.64 29.4118C238.523 28.5876 239.019 27.4695 239.019 26.3037C239.019 27.4695 239.514 28.5876 240.397 29.4118C241.28 30.2363 242.477 30.6993 243.725 30.6993C242.477 30.6993 241.28 31.1626 240.397 31.9868C239.514 32.8113 239.019 33.9293 239.019 35.0951Z" fill="#FFCC5F" stroke="black" stroke-width="2.73816" stroke-linejoin="round"/>
<path d="M265.44 76.8223L259.344 79.0001L249.931 55.507C248.892 52.9813 254.988 50.7954 256.028 53.3211L265.44 76.8223Z" fill="#AAA9A7" stroke="black" stroke-width="2.73816" stroke-linejoin="round"/>
</svg>
