<svg width="113" height="48" viewBox="0 0 113 48" fill="none" xmlns="http://www.w3.org/2000/svg">
<path d="M5.27 15.119C4.44267 15.119 3.69467 14.9773 3.026 14.694C2.36867 14.4107 1.84733 14.0027 1.462 13.47C1.07667 12.9373 0.878333 12.3083 0.867 11.583H3.417C3.451 12.0703 3.621 12.4557 3.927 12.739C4.24433 13.0223 4.675 13.164 5.219 13.164C5.77433 13.164 6.21067 13.0337 6.528 12.773C6.84533 12.501 7.004 12.1497 7.004 11.719C7.004 11.3677 6.89633 11.0787 6.681 10.852C6.46567 10.6253 6.19367 10.4497 5.865 10.325C5.54767 10.189 5.10567 10.0417 4.539 9.883C3.76833 9.65633 3.13933 9.43533 2.652 9.22C2.176 8.99333 1.76233 8.659 1.411 8.217C1.071 7.76367 0.901 7.163 0.901 6.415C0.901 5.71233 1.07667 5.10033 1.428 4.579C1.77933 4.05767 2.27233 3.661 2.907 3.389C3.54167 3.10567 4.267 2.964 5.083 2.964C6.307 2.964 7.29867 3.26433 8.058 3.865C8.82867 4.45433 9.25367 5.28167 9.333 6.347H6.715C6.69233 5.939 6.51667 5.60467 6.188 5.344C5.87067 5.072 5.44567 4.936 4.913 4.936C4.44833 4.936 4.07433 5.055 3.791 5.293C3.519 5.531 3.383 5.87667 3.383 6.33C3.383 6.64733 3.485 6.91367 3.689 7.129C3.90433 7.333 4.165 7.503 4.471 7.639C4.78833 7.76367 5.23033 7.911 5.797 8.081C6.56767 8.30767 7.19667 8.53433 7.684 8.761C8.17133 8.98767 8.59067 9.32767 8.942 9.781C9.29333 10.2343 9.469 10.8293 9.469 11.566C9.469 12.2007 9.30467 12.79 8.976 13.334C8.64733 13.878 8.16567 14.3143 7.531 14.643C6.89633 14.9603 6.14267 15.119 5.27 15.119ZM20.4744 10.087C20.4744 10.427 20.4517 10.733 20.4064 11.005H13.5214C13.578 11.685 13.816 12.2177 14.2354 12.603C14.6547 12.9883 15.1704 13.181 15.7824 13.181C16.6664 13.181 17.2954 12.8013 17.6694 12.042H20.2364C19.9644 12.9487 19.443 13.6967 18.6724 14.286C17.9017 14.864 16.9554 15.153 15.8334 15.153C14.9267 15.153 14.1107 14.9547 13.3854 14.558C12.6714 14.15 12.1104 13.5777 11.7024 12.841C11.3057 12.1043 11.1074 11.2543 11.1074 10.291C11.1074 9.31633 11.3057 8.46067 11.7024 7.724C12.099 6.98733 12.6544 6.42067 13.3684 6.024C14.0824 5.62733 14.904 5.429 15.8334 5.429C16.7287 5.429 17.5277 5.62167 18.2304 6.007C18.9444 6.39233 19.494 6.942 19.8794 7.656C20.276 8.35867 20.4744 9.169 20.4744 10.087ZM18.0094 9.407C17.998 8.795 17.777 8.30767 17.3464 7.945C16.9157 7.571 16.3887 7.384 15.7654 7.384C15.176 7.384 14.6774 7.56533 14.2694 7.928C13.8727 8.27933 13.629 8.77233 13.5384 9.407H18.0094ZM24.7786 2.42V15H22.3986V2.42H24.7786ZM29.697 2.42V15H27.317V2.42H29.697ZM40.9905 10.087C40.9905 10.427 40.9678 10.733 40.9225 11.005H34.0375C34.0941 11.685 34.3321 12.2177 34.7515 12.603C35.1708 12.9883 35.6865 13.181 36.2985 13.181C37.1825 13.181 37.8115 12.8013 38.1855 12.042H40.7525C40.4805 12.9487 39.9591 13.6967 39.1885 14.286C38.4178 14.864 37.4715 15.153 36.3495 15.153C35.4428 15.153 34.6268 14.9547 33.9015 14.558C33.1875 14.15 32.6265 13.5777 32.2185 12.841C31.8218 12.1043 31.6235 11.2543 31.6235 10.291C31.6235 9.31633 31.8218 8.46067 32.2185 7.724C32.6151 6.98733 33.1705 6.42067 33.8845 6.024C34.5985 5.62733 35.4201 5.429 36.3495 5.429C37.2448 5.429 38.0438 5.62167 38.7465 6.007C39.4605 6.39233 40.0101 6.942 40.3955 7.656C40.7921 8.35867 40.9905 9.169 40.9905 10.087ZM38.5255 9.407C38.5141 8.795 38.2931 8.30767 37.8625 7.945C37.4318 7.571 36.9048 7.384 36.2815 7.384C35.6921 7.384 35.1935 7.56533 34.7855 7.928C34.3888 8.27933 34.1451 8.77233 34.0545 9.407H38.5255ZM45.2946 7.044C45.6006 6.54533 45.9973 6.15433 46.4846 5.871C46.9833 5.58767 47.55 5.446 48.1846 5.446V7.945H47.5556C46.8076 7.945 46.241 8.12067 45.8556 8.472C45.4816 8.82333 45.2946 9.43533 45.2946 10.308V15H42.9146V5.582H45.2946V7.044ZM5.168 34.119C4.37467 34.119 3.66067 33.983 3.026 33.711C2.39133 33.4277 1.89267 33.031 1.53 32.521C1.16733 32.011 0.986 31.416 0.986 30.736H3.06C3.10533 31.246 3.30367 31.6653 3.655 31.994C4.01767 32.3227 4.522 32.487 5.168 32.487C5.83667 32.487 6.358 32.3283 6.732 32.011C7.106 31.6823 7.293 31.263 7.293 30.753C7.293 30.3563 7.174 30.0333 6.936 29.784C6.70933 29.5347 6.42033 29.342 6.069 29.206C5.729 29.07 5.253 28.9227 4.641 28.764C3.87033 28.56 3.24133 28.356 2.754 28.152C2.278 27.9367 1.87 27.608 1.53 27.166C1.19 26.724 1.02 26.1347 1.02 25.398C1.02 24.718 1.19 24.123 1.53 23.613C1.87 23.103 2.346 22.712 2.958 22.44C3.57 22.168 4.27833 22.032 5.083 22.032C6.22767 22.032 7.16267 22.321 7.888 22.899C8.62467 23.4657 9.03267 24.2477 9.112 25.245H6.97C6.936 24.8143 6.732 24.446 6.358 24.14C5.984 23.834 5.491 23.681 4.879 23.681C4.32367 23.681 3.87033 23.8227 3.519 24.106C3.16767 24.3893 2.992 24.7973 2.992 25.33C2.992 25.6927 3.09967 25.993 3.315 26.231C3.54167 26.4577 3.825 26.639 4.165 26.775C4.505 26.911 4.96967 27.0583 5.559 27.217C6.341 27.4323 6.97567 27.6477 7.463 27.863C7.96167 28.0783 8.381 28.4127 8.721 28.866C9.07233 29.308 9.248 29.903 9.248 30.651C9.248 31.2517 9.08367 31.8183 8.755 32.351C8.43767 32.8837 7.96733 33.3143 7.344 33.643C6.732 33.9603 6.00667 34.119 5.168 34.119ZM20.2048 24.633V34H18.2668V32.895C17.9608 33.2803 17.5584 33.5863 17.0598 33.813C16.5724 34.0283 16.0511 34.136 15.4958 34.136C14.7591 34.136 14.0961 33.983 13.5068 33.677C12.9288 33.371 12.4698 32.9177 12.1298 32.317C11.8011 31.7163 11.6368 30.991 11.6368 30.141V24.633H13.5578V29.852C13.5578 30.6907 13.7674 31.3367 14.1868 31.79C14.6061 32.232 15.1784 32.453 15.9038 32.453C16.6291 32.453 17.2014 32.232 17.6208 31.79C18.0514 31.3367 18.2668 30.6907 18.2668 29.852V24.633H20.2048ZM22.3028 29.308C22.3028 28.3447 22.4955 27.5003 22.8808 26.775C23.2775 26.0383 23.8215 25.4717 24.5128 25.075C25.2041 24.6783 25.9975 24.48 26.8928 24.48C28.0261 24.48 28.9611 24.752 29.6978 25.296C30.4458 25.8287 30.9501 26.5937 31.2108 27.591H29.1198C28.9498 27.1263 28.6778 26.7637 28.3038 26.503C27.9298 26.2423 27.4595 26.112 26.8928 26.112C26.0995 26.112 25.4648 26.3953 24.9888 26.962C24.5241 27.5173 24.2918 28.2993 24.2918 29.308C24.2918 30.3167 24.5241 31.1043 24.9888 31.671C25.4648 32.2377 26.0995 32.521 26.8928 32.521C28.0148 32.521 28.7571 32.028 29.1198 31.042H31.2108C30.9388 31.994 30.4288 32.7533 29.6808 33.32C28.9328 33.8753 28.0035 34.153 26.8928 34.153C25.9975 34.153 25.2041 33.9547 24.5128 33.558C23.8215 33.15 23.2775 32.5833 22.8808 31.858C22.4955 31.1213 22.3028 30.2713 22.3028 29.308ZM32.6832 29.308C32.6832 28.3447 32.8758 27.5003 33.2612 26.775C33.6578 26.0383 34.2018 25.4717 34.8932 25.075C35.5845 24.6783 36.3778 24.48 37.2732 24.48C38.4065 24.48 39.3415 24.752 40.0782 25.296C40.8262 25.8287 41.3305 26.5937 41.5912 27.591H39.5002C39.3302 27.1263 39.0582 26.7637 38.6842 26.503C38.3102 26.2423 37.8398 26.112 37.2732 26.112C36.4798 26.112 35.8452 26.3953 35.3692 26.962C34.9045 27.5173 34.6722 28.2993 34.6722 29.308C34.6722 30.3167 34.9045 31.1043 35.3692 31.671C35.8452 32.2377 36.4798 32.521 37.2732 32.521C38.3952 32.521 39.1375 32.028 39.5002 31.042H41.5912C41.3192 31.994 40.8092 32.7533 40.0612 33.32C39.3132 33.8753 38.3838 34.153 37.2732 34.153C36.3778 34.153 35.5845 33.9547 34.8932 33.558C34.2018 33.15 33.6578 32.5833 33.2612 31.858C32.8758 31.1213 32.6832 30.2713 32.6832 29.308ZM52.2945 29.087C52.2945 29.4383 52.2719 29.7557 52.2265 30.039H45.0695C45.1262 30.787 45.4039 31.3877 45.9025 31.841C46.4012 32.2943 47.0132 32.521 47.7385 32.521C48.7812 32.521 49.5179 32.0847 49.9485 31.212H52.0395C51.7562 32.0733 51.2405 32.7817 50.4925 33.337C49.7559 33.881 48.8379 34.153 47.7385 34.153C46.8432 34.153 46.0385 33.9547 45.3245 33.558C44.6219 33.15 44.0665 32.5833 43.6585 31.858C43.2619 31.1213 43.0635 30.2713 43.0635 29.308C43.0635 28.3447 43.2562 27.5003 43.6415 26.775C44.0382 26.0383 44.5879 25.4717 45.2905 25.075C46.0045 24.6783 46.8205 24.48 47.7385 24.48C48.6225 24.48 49.4102 24.6727 50.1015 25.058C50.7929 25.4433 51.3312 25.9873 51.7165 26.69C52.1019 27.3813 52.2945 28.1803 52.2945 29.087ZM50.2715 28.475C50.2602 27.761 50.0052 27.1887 49.5065 26.758C49.0079 26.3273 48.3902 26.112 47.6535 26.112C46.9849 26.112 46.4125 26.3273 45.9365 26.758C45.4605 27.1773 45.1772 27.7497 45.0865 28.475H50.2715ZM57.7887 34.153C57.052 34.153 56.389 34.0227 55.7997 33.762C55.2217 33.49 54.7627 33.1273 54.4227 32.674C54.0827 32.2093 53.9014 31.6937 53.8787 31.127H55.8847C55.9187 31.5237 56.1057 31.858 56.4457 32.13C56.797 32.3907 57.2334 32.521 57.7547 32.521C58.2987 32.521 58.718 32.419 59.0127 32.215C59.3187 31.9997 59.4717 31.7277 59.4717 31.399C59.4717 31.0477 59.3017 30.787 58.9617 30.617C58.633 30.447 58.106 30.26 57.3807 30.056C56.678 29.8633 56.1057 29.6763 55.6637 29.495C55.2217 29.3137 54.8364 29.036 54.5077 28.662C54.1904 28.288 54.0317 27.795 54.0317 27.183C54.0317 26.6843 54.179 26.231 54.4737 25.823C54.7684 25.4037 55.1877 25.075 55.7317 24.837C56.287 24.599 56.9217 24.48 57.6357 24.48C58.701 24.48 59.5567 24.752 60.2027 25.296C60.86 25.8287 61.2114 26.5597 61.2567 27.489H59.3187C59.2847 27.0697 59.1147 26.7353 58.8087 26.486C58.5027 26.2367 58.089 26.112 57.5677 26.112C57.0577 26.112 56.6667 26.2083 56.3947 26.401C56.1227 26.5937 55.9867 26.8487 55.9867 27.166C55.9867 27.4153 56.0774 27.625 56.2587 27.795C56.44 27.965 56.661 28.101 56.9217 28.203C57.1824 28.2937 57.5677 28.4127 58.0777 28.56C58.7577 28.7413 59.313 28.9283 59.7437 29.121C60.1857 29.3023 60.5654 29.5743 60.8827 29.937C61.2 30.2997 61.3644 30.7813 61.3757 31.382C61.3757 31.9147 61.2284 32.3907 60.9337 32.81C60.639 33.2293 60.2197 33.558 59.6757 33.796C59.143 34.034 58.514 34.153 57.7887 34.153ZM67.0568 34.153C66.3201 34.153 65.6571 34.0227 65.0678 33.762C64.4898 33.49 64.0308 33.1273 63.6908 32.674C63.3508 32.2093 63.1694 31.6937 63.1468 31.127H65.1528C65.1868 31.5237 65.3738 31.858 65.7138 32.13C66.0651 32.3907 66.5014 32.521 67.0228 32.521C67.5668 32.521 67.9861 32.419 68.2808 32.215C68.5868 31.9997 68.7398 31.7277 68.7398 31.399C68.7398 31.0477 68.5698 30.787 68.2298 30.617C67.9011 30.447 67.3741 30.26 66.6488 30.056C65.9461 29.8633 65.3738 29.6763 64.9318 29.495C64.4898 29.3137 64.1044 29.036 63.7758 28.662C63.4584 28.288 63.2998 27.795 63.2998 27.183C63.2998 26.6843 63.4471 26.231 63.7418 25.823C64.0364 25.4037 64.4558 25.075 64.9998 24.837C65.5551 24.599 66.1898 24.48 66.9038 24.48C67.9691 24.48 68.8248 24.752 69.4708 25.296C70.1281 25.8287 70.4794 26.5597 70.5248 27.489H68.5868C68.5528 27.0697 68.3828 26.7353 68.0768 26.486C67.7708 26.2367 67.3571 26.112 66.8358 26.112C66.3258 26.112 65.9348 26.2083 65.6628 26.401C65.3908 26.5937 65.2548 26.8487 65.2548 27.166C65.2548 27.4153 65.3454 27.625 65.5268 27.795C65.7081 27.965 65.9291 28.101 66.1898 28.203C66.4504 28.2937 66.8358 28.4127 67.3458 28.56C68.0258 28.7413 68.5811 28.9283 69.0118 29.121C69.4538 29.3023 69.8334 29.5743 70.1508 29.937C70.4681 30.2997 70.6324 30.7813 70.6438 31.382C70.6438 31.9147 70.4964 32.3907 70.2018 32.81C69.9071 33.2293 69.4878 33.558 68.9438 33.796C68.4111 34.034 67.7821 34.153 67.0568 34.153Z" fill="white"/>
<path d="M73.7068 34.119C73.3555 34.119 73.0608 34 72.8228 33.762C72.5848 33.524 72.4658 33.2293 72.4658 32.878C72.4658 32.5267 72.5848 32.232 72.8228 31.994C73.0608 31.756 73.3555 31.637 73.7068 31.637C74.0468 31.637 74.3358 31.756 74.5738 31.994C74.8118 32.232 74.9308 32.5267 74.9308 32.878C74.9308 33.2293 74.8118 33.524 74.5738 33.762C74.3358 34 74.0468 34.119 73.7068 34.119Z" fill="#FFCC5F"/>
<path d="M5.718 40.818L4.506 45H3.894L2.922 41.634L1.914 45L1.308 45.006L0.138 40.818H0.72L1.632 44.364L2.64 40.818H3.252L4.212 44.352L5.13 40.818H5.718ZM9.78352 40.818V45H9.23752V43.104H7.10752V45H6.56152V40.818H7.10752V42.654H9.23752V40.818H9.78352ZM11.5078 41.262V42.66H13.0318V43.11H11.5078V44.55H13.2118V45H10.9618V40.812H13.2118V41.262H11.5078ZM16.486 45L15.49 43.29H14.83V45H14.284V40.818H15.634C15.95 40.818 16.216 40.872 16.432 40.98C16.652 41.088 16.816 41.234 16.924 41.418C17.032 41.602 17.086 41.812 17.086 42.048C17.086 42.336 17.002 42.59 16.834 42.81C16.67 43.03 16.422 43.176 16.09 43.248L17.14 45H16.486ZM14.83 42.852H15.634C15.93 42.852 16.152 42.78 16.3 42.636C16.448 42.488 16.522 42.292 16.522 42.048C16.522 41.8 16.448 41.608 16.3 41.472C16.156 41.336 15.934 41.268 15.634 41.268H14.83V42.852ZM18.7264 41.262V42.66H20.2504V43.11H18.7264V44.55H20.4304V45H18.1804V40.812H20.4304V41.262H18.7264ZM24.6742 45.042C24.3982 45.042 24.1502 44.994 23.9302 44.898C23.7142 44.798 23.5442 44.662 23.4202 44.49C23.2962 44.314 23.2322 44.112 23.2282 43.884H23.8102C23.8302 44.08 23.9102 44.246 24.0502 44.382C24.1942 44.514 24.4022 44.58 24.6742 44.58C24.9342 44.58 25.1382 44.516 25.2862 44.388C25.4382 44.256 25.5142 44.088 25.5142 43.884C25.5142 43.724 25.4702 43.594 25.3822 43.494C25.2942 43.394 25.1842 43.318 25.0522 43.266C24.9202 43.214 24.7422 43.158 24.5182 43.098C24.2422 43.026 24.0202 42.954 23.8522 42.882C23.6882 42.81 23.5462 42.698 23.4262 42.546C23.3102 42.39 23.2522 42.182 23.2522 41.922C23.2522 41.694 23.3102 41.492 23.4262 41.316C23.5422 41.14 23.7042 41.004 23.9122 40.908C24.1242 40.812 24.3662 40.764 24.6382 40.764C25.0302 40.764 25.3502 40.862 25.5982 41.058C25.8502 41.254 25.9922 41.514 26.0242 41.838H25.4242C25.4042 41.678 25.3202 41.538 25.1722 41.418C25.0242 41.294 24.8282 41.232 24.5842 41.232C24.3562 41.232 24.1702 41.292 24.0262 41.412C23.8822 41.528 23.8102 41.692 23.8102 41.904C23.8102 42.056 23.8522 42.18 23.9362 42.276C24.0242 42.372 24.1302 42.446 24.2542 42.498C24.3822 42.546 24.5602 42.602 24.7882 42.666C25.0642 42.742 25.2862 42.818 25.4542 42.894C25.6222 42.966 25.7662 43.08 25.8862 43.236C26.0062 43.388 26.0662 43.596 26.0662 43.86C26.0662 44.064 26.0122 44.256 25.9042 44.436C25.7962 44.616 25.6362 44.762 25.4242 44.874C25.2122 44.986 24.9622 45.042 24.6742 45.042ZM27.6496 40.818V43.464C27.6496 43.836 27.7396 44.112 27.9196 44.292C28.1036 44.472 28.3576 44.562 28.6816 44.562C29.0016 44.562 29.2516 44.472 29.4316 44.292C29.6156 44.112 29.7076 43.836 29.7076 43.464V40.818H30.2536V43.458C30.2536 43.806 30.1836 44.1 30.0436 44.34C29.9036 44.576 29.7136 44.752 29.4736 44.868C29.2376 44.984 28.9716 45.042 28.6756 45.042C28.3796 45.042 28.1116 44.984 27.8716 44.868C27.6356 44.752 27.4476 44.576 27.3076 44.34C27.1716 44.1 27.1036 43.806 27.1036 43.458V40.818H27.6496ZM31.2065 42.906C31.2065 42.498 31.2985 42.132 31.4825 41.808C31.6665 41.48 31.9165 41.224 32.2325 41.04C32.5525 40.856 32.9065 40.764 33.2945 40.764C33.7505 40.764 34.1485 40.874 34.4885 41.094C34.8285 41.314 35.0765 41.626 35.2325 42.03H34.5785C34.4625 41.778 34.2945 41.584 34.0745 41.448C33.8585 41.312 33.5985 41.244 33.2945 41.244C33.0025 41.244 32.7405 41.312 32.5085 41.448C32.2765 41.584 32.0945 41.778 31.9625 42.03C31.8305 42.278 31.7645 42.57 31.7645 42.906C31.7645 43.238 31.8305 43.53 31.9625 43.782C32.0945 44.03 32.2765 44.222 32.5085 44.358C32.7405 44.494 33.0025 44.562 33.2945 44.562C33.5985 44.562 33.8585 44.496 34.0745 44.364C34.2945 44.228 34.4625 44.034 34.5785 43.782H35.2325C35.0765 44.182 34.8285 44.492 34.4885 44.712C34.1485 44.928 33.7505 45.036 33.2945 45.036C32.9065 45.036 32.5525 44.946 32.2325 44.766C31.9165 44.582 31.6665 44.328 31.4825 44.004C31.2985 43.68 31.2065 43.314 31.2065 42.906ZM36.0872 42.906C36.0872 42.498 36.1792 42.132 36.3632 41.808C36.5472 41.48 36.7972 41.224 37.1132 41.04C37.4332 40.856 37.7872 40.764 38.1752 40.764C38.6312 40.764 39.0292 40.874 39.3692 41.094C39.7092 41.314 39.9572 41.626 40.1132 42.03H39.4592C39.3432 41.778 39.1752 41.584 38.9552 41.448C38.7392 41.312 38.4792 41.244 38.1752 41.244C37.8832 41.244 37.6212 41.312 37.3892 41.448C37.1572 41.584 36.9752 41.778 36.8432 42.03C36.7112 42.278 36.6452 42.57 36.6452 42.906C36.6452 43.238 36.7112 43.53 36.8432 43.782C36.9752 44.03 37.1572 44.222 37.3892 44.358C37.6212 44.494 37.8832 44.562 38.1752 44.562C38.4792 44.562 38.7392 44.496 38.9552 44.364C39.1752 44.228 39.3432 44.034 39.4592 43.782H40.1132C39.9572 44.182 39.7092 44.492 39.3692 44.712C39.0292 44.928 38.6312 45.036 38.1752 45.036C37.7872 45.036 37.4332 44.946 37.1132 44.766C36.7972 44.582 36.5472 44.328 36.3632 44.004C36.1792 43.68 36.0872 43.314 36.0872 42.906ZM41.718 41.262V42.66H43.242V43.11H41.718V44.55H43.422V45H41.172V40.812H43.422V41.262H41.718ZM45.8202 45.042C45.5442 45.042 45.2962 44.994 45.0762 44.898C44.8602 44.798 44.6902 44.662 44.5662 44.49C44.4422 44.314 44.3782 44.112 44.3742 43.884H44.9562C44.9762 44.08 45.0562 44.246 45.1962 44.382C45.3402 44.514 45.5482 44.58 45.8202 44.58C46.0802 44.58 46.2842 44.516 46.4322 44.388C46.5842 44.256 46.6602 44.088 46.6602 43.884C46.6602 43.724 46.6162 43.594 46.5282 43.494C46.4402 43.394 46.3302 43.318 46.1982 43.266C46.0662 43.214 45.8882 43.158 45.6642 43.098C45.3882 43.026 45.1662 42.954 44.9982 42.882C44.8342 42.81 44.6922 42.698 44.5722 42.546C44.4562 42.39 44.3982 42.182 44.3982 41.922C44.3982 41.694 44.4562 41.492 44.5722 41.316C44.6882 41.14 44.8502 41.004 45.0582 40.908C45.2702 40.812 45.5122 40.764 45.7842 40.764C46.1762 40.764 46.4962 40.862 46.7442 41.058C46.9962 41.254 47.1382 41.514 47.1702 41.838H46.5702C46.5502 41.678 46.4662 41.538 46.3182 41.418C46.1702 41.294 45.9742 41.232 45.7302 41.232C45.5022 41.232 45.3162 41.292 45.1722 41.412C45.0282 41.528 44.9562 41.692 44.9562 41.904C44.9562 42.056 44.9982 42.18 45.0822 42.276C45.1702 42.372 45.2762 42.446 45.4002 42.498C45.5282 42.546 45.7062 42.602 45.9342 42.666C46.2102 42.742 46.4322 42.818 46.6002 42.894C46.7682 42.966 46.9122 43.08 47.0322 43.236C47.1522 43.388 47.2122 43.596 47.2122 43.86C47.2122 44.064 47.1582 44.256 47.0502 44.436C46.9422 44.616 46.7822 44.762 46.5702 44.874C46.3582 44.986 46.1082 45.042 45.8202 45.042ZM49.5877 45.042C49.3117 45.042 49.0637 44.994 48.8437 44.898C48.6277 44.798 48.4577 44.662 48.3337 44.49C48.2097 44.314 48.1457 44.112 48.1417 43.884H48.7237C48.7437 44.08 48.8237 44.246 48.9637 44.382C49.1077 44.514 49.3157 44.58 49.5877 44.58C49.8477 44.58 50.0517 44.516 50.1997 44.388C50.3517 44.256 50.4277 44.088 50.4277 43.884C50.4277 43.724 50.3837 43.594 50.2957 43.494C50.2077 43.394 50.0977 43.318 49.9657 43.266C49.8337 43.214 49.6557 43.158 49.4317 43.098C49.1557 43.026 48.9337 42.954 48.7657 42.882C48.6017 42.81 48.4597 42.698 48.3397 42.546C48.2237 42.39 48.1657 42.182 48.1657 41.922C48.1657 41.694 48.2237 41.492 48.3397 41.316C48.4557 41.14 48.6177 41.004 48.8257 40.908C49.0377 40.812 49.2797 40.764 49.5517 40.764C49.9437 40.764 50.2637 40.862 50.5117 41.058C50.7637 41.254 50.9057 41.514 50.9377 41.838H50.3377C50.3177 41.678 50.2337 41.538 50.0857 41.418C49.9377 41.294 49.7417 41.232 49.4977 41.232C49.2697 41.232 49.0837 41.292 48.9397 41.412C48.7957 41.528 48.7237 41.692 48.7237 41.904C48.7237 42.056 48.7657 42.18 48.8497 42.276C48.9377 42.372 49.0437 42.446 49.1677 42.498C49.2957 42.546 49.4737 42.602 49.7017 42.666C49.9777 42.742 50.1997 42.818 50.3677 42.894C50.5357 42.966 50.6797 43.08 50.7997 43.236C50.9197 43.388 50.9797 43.596 50.9797 43.86C50.9797 44.064 50.9257 44.256 50.8177 44.436C50.7097 44.616 50.5497 44.762 50.3377 44.874C50.1257 44.986 49.8757 45.042 49.5877 45.042ZM55.9688 42.846C56.1208 42.87 56.2588 42.932 56.3828 43.032C56.5108 43.132 56.6108 43.256 56.6828 43.404C56.7588 43.552 56.7968 43.71 56.7968 43.878C56.7968 44.09 56.7428 44.282 56.6348 44.454C56.5268 44.622 56.3688 44.756 56.1608 44.856C55.9568 44.952 55.7148 45 55.4348 45H53.8748V40.818H55.3748C55.6588 40.818 55.9008 40.866 56.1008 40.962C56.3008 41.054 56.4508 41.18 56.5508 41.34C56.6508 41.5 56.7008 41.68 56.7008 41.88C56.7008 42.128 56.6328 42.334 56.4968 42.498C56.3648 42.658 56.1888 42.774 55.9688 42.846ZM54.4208 42.624H55.3388C55.5948 42.624 55.7928 42.564 55.9328 42.444C56.0728 42.324 56.1428 42.158 56.1428 41.946C56.1428 41.734 56.0728 41.568 55.9328 41.448C55.7928 41.328 55.5908 41.268 55.3268 41.268H54.4208V42.624ZM55.3868 44.55C55.6588 44.55 55.8708 44.486 56.0228 44.358C56.1748 44.23 56.2508 44.052 56.2508 43.824C56.2508 43.592 56.1708 43.41 56.0108 43.278C55.8508 43.142 55.6368 43.074 55.3688 43.074H54.4208V44.55H55.3868ZM58.3464 41.262V42.66H59.8704V43.11H58.3464V44.55H60.0504V45H57.8004V40.812H60.0504V41.262H58.3464ZM64.2906 42.03C64.1746 41.786 64.0066 41.598 63.7866 41.466C63.5666 41.33 63.3106 41.262 63.0186 41.262C62.7266 41.262 62.4626 41.33 62.2266 41.466C61.9946 41.598 61.8106 41.79 61.6746 42.042C61.5426 42.29 61.4766 42.578 61.4766 42.906C61.4766 43.234 61.5426 43.522 61.6746 43.77C61.8106 44.018 61.9946 44.21 62.2266 44.346C62.4626 44.478 62.7266 44.544 63.0186 44.544C63.4266 44.544 63.7626 44.422 64.0266 44.178C64.2906 43.934 64.4446 43.604 64.4886 43.188H62.8206V42.744H65.0706V43.164C65.0386 43.508 64.9306 43.824 64.7466 44.112C64.5626 44.396 64.3206 44.622 64.0206 44.79C63.7206 44.954 63.3866 45.036 63.0186 45.036C62.6306 45.036 62.2766 44.946 61.9566 44.766C61.6366 44.582 61.3826 44.328 61.1946 44.004C61.0106 43.68 60.9186 43.314 60.9186 42.906C60.9186 42.498 61.0106 42.132 61.1946 41.808C61.3826 41.48 61.6366 41.226 61.9566 41.046C62.2766 40.862 62.6306 40.77 63.0186 40.77C63.4626 40.77 63.8546 40.88 64.1946 41.1C64.5386 41.32 64.7886 41.63 64.9446 42.03H64.2906ZM66.5845 40.818V45H66.0385V40.818H66.5845ZM71.0491 45H70.5031L68.3071 41.67V45H67.7611V40.812H68.3071L70.5031 44.136V40.812H71.0491V45ZM73.5518 45.042C73.2758 45.042 73.0278 44.994 72.8078 44.898C72.5918 44.798 72.4218 44.662 72.2978 44.49C72.1738 44.314 72.1098 44.112 72.1058 43.884H72.6878C72.7078 44.08 72.7878 44.246 72.9278 44.382C73.0718 44.514 73.2798 44.58 73.5518 44.58C73.8118 44.58 74.0158 44.516 74.1638 44.388C74.3158 44.256 74.3918 44.088 74.3918 43.884C74.3918 43.724 74.3478 43.594 74.2598 43.494C74.1718 43.394 74.0618 43.318 73.9298 43.266C73.7978 43.214 73.6198 43.158 73.3958 43.098C73.1198 43.026 72.8978 42.954 72.7298 42.882C72.5658 42.81 72.4238 42.698 72.3038 42.546C72.1878 42.39 72.1298 42.182 72.1298 41.922C72.1298 41.694 72.1878 41.492 72.3038 41.316C72.4198 41.14 72.5818 41.004 72.7898 40.908C73.0018 40.812 73.2438 40.764 73.5158 40.764C73.9078 40.764 74.2278 40.862 74.4758 41.058C74.7278 41.254 74.8698 41.514 74.9018 41.838H74.3018C74.2818 41.678 74.1978 41.538 74.0498 41.418C73.9018 41.294 73.7058 41.232 73.4618 41.232C73.2338 41.232 73.0478 41.292 72.9038 41.412C72.7598 41.528 72.6878 41.692 72.6878 41.904C72.6878 42.056 72.7298 42.18 72.8138 42.276C72.9018 42.372 73.0078 42.446 73.1318 42.498C73.2598 42.546 73.4378 42.602 73.6658 42.666C73.9418 42.742 74.1638 42.818 74.3318 42.894C74.4998 42.966 74.6438 43.08 74.7638 43.236C74.8838 43.388 74.9438 43.596 74.9438 43.86C74.9438 44.064 74.8898 44.256 74.7818 44.436C74.6738 44.616 74.5138 44.762 74.3018 44.874C74.0898 44.986 73.8398 45.042 73.5518 45.042Z" fill="#DDCFCF"/>
</svg>
