<svg width="113" height="107" viewBox="0 0 113 107" fill="none" xmlns="http://www.w3.org/2000/svg">
<path fill-rule="evenodd" clip-rule="evenodd" d="M95.0249 3.76391C95.0249 1.68516 93.3378 0 91.2566 0C89.1754 0 87.4884 1.68516 87.4884 3.76391V11.5068C87.4884 13.5856 89.1754 15.2707 91.2566 15.2707C93.3378 15.2707 95.0249 13.5856 95.0249 11.5068V3.76391ZM91.2566 2.85728C91.7581 2.85728 92.1641 3.26317 92.1641 3.76391V11.5068C92.1641 12.0076 91.7581 12.4134 91.2566 12.4134C90.7552 12.4134 90.3491 12.0076 90.3491 11.5068V3.76391C90.3491 3.26317 90.7552 2.85728 91.2566 2.85728ZM0 30.6696C0 23.5685 5.76364 17.812 12.8734 17.812H78.6709C85.7807 17.812 91.5443 23.5685 91.5443 30.6696V42.0987H102.987C108.517 42.0987 113 46.576 113 52.0991V87.5295C113 93.0528 108.517 97.5299 102.987 97.5299H99.2596V102.706C99.2596 106.445 94.8 108.391 92.0529 105.851L83.0542 97.5299H44.3418C38.8119 97.5299 34.3291 93.0528 34.3291 87.5295V83.0142L23.2929 93.302C20.5499 95.8592 16.0739 93.9163 16.0739 90.1685V82.6721H12.8734C5.76364 82.6721 0 76.9155 0 69.8143V30.6696ZM91.5443 69.8143V44.956H102.987C106.938 44.956 110.139 48.1541 110.139 52.0991V87.5295C110.139 91.4741 106.938 94.6727 102.987 94.6727H97.8292C97.0393 94.6727 96.3989 95.3124 96.3989 96.1013V102.706C96.3989 103.952 94.9121 104.601 93.9966 103.754L84.5863 95.0528C84.3217 94.8084 83.9752 94.6727 83.6144 94.6727H44.3418C40.3919 94.6727 37.1899 91.4741 37.1899 87.5295V82.6721H78.6709C85.7807 82.6721 91.5443 76.9155 91.5443 69.8143ZM78.6709 79.8148H37.1899H34.3291H34.1324C33.7702 79.8148 33.4213 79.9521 33.1564 80.199L21.341 91.213C20.4267 92.0654 18.9347 91.4178 18.9347 90.1685V81.2435C18.9347 80.4545 18.2942 79.8148 17.5043 79.8148H12.8734C7.34357 79.8148 2.86076 75.3376 2.86076 69.8143V30.6696C2.86076 25.1465 7.34357 20.6692 12.8734 20.6692H78.6709C84.2009 20.6692 88.6836 25.1465 88.6836 30.6696V69.8143C88.6836 75.3376 84.2009 79.8148 78.6709 79.8148ZM24.7098 56.8848C28.3832 56.8848 31.3611 53.9106 31.3611 50.2417C31.3611 46.5728 28.3832 43.5985 24.7098 43.5985C21.0364 43.5985 18.0585 46.5728 18.0585 50.2417C18.0585 53.9106 21.0364 56.8848 24.7098 56.8848ZM52.4229 50.2417C52.4229 53.9106 49.445 56.8848 45.7716 56.8848C42.0982 56.8848 39.1203 53.9106 39.1203 50.2417C39.1203 46.5728 42.0982 43.5985 45.7716 43.5985C49.445 43.5985 52.4229 46.5728 52.4229 50.2417ZM66.8345 56.8848C70.5082 56.8848 73.4858 53.9106 73.4858 50.2417C73.4858 46.5728 70.5082 43.5985 66.8345 43.5985C63.1614 43.5985 60.1835 46.5728 60.1835 50.2417C60.1835 53.9106 63.1614 56.8848 66.8345 56.8848ZM94.897 19.7431C94.897 21.8218 96.584 23.5069 98.6652 23.5069H106.418C108.499 23.5069 110.186 21.8218 110.186 19.7431C110.186 17.6643 108.499 15.9792 106.418 15.9792H98.6652C96.584 15.9792 94.897 17.6643 94.897 19.7431ZM98.6652 20.6496C98.1638 20.6496 97.7577 20.2437 97.7577 19.7431C97.7577 19.2423 98.1638 18.8365 98.6652 18.8365H106.418C106.919 18.8365 107.325 19.2423 107.325 19.7431C107.325 20.2437 106.919 20.6496 106.418 20.6496H98.6652Z" fill="#F2F2FF"/>
</svg>
