<svg width="116" height="43" viewBox="0 0 116 43" fill="none" xmlns="http://www.w3.org/2000/svg">
<path d="M6.75 19.175C5.53333 19.175 4.43333 18.9667 3.45 18.55C2.48333 18.1333 1.71667 17.5333 1.15 16.75C0.583333 15.9667 0.291667 15.0417 0.275 13.975H4.025C4.075 14.6917 4.325 15.2583 4.775 15.675C5.24167 16.0917 5.875 16.3 6.675 16.3C7.49167 16.3 8.13333 16.1083 8.6 15.725C9.06667 15.325 9.3 14.8083 9.3 14.175C9.3 13.6583 9.14167 13.2333 8.825 12.9C8.50833 12.5667 8.10833 12.3083 7.625 12.125C7.15833 11.925 6.50833 11.7083 5.675 11.475C4.54167 11.1417 3.61667 10.8167 2.9 10.5C2.2 10.1667 1.59167 9.675 1.075 9.025C0.575 8.35833 0.325 7.475 0.325 6.375C0.325 5.34167 0.583333 4.44167 1.1 3.675C1.61667 2.90833 2.34167 2.325 3.275 1.925C4.20833 1.50833 5.275 1.3 6.475 1.3C8.275 1.3 9.73333 1.74167 10.85 2.625C11.9833 3.49167 12.6083 4.70833 12.725 6.275H8.875C8.84167 5.675 8.58333 5.18333 8.1 4.8C7.63333 4.4 7.00833 4.2 6.225 4.2C5.54167 4.2 4.99167 4.375 4.575 4.725C4.175 5.075 3.975 5.58333 3.975 6.25C3.975 6.71667 4.125 7.10833 4.425 7.425C4.74167 7.725 5.125 7.975 5.575 8.175C6.04167 8.35833 6.69167 8.575 7.525 8.825C8.65833 9.15833 9.58333 9.49167 10.3 9.825C11.0167 10.1583 11.6333 10.6583 12.15 11.325C12.6667 11.9917 12.925 12.8667 12.925 13.95C12.925 14.8833 12.6833 15.75 12.2 16.55C11.7167 17.35 11.0083 17.9917 10.075 18.475C9.14167 18.9417 8.03333 19.175 6.75 19.175ZM28.3594 11.775C28.3594 12.275 28.326 12.725 28.2594 13.125H18.1344C18.2177 14.125 18.5677 14.9083 19.1844 15.475C19.801 16.0417 20.5594 16.325 21.4594 16.325C22.7594 16.325 23.6844 15.7667 24.2344 14.65H28.0094C27.6094 15.9833 26.8427 17.0833 25.7094 17.95C24.576 18.8 23.1844 19.225 21.5344 19.225C20.201 19.225 19.001 18.9333 17.9344 18.35C16.8844 17.75 16.0594 16.9083 15.4594 15.825C14.876 14.7417 14.5844 13.4917 14.5844 12.075C14.5844 10.6417 14.876 9.38333 15.4594 8.3C16.0427 7.21667 16.8594 6.38333 17.9094 5.8C18.9594 5.21667 20.1677 4.925 21.5344 4.925C22.851 4.925 24.026 5.20833 25.0594 5.775C26.1094 6.34167 26.9177 7.15 27.4844 8.2C28.0677 9.23333 28.3594 10.425 28.3594 11.775ZM24.7344 10.775C24.7177 9.875 24.3927 9.15833 23.7594 8.625C23.126 8.075 22.351 7.8 21.4344 7.8C20.5677 7.8 19.8344 8.06667 19.2344 8.6C18.651 9.11667 18.2927 9.84167 18.1594 10.775H24.7344ZM33.9391 0.5V19H30.4391V0.5H33.9391ZM40.4221 0.5V19H36.9221V0.5H40.4221ZM56.2801 11.775C56.2801 12.275 56.2467 12.725 56.1801 13.125H46.0551C46.1384 14.125 46.4884 14.9083 47.1051 15.475C47.7217 16.0417 48.4801 16.325 49.3801 16.325C50.6801 16.325 51.6051 15.7667 52.1551 14.65H55.9301C55.5301 15.9833 54.7634 17.0833 53.6301 17.95C52.4967 18.8 51.1051 19.225 49.4551 19.225C48.1217 19.225 46.9217 18.9333 45.8551 18.35C44.8051 17.75 43.9801 16.9083 43.3801 15.825C42.7967 14.7417 42.5051 13.4917 42.5051 12.075C42.5051 10.6417 42.7967 9.38333 43.3801 8.3C43.9634 7.21667 44.7801 6.38333 45.8301 5.8C46.8801 5.21667 48.0884 4.925 49.4551 4.925C50.7717 4.925 51.9467 5.20833 52.9801 5.775C54.0301 6.34167 54.8384 7.15 55.4051 8.2C55.9884 9.23333 56.2801 10.425 56.2801 11.775ZM52.6551 10.775C52.6384 9.875 52.3134 9.15833 51.6801 8.625C51.0467 8.075 50.2717 7.8 49.3551 7.8C48.4884 7.8 47.7551 8.06667 47.1551 8.6C46.5717 9.11667 46.2134 9.84167 46.0801 10.775H52.6551ZM61.8598 7.3C62.3098 6.56667 62.8931 5.99167 63.6098 5.575C64.3431 5.15833 65.1764 4.95 66.1098 4.95V8.625H65.1848C64.0848 8.625 63.2514 8.88333 62.6848 9.4C62.1348 9.91667 61.8598 10.8167 61.8598 12.1V19H58.3598V5.15H61.8598V7.3ZM6.6 42.175C5.43333 42.175 4.38333 41.975 3.45 41.575C2.51667 41.1583 1.78333 40.575 1.25 39.825C0.716667 39.075 0.45 38.2 0.45 37.2H3.5C3.56667 37.95 3.85833 38.5667 4.375 39.05C4.90833 39.5333 5.65 39.775 6.6 39.775C7.58333 39.775 8.35 39.5417 8.9 39.075C9.45 38.5917 9.725 37.975 9.725 37.225C9.725 36.6417 9.55 36.1667 9.2 35.8C8.86667 35.4333 8.44167 35.15 7.925 34.95C7.425 34.75 6.725 34.5333 5.825 34.3C4.69167 34 3.76667 33.7 3.05 33.4C2.35 33.0833 1.75 32.6 1.25 31.95C0.75 31.3 0.5 30.4333 0.5 29.35C0.5 28.35 0.75 27.475 1.25 26.725C1.75 25.975 2.45 25.4 3.35 25C4.25 24.6 5.29167 24.4 6.475 24.4C8.15833 24.4 9.53333 24.825 10.6 25.675C11.6833 26.5083 12.2833 27.6583 12.4 29.125H9.25C9.2 28.4917 8.9 27.95 8.35 27.5C7.8 27.05 7.075 26.825 6.175 26.825C5.35833 26.825 4.69167 27.0333 4.175 27.45C3.65833 27.8667 3.4 28.4667 3.4 29.25C3.4 29.7833 3.55833 30.225 3.875 30.575C4.20833 30.9083 4.625 31.175 5.125 31.375C5.625 31.575 6.30833 31.7917 7.175 32.025C8.325 32.3417 9.25833 32.6583 9.975 32.975C10.7083 33.2917 11.325 33.7833 11.825 34.45C12.3417 35.1 12.6 35.975 12.6 37.075C12.6 37.9583 12.3583 38.7917 11.875 39.575C11.4083 40.3583 10.7167 40.9917 9.8 41.475C8.9 41.9417 7.83333 42.175 6.6 42.175ZM27.9629 28.225V42H25.1129V40.375C24.6629 40.9417 24.0712 41.3917 23.3379 41.725C22.6212 42.0417 21.8546 42.2 21.0379 42.2C19.9546 42.2 18.9796 41.975 18.1129 41.525C17.2629 41.075 16.5879 40.4083 16.0879 39.525C15.6046 38.6417 15.3629 37.575 15.3629 36.325V28.225H18.1879V35.9C18.1879 37.1333 18.4962 38.0833 19.1129 38.75C19.7296 39.4 20.5712 39.725 21.6379 39.725C22.7046 39.725 23.5462 39.4 24.1629 38.75C24.7962 38.0833 25.1129 37.1333 25.1129 35.9V28.225H27.9629ZM30.2982 35.1C30.2982 33.6833 30.5816 32.4417 31.1482 31.375C31.7316 30.2917 32.5316 29.4583 33.5482 28.875C34.5649 28.2917 35.7316 28 37.0482 28C38.7149 28 40.0899 28.4 41.1732 29.2C42.2732 29.9833 43.0149 31.1083 43.3982 32.575H40.3232C40.0732 31.8917 39.6732 31.3583 39.1232 30.975C38.5732 30.5917 37.8816 30.4 37.0482 30.4C35.8816 30.4 34.9482 30.8167 34.2482 31.65C33.5649 32.4667 33.2232 33.6167 33.2232 35.1C33.2232 36.5833 33.5649 37.7417 34.2482 38.575C34.9482 39.4083 35.8816 39.825 37.0482 39.825C38.6982 39.825 39.7899 39.1 40.3232 37.65H43.3982C42.9982 39.05 42.2482 40.1667 41.1482 41C40.0482 41.8167 38.6816 42.225 37.0482 42.225C35.7316 42.225 34.5649 41.9333 33.5482 41.35C32.5316 40.75 31.7316 39.9167 31.1482 38.85C30.5816 37.7667 30.2982 36.5167 30.2982 35.1ZM44.8135 35.1C44.8135 33.6833 45.0968 32.4417 45.6635 31.375C46.2468 30.2917 47.0468 29.4583 48.0635 28.875C49.0801 28.2917 50.2468 28 51.5635 28C53.2301 28 54.6051 28.4 55.6885 29.2C56.7885 29.9833 57.5301 31.1083 57.9135 32.575H54.8385C54.5885 31.8917 54.1885 31.3583 53.6385 30.975C53.0885 30.5917 52.3968 30.4 51.5635 30.4C50.3968 30.4 49.4635 30.8167 48.7635 31.65C48.0801 32.4667 47.7385 33.6167 47.7385 35.1C47.7385 36.5833 48.0801 37.7417 48.7635 38.575C49.4635 39.4083 50.3968 39.825 51.5635 39.825C53.2135 39.825 54.3051 39.1 54.8385 37.65H57.9135C57.5135 39.05 56.7635 40.1667 55.6635 41C54.5635 41.8167 53.1968 42.225 51.5635 42.225C50.2468 42.225 49.0801 41.9333 48.0635 41.35C47.0468 40.75 46.2468 39.9167 45.6635 38.85C45.0968 37.7667 44.8135 36.5167 44.8135 35.1ZM72.9037 34.775C72.9037 35.2917 72.8704 35.7583 72.8037 36.175H62.2787C62.362 37.275 62.7704 38.1583 63.5037 38.825C64.237 39.4917 65.137 39.825 66.2037 39.825C67.737 39.825 68.8204 39.1833 69.4537 37.9H72.5287C72.112 39.1667 71.3537 40.2083 70.2537 41.025C69.1704 41.825 67.8204 42.225 66.2037 42.225C64.887 42.225 63.7037 41.9333 62.6537 41.35C61.6204 40.75 60.8037 39.9167 60.2037 38.85C59.6204 37.7667 59.3287 36.5167 59.3287 35.1C59.3287 33.6833 59.612 32.4417 60.1787 31.375C60.762 30.2917 61.5704 29.4583 62.6037 28.875C63.6537 28.2917 64.8537 28 66.2037 28C67.5037 28 68.662 28.2833 69.6787 28.85C70.6954 29.4167 71.487 30.2167 72.0537 31.25C72.6204 32.2667 72.9037 33.4417 72.9037 34.775ZM69.9287 33.875C69.912 32.825 69.537 31.9833 68.8037 31.35C68.0704 30.7167 67.162 30.4 66.0787 30.4C65.0954 30.4 64.2537 30.7167 63.5537 31.35C62.8537 31.9667 62.437 32.8083 62.3037 33.875H69.9287ZM80.2334 42.225C79.1501 42.225 78.1751 42.0333 77.3084 41.65C76.4584 41.25 75.7834 40.7167 75.2834 40.05C74.7834 39.3667 74.5167 38.6083 74.4834 37.775H77.4334C77.4834 38.3583 77.7584 38.85 78.2584 39.25C78.7751 39.6333 79.4167 39.825 80.1834 39.825C80.9834 39.825 81.6001 39.675 82.0334 39.375C82.4834 39.0583 82.7084 38.6583 82.7084 38.175C82.7084 37.6583 82.4584 37.275 81.9584 37.025C81.4751 36.775 80.7001 36.5 79.6334 36.2C78.6001 35.9167 77.7584 35.6417 77.1084 35.375C76.4584 35.1083 75.8917 34.7 75.4084 34.15C74.9417 33.6 74.7084 32.875 74.7084 31.975C74.7084 31.2417 74.9251 30.575 75.3584 29.975C75.7917 29.3583 76.4084 28.875 77.2084 28.525C78.0251 28.175 78.9584 28 80.0084 28C81.5751 28 82.8334 28.4 83.7834 29.2C84.7501 29.9833 85.2667 31.0583 85.3334 32.425H82.4834C82.4334 31.8083 82.1834 31.3167 81.7334 30.95C81.2834 30.5833 80.6751 30.4 79.9084 30.4C79.1584 30.4 78.5834 30.5417 78.1834 30.825C77.7834 31.1083 77.5834 31.4833 77.5834 31.95C77.5834 32.3167 77.7167 32.625 77.9834 32.875C78.2501 33.125 78.5751 33.325 78.9584 33.475C79.3417 33.6083 79.9084 33.7833 80.6584 34C81.6584 34.2667 82.4751 34.5417 83.1084 34.825C83.7584 35.0917 84.3167 35.4917 84.7834 36.025C85.2501 36.5583 85.4917 37.2667 85.5084 38.15C85.5084 38.9333 85.2917 39.6333 84.8584 40.25C84.4251 40.8667 83.8084 41.35 83.0084 41.7C82.2251 42.05 81.3001 42.225 80.2334 42.225ZM93.1129 42.225C92.0296 42.225 91.0546 42.0333 90.1879 41.65C89.3379 41.25 88.6629 40.7167 88.1629 40.05C87.6629 39.3667 87.3962 38.6083 87.3629 37.775H90.3129C90.3629 38.3583 90.6379 38.85 91.1379 39.25C91.6546 39.6333 92.2962 39.825 93.0629 39.825C93.8629 39.825 94.4796 39.675 94.9129 39.375C95.3629 39.0583 95.5879 38.6583 95.5879 38.175C95.5879 37.6583 95.3379 37.275 94.8379 37.025C94.3546 36.775 93.5796 36.5 92.5129 36.2C91.4796 35.9167 90.6379 35.6417 89.9879 35.375C89.3379 35.1083 88.7712 34.7 88.2879 34.15C87.8212 33.6 87.5879 32.875 87.5879 31.975C87.5879 31.2417 87.8046 30.575 88.2379 29.975C88.6712 29.3583 89.2879 28.875 90.0879 28.525C90.9046 28.175 91.8379 28 92.8879 28C94.4546 28 95.7129 28.4 96.6629 29.2C97.6296 29.9833 98.1462 31.0583 98.2129 32.425H95.3629C95.3129 31.8083 95.0629 31.3167 94.6129 30.95C94.1629 30.5833 93.5546 30.4 92.7879 30.4C92.0379 30.4 91.4629 30.5417 91.0629 30.825C90.6629 31.1083 90.4629 31.4833 90.4629 31.95C90.4629 32.3167 90.5962 32.625 90.8629 32.875C91.1296 33.125 91.4546 33.325 91.8379 33.475C92.2212 33.6083 92.7879 33.7833 93.5379 34C94.5379 34.2667 95.3546 34.5417 95.9879 34.825C96.6379 35.0917 97.1962 35.4917 97.6629 36.025C98.1296 36.5583 98.3712 37.2667 98.3879 38.15C98.3879 38.9333 98.1712 39.6333 97.7379 40.25C97.3046 40.8667 96.6879 41.35 95.8879 41.7C95.1046 42.05 94.1796 42.225 93.1129 42.225Z" fill="black"/>
<path d="M102.142 42.175C101.626 42.175 101.192 42 100.842 41.65C100.492 41.3 100.317 40.8667 100.317 40.35C100.317 39.8333 100.492 39.4 100.842 39.05C101.192 38.7 101.626 38.525 102.142 38.525C102.642 38.525 103.067 38.7 103.417 39.05C103.767 39.4 103.942 39.8333 103.942 40.35C103.942 40.8667 103.767 41.3 103.417 41.65C103.067 42 102.642 42.175 102.142 42.175Z" fill="#77FF61"/>
<path d="M106.402 33.888C106.133 33.888 105.908 33.797 105.726 33.615C105.544 33.433 105.453 33.2077 105.453 32.939C105.453 32.6703 105.544 32.445 105.726 32.263C105.908 32.081 106.133 31.99 106.402 31.99C106.662 31.99 106.883 32.081 107.065 32.263C107.247 32.445 107.338 32.6703 107.338 32.939C107.338 33.2077 107.247 33.433 107.065 33.615C106.883 33.797 106.662 33.888 106.402 33.888ZM107.13 34.837V42H105.648V34.837H107.13ZM112.442 34.72C113.006 34.72 113.508 34.837 113.95 35.071C114.401 35.305 114.752 35.6517 115.003 36.111C115.255 36.5703 115.38 37.125 115.38 37.775V42H113.911V37.996C113.911 37.3547 113.751 36.865 113.43 36.527C113.11 36.1803 112.672 36.007 112.117 36.007C111.563 36.007 111.121 36.1803 110.791 36.527C110.471 36.865 110.31 37.3547 110.31 37.996V42H108.828V34.837H110.31V35.656C110.553 35.3613 110.861 35.1317 111.233 34.967C111.615 34.8023 112.018 34.72 112.442 34.72Z" fill="#252525"/>
</svg>
