<svg width="189" height="20" viewBox="0 0 189 20" fill="none" xmlns="http://www.w3.org/2000/svg">
<path d="M6.75 19.175C5.53333 19.175 4.43333 18.9667 3.45 18.55C2.48333 18.1333 1.71667 17.5333 1.15 16.75C0.583333 15.9667 0.291667 15.0417 0.275 13.975H4.025C4.075 14.6917 4.325 15.2583 4.775 15.675C5.24167 16.0917 5.875 16.3 6.675 16.3C7.49167 16.3 8.13333 16.1083 8.6 15.725C9.06667 15.325 9.3 14.8083 9.3 14.175C9.3 13.6583 9.14167 13.2333 8.825 12.9C8.50833 12.5667 8.10833 12.3083 7.625 12.125C7.15833 11.925 6.50833 11.7083 5.675 11.475C4.54167 11.1417 3.61667 10.8167 2.9 10.5C2.2 10.1667 1.59167 9.675 1.075 9.025C0.575 8.35833 0.325 7.475 0.325 6.375C0.325 5.34167 0.583333 4.44167 1.1 3.675C1.61667 2.90833 2.34167 2.325 3.275 1.925C4.20833 1.50833 5.275 1.3 6.475 1.3C8.275 1.3 9.73333 1.74167 10.85 2.625C11.9833 3.49167 12.6083 4.70833 12.725 6.275H8.875C8.84167 5.675 8.58333 5.18333 8.1 4.8C7.63333 4.4 7.00833 4.2 6.225 4.2C5.54167 4.2 4.99167 4.375 4.575 4.725C4.175 5.075 3.975 5.58333 3.975 6.25C3.975 6.71667 4.125 7.10833 4.425 7.425C4.74167 7.725 5.125 7.975 5.575 8.175C6.04167 8.35833 6.69167 8.575 7.525 8.825C8.65833 9.15833 9.58333 9.49167 10.3 9.825C11.0167 10.1583 11.6333 10.6583 12.15 11.325C12.6667 11.9917 12.925 12.8667 12.925 13.95C12.925 14.8833 12.6833 15.75 12.2 16.55C11.7167 17.35 11.0083 17.9917 10.075 18.475C9.14167 18.9417 8.03333 19.175 6.75 19.175ZM28.3594 11.775C28.3594 12.275 28.326 12.725 28.2594 13.125H18.1344C18.2177 14.125 18.5677 14.9083 19.1844 15.475C19.801 16.0417 20.5594 16.325 21.4594 16.325C22.7594 16.325 23.6844 15.7667 24.2344 14.65H28.0094C27.6094 15.9833 26.8427 17.0833 25.7094 17.95C24.576 18.8 23.1844 19.225 21.5344 19.225C20.201 19.225 19.001 18.9333 17.9344 18.35C16.8844 17.75 16.0594 16.9083 15.4594 15.825C14.876 14.7417 14.5844 13.4917 14.5844 12.075C14.5844 10.6417 14.876 9.38333 15.4594 8.3C16.0427 7.21667 16.8594 6.38333 17.9094 5.8C18.9594 5.21667 20.1677 4.925 21.5344 4.925C22.851 4.925 24.026 5.20833 25.0594 5.775C26.1094 6.34167 26.9177 7.15 27.4844 8.2C28.0677 9.23333 28.3594 10.425 28.3594 11.775ZM24.7344 10.775C24.7177 9.875 24.3927 9.15833 23.7594 8.625C23.126 8.075 22.351 7.8 21.4344 7.8C20.5677 7.8 19.8344 8.06667 19.2344 8.6C18.651 9.11667 18.2927 9.84167 18.1594 10.775H24.7344ZM33.9391 0.5V19H30.4391V0.5H33.9391ZM40.4221 0.5V19H36.9221V0.5H40.4221ZM56.2801 11.775C56.2801 12.275 56.2467 12.725 56.1801 13.125H46.0551C46.1384 14.125 46.4884 14.9083 47.1051 15.475C47.7217 16.0417 48.4801 16.325 49.3801 16.325C50.6801 16.325 51.6051 15.7667 52.1551 14.65H55.9301C55.5301 15.9833 54.7634 17.0833 53.6301 17.95C52.4967 18.8 51.1051 19.225 49.4551 19.225C48.1217 19.225 46.9217 18.9333 45.8551 18.35C44.8051 17.75 43.9801 16.9083 43.3801 15.825C42.7967 14.7417 42.5051 13.4917 42.5051 12.075C42.5051 10.6417 42.7967 9.38333 43.3801 8.3C43.9634 7.21667 44.7801 6.38333 45.8301 5.8C46.8801 5.21667 48.0884 4.925 49.4551 4.925C50.7717 4.925 51.9467 5.20833 52.9801 5.775C54.0301 6.34167 54.8384 7.15 55.4051 8.2C55.9884 9.23333 56.2801 10.425 56.2801 11.775ZM52.6551 10.775C52.6384 9.875 52.3134 9.15833 51.6801 8.625C51.0467 8.075 50.2717 7.8 49.3551 7.8C48.4884 7.8 47.7551 8.06667 47.1551 8.6C46.5717 9.11667 46.2134 9.84167 46.0801 10.775H52.6551ZM61.8598 7.3C62.3098 6.56667 62.8931 5.99167 63.6098 5.575C64.3431 5.15833 65.1764 4.95 66.1098 4.95V8.625H65.1848C64.0848 8.625 63.2514 8.88333 62.6848 9.4C62.1348 9.91667 61.8598 10.8167 61.8598 12.1V19H58.3598V5.15H61.8598V7.3ZM79.3492 19.175C78.1826 19.175 77.1326 18.975 76.1992 18.575C75.2659 18.1583 74.5326 17.575 73.9992 16.825C73.4659 16.075 73.1992 15.2 73.1992 14.2H76.2492C76.3159 14.95 76.6076 15.5667 77.1242 16.05C77.6576 16.5333 78.3992 16.775 79.3492 16.775C80.3326 16.775 81.0992 16.5417 81.6492 16.075C82.1992 15.5917 82.4742 14.975 82.4742 14.225C82.4742 13.6417 82.2992 13.1667 81.9492 12.8C81.6159 12.4333 81.1909 12.15 80.6742 11.95C80.1742 11.75 79.4742 11.5333 78.5742 11.3C77.4409 11 76.5159 10.7 75.7992 10.4C75.0992 10.0833 74.4992 9.6 73.9992 8.95C73.4992 8.3 73.2492 7.43333 73.2492 6.35C73.2492 5.35 73.4992 4.475 73.9992 3.725C74.4992 2.975 75.1992 2.4 76.0992 2C76.9992 1.6 78.0409 1.4 79.2242 1.4C80.9076 1.4 82.2826 1.825 83.3492 2.675C84.4326 3.50833 85.0326 4.65833 85.1492 6.125H81.9992C81.9492 5.49167 81.6492 4.95 81.0992 4.5C80.5492 4.05 79.8242 3.825 78.9242 3.825C78.1076 3.825 77.4409 4.03333 76.9242 4.45C76.4076 4.86667 76.1492 5.46667 76.1492 6.25C76.1492 6.78333 76.3076 7.225 76.6242 7.575C76.9576 7.90833 77.3742 8.175 77.8742 8.375C78.3742 8.575 79.0576 8.79167 79.9242 9.025C81.0742 9.34167 82.0076 9.65833 82.7242 9.975C83.4576 10.2917 84.0742 10.7833 84.5742 11.45C85.0909 12.1 85.3492 12.975 85.3492 14.075C85.3492 14.9583 85.1076 15.7917 84.6242 16.575C84.1576 17.3583 83.4659 17.9917 82.5492 18.475C81.6492 18.9417 80.5826 19.175 79.3492 19.175ZM100.712 5.225V19H97.8621V17.375C97.4121 17.9417 96.8204 18.3917 96.0871 18.725C95.3704 19.0417 94.6038 19.2 93.7871 19.2C92.7038 19.2 91.7288 18.975 90.8621 18.525C90.0121 18.075 89.3371 17.4083 88.8371 16.525C88.3538 15.6417 88.1121 14.575 88.1121 13.325V5.225H90.9371V12.9C90.9371 14.1333 91.2454 15.0833 91.8621 15.75C92.4788 16.4 93.3204 16.725 94.3871 16.725C95.4538 16.725 96.2954 16.4 96.9121 15.75C97.5454 15.0833 97.8621 14.1333 97.8621 12.9V5.225H100.712ZM103.047 12.1C103.047 10.6833 103.331 9.44167 103.897 8.375C104.481 7.29167 105.281 6.45833 106.297 5.875C107.314 5.29167 108.481 5 109.797 5C111.464 5 112.839 5.4 113.922 6.2C115.022 6.98333 115.764 8.10833 116.147 9.575H113.072C112.822 8.89167 112.422 8.35833 111.872 7.975C111.322 7.59167 110.631 7.4 109.797 7.4C108.631 7.4 107.697 7.81667 106.997 8.65C106.314 9.46667 105.972 10.6167 105.972 12.1C105.972 13.5833 106.314 14.7417 106.997 15.575C107.697 16.4083 108.631 16.825 109.797 16.825C111.447 16.825 112.539 16.1 113.072 14.65H116.147C115.747 16.05 114.997 17.1667 113.897 18C112.797 18.8167 111.431 19.225 109.797 19.225C108.481 19.225 107.314 18.9333 106.297 18.35C105.281 17.75 104.481 16.9167 103.897 15.85C103.331 14.7667 103.047 13.5167 103.047 12.1ZM117.563 12.1C117.563 10.6833 117.846 9.44167 118.413 8.375C118.996 7.29167 119.796 6.45833 120.813 5.875C121.829 5.29167 122.996 5 124.313 5C125.979 5 127.354 5.4 128.438 6.2C129.538 6.98333 130.279 8.10833 130.663 9.575H127.588C127.338 8.89167 126.938 8.35833 126.388 7.975C125.838 7.59167 125.146 7.4 124.313 7.4C123.146 7.4 122.213 7.81667 121.513 8.65C120.829 9.46667 120.488 10.6167 120.488 12.1C120.488 13.5833 120.829 14.7417 121.513 15.575C122.213 16.4083 123.146 16.825 124.313 16.825C125.963 16.825 127.054 16.1 127.588 14.65H130.663C130.263 16.05 129.513 17.1667 128.413 18C127.313 18.8167 125.946 19.225 124.313 19.225C122.996 19.225 121.829 18.9333 120.813 18.35C119.796 17.75 118.996 16.9167 118.413 15.85C117.846 14.7667 117.563 13.5167 117.563 12.1ZM145.653 11.775C145.653 12.2917 145.62 12.7583 145.553 13.175H135.028C135.111 14.275 135.52 15.1583 136.253 15.825C136.986 16.4917 137.886 16.825 138.953 16.825C140.486 16.825 141.57 16.1833 142.203 14.9H145.278C144.861 16.1667 144.103 17.2083 143.003 18.025C141.92 18.825 140.57 19.225 138.953 19.225C137.636 19.225 136.453 18.9333 135.403 18.35C134.37 17.75 133.553 16.9167 132.953 15.85C132.37 14.7667 132.078 13.5167 132.078 12.1C132.078 10.6833 132.361 9.44167 132.928 8.375C133.511 7.29167 134.32 6.45833 135.353 5.875C136.403 5.29167 137.603 5 138.953 5C140.253 5 141.411 5.28333 142.428 5.85C143.445 6.41667 144.236 7.21667 144.803 8.25C145.37 9.26667 145.653 10.4417 145.653 11.775ZM142.678 10.875C142.661 9.825 142.286 8.98333 141.553 8.35C140.82 7.71667 139.911 7.4 138.828 7.4C137.845 7.4 137.003 7.71667 136.303 8.35C135.603 8.96667 135.186 9.80833 135.053 10.875H142.678ZM152.983 19.225C151.899 19.225 150.924 19.0333 150.058 18.65C149.208 18.25 148.533 17.7167 148.033 17.05C147.533 16.3667 147.266 15.6083 147.233 14.775H150.183C150.233 15.3583 150.508 15.85 151.008 16.25C151.524 16.6333 152.166 16.825 152.933 16.825C153.733 16.825 154.349 16.675 154.783 16.375C155.233 16.0583 155.458 15.6583 155.458 15.175C155.458 14.6583 155.208 14.275 154.708 14.025C154.224 13.775 153.449 13.5 152.383 13.2C151.349 12.9167 150.508 12.6417 149.858 12.375C149.208 12.1083 148.641 11.7 148.158 11.15C147.691 10.6 147.458 9.875 147.458 8.975C147.458 8.24167 147.674 7.575 148.108 6.975C148.541 6.35833 149.158 5.875 149.958 5.525C150.774 5.175 151.708 5 152.758 5C154.324 5 155.583 5.4 156.533 6.2C157.499 6.98333 158.016 8.05833 158.083 9.425H155.233C155.183 8.80833 154.933 8.31667 154.483 7.95C154.033 7.58333 153.424 7.4 152.658 7.4C151.908 7.4 151.333 7.54167 150.933 7.825C150.533 8.10833 150.333 8.48333 150.333 8.95C150.333 9.31667 150.466 9.625 150.733 9.875C150.999 10.125 151.324 10.325 151.708 10.475C152.091 10.6083 152.658 10.7833 153.408 11C154.408 11.2667 155.224 11.5417 155.858 11.825C156.508 12.0917 157.066 12.4917 157.533 13.025C157.999 13.5583 158.241 14.2667 158.258 15.15C158.258 15.9333 158.041 16.6333 157.608 17.25C157.174 17.8667 156.558 18.35 155.758 18.7C154.974 19.05 154.049 19.225 152.983 19.225ZM165.862 19.225C164.779 19.225 163.804 19.0333 162.937 18.65C162.087 18.25 161.412 17.7167 160.912 17.05C160.412 16.3667 160.145 15.6083 160.112 14.775H163.062C163.112 15.3583 163.387 15.85 163.887 16.25C164.404 16.6333 165.045 16.825 165.812 16.825C166.612 16.825 167.229 16.675 167.662 16.375C168.112 16.0583 168.337 15.6583 168.337 15.175C168.337 14.6583 168.087 14.275 167.587 14.025C167.104 13.775 166.329 13.5 165.262 13.2C164.229 12.9167 163.387 12.6417 162.737 12.375C162.087 12.1083 161.52 11.7 161.037 11.15C160.57 10.6 160.337 9.875 160.337 8.975C160.337 8.24167 160.554 7.575 160.987 6.975C161.42 6.35833 162.037 5.875 162.837 5.525C163.654 5.175 164.587 5 165.637 5C167.204 5 168.462 5.4 169.412 6.2C170.379 6.98333 170.895 8.05833 170.962 9.425H168.112C168.062 8.80833 167.812 8.31667 167.362 7.95C166.912 7.58333 166.304 7.4 165.537 7.4C164.787 7.4 164.212 7.54167 163.812 7.825C163.412 8.10833 163.212 8.48333 163.212 8.95C163.212 9.31667 163.345 9.625 163.612 9.875C163.879 10.125 164.204 10.325 164.587 10.475C164.97 10.6083 165.537 10.7833 166.287 11C167.287 11.2667 168.104 11.5417 168.737 11.825C169.387 12.0917 169.945 12.4917 170.412 13.025C170.879 13.5583 171.12 14.2667 171.137 15.15C171.137 15.9333 170.92 16.6333 170.487 17.25C170.054 17.8667 169.437 18.35 168.637 18.7C167.854 19.05 166.929 19.225 165.862 19.225Z" fill="black"/>
<path d="M174.892 19.175C174.375 19.175 173.942 19 173.592 18.65C173.242 18.3 173.067 17.8667 173.067 17.35C173.067 16.8333 173.242 16.4 173.592 16.05C173.942 15.7 174.375 15.525 174.892 15.525C175.392 15.525 175.817 15.7 176.167 16.05C176.517 16.4 176.692 16.8333 176.692 17.35C176.692 17.8667 176.517 18.3 176.167 18.65C175.817 19 175.392 19.175 174.892 19.175Z" fill="#77FF61"/>
<path d="M179.151 10.888C178.882 10.888 178.657 10.797 178.475 10.615C178.293 10.433 178.202 10.2077 178.202 9.939C178.202 9.67033 178.293 9.445 178.475 9.263C178.657 9.081 178.882 8.99 179.151 8.99C179.411 8.99 179.632 9.081 179.814 9.263C179.996 9.445 180.087 9.67033 180.087 9.939C180.087 10.2077 179.996 10.433 179.814 10.615C179.632 10.797 179.411 10.888 179.151 10.888ZM179.879 11.837V19H178.397V11.837H179.879ZM185.192 11.72C185.755 11.72 186.258 11.837 186.7 12.071C187.15 12.305 187.501 12.6517 187.753 13.111C188.004 13.5703 188.13 14.125 188.13 14.775V19H186.661V14.996C186.661 14.3547 186.5 13.865 186.18 13.527C185.859 13.1803 185.421 13.007 184.867 13.007C184.312 13.007 183.87 13.1803 183.541 13.527C183.22 13.865 183.06 14.3547 183.06 14.996V19H181.578V11.837H183.06V12.656C183.302 12.3613 183.61 12.1317 183.983 11.967C184.364 11.8023 184.767 11.72 185.192 11.72Z" fill="#252525"/>
</svg>
