<svg width="21" height="21" viewBox="0 0 21 21" fill="none" xmlns="http://www.w3.org/2000/svg">
<path d="M4.15191 1.38301L2.44981 3.10827C1.99049 3.56268 1.62585 4.10366 1.37699 4.6999C1.12814 5.29616 1 5.93585 1 6.58196C1 7.22806 1.12814 7.86775 1.37699 8.46401C1.62585 9.06026 1.99049 9.60124 2.44981 10.0556L11.0993 18.6935C11.5537 19.1528 12.0946 19.5175 12.6909 19.7663C13.2871 20.0152 13.9269 20.1433 14.573 20.1433C15.2191 20.1433 15.8588 20.0152 16.455 19.7663C17.0513 19.5175 17.5923 19.1528 18.0466 18.6935L19.8182 16.9914C19.9391 16.8777 20.0356 16.7405 20.1013 16.5881C20.1672 16.4358 20.2013 16.2717 20.2013 16.1056C20.2013 15.9397 20.1672 15.7755 20.1013 15.6231C20.0356 15.4707 19.9391 15.3335 19.8182 15.2198L17.2245 12.6146C16.9928 12.3869 16.681 12.2593 16.3561 12.2593C16.0312 12.2593 15.7194 12.3869 15.4877 12.6146L14.6193 13.483C14.3876 13.7107 14.0758 13.8383 13.7509 13.8383C13.426 13.8383 13.1141 13.7107 12.8824 13.483L7.6256 8.27248C7.3979 8.04079 7.2703 7.72892 7.2703 7.40406C7.2703 7.0792 7.3979 6.76733 7.6256 6.53564L8.49402 5.66722C8.72172 5.43552 8.84932 5.12366 8.84932 4.7988C8.84932 4.47394 8.72172 4.16207 8.49402 3.93038L5.92349 1.38301C5.80981 1.26209 5.67256 1.16572 5.52023 1.09985C5.36789 1.03398 5.20367 1 5.0377 1C4.87173 1 4.70752 1.03398 4.55517 1.09985C4.40284 1.16572 4.26559 1.26209 4.15191 1.38301Z" stroke="white" stroke-width="1.5" stroke-linecap="round" stroke-linejoin="round"/>
</svg>
