<svg width="33" height="32" viewBox="0 0 33 32" fill="none" xmlns="http://www.w3.org/2000/svg">
<path d="M6.08869 1.60022L3.34068 4.30393C2.59913 5.01604 2.01042 5.86382 1.60865 6.79822C1.20687 7.73263 1 8.7351 1 9.74763C1 10.7602 1.20687 11.7626 1.60865 12.6971C2.01042 13.6314 2.59913 14.4792 3.34068 15.1913L17.3051 28.728C18.0387 29.4478 18.912 30.0192 19.8747 30.4092C20.8373 30.7993 21.8701 31 22.9132 31C23.9564 31 24.9892 30.7993 25.9518 30.4092C26.9145 30.0192 27.7879 29.4478 28.5214 28.728L31.3816 26.0606C31.5768 25.8824 31.7325 25.6673 31.8387 25.4285C31.945 25.1899 32 24.9326 32 24.6724C32 24.4124 31.945 24.1551 31.8387 23.9163C31.7325 23.6775 31.5768 23.4625 31.3816 23.2843L27.1942 19.2015C26.8201 18.8448 26.3167 18.6448 25.7921 18.6448C25.2676 18.6448 24.7641 18.8448 24.3901 19.2015L22.988 20.5624C22.614 20.9193 22.1105 21.1193 21.586 21.1193C21.0614 21.1193 20.558 20.9193 20.1839 20.5624L11.6969 12.3969C11.3293 12.0338 11.1233 11.5451 11.1233 11.036C11.1233 10.5269 11.3293 10.0381 11.6969 9.67505L13.0989 8.31412C13.4665 7.95103 13.6725 7.46229 13.6725 6.9532C13.6725 6.4441 13.4665 5.95537 13.0989 5.59227L8.94887 1.60022C8.76533 1.41073 8.54375 1.2597 8.29781 1.15647C8.05186 1.05326 7.78674 1 7.51878 1C7.25082 1 6.9857 1.05326 6.73975 1.15647C6.49381 1.2597 6.27223 1.41073 6.08869 1.60022Z" stroke="black" stroke-width="1.5" stroke-linecap="round" stroke-linejoin="round"/>
</svg>
