<svg width="21" height="21" viewBox="0 0 21 21" fill="none" xmlns="http://www.w3.org/2000/svg">
<path d="M9.44469 17.8888C14.1086 17.8888 17.8894 14.1081 17.8894 9.44438C17.8894 4.78068 14.1086 1 9.44469 1C4.78081 1 1 4.78068 1 9.44438C1 14.1081 4.78081 17.8888 9.44469 17.8888Z" stroke="white" stroke-width="2" stroke-linecap="round" stroke-linejoin="round"/>
<path d="M9.44469 17.8888C14.1086 17.8888 17.8894 14.1081 17.8894 9.44438C17.8894 4.78068 14.1086 1 9.44469 1C4.78081 1 1 4.78068 1 9.44438C1 14.1081 4.78081 17.8888 9.44469 17.8888Z" stroke="white" stroke-width="2" stroke-linecap="round" stroke-linejoin="round"/>
<path d="M19.998 19.9998L15.4062 15.4082" stroke="white" stroke-width="2" stroke-linecap="round" stroke-linejoin="round"/>
<path d="M19.998 19.9998L15.4062 15.4082" stroke="white" stroke-width="2" stroke-linecap="round" stroke-linejoin="round"/>
</svg>
