<svg width="16" height="15" viewBox="0 0 16 15" fill="none" xmlns="http://www.w3.org/2000/svg">
<path d="M7.27693 1.47079C7.54211 0.843071 8.45791 0.843071 8.72308 1.47079L10.0705 4.66006C10.1828 4.92577 10.44 5.10717 10.735 5.12871L14.276 5.3872C14.9729 5.43807 15.2559 6.28353 14.7228 6.72233L12.0147 8.95193C11.789 9.13766 11.6908 9.43119 11.7609 9.71023L12.6018 13.0593C12.7674 13.7184 12.0265 14.2409 11.4319 13.8844L8.4107 12.0731C8.15897 11.9222 7.84104 11.9222 7.58931 12.0731L4.56814 13.8844C3.97351 14.2409 3.23265 13.7184 3.39817 13.0593L4.23914 9.71023C4.30921 9.43119 4.21097 9.13766 3.98533 8.95193L1.27717 6.72233C0.744145 6.28353 1.02712 5.43807 1.72406 5.3872L5.26499 5.12871C5.56001 5.10717 5.81721 4.92577 5.92947 4.66006L7.27693 1.47079Z" fill="#FFF506" stroke="black"/>
</svg>
