<svg width="335" height="381" viewBox="0 0 335 381" fill="none" xmlns="http://www.w3.org/2000/svg">
<g clip-path="url(#clip0_667_1123)">
<path d="M166.095 161.929C166.095 161.929 206.562 163.875 216.555 141.498C226.549 119.121 281.515 96.2563 308.01 134.2C334.505 172.143 270.024 222.25 305.994 252.895C341.964 283.541 361.951 340.941 255.534 359.423C149.116 377.905 54.1982 303.485 33.7056 231.002C13.2129 158.518 43.2079 116.2 80.6708 111.823C118.133 107.445 115.148 161.433 166.095 161.929Z" fill="#5855CD"/>
<path d="M116.197 337.675L116.162 337.658C90.8508 325.382 70.9882 303.651 56.4362 283.311C45.4618 267.972 37.4741 253.371 32.4604 244.206C30.8294 241.224 29.5131 238.818 28.5112 237.149C26.5236 233.838 22.5339 230.699 18.1395 228.945C13.7364 227.187 9.07045 226.873 5.67671 228.991C2.31439 231.089 0.00538545 235.705 0.590522 244.267C1.17541 252.826 4.65165 265.209 12.7084 282.625C28.7779 317.363 57.8924 338.726 83.0313 349.7C95.6016 355.187 107.154 358.066 115.555 358.726C119.763 359.057 123.14 358.829 125.451 358.12C127.78 357.406 128.847 356.276 128.869 354.9C128.974 348.25 125.825 343.959 122.636 341.315C121.038 339.989 119.432 339.08 118.224 338.502C117.621 338.213 117.119 338.008 116.77 337.875C116.595 337.809 116.459 337.761 116.368 337.73C116.322 337.715 116.288 337.703 116.265 337.696L116.241 337.688L116.235 337.687L116.235 337.686L116.197 337.675ZM116.197 337.675L116.234 337.686L116.197 337.675Z" fill="#5855CD" stroke="#5855CD"/>
<path d="M179.762 363.411C249.219 363.411 305.524 357.499 305.524 350.206C305.524 342.912 249.219 337 179.762 337C110.306 337 54 342.912 54 350.206C54 357.499 110.306 363.411 179.762 363.411Z" fill="#1C1C1C" stroke="#1C1C1C" stroke-width="1.5"/>
<path d="M143.615 291.345C143.615 291.345 138.6 290.003 130.829 288.447C127.995 293.607 121.037 298.285 108.972 301.245C68.6758 311.137 74.2007 344.993 74.2098 345.069C129.814 362.335 246.469 338.938 262.892 352.291C283.918 369.409 196.702 278.922 143.615 291.345Z" fill="#F985C4"/>
<path opacity="0.53" d="M214.951 324.234C187.569 299.228 136.208 321.932 136.208 321.932C136.208 321.932 100.707 340.534 74.8867 332.217C73.9276 336.425 73.6992 340.76 74.2115 345.042C110.085 356.195 171.398 350.408 214.79 348.49C225.252 343.2 227.705 335.884 214.951 324.234Z" fill="#F743AE"/>
<path fill-rule="evenodd" clip-rule="evenodd" d="M143.615 291.345C143.615 291.345 138.6 290.003 130.829 288.447C127.995 293.607 121.037 298.285 108.972 301.245C68.6758 311.137 74.2007 344.993 74.2098 345.069C129.814 362.335 246.469 338.938 262.892 352.291C283.918 369.409 196.702 278.922 143.615 291.345Z" stroke="#1C1C1C" stroke-width="1.5"/>
<path fill-rule="evenodd" clip-rule="evenodd" d="M143.615 291.345C143.615 291.345 138.6 290.003 130.829 288.447C127.995 293.607 121.037 298.285 108.972 301.245C68.6758 311.137 74.2007 344.993 74.2098 345.069C129.814 362.335 246.469 338.938 262.892 352.291C283.918 369.409 196.702 278.922 143.615 291.345Z" stroke="#1C1C1C" stroke-width="1.5"/>
<path fill-rule="evenodd" clip-rule="evenodd" d="M143.615 291.345C143.615 291.345 138.6 290.003 130.829 288.447C127.995 293.607 121.037 298.285 108.972 301.245C68.6758 311.137 74.2007 344.993 74.2098 345.069C129.814 362.335 246.469 338.938 262.892 352.291C283.918 369.409 196.702 278.922 143.615 291.345Z" stroke="#1C1C1C" stroke-width="1.5"/>
<path d="M108.974 301.245C121.038 298.271 127.978 293.607 130.83 288.433C102.456 282.781 37.3592 274.423 45.3735 318.994C47.7205 332.06 58.5407 340.163 74.211 345.038C74.2019 344.993 68.677 311.137 108.974 301.245Z" fill="#CC178B"/>
<path opacity="0.55" d="M74.2105 345.051C73.6982 340.769 73.9266 336.434 74.8857 332.226C72.0124 331.314 69.2749 330.039 66.7427 328.434C41.0695 311.991 47.9583 296.93 57.3459 290.195C48.0366 295.378 42.7321 304.317 45.3729 319.007C47.7195 332.074 58.5402 340.177 74.2105 345.051Z" fill="#960671"/>
<path fill-rule="evenodd" clip-rule="evenodd" d="M108.974 301.245C121.038 298.271 127.978 293.607 130.83 288.433C102.456 282.781 37.3592 274.423 45.3735 318.994C47.7205 332.06 58.5407 340.163 74.211 345.038C74.2019 344.993 68.677 311.137 108.974 301.245Z" stroke="#1C1C1C" stroke-width="1.5"/>
<path d="M197.452 189.467C202.747 191.095 211.492 192.83 211.414 186.506C211.299 177.446 193.296 167.6 158.06 186.506C122.825 205.413 119.941 173.65 146.606 164.527C173.271 155.405 217.848 180.689 231.176 153.281C236.348 140.76 221.412 124.862 193.259 129.446C191.651 129.446 180.716 132.469 178.875 120.386" stroke="#E5E5E5" stroke-width="1.5" stroke-linecap="round"/>
<path d="M193.504 188.076C193.504 188.076 194.266 188.389 195.474 188.814" stroke="#1C1C1C" stroke-width="1.5" stroke-linecap="round"/>
<path d="M240.038 301.961C224.041 301.102 217.304 287.883 214.966 281.493C205.418 282.213 199.135 283.282 199.135 283.282C185.173 295.535 150.186 291.17 124.329 292.673C98.4717 294.175 73.4829 323.743 91.1923 313.833C108.902 303.924 120.021 308.637 122.606 310.985C171.221 353.74 228.239 362.54 265.854 354.46C299.963 329.458 261.164 303.092 240.038 301.961Z" fill="#F985C4"/>
<path fill-rule="evenodd" clip-rule="evenodd" d="M240.038 301.961C224.041 301.102 217.304 287.883 214.966 281.493C205.418 282.213 199.135 283.282 199.135 283.282C185.173 295.535 150.186 291.17 124.329 292.673C98.4717 294.175 73.4829 323.743 91.1923 313.833C108.902 303.924 120.021 308.637 122.606 310.985C171.221 353.74 228.239 362.54 265.854 354.46C299.963 329.458 261.164 303.092 240.038 301.961Z" stroke="#1C1C1C" stroke-width="1.5"/>
<path d="M304.797 311.816C290.697 280.192 240.839 279.543 214.973 281.493C217.31 287.883 224.048 301.102 240.044 301.961C261.171 303.092 299.988 329.458 265.86 354.451C295.694 348.038 313.316 330.978 304.797 311.816Z" fill="#CC178B"/>
<path opacity="0.55" d="M293.599 297.225C293.599 297.278 306.794 327.459 278.595 338.518C277.074 343.718 273.12 349.116 265.836 354.451C295.688 348.038 313.315 330.978 304.773 311.816C302.249 306.181 298.426 301.188 293.599 297.225Z" fill="#960671"/>
<path fill-rule="evenodd" clip-rule="evenodd" d="M304.797 311.816C290.697 280.192 240.839 279.543 214.973 281.493C217.31 287.883 224.048 301.102 240.044 301.961C261.171 303.092 299.988 329.458 265.86 354.451C295.694 348.038 313.316 330.978 304.797 311.816Z" stroke="#1C1C1C" stroke-width="1.5"/>
<path d="M186.71 199.891C186.71 199.891 222.561 220.533 232.904 256.11C243.246 291.688 219.125 302.452 219.125 302.452C219.125 302.452 115.881 299.916 106.058 287.664C96.2335 275.411 140.682 200.213 170.76 195.866C184.469 195.177 186.71 199.891 186.71 199.891Z" fill="white" stroke="#1C1C1C" stroke-width="1.5"/>
<path d="M210.838 231.261C219.541 244.623 221.741 265.895 221.86 267.116C254.377 262.349 274.186 282.369 274.217 282.392C275.434 277.549 275.026 271.659 272.55 264.504C250.482 200.718 187.397 195.866 187.397 195.866C186.019 196.537 180.926 204.761 180.926 204.761" fill="white"/>
<path opacity="0.25" d="M178.149 214.746C178.149 214.746 187.022 214.142 188.763 206.424C190.504 198.706 193.356 202.507 193.2 204.465C193.044 206.424 193.921 200.297 193.273 196.702C192.855 196.188 188.763 195.996 188.763 195.996C188.763 195.996 172.069 211.432 178.149 214.746Z" fill="#FFCC71"/>
<path opacity="0.25" d="M193.271 196.703C193.473 198.308 195.815 219.147 180.071 220.439C180.071 220.439 178.262 220.242 179.355 223.261C180.448 226.279 197.854 218.341 198.943 207.43C200.031 196.519 227.041 211.522 224.97 223.909C222.898 236.296 264.269 245.861 263.751 270.027C263.718 271.481 263.287 272.9 262.501 274.137C270.065 278.215 274.199 282.383 274.208 282.392C275.425 277.549 275.017 271.659 272.541 264.504C254.584 212.573 209.437 199.699 193.271 196.703Z" fill="#FFCC71"/>
<path d="M210.838 231.261C219.541 244.623 221.741 265.895 221.86 267.116C254.377 262.349 274.186 282.369 274.217 282.392C275.434 277.549 275.026 271.659 272.55 264.504C250.482 200.718 187.397 195.866 187.397 195.866C186.019 196.537 180.926 204.761 180.926 204.761" stroke="#1C1C1C" stroke-width="1.5" stroke-linecap="round"/>
<path opacity="0.25" d="M221.861 267.116C221.741 265.895 219.541 244.623 210.838 231.261C211.155 231.761 216.698 255.185 199.719 266.382C182.74 277.58 219.532 273.09 221.861 267.116Z" fill="#FFCC71"/>
<path d="M152.926 292.686C152.926 292.686 264.593 320.724 274.21 282.4C274.21 282.4 254.379 262.358 221.853 267.125V267.183L152.926 292.686Z" fill="#F985C4"/>
<path opacity="0.53" d="M262.501 274.123C252.691 289.851 187.722 288.477 161.797 294.694C188.412 300.373 266.249 314.101 274.208 282.383C274.199 282.383 270.065 278.215 262.501 274.123Z" fill="#F743AE"/>
<path fill-rule="evenodd" clip-rule="evenodd" d="M152.926 292.686C152.926 292.686 264.593 320.724 274.21 282.4C274.21 282.4 254.379 262.358 221.853 267.125V267.183L152.926 292.686Z" stroke="#1C1C1C" stroke-width="1.5"/>
<path d="M178.875 220.493V266.043" stroke="#1C1C1C" stroke-width="1.5" stroke-linecap="round"/>
<path d="M188 184.942C188 184.942 192.67 212.466 178.874 214.648C165.077 216.83 172.316 182.258 172.316 182.258L188 184.942Z" fill="#F985C4"/>
<path d="M170.418 193.836C172.572 195.401 179.7 199.962 188.761 195.995C188.907 192.295 188.652 188.59 187.999 184.941L182.841 184.047C181.739 184.192 180.681 184.562 179.736 185.133C175.993 187.423 172.847 188.631 171.129 189.641C171.015 190.549 170.514 192.816 170.418 193.836Z" fill="#1C1C1C"/>
<path fill-rule="evenodd" clip-rule="evenodd" d="M188 184.942C188 184.942 192.67 212.466 178.874 214.648C165.077 216.83 172.316 182.258 172.316 182.258L188 184.942Z" stroke="#1C1C1C" stroke-width="1.5"/>
<path d="M162.311 157.408C162.311 157.408 163.657 161.522 159.634 163.311C155.61 165.1 160.208 171.758 163.083 171.924C165.958 172.089 161.131 177.531 166.358 177.084C171.584 176.637 179.401 158.177 172.852 153.647C166.303 149.117 158.747 154.966 162.311 157.408Z" fill="#F22F2F" stroke="#1C1C1C" stroke-width="1.5"/>
<path d="M169.585 157.976C169.585 157.976 155.22 193.183 177.627 194.435C188.889 194.435 196.586 180.228 190.611 159.425C184.636 138.622 169.585 157.976 169.585 157.976Z" fill="#F985C4"/>
<path opacity="0.53" d="M190.613 159.425C189.717 156.295 188.615 154.09 187.398 152.574C185.171 151.214 182.66 150.355 180.049 150.061C174.634 151.479 169.578 157.976 169.578 157.976C169.578 157.976 169.119 159.148 168.457 161.062C171.589 161.849 175.59 162.256 178.993 160.691C185.749 157.587 182.97 170.672 187.82 172.644C192.67 174.616 191.843 185.523 182.906 193.282L183.002 193.237C183.526 192.968 184.045 192.678 184.559 192.365C191.659 187.714 195.242 175.551 190.613 159.425Z" fill="#F743AE"/>
<path fill-rule="evenodd" clip-rule="evenodd" d="M169.585 157.976C169.585 157.976 155.22 193.183 177.627 194.435C188.889 194.435 196.586 180.228 190.611 159.425C184.636 138.622 169.585 157.976 169.585 157.976Z" stroke="#1C1C1C" stroke-width="1.5"/>
<path d="M169.358 195.419C141.379 195.866 106.043 222.169 93.6337 249.13C82.0141 274.374 91.6313 289.216 105.809 292.681C105.23 279.262 129.856 237.128 169.358 195.419Z" fill="white"/>
<path opacity="0.25" d="M105.777 275.272C79.8416 272.822 100.385 237.767 101.29 236.251C98.3145 240.286 95.7507 244.593 93.6337 249.112C82.0141 274.356 91.6313 289.198 105.809 292.664C105.648 288.903 107.467 282.884 111.045 275.223C109.295 275.419 107.53 275.435 105.777 275.272Z" fill="#FFCC71"/>
<path fill-rule="evenodd" clip-rule="evenodd" d="M169.358 195.419C141.379 195.866 106.043 222.169 93.6337 249.13C82.0141 274.374 91.6313 289.216 105.809 292.681C105.23 279.262 129.856 237.128 169.358 195.419Z" stroke="#1C1C1C" stroke-width="1.5"/>
<path d="M193.259 196.595C193.259 196.595 196.446 219.093 180.073 220.439C163.7 221.785 166.024 200.548 166.024 200.548" stroke="#1C1C1C" stroke-width="1.5"/>
<path d="M169.771 202.574C169.567 202.657 169.375 202.767 169.202 202.9C150.762 213.946 159.709 245.669 141.714 276.1C133.305 290.316 117.892 295.633 105.799 292.681C105.221 279.266 111.77 243.666 151.267 201.939C155.093 197.914 159.075 194.784 163.622 190.666C168.334 186.015 163.162 195.343 165.064 194.337C166.965 193.331 171.434 191.618 173.79 191.842C176.146 192.065 169.367 195.419 169.367 195.419C169.367 195.419 176.063 192.289 176.444 193.492C176.674 194.225 173.487 196.009 171.723 196.751C170.543 197.253 169.537 197.601 169.537 197.601C169.767 197.548 175.655 196.367 175.76 197.4C175.866 198.433 169.813 200.007 169.813 200.007C169.813 200.007 178.415 198.656 169.771 202.574Z" fill="#F985C4"/>
<path opacity="0.53" d="M169.801 199.989C169.801 199.989 175.855 198.42 175.749 197.382C175.736 197.304 175.692 197.235 175.625 197.19C171.492 197.963 159.046 201.742 151.086 219.737C141.685 240.982 132.757 275.876 107.823 275.384C106.087 282.807 105.637 288.706 105.807 292.663C117.899 295.615 133.312 290.298 141.722 276.082C159.716 245.673 150.77 213.923 169.209 202.882C169.381 202.756 169.569 202.652 169.77 202.574C178.413 198.656 169.801 199.989 169.801 199.989Z" fill="#F743AE"/>
<path fill-rule="evenodd" clip-rule="evenodd" d="M169.771 202.574C169.567 202.657 169.375 202.767 169.202 202.9C150.762 213.946 159.709 245.669 141.714 276.1C133.305 290.316 117.892 295.633 105.799 292.681C105.221 279.266 111.77 243.666 151.267 201.939C155.093 197.914 159.075 194.784 163.622 190.666C168.334 186.015 163.162 195.343 165.064 194.337C166.965 193.331 171.434 191.618 173.79 191.842C176.146 192.065 169.367 195.419 169.367 195.419C169.367 195.419 176.063 192.289 176.444 193.492C176.674 194.225 173.487 196.009 171.723 196.751C170.543 197.253 169.537 197.601 169.537 197.601C169.767 197.548 175.655 196.367 175.76 197.4C175.866 198.433 169.813 200.007 169.813 200.007C169.813 200.007 178.415 198.656 169.771 202.574Z" stroke="#1C1C1C" stroke-width="1.5"/>
<path d="M218.252 297.377C218.252 297.377 232.728 273.882 229.274 254.412C220.833 254.076 136.203 254.412 136.203 254.412C136.203 254.412 137.062 281.936 149.821 295.865C166.712 299.228 218.252 297.377 218.252 297.377Z" fill="#FFCC71"/>
<path opacity="0.74" d="M229.279 254.421C226.523 254.313 215.561 254.273 202.086 254.273C210.472 255.842 223.056 259.366 223.134 266.383C223.249 276.909 207.735 271.704 208.943 282.034C210.15 292.364 154.905 285.415 149.664 294.926C149.571 295.098 149.5 295.279 149.453 295.468C149.577 295.606 149.696 295.745 149.825 295.883C155.86 297.082 166.317 297.618 177.267 297.811C194.926 296.612 215.028 294.613 218.261 297.364C218.481 297.006 232.691 273.739 229.279 254.421Z" fill="#F9A45F"/>
<path fill-rule="evenodd" clip-rule="evenodd" d="M218.252 297.377C218.252 297.377 232.728 273.882 229.274 254.412C220.833 254.076 136.203 254.412 136.203 254.412C136.203 254.412 137.062 281.936 149.821 295.865C166.712 299.228 218.252 297.377 218.252 297.377Z" stroke="#1C1C1C" stroke-width="1.5"/>
<path d="M178.304 123.516C180.422 123.516 182.139 121.845 182.139 119.783C182.139 117.72 180.422 116.048 178.304 116.048C176.186 116.048 174.469 117.72 174.469 119.783C174.469 121.845 176.186 123.516 178.304 123.516Z" fill="#1C1C1C" stroke="#1C1C1C" stroke-width="1.5"/>
<path d="M218.258 294.618H150.68C148.779 294.618 147.238 296.118 147.238 297.969V298.976C147.238 300.827 148.779 302.327 150.68 302.327H218.258C220.159 302.327 221.7 300.827 221.7 298.976V297.969C221.7 296.118 220.159 294.618 218.258 294.618Z" fill="#FFCC71"/>
<path opacity="0.74" d="M149.453 301.929C149.995 302.189 150.59 302.325 151.194 302.327H217.738C219.924 302.327 221.697 300.601 221.697 298.472C221.697 296.343 219.924 294.618 217.738 294.618H201.562C206.43 295.378 215.189 294.993 213.379 298.893C212.047 301.764 151.621 296.858 149.453 301.929Z" fill="#F9A45F"/>
<path d="M218.258 294.618H150.68C148.779 294.618 147.238 296.118 147.238 297.969V298.976C147.238 300.827 148.779 302.327 150.68 302.327H218.258C220.159 302.327 221.7 300.827 221.7 298.976V297.969C221.7 296.118 220.159 294.618 218.258 294.618Z" stroke="#1C1C1C" stroke-width="1.5"/>
<path d="M192.689 172.912C191.88 161.447 187.742 161.223 188.096 164.018C188.45 166.813 190.278 173.409 188.096 171.406C186.534 169.961 184.734 162.954 183.838 159.09C183.705 158.518 183.305 158.038 182.756 157.794C182.207 157.551 181.573 157.57 181.041 157.847C176.596 160.141 166.138 163.875 155.345 155.741C141.108 145.008 155.575 126.316 166.033 131.687C176.49 137.057 176.26 148.581 183.944 141.31C191.628 134.039 200.019 132.469 203.234 140.523C206.448 148.577 192.087 158.764 199.559 160.199C199.918 160.253 204.528 160.669 203.234 164.51C201.938 168.351 196.767 170.448 199.784 172.295C202.802 174.142 194.342 179.428 192.67 176.615C192.657 174.742 192.689 172.912 192.689 172.912Z" fill="#FC5151"/>
<path d="M203.256 140.523C201.267 135.555 197.313 134.262 192.766 135.689C196.298 135.769 200.62 136.797 200.67 141.31C200.753 148.943 190.07 148.523 192.137 154.984C194.204 161.446 188.431 162.117 187.397 158.593C186.364 155.07 181.537 153.281 176.885 156.398C172.232 159.514 166.482 160.583 159.023 158.084C168.443 163.029 177.096 159.872 181.032 157.847C181.564 157.57 182.198 157.55 182.746 157.794C183.295 158.038 183.695 158.517 183.829 159.09C184.725 162.953 186.525 169.961 188.086 171.405C190.268 173.417 188.431 166.817 188.086 164.018C187.742 161.218 191.88 161.446 192.679 172.912C192.679 172.912 192.647 174.741 192.679 176.633C194.351 179.445 202.811 174.16 199.793 172.313C196.776 170.466 201.947 168.369 203.242 164.527C204.538 160.686 199.922 160.27 199.568 160.217C192.109 158.75 206.471 148.581 203.256 140.523Z" fill="#F22F2F"/>
<path fill-rule="evenodd" clip-rule="evenodd" d="M192.689 172.912C191.88 161.447 187.742 161.223 188.096 164.018C188.45 166.813 190.278 173.409 188.096 171.406C186.534 169.961 184.734 162.954 183.838 159.09C183.705 158.518 183.305 158.038 182.756 157.794C182.207 157.551 181.573 157.57 181.041 157.847C176.596 160.141 166.138 163.875 155.345 155.741C141.108 145.008 155.575 126.316 166.033 131.687C176.49 137.057 176.26 148.581 183.944 141.31C191.628 134.039 200.019 132.469 203.234 140.523C206.448 148.577 192.087 158.764 199.559 160.199C199.918 160.253 204.528 160.669 203.234 164.51C201.938 168.351 196.767 170.448 199.784 172.295C202.802 174.142 194.342 179.428 192.67 176.615C192.657 174.742 192.689 172.912 192.689 172.912Z" stroke="#1C1C1C" stroke-width="1.5"/>
<g filter="url(#filter0_d_667_1123)">
<path d="M209.988 56.6674C209.992 42.2881 199.819 29.8021 185.438 26.5336C171.056 23.265 156.258 30.0757 149.723 42.9704C143.189 55.8653 146.64 71.4443 158.053 80.5693C161.672 83.405 163.792 87.6734 163.827 92.196V100.286H192.609V92.3255C192.616 87.7803 194.719 83.4777 198.336 80.605C205.719 74.7376 209.998 65.9466 209.988 56.6674Z" fill="#F9B630"/>
</g>
<path opacity="0.58" d="M176.976 25.7576C175.892 25.7985 174.811 25.8941 173.738 26.0439C179.006 27.3094 197.657 32.7516 200.61 46.5426C204.059 62.6414 184.994 73.7316 187.75 83.6901C190.506 93.6489 165.429 91.7976 163.836 100.276H192.618V92.3251C192.626 87.78 194.728 83.4778 198.346 80.6047C208.916 72.1838 212.775 58.1269 207.931 45.6935C203.086 33.2603 190.623 25.2332 176.976 25.7576Z" fill="#FC7E1F"/>
<path fill-rule="evenodd" clip-rule="evenodd" d="M209.988 56.6674C209.992 42.2881 199.819 29.8021 185.438 26.5336C171.056 23.265 156.258 30.0757 149.723 42.9704C143.189 55.8653 146.64 71.4443 158.053 80.5693C161.672 83.405 163.792 87.6734 163.827 92.196V100.286H192.609V92.3255C192.616 87.7803 194.719 83.4777 198.336 80.605C205.719 74.7376 209.998 65.9463 209.988 56.6674Z" stroke="#1C1C1C" stroke-width="1.5"/>
<path d="M163.828 100.276H192.611V107.176C192.611 110.853 191.11 114.379 188.44 116.979C185.77 119.578 182.149 121.039 178.373 121.039H178.102C174.326 121.039 170.705 119.578 168.035 116.979C165.365 114.379 163.865 110.853 163.865 107.176V100.276H163.828Z" fill="#BABABA"/>
<path opacity="0.65" d="M179.875 105.057C180.739 106.51 185.736 106.568 185.91 107.968C186.085 109.368 180.22 109.229 180.105 109.605C179.99 109.98 184.413 113.455 181.597 114.152C178.782 114.85 175.737 116.804 177.29 119.21C178.764 121.495 171.47 119.277 170.727 119.045C172.94 120.359 175.482 121.055 178.075 121.057H178.346C182.122 121.057 185.743 119.596 188.413 116.996C191.083 114.397 192.583 110.871 192.583 107.194V100.276H184.468C183.191 100.898 182.397 101.358 182.397 101.358C182.397 101.358 179.007 103.603 179.875 105.057Z" fill="#898989"/>
<path fill-rule="evenodd" clip-rule="evenodd" d="M163.828 100.276H192.611V107.176C192.611 110.853 191.11 114.379 188.44 116.979C185.77 119.578 182.149 121.039 178.373 121.039H178.102C174.326 121.039 170.705 119.578 168.035 116.979C165.365 114.379 163.865 110.853 163.865 107.176V100.276H163.828Z" stroke="#1C1C1C" stroke-width="1.5"/>
<path d="M161.113 105.057H195.324" stroke="#1C1C1C" stroke-width="1.5" stroke-linecap="round"/>
<path d="M161.113 109.605H195.324" stroke="#1C1C1C" stroke-width="1.5" stroke-linecap="round"/>
<path d="M161.113 114.153H195.324" stroke="#1C1C1C" stroke-width="1.5" stroke-linecap="round"/>
<path d="M178.218 101.408C186.167 101.408 192.611 100.901 192.611 100.276C192.611 99.6512 186.167 99.145 178.218 99.145C170.268 99.145 163.824 99.6512 163.824 100.276C163.824 100.901 170.268 101.408 178.218 101.408Z" fill="#1C1C1C" stroke="#1C1C1C" stroke-width="1.5"/>
<path d="M176.558 100.276L166.711 59.9985C166.711 59.9985 173.692 52.611 178.693 56.725C183.695 60.8394 179.984 63.88 177.573 62.1807C175.162 60.4813 184.811 52.1954 191.103 58.9076C189.119 68.3879 181.192 100.021 181.192 100.021" stroke="#1C1C1C" stroke-width="1.5"/>
<path d="M174.76 167.694C174.76 167.694 171.77 176.973 173.148 177.425C174.526 177.876 176.56 177.076 176.56 177.076" fill="#F985C4"/>
<path d="M174.76 167.694C174.76 167.694 171.77 176.973 173.148 177.425C174.526 177.876 176.56 177.076 176.56 177.076" stroke="#1C1C1C" stroke-width="1.5" stroke-linecap="round"/>
<path opacity="0.82" d="M179.899 266.042C178.866 266.044 177.841 266.21 176.863 266.534C179.332 268.32 179.92 271.68 178.199 274.162C176.478 276.643 173.057 277.367 170.434 275.805C170.734 280.822 175.104 284.682 180.262 284.486C185.42 284.29 189.468 280.11 189.365 275.085C189.262 270.059 185.047 266.039 179.885 266.042H179.899Z" fill="white"/>
<path d="M171.609 184.329C171.609 184.329 177.98 184.718 180.51 182.817L171.609 184.329Z" fill="#F985C4"/>
<path d="M171.609 184.329C171.609 184.329 177.98 184.718 180.51 182.817" stroke="#1C1C1C" stroke-width="1.5" stroke-linecap="round"/>
<g filter="url(#filter1_d_667_1123)">
<path d="M217.043 66.7954H241.518" stroke="white" stroke-width="1.5" stroke-linecap="round" shape-rendering="crispEdges"/>
</g>
<g filter="url(#filter2_d_667_1123)">
<path d="M211.082 31.8083L230.652 17.5029" stroke="white" stroke-width="1.5" stroke-linecap="round" shape-rendering="crispEdges"/>
</g>
<g filter="url(#filter3_d_667_1123)">
<path d="M228.035 106.295L208.461 91.9854" stroke="white" stroke-width="1.5" stroke-linecap="round" shape-rendering="crispEdges"/>
</g>
<g filter="url(#filter4_d_667_1123)">
<path d="M138.084 66.7954H113.609" stroke="white" stroke-width="1.5" stroke-linecap="round" shape-rendering="crispEdges"/>
</g>
<g filter="url(#filter5_d_667_1123)">
<path d="M144.046 31.8083L124.477 17.5029" stroke="white" stroke-width="1.5" stroke-linecap="round" shape-rendering="crispEdges"/>
</g>
<g filter="url(#filter6_d_667_1123)">
<path d="M127.094 106.295L146.668 91.9854" stroke="white" stroke-width="1.5" stroke-linecap="round" shape-rendering="crispEdges"/>
</g>
<g filter="url(#filter7_d_667_1123)">
<path d="M177.871 19.4659V0.335449" stroke="white" stroke-width="1.5" stroke-linecap="round" shape-rendering="crispEdges"/>
</g>
<path d="M180.498 180.971C180.498 180.971 180.273 183.095 181.417 183.989L180.498 180.971Z" fill="#F985C4"/>
<path d="M180.498 180.971C180.498 180.971 180.273 183.095 181.417 183.989" stroke="#1C1C1C" stroke-width="1.5" stroke-linecap="round"/>
<path opacity="0.53" d="M267.74 352.988C268.043 352.747 268.341 352.506 268.631 352.264C268.81 352.116 268.98 351.969 269.149 351.817C269.402 351.598 269.65 351.37 269.894 351.164L270.413 350.69C270.638 350.484 270.872 350.279 271.065 350.073L271.575 349.577C271.772 349.38 271.96 349.178 272.153 348.982C272.346 348.785 272.479 348.642 272.636 348.472C272.792 348.302 272.971 348.096 273.136 347.909C273.471 347.533 273.793 347.153 274.096 346.777L274.408 346.392C274.587 346.16 274.757 345.945 274.927 345.699L275.198 345.333C275.368 345.091 275.529 344.854 275.685 344.617L275.901 344.291C276.066 344.036 276.222 343.785 276.36 343.535L276.507 343.285C276.668 343.012 276.824 342.734 276.966 342.457L276.994 342.404C277.665 341.163 278.209 339.861 278.62 338.518C273.485 340.53 266.987 341.912 258.779 342.359C223.732 344.273 180.923 318.976 142.524 310.01C121.664 303.449 102.058 304.447 90.9614 307.953C84.1045 314.084 82.5616 318.685 91.2141 313.829C108.919 303.919 120.043 308.632 122.628 310.98C125.214 313.328 127.859 315.452 130.505 317.554C153.863 336.058 178.77 347.193 202.28 352.747L202.431 352.783C203.088 352.939 203.745 353.087 204.401 353.23L204.686 353.292L206.56 353.695L206.928 353.776L208.732 354.138L209.164 354.218C209.747 354.334 210.331 354.442 210.909 354.549L211.369 354.634L213.073 354.929L213.573 355.014L215.245 355.283L215.769 355.358L217.422 355.6L217.936 355.672C218.487 355.748 219.038 355.824 219.585 355.891L220.081 355.953L221.739 356.155L222.198 356.204L223.889 356.383L224.251 356.419L226.024 356.58H226.166C228.824 356.806 231.448 356.962 234.038 357.049H234.273L235.719 357.089H236.353H237.639H238.411H240.454H241.589H242.475L243.564 357.058L244.482 357.027L245.529 356.982L246.448 356.937L247.463 356.879L248.413 356.821L249.396 356.749L250.361 356.678L251.311 356.593L252.285 356.503L253.204 356.414L254.182 356.307L255.101 356.204L256.079 356.083L256.951 355.971L257.944 355.833L258.784 355.712C259.124 355.663 259.459 355.604 259.799 355.551L260.589 355.426L261.645 355.247L262.371 355.117L263.538 354.898L264.125 354.786C264.704 354.67 265.282 354.554 265.857 354.428C266.352 354.066 266.83 353.699 267.299 353.337L267.74 352.988Z" fill="#F743AE"/>
<path d="M152.148 144.834C152.148 144.834 151.978 138.287 155.597 136.02C159.216 133.752 153.443 141.56 156.456 141.645C159.469 141.73 151.803 150.37 152.148 144.834Z" fill="white"/>
<path d="M158.061 137.366C158.061 137.366 159.82 134.441 161.276 135.609C162.732 136.776 157.505 139.968 158.061 137.366Z" fill="white"/>
<path d="M159.026 197.208C159.026 197.208 149.813 203.419 149.381 208.204C148.949 212.989 155.071 201.317 156.27 202.704C157.469 204.09 161.529 195.325 159.026 197.208Z" fill="white"/>
<path d="M147.605 209.344C147.605 209.344 144.477 212.381 144.652 213.641C144.826 214.903 149.364 210.86 147.605 209.344Z" fill="white"/>
<path d="M144.564 257.188C144.564 257.188 139.219 256.518 139.306 259.791C139.393 263.065 141.878 266.003 141.111 269.106C140.344 272.21 146.117 270.054 144.22 263.118C142.323 256.182 148.271 259.626 144.564 257.188Z" fill="white"/>
<path d="M150.682 257.524C150.682 257.524 146.631 256.267 147.238 257.944C147.844 259.621 152.836 260.297 150.682 257.524Z" fill="white"/>
<path d="M90.2707 286.054C90.2707 286.054 69.6037 286.054 63.0407 291.09C56.4776 296.125 70.2925 294.112 73.9483 291.09C77.6042 288.067 97.0817 286.73 90.2707 286.054Z" fill="white"/>
<path d="M60.702 296.63C58.581 295.417 55.875 295.839 54.2491 297.636C51.1447 300.74 65.3452 299.648 60.702 296.63Z" fill="white"/>
<path d="M112.364 299.51C112.364 299.51 121.09 295.194 122.591 297.801C124.093 300.409 110.641 301.746 112.364 299.51Z" fill="white"/>
<path d="M125.347 297.824C125.347 297.824 128.451 297.073 127.762 299.421C127.073 301.768 123.165 298.441 125.347 297.824Z" fill="white"/>
<path d="M232.44 270.099C232.44 270.099 241.626 269.316 241.626 271.664C241.626 274.012 232.693 271.36 233.479 274.123C234.264 276.887 227.848 271.441 232.44 270.099Z" fill="white"/>
<path d="M152.923 296.384C152.923 296.384 149.134 296.384 148.79 298.803C148.446 301.223 158.774 296.187 152.592 296.965" fill="white"/>
<path d="M48.2033 306.768C47.1559 310.694 46.6876 315.769 48.704 320.867" stroke="white" stroke-width="1.5" stroke-linecap="round"/>
<path d="M49.4429 303.083C49.2361 303.584 49.0293 304.121 48.832 304.702" stroke="white" stroke-width="1.5" stroke-linecap="round"/>
<path d="M51.2314 299.496C50.8453 300.127 50.4943 300.778 50.1797 301.446" stroke="white" stroke-width="1.5" stroke-linecap="round"/>
<path d="M119.466 254.483C119.135 255.377 118.832 256.272 118.547 257.135" stroke="white" stroke-width="1.5" stroke-linecap="round"/>
<path d="M136.828 224.039C132.015 230.854 125.273 241.113 121.094 250.508" stroke="white" stroke-width="1.5" stroke-linecap="round"/>
<path d="M139.378 220.497L138.312 221.968" stroke="white" stroke-width="1.5" stroke-linecap="round"/>
<path d="M142.558 216.271C142.558 216.271 141.979 217.004 140.996 218.315" stroke="white" stroke-width="1.5" stroke-linecap="round"/>
<path d="M195.535 137.979C195.973 137.81 196.449 137.762 196.913 137.84" stroke="white" stroke-width="1.5" stroke-linecap="round"/>
<path d="M170.719 138.681C172.232 140.344 173.495 142.208 174.471 144.217C178.062 151.371 187.445 142.589 193.255 139.101" stroke="white" stroke-width="1.5" stroke-linecap="round"/>
<path d="M168.324 136.543C168.692 136.811 169.073 137.115 169.463 137.46" stroke="white" stroke-width="1.5" stroke-linecap="round"/>
<path d="M163.828 134.481C164.516 134.597 165.186 134.803 165.817 135.094" stroke="white" stroke-width="1.5" stroke-linecap="round"/>
<path d="M173.414 207.395C174.094 209.527 175.49 211.866 178.319 211.611" stroke="white" stroke-width="1.5" stroke-linecap="round"/>
<path d="M172.785 204.184C172.828 204.729 172.903 205.271 173.01 205.807" stroke="white" stroke-width="1.5" stroke-linecap="round"/>
<path d="M164.82 257.135H184.468" stroke="white" stroke-width="1.5" stroke-linecap="round"/>
<path d="M158.398 257.135H161.498" stroke="white" stroke-width="1.5" stroke-linecap="round"/>
<path d="M153.844 257.135H155.984" stroke="white" stroke-width="1.5" stroke-linecap="round"/>
<path d="M166.629 296.384H187.397" stroke="white" stroke-width="1.5" stroke-linecap="round"/>
<path d="M160.91 296.384H163.381" stroke="white" stroke-width="1.5" stroke-linecap="round"/>
<path d="M155.801 296.384H158.06" stroke="white" stroke-width="1.5" stroke-linecap="round"/>
<path d="M250.309 272.947C253.891 274.145 258.396 276.077 261.855 278.922" stroke="white" stroke-width="1.5" stroke-linecap="round"/>
<path d="M244.273 271.315C244.273 271.315 245.431 271.53 247.227 272.017" stroke="white" stroke-width="1.5" stroke-linecap="round"/>
<path d="M265.845 299.997C265.845 299.997 270.378 299.693 273.267 292.923C276.156 286.152 277.332 299.38 272.275 303.449C267.219 307.519 261.758 302.112 265.845 299.997Z" fill="white"/>
<path d="M277.067 299.322C277.067 299.322 274.578 303.49 275.85 303.767C277.122 304.044 279.501 298.593 277.067 299.322Z" fill="white"/>
<path d="M258.41 306.146C259.585 305.833 260.731 305.424 261.836 304.925" stroke="white"/>
<path d="M250.98 307.483C252.455 307.317 253.878 307.112 255.229 306.866" stroke="white"/>
<path d="M224.023 307.586C229.213 307.948 238.9 308.422 247.667 307.783" stroke="white"/>
<path d="M220.23 307.287L221.7 307.412" stroke="white"/>
<path d="M94.9976 308.163C94.437 308.575 93.8676 309.01 93.2891 309.469" stroke="white"/>
<path d="M108.107 301.299C108.107 301.299 103.579 302.283 96.8828 306.826" stroke="white"/>
<path d="M267.824 264.178C268.256 265.439 268.68 266.746 269.096 268.1" stroke="#1C1C1C"/>
<path d="M265.273 257.408C265.659 258.335 266.04 259.292 266.417 260.279" stroke="#1C1C1C"/>
<path d="M247.227 231.681C247.227 231.681 256.191 236.833 264.316 255.172" stroke="#1C1C1C"/>
<path d="M191.151 207.068C191.018 207.618 190.857 208.186 190.691 208.772" stroke="#1C1C1C"/>
<path d="M191.535 198.5C191.535 198.5 192.164 200.884 191.609 204.734" stroke="#1C1C1C"/>
<path d="M131.816 282.682C132.171 282.303 132.506 281.906 132.817 281.493" stroke="#1C1C1C"/>
<path d="M129.211 284.878C129.671 284.565 130.13 284.234 130.534 283.881" stroke="#1C1C1C"/>
<path d="M110.641 290.106C110.641 290.106 119.55 289.913 126.637 286.385" stroke="#1C1C1C"/>
<path d="M301.618 328.957C299.969 333.209 296.447 337.789 289.434 341.688" stroke="#1C1C1C"/>
<path d="M302.873 320.983C302.946 322.328 302.88 323.676 302.676 325.008" stroke="#1C1C1C"/>
<path d="M301.613 315.063C301.958 315.901 302.226 316.768 302.412 317.652" stroke="#1C1C1C"/>
<path d="M298.285 292.664C298.285 292.664 312.982 301.678 314.139 317.656" stroke="#1C1C1C"/>
<path d="M99.7495 228.019C99.7495 228.019 80.8781 246.509 83.8631 270.501" stroke="#1C1C1C"/>
<path d="M36.7539 310.345C36.7539 310.345 38.0445 332.052 53.8298 340.329" stroke="#1C1C1C"/>
<path d="M229.812 204.998C229.812 204.998 241.978 212.578 244.275 216.271" stroke="#1C1C1C"/>
<path d="M178.219 28.8658C178.219 28.8658 165.607 27.1889 158.061 37.7603C150.515 48.3315 158.874 46.0599 160.941 42.0353C163.007 38.0107 168.611 31.5445 177.874 32.3851C187.138 33.2259 181.36 28.9329 178.219 28.8658Z" fill="white"/>
<path d="M156.113 48.9221C156.113 48.9221 152.669 46.8247 150.942 51.1043C149.215 55.384 152.407 57.9818 154.221 57.1455C156.035 56.3096 158.616 48.5866 156.113 48.9221Z" fill="white"/>
<path d="M166.805 90.1655C166.851 91.0597 166.832 91.5877 166.832 91.5877" stroke="white" stroke-width="1.5" stroke-linecap="round"/>
<path d="M154.25 71.9248C155.53 74.051 157.455 75.7383 159.761 76.7542C164.322 78.7711 165.957 83.8377 166.54 87.4867" stroke="white" stroke-width="1.5" stroke-linecap="round"/>
<path d="M152.32 67.1089C152.505 67.8884 152.739 68.6562 153.023 69.4073" stroke="white" stroke-width="1.5" stroke-linecap="round"/>
<path d="M151.772 62.1807C151.749 62.9796 151.785 63.7793 151.878 64.5732" stroke="white" stroke-width="1.5" stroke-linecap="round"/>
<path d="M165.639 101.868C165.639 101.868 164.518 102.794 164.822 103.925C165.125 105.057 167.536 102.834 168.312 103.38C169.088 103.925 169.084 101.282 165.639 101.868Z" fill="white"/>
<path d="M164.902 106.296C164.902 106.296 164.557 108.58 165.678 108.706C166.799 108.831 165.981 106.153 164.902 106.296Z" fill="white"/>
<path d="M169.772 102.539C169.705 102.836 169.77 103.146 169.95 103.394C170.13 103.641 170.408 103.804 170.718 103.841C171.885 104.011 171.499 102.499 169.772 102.539Z" fill="white"/>
<path d="M166.215 111.143C166.215 111.143 168.782 119.827 179.993 119.112" stroke="white" stroke-width="1.5" stroke-linecap="round"/>
<path d="M184.623 167.404C184.653 166.659 183.03 165.991 180.997 165.912C178.965 165.834 177.292 166.374 177.262 167.119C177.231 167.864 178.855 168.533 180.887 168.611C182.92 168.69 184.593 168.15 184.623 167.404Z" fill="white" stroke="#161616" stroke-width="1.5"/>
<path d="M180.992 168.355C181.715 168.355 182.301 167.785 182.301 167.081C182.301 166.377 181.715 165.807 180.992 165.807C180.269 165.807 179.684 166.377 179.684 167.081C179.684 167.785 180.269 168.355 180.992 168.355Z" fill="#161616"/>
<path d="M172.799 167.013C172.829 166.268 171.206 165.6 169.174 165.521C167.141 165.442 165.469 165.983 165.438 166.728C165.408 167.473 167.031 168.141 169.063 168.22C171.096 168.299 172.768 167.759 172.799 167.013Z" fill="white" stroke="#161616" stroke-width="1.5"/>
<path d="M169.106 167.975C169.829 167.975 170.415 167.405 170.415 166.701C170.415 165.997 169.829 165.426 169.106 165.426C168.383 165.426 167.797 165.997 167.797 166.701C167.797 167.405 168.383 167.975 169.106 167.975Z" fill="#161616"/>
</g>
<defs>
<filter id="filter0_d_667_1123" x="142.441" y="25.7207" width="71.5469" height="82.5649" filterUnits="userSpaceOnUse" color-interpolation-filters="sRGB">
<feFlood flood-opacity="0" result="BackgroundImageFix"/>
<feColorMatrix in="SourceAlpha" type="matrix" values="0 0 0 0 0 0 0 0 0 0 0 0 0 0 0 0 0 0 127 0" result="hardAlpha"/>
<feOffset dy="4"/>
<feGaussianBlur stdDeviation="2"/>
<feComposite in2="hardAlpha" operator="out"/>
<feColorMatrix type="matrix" values="0 0 0 0 0 0 0 0 0 0 0 0 0 0 0 0 0 0 0.25 0"/>
<feBlend mode="normal" in2="BackgroundImageFix" result="effect1_dropShadow_667_1123"/>
<feBlend mode="normal" in="SourceGraphic" in2="effect1_dropShadow_667_1123" result="shape"/>
</filter>
<filter id="filter1_d_667_1123" x="212.293" y="66.0454" width="33.9727" height="9.5" filterUnits="userSpaceOnUse" color-interpolation-filters="sRGB">
<feFlood flood-opacity="0" result="BackgroundImageFix"/>
<feColorMatrix in="SourceAlpha" type="matrix" values="0 0 0 0 0 0 0 0 0 0 0 0 0 0 0 0 0 0 127 0" result="hardAlpha"/>
<feOffset dy="4"/>
<feGaussianBlur stdDeviation="2"/>
<feComposite in2="hardAlpha" operator="out"/>
<feColorMatrix type="matrix" values="0 0 0 0 0 0 0 0 0 0 0 0 0 0 0 0 0 0 0.25 0"/>
<feBlend mode="normal" in2="BackgroundImageFix" result="effect1_dropShadow_667_1123"/>
<feBlend mode="normal" in="SourceGraphic" in2="effect1_dropShadow_667_1123" result="shape"/>
</filter>
<filter id="filter2_d_667_1123" x="206.332" y="16.7529" width="29.0703" height="23.8057" filterUnits="userSpaceOnUse" color-interpolation-filters="sRGB">
<feFlood flood-opacity="0" result="BackgroundImageFix"/>
<feColorMatrix in="SourceAlpha" type="matrix" values="0 0 0 0 0 0 0 0 0 0 0 0 0 0 0 0 0 0 127 0" result="hardAlpha"/>
<feOffset dy="4"/>
<feGaussianBlur stdDeviation="2"/>
<feComposite in2="hardAlpha" operator="out"/>
<feColorMatrix type="matrix" values="0 0 0 0 0 0 0 0 0 0 0 0 0 0 0 0 0 0 0.25 0"/>
<feBlend mode="normal" in2="BackgroundImageFix" result="effect1_dropShadow_667_1123"/>
<feBlend mode="normal" in="SourceGraphic" in2="effect1_dropShadow_667_1123" result="shape"/>
</filter>
<filter id="filter3_d_667_1123" x="203.711" y="91.2354" width="29.0742" height="23.8101" filterUnits="userSpaceOnUse" color-interpolation-filters="sRGB">
<feFlood flood-opacity="0" result="BackgroundImageFix"/>
<feColorMatrix in="SourceAlpha" type="matrix" values="0 0 0 0 0 0 0 0 0 0 0 0 0 0 0 0 0 0 127 0" result="hardAlpha"/>
<feOffset dy="4"/>
<feGaussianBlur stdDeviation="2"/>
<feComposite in2="hardAlpha" operator="out"/>
<feColorMatrix type="matrix" values="0 0 0 0 0 0 0 0 0 0 0 0 0 0 0 0 0 0 0.25 0"/>
<feBlend mode="normal" in2="BackgroundImageFix" result="effect1_dropShadow_667_1123"/>
<feBlend mode="normal" in="SourceGraphic" in2="effect1_dropShadow_667_1123" result="shape"/>
</filter>
<filter id="filter4_d_667_1123" x="108.859" y="66.0454" width="33.9727" height="9.5" filterUnits="userSpaceOnUse" color-interpolation-filters="sRGB">
<feFlood flood-opacity="0" result="BackgroundImageFix"/>
<feColorMatrix in="SourceAlpha" type="matrix" values="0 0 0 0 0 0 0 0 0 0 0 0 0 0 0 0 0 0 127 0" result="hardAlpha"/>
<feOffset dy="4"/>
<feGaussianBlur stdDeviation="2"/>
<feComposite in2="hardAlpha" operator="out"/>
<feColorMatrix type="matrix" values="0 0 0 0 0 0 0 0 0 0 0 0 0 0 0 0 0 0 0.25 0"/>
<feBlend mode="normal" in2="BackgroundImageFix" result="effect1_dropShadow_667_1123"/>
<feBlend mode="normal" in="SourceGraphic" in2="effect1_dropShadow_667_1123" result="shape"/>
</filter>
<filter id="filter5_d_667_1123" x="119.727" y="16.7529" width="29.0703" height="23.8057" filterUnits="userSpaceOnUse" color-interpolation-filters="sRGB">
<feFlood flood-opacity="0" result="BackgroundImageFix"/>
<feColorMatrix in="SourceAlpha" type="matrix" values="0 0 0 0 0 0 0 0 0 0 0 0 0 0 0 0 0 0 127 0" result="hardAlpha"/>
<feOffset dy="4"/>
<feGaussianBlur stdDeviation="2"/>
<feComposite in2="hardAlpha" operator="out"/>
<feColorMatrix type="matrix" values="0 0 0 0 0 0 0 0 0 0 0 0 0 0 0 0 0 0 0.25 0"/>
<feBlend mode="normal" in2="BackgroundImageFix" result="effect1_dropShadow_667_1123"/>
<feBlend mode="normal" in="SourceGraphic" in2="effect1_dropShadow_667_1123" result="shape"/>
</filter>
<filter id="filter6_d_667_1123" x="122.344" y="91.2354" width="29.0742" height="23.8101" filterUnits="userSpaceOnUse" color-interpolation-filters="sRGB">
<feFlood flood-opacity="0" result="BackgroundImageFix"/>
<feColorMatrix in="SourceAlpha" type="matrix" values="0 0 0 0 0 0 0 0 0 0 0 0 0 0 0 0 0 0 127 0" result="hardAlpha"/>
<feOffset dy="4"/>
<feGaussianBlur stdDeviation="2"/>
<feComposite in2="hardAlpha" operator="out"/>
<feColorMatrix type="matrix" values="0 0 0 0 0 0 0 0 0 0 0 0 0 0 0 0 0 0 0.25 0"/>
<feBlend mode="normal" in2="BackgroundImageFix" result="effect1_dropShadow_667_1123"/>
<feBlend mode="normal" in="SourceGraphic" in2="effect1_dropShadow_667_1123" result="shape"/>
</filter>
<filter id="filter7_d_667_1123" x="173.121" y="-0.414551" width="9.5" height="28.6304" filterUnits="userSpaceOnUse" color-interpolation-filters="sRGB">
<feFlood flood-opacity="0" result="BackgroundImageFix"/>
<feColorMatrix in="SourceAlpha" type="matrix" values="0 0 0 0 0 0 0 0 0 0 0 0 0 0 0 0 0 0 127 0" result="hardAlpha"/>
<feOffset dy="4"/>
<feGaussianBlur stdDeviation="2"/>
<feComposite in2="hardAlpha" operator="out"/>
<feColorMatrix type="matrix" values="0 0 0 0 0 0 0 0 0 0 0 0 0 0 0 0 0 0 0.25 0"/>
<feBlend mode="normal" in2="BackgroundImageFix" result="effect1_dropShadow_667_1123"/>
<feBlend mode="normal" in="SourceGraphic" in2="effect1_dropShadow_667_1123" result="shape"/>
</filter>
<clipPath id="clip0_667_1123">
<rect width="335" height="381" fill="white"/>
</clipPath>
</defs>
</svg>
